<?xml version="1.0" standalone="no"?>
<!DOCTYPE svg PUBLIC "-//W3C//DTD SVG 1.1//EN" "http://www.w3.org/Graphics/SVG/1.1/DTD/svg11.dtd" >
<svg>
<metadata>
Created by FontForge 20090914 at Sun Jan 26 12:29:27 2020
 By www-data
Copyright (c) TypographerMediengestaltung, 2000. All rights reserved.
</metadata>
<defs>
<font id="OldeEnglish-Regular" horiz-adv-x="400" >
  <font-face 
    font-family="Olde English"
    font-weight="400"
    font-stretch="normal"
    units-per-em="1000"
    panose-1="2 0 5 6 2 0 0 2 0 4"
    ascent="800"
    descent="-200"
    x-height="376.998"
    cap-height="666.001"
    bbox="-149 -245 1415 867.998"
    underline-thickness="24"
    underline-position="-37"
    unicode-range="U+0019-U+E003"
  />
<missing-glyph horiz-adv-x="500" 
d="M63 0h375v667h-375v-667zM125 63v541h250v-541h-250z" />
    <glyph glyph-name=".notdef" horiz-adv-x="500" 
d="M63 0h375v667h-375v-667zM125 63v541h250v-541h-250z" />
    <glyph glyph-name="fraction" horiz-adv-x="200" 
d="M-149 -29h70l499 759h-70z" />
    <glyph glyph-name="fi" horiz-adv-x="446" 
d="M18 32l15.0029 -18l36 30l56 -55l91 76l-15 18l-30 -25l-25 23v239c27.333 0 40 -0.333008 38 -1c13.333 1.33301 22.666 8 27.999 20l28 60l-21 10l-14 -29h-59v168c6.66699 4.66699 13.667 10.667 21 18c25.333 -25.333 44.666 -38 57.999 -38
c15.333 0 32.333 8.66699 51 26l20 23l20 23l-16 17c-18.667 -22.667 -32 -34 -40 -34c-12.667 0 -31 24 -55 72c-33.333 -65.333 -87.333 -111.333 -162 -138l9 -21l24 9v-125c-16.667 0 -26.334 -0.666992 -29.001 -2c-7.33301 -2 -13.333 -9 -18 -21l-29 -63l21 -10
l17 36h38v-239zM300.003 287v-192c0 -49.333 14.667 -84.666 44 -105.999l90 78l-15 18l-26 -23c-15.333 11.333 -23 32.666 -23 63.999v166l50 45l-15 17l-31 -25l-56 51l-91 -79l15 -18l31 27zM275.003 485l57 -51l79 70l-15 18l-20 -17l-56 50l-81 -70l15 -18z" />
    <glyph glyph-name="fl" horiz-adv-x="443" 
d="M244 34l15.0049 -18.999l34 28l58 -54l91 80l-16 17l-32 -30l-23 22v443c0 39.333 10.667 73.666 32 102.999l-16 13c-32.667 -34.667 -53.667 -67.334 -63 -98.001c-1.33301 8.66699 -2.83301 17.834 -4.5 27.501s-3.83398 20.167 -6.50098 31.5l3 2l-4 4v3l-2 -1
l-10 11c-18.667 -22.667 -32 -34 -40 -34c-12.667 0 -31 24 -55 72c-33.333 -65.333 -87.333 -111.333 -162 -138l9 -21l24 9v-125c-16.667 0 -26.334 -0.666992 -29.001 -2c-7.33301 -2 -13.333 -9 -18 -21l-29 -63l21 -10l17 36h38v-239l-58 -49l15 -18l36 30l56 -55
l91 76l-15 18l-30 -25l-25 23v239c27.333 0 40 -0.333008 38 -1c13.333 1.33301 22.666 8 27.999 20l28 60l-21 10l-14 -29h-59v168c6.66699 4.66699 13.667 10.667 21 18c25.333 -25.333 44.666 -38 57.999 -38c19.333 0 42.666 16 69.999 48
c3.33301 -15.333 5 -31.333 5 -48v-446z" />
    <glyph glyph-name="Lslash" horiz-adv-x="570" 
d="M12 550c0 -31.333 16.335 -62.335 49.002 -93.002l16 16c-25.333 21.333 -38 45.333 -38 72c0 13.333 4.16699 24.833 12.5 34.5s19.166 14.5 32.499 14.5c12 0 31 -4.66699 57 -14c24 -8.66699 43 -13 57 -13c19.333 0 41.666 9 66.999 27
c1.33301 0.666992 6.66602 4.83398 15.999 12.501l42 34.5l-15 16c-21.333 -16 -39.666 -24 -54.999 -24l-57 18c-34 10.667 -60 16 -78 16c-28 0 -52.667 -12.667 -74 -38s-32 -51.666 -32 -78.999zM570.002 333.998l-2.00098 58.001l-85 -33v28l20 18l-28 30l-31 -30
l16 -18v-37l-115 -44v281c18.667 16.667 34 25 46 25c22.667 0 53 -26.333 91 -79l90 88l-15 16l-23 -21c-33.333 34 -64.666 51 -93.999 51c-24 0 -48 -10 -72 -30l-99 -82v-278l-40 -16v268l14 12l-14 18l-76 -61v-125c-61.333 0 -92 -28.667 -92 -86
c0 -16 3.66699 -35.667 11 -59l25 10c-4 8 -6 16.333 -6 25c0 12 3.66699 22.333 11 31s16.666 13 27.999 13c7.33301 0 15 -3 23 -9v-66l-153 -59v-55l153 58v-34l-32 -26l14 -18l94 75v32l40 15v-36l-29 -23l15 -19l90 74v33l115 43v-186
c-43.333 16 -86.666 24 -129.999 24c-75.333 0 -138.666 -20.667 -189.999 -62s-77 -91.333 -77 -150c0 -44.667 17.333 -81.334 52 -110.001c33.333 -27.333 72.333 -41 117 -41c26.667 0 53 6 79 18l-8 21c-30 -10.667 -56.333 -16 -79 -16c-34.667 0 -66 13 -94 39
c-27.333 26 -41 56.333 -41 91c0 44.667 19.667 80.667 59 108c34.667 24 75.667 36 123 36c84 0 154.667 -29.667 212 -89l98 97l-17 17l-28 -29c-8.66699 7.33301 -17.334 14 -26.001 20s-17.667 11.333 -27 16v205z" />
    <glyph glyph-name="lslash" horiz-adv-x="211" 
d="M211 298v70.002l-72 -55v208c0 39.333 11 73.666 33 102.999l-16 13c-32.667 -34.667 -53.667 -67.334 -63 -98.001l-5 29c-2 11.333 -4.66699 24.333 -8 39l-22 -7c7.33301 -29.333 11 -53.333 11 -72v-270l-69 -53v-67l69 52v-108l-57 -48l16 -19l34 28l57 -54l92 80
l-16 17l-33 -30l-23 22v166z" />
    <glyph glyph-name="Zcaron" horiz-adv-x="523" 
d="M6 -7l13.0039 -17.998c71.333 39.333 141.666 59 210.999 59s134.333 -19.667 195 -59l82 123l-18 14l-27 -42c-38 26 -81 39 -129 39c-62.667 0 -148 -26.667 -256 -80c73.333 55.333 119.333 97 138 125l45.5 78.5c13 22.333 23.5 41.166 31.5 56.499h124
c13.333 0 23 6.66699 29 20l44 100l-22 10l-22 -54h-117c1.33301 1.33301 2.16602 2.66602 2.49902 3.99902s0.833008 2.33301 1.5 3l45 93c32.667 66.667 79.334 121.334 140.001 164.001l-10 26c-64.667 -40.667 -131 -61 -199 -61c-70.667 0 -126.334 24.333 -167.001 73
l-83 -123l19 -13l26 39c40 -30 82.333 -45 127 -45c41.333 0 101.666 17.333 180.999 52c-21.333 -16.667 -40.333 -32.834 -57 -48.501s-31 -31.167 -43 -46.5c-26.667 -32 -51.334 -71 -74.001 -117h-127c-16.667 0 -27.667 -6.66699 -33 -20l-40 -98l21 -9l19 51h124
c-56.667 -124 -121.667 -222.667 -195 -296zM425.004 830.002l-17 17.001l-74 -80c-32 53.333 -84.333 80 -157 80v-21c53.333 -6 80 -35 80 -87c0 -6.66699 -1 -15.334 -3 -26.001l83 23z" />
    <glyph glyph-name="zcaron" horiz-adv-x="298" 
d="M12 15l20.001 -15c20 22 48.333 33 85 33c33.333 0 69.666 -14.667 108.999 -44l60 85l-19 13l-16 -23c-27.333 15.333 -53 23 -77 23c-32 0 -69.333 -13.333 -112 -40l87 118c44 0 69.667 2 77 6c6 3.33301 20.333 22.333 43 57l-19 14l-21 -30h-46l103 145l-18 14
c-19.333 -19.333 -46 -29 -80 -29c-36 0 -68.667 12.667 -98 38l-70 -100l19 -13l21 31c22.667 -12.667 45 -19 67 -19c30.667 0 63.667 12.333 99 37l-72 -104h-58c-12.667 0 -34 -23 -64 -69l19 -13l25 35h44zM303.001 550l-17 17.001l-74 -80
c-32 53.333 -84.333 80 -157 80v-21c53.333 -6 80 -35 80 -87c0 -6.66699 -1 -15.334 -3 -26.001l83 23z" />
    <glyph glyph-name="space" unicode=" " horiz-adv-x="310" 
 />
    <glyph glyph-name="exclam" unicode="!" horiz-adv-x="238" 
d="M86 521l24.001 -369.001l25 15l31 365c14.667 6.66699 32 19.334 52 38.001l-15 18c-8.66699 -8.66699 -19 -13 -31 -13c-20.667 0 -39.334 13 -56.001 39l-98 -82l15 -18l27 22c9.33301 -7.33301 18 -12.333 26 -15zM115.001 112.999l-93 -79l15 -18l29 25l57 -52l97 81
l-15 18l-33 -28z" />
    <glyph glyph-name="quotedbl" unicode="&#x22;" horiz-adv-x="351" 
d="M84 425l43 31l14 238l-71 -30zM224 425l43 31l14 238l-70 -30z" />
    <glyph glyph-name="numbersign" unicode="#" 
d="M20 188h83l-28 -199l47 16l25 183h79l-28 -199l46 16l26 183h66l23 40h-83l14 100h66l23 41h-84l27 186l-47 -17l-23 -169h-79l26 186l-46 -17l-24 -169h-66l-23 -41h83l-14 -100h-66zM153 228l14 100h79l-14 -100h-79z" />
    <glyph glyph-name="dollar" unicode="$" 
d="M15 -38c0 -39.333 14.667 -71.998 44 -97.998c26.667 -24 60.334 -38 101.001 -42v23c-30.667 0 -58.334 11.333 -83.001 34c-24 22.667 -36 49 -36 79c0 28 10.333 50.333 31 67c19.333 15.333 44 23 74 23v-142h23v142c24 -2.66699 46.667 -11.334 68 -26.001v-116h23
v100l22 -16l77 135c17.333 31.333 26 56.666 26 75.999c0 36 -12.333 64 -37 84c-16.667 14 -46 27 -88 39v120c4.66699 -7.33301 8.66699 -14 12 -20s6.33301 -10.667 9 -14l93 93l-17 17l-28 -29c-20 26 -43 43.667 -69 53v75h-23v-68c-10 1.33301 -18 2.33301 -24 3
s-10.333 1 -13 1c-8 0 -18.333 -1 -31 -3v67h-23v-73c-70 -26 -105 -71 -105 -135s35 -108.333 105 -133v-177c-37.333 -7.33301 -68 -23 -92 -47c-26 -25.333 -39 -56 -39 -92zM237 100.002l-68 3v167l68 -20v-150zM304 76.002l-44 18v148c52.667 -12.667 79 -40 79 -82
c0 -14.667 -11.667 -42.667 -35 -84zM146 512.002v-151.999c-42.667 18 -64 44.667 -64 80c0 19.333 5.83301 36.166 17.5 50.499s27.167 21.5 46.5 21.5zM237 331.003l-68.001 21v159c26.667 -4 49.334 -17 68.001 -39v-141z" />
    <glyph glyph-name="percent" unicode="%" horiz-adv-x="485" 
d="M17 363l14 -14l16 14l43 -29c23.333 23.333 52.666 35 87.999 35c1.33301 0 4.16602 -0.166992 8.49902 -0.5s9.83301 -0.833008 16.5 -1.5v20c-3.33301 0.666992 -5.66602 1 -6.99902 1h-2h-2c-0.666992 0 -2 -0.333008 -4 -1v183l24 21l-14 14l-14 -13l-41 28
c-16 -16 -33.333 -26.333 -52 -31c-11.333 -2.66699 -31.666 -4 -60.999 -4v-19l13 -1v-180zM112 374l-24.002 16.002v177c10.667 2.66699 21.667 6.66699 33 12l23 -15v-180c-5.33301 -0.666992 -10.666 -1.83398 -15.999 -3.50098s-10.666 -3.83398 -15.999 -6.50098z
M74.998 7.00195l362 653h-27l-361 -653h26zM272.998 77.002l13.999 -14l16 14l43 -29c23.333 23.333 52.333 35 87 35c2 0 5 -0.166992 9 -0.5s9.33301 -0.833008 16 -1.5v20c-2.66699 0.666992 -4.66699 1 -6 1h-2h-2c-0.666992 0 -2 -0.333008 -4 -1v183l24 21l-14 14
l-15 -13l-41 28c-23.333 -23.333 -60.666 -35 -111.999 -35v-19l13 -1v-180zM367.997 88.002l-24.999 16v177c13.333 4 24.666 8 33.999 12l22 -15v-180c-7.33301 -2 -13.5 -3.83301 -18.5 -5.5s-9.16699 -3.16699 -12.5 -4.5z" />
    <glyph glyph-name="ampersand" unicode="&#x26;" horiz-adv-x="621" 
d="M434 -28c36.667 0 68 16.335 94 49.002c21.333 27.333 36.333 61 45 101h-21c-18 -48.667 -45.667 -73 -83 -73c-19.333 0 -33.333 5.33301 -42 16c-21.333 36.667 -38.333 68.667 -51 96l71 108c14.667 -18.667 32.667 -28 54 -28c30 0 60.333 29.333 91 88l-19 9
c-16 -21.333 -30 -32 -42 -32c-14 0 -32.667 14.667 -56 44l-111 -162l-86 183c30 32 52 57.667 66 77c13.333 19.333 20 41.666 20 66.999c0 44 -24 87 -72 129l-216 -222l17 -16l17 18c35.333 -8 68 -36.667 98 -86l-91 -92c-21.333 -21.333 -38.666 -39.333 -51.999 -54
s-23.333 -26.334 -30 -35.001c-15.333 -20.667 -23 -45.667 -23 -75c0 -34 14 -61 42 -81c25.333 -17.333 55.666 -26 90.999 -26c68.667 0 128 36.667 178 110c14.667 -34 30.167 -61.333 46.5 -82s37.833 -31 64.5 -31zM220 314.002l91.001 -204
c-34.667 -54.667 -77.334 -82 -128.001 -82c-28 0 -50.333 9.33301 -67 28s-25 42 -25 70c0 34.667 14.667 69.667 44 105l43 41zM303.001 464.002c0 -20 -13 -44.333 -39 -73c-31.333 50 -66 78 -104 84l84 86c39.333 -24 59 -56.333 59 -97z" />
    <glyph glyph-name="quotesingle" unicode="'" horiz-adv-x="211" 
d="M84 425l43 31l14 238l-71 -30z" />
    <glyph glyph-name="parenleft" unicode="(" horiz-adv-x="214" 
d="M23 240c0 -145.333 36 -271.002 108 -377.002l37 -55.5l27 -39.5l19 12c-74.667 126.667 -112 280 -112 460c0 111.333 13.333 207.333 40 288c26 80.667 50 138.334 72 173.001l-19 13l-64 -95c-72 -107.333 -108 -233.666 -108 -378.999z" />
    <glyph glyph-name="parenright" unicode=")" horiz-adv-x="214" 
d="M191 240c0 145.333 -36.001 271.669 -108.001 379.002l-37 55.5l-27 39.5l-19 -13c74.667 -118.667 112 -272.334 112 -461.001c0 -110.667 -13 -205.334 -39 -284.001c-12.667 -40 -25.167 -74.5 -37.5 -103.5s-24.166 -53.167 -35.499 -72.5l19 -12l64 95
c72 106 108 231.667 108 377z" />
    <glyph glyph-name="asterisk" unicode="*" 
d="M40 398l98 -36l42 128l11 1l72 -148l60 83l-115 78l2 11l163 14l-61 86l-109 -86l-9 7l43 158l-101 -28l41 -130l-11 -7l-135 86l-5 -104l134 1l3 -10z" />
    <glyph glyph-name="plus" unicode="+" 
d="M177 294h-136l-21 -42h157v-159l46 21v138h136l21 42h-157v159l-46 -21v-138z" />
    <glyph glyph-name="comma" unicode="," horiz-adv-x="233" 
d="M126 -28c0 -28 -20 -61.333 -60 -100l13 -17c72 46.667 108 102 108 166c0 34.667 -15.667 64.667 -47 90l-94 -82l16 -17l28 23c24 -16 36 -37 36 -63z" />
    <glyph glyph-name="hyphen" unicode="-" horiz-adv-x="208" 
d="M42 126l14.999 35h65c22 0 36.667 8.66699 44 26l22 55l-22 9l-13 -31h-78c-12.667 0 -24.334 -11.333 -35.001 -34c-1.33301 -2.66699 -3.66602 -8.16699 -6.99902 -16.5s-7.66602 -19.833 -12.999 -34.5z" />
    <glyph glyph-name="period" unicode="." horiz-adv-x="233" 
d="M111 113l-94 -79l15 -18l29 25l57 -52l98 81l-16 18l-32 -28z" />
    <glyph glyph-name="slash" unicode="/" horiz-adv-x="363" 
d="M291 690l-372 -922l50 30l400 916z" />
    <glyph glyph-name="zero" unicode="0" 
d="M25 37l16 -17l29 28l82 -59c43.333 45.333 100.666 68 171.999 68c3.33301 0 8 -0.166992 14 -0.5s13.667 -0.833008 23 -1.5v24l-28 1v387l43 40l-16 17l-27 -26l-78 57c-45.333 -46 -114.666 -69 -207.999 -69v-23c3.33301 -0.666992 7 -1.16699 11 -1.5
s8.33301 -0.5 13 -0.5v-381zM195 50l-54 40v376c33.333 7.33301 57 16 71 26l51 -36v-382c-27.333 -4 -50 -12 -68 -24z" />
    <glyph glyph-name="one" unicode="1" 
d="M103 41l18 -17.001l33 32l68 -67l102 101l-17 17l-36 -37l-29 32v322c0 64.667 -19.333 108.334 -58 131.001l-106 -106l16 -16l37 37c25.333 -17.333 38 -41.333 38 -72v-291z" />
    <glyph glyph-name="two" unicode="2" 
d="M261 447c0.666992 -6 1.16895 -10.834 1.50195 -14.501s0.5 -6.16699 0.5 -7.5c0 -35.333 -17.667 -73.666 -53 -114.999c-16 -19.333 -40.333 -46.666 -73 -81.999l-19 -21l-13 -15c-41.333 -50 -68.333 -115 -81 -195l19 -8c16 32.667 41.667 49 77 49
c45.333 0 95.333 -16.333 150 -49l79 93l-18 15l-29 -34c-24.667 10.667 -43.5 18.5 -56.5 23.5s-20.167 7.83301 -21.5 8.5c-8 2 -20.667 3 -38 3c-48 0 -87.667 -16.667 -119 -50c11.333 44 39 84.667 83 122l37 31l51 42c9.33301 7.33301 17.166 13.833 23.499 19.5
s11.833 10.167 16.5 13.5c40.667 38 61 82 61 132v8c0 4 -0.333008 9.66699 -1 17l23 1l1 24c-8 -0.666992 -14.333 -1 -19 -1h-9c-34 0 -66.333 9.16699 -97 27.5s-55.334 41.833 -74.001 70.5c-30 -76 -74.333 -114 -133 -114l-1 -19c20 -6 39.333 -9 58 -9
c23.333 0 46.333 4.66699 69 14c26 11.333 44.333 25.666 55 42.999c12 -8 28.667 -15.667 50 -23z" />
    <glyph glyph-name="three" unicode="3" 
d="M35 52l15.9961 -19.999c18.667 16 33 24 43 24c16 0 31.333 -8.33301 46 -25c5.33301 -7.33301 11 -14.5 17 -21.5l17 -20.5c52 62 113.333 93 184 93v23c-5.33301 0 -10.833 -0.166992 -16.5 -0.5s-11.5 -0.833008 -17.5 -1.5v140l-100 63l90 42l1 90l25 -3v24
c-65.333 8.66699 -118.666 40.667 -159.999 96c-8 -15.333 -18 -30.333 -30 -45c-16.667 -18.667 -30.667 -28 -42 -28c-14 0 -28 6 -42 18l-14 -19c13.333 -12 29 -22.333 47 -31c20.667 -10.667 38.334 -16 53.001 -16c31.333 0 56.333 13.333 75 40
c2.66699 -1.33301 5.33398 -2.83301 8.00098 -4.5s5.33398 -3.16699 8.00098 -4.5v-125l-165 -77l10 -21l58 27l105 -67v-118c-3.33301 -1.33301 -7.33301 -3.33301 -12 -6s-9.66699 -6.33398 -15 -11.001c-28 28 -54.667 42 -80 42c-18 0 -37.667 -6.66699 -59 -20
c-8 -6.66699 -16.167 -13 -24.5 -19z" />
    <glyph glyph-name="four" unicode="4" 
d="M170 36l15 -18l32 25l57 -54l93 77l-15 18l-31 -27l-23 20v89l82 -1v24l-82 -1v280l53 44l-15 18l-31 -27l-53 52l-223 -318v-71h198v-83zM228 189h-129v108l129 180v-288z" />
    <glyph glyph-name="five" unicode="5" 
d="M35 54l13.999 -21.998c27.333 17.333 44.333 26 51 26c14 0 28.667 -8.66699 44 -26l31 -43c38 53.333 98.333 84.333 181 93l-1 26l-26 -3v160l27 13l-9 21l-21 -9l-124 74l-110 -51l22 142h153c15.333 0 26 4.33301 32 13c6.66699 15.333 12.5 29.666 17.5 42.999
s9.16699 25.666 12.5 36.999l-22 7c-6 -18 -13.667 -27 -23 -27h-182l-36 -227l-13 -6l10 -22l86 41l110 -66v-162c-13.333 -5.33301 -25.333 -11.333 -36 -18c-26.667 28.667 -53.667 43 -81 43c-15.333 0 -34.333 -6.66699 -57 -20
c-1.33301 -1.33301 -6.16602 -5 -14.499 -11z" />
    <glyph glyph-name="six" unicode="6" 
d="M23 38l15.998 -17l28 25l76 -57c44.667 46 101.334 69 170.001 69h12c6.66699 0 16.334 -0.333008 29.001 -1v24l-26 1v185l48 44l-16 18l-34 -31l-80 62l-111 -103v200c4.66699 2 9.16699 4.5 13.5 7.5s9.16602 6.16699 14.499 9.5c24 -27.333 51.667 -41 83 -41
c12.667 0 23 2 31 6l45.5 29.5c13 8.33301 23.5 15.833 31.5 22.5l-16 21c-19.333 -16 -33.666 -24 -42.999 -24c-16 0 -31.333 8 -46 24l-18 21.5c-6 7 -11.667 14.167 -17 21.5c-27.333 -34 -54 -58 -80 -72c-29.333 -15.333 -64.333 -23 -105 -23v-24c14 0 26 1 36 3
v-361zM186.998 51l-52 38v135l72 68l51 -39v-176c-27.333 -3.33301 -51 -12 -71 -26z" />
    <glyph glyph-name="seven" unicode="7" 
d="M112 112c0 -49.333 19.9971 -90.332 59.9971 -122.999l98 95l-16 17l-36 -35c-19.333 19.333 -29 40.666 -29 63.999c0 26.667 13.667 68 41 124l32 61.5l32 61.5c32.667 66 55.667 122.667 69 170l-21 8c-14.667 -32.667 -40.667 -49 -78 -49
c-55.333 0 -104.666 16.333 -147.999 49l-70 -150l21 -10l34 73c42 -15.333 76.667 -23 104 -23c36.667 0 74.334 15.333 113.001 46c-32 -68.667 -76.667 -142.334 -134 -221.001l-31.5 -44.5c-8.33301 -12.333 -14.166 -22.166 -17.499 -29.499
c-15.333 -29.333 -23 -57.333 -23 -84z" />
    <glyph glyph-name="eight" unicode="8" 
d="M23 35l16 -18l32 31l81 -59c44.667 44.667 98 67 160 67h12c7.33301 0 18.333 -0.333008 33 -1l3 24c-12 2 -21.667 3 -29 3v157l-82 50l117 40l-5 23l-30 -8v122l45 42l-15 17l-31 -27l-78 57c-18.667 -22 -43.667 -39.333 -75 -52c-32 -13.333 -62 -20 -90 -20
c-4 0 -18 1 -42 3v-24c3.33301 -0.666992 7 -1.16699 11 -1.5s8.33301 -0.5 13 -0.5v-131l83 -51c-54 -22.667 -93.333 -36.667 -118 -42l5 -23l30 7v-143zM194 51l-54 41l-1 152l42 17l80 -48v-135c-28.667 -8.66699 -51 -17.667 -67 -27zM224 304l-85 51v110
c22.667 4 47 12.667 73 26l49 -37v-136z" />
    <glyph glyph-name="nine" unicode="9" 
d="M376 505l-16 18.0029l-28 -26l-76 58c-44.667 -46.667 -101.667 -70 -171 -70h-12c-6.66699 0 -16 0.333008 -28 1v-23c4 -0.666992 8.16699 -1.16699 12.5 -1.5s8.83301 -0.5 13.5 -0.5v-185l-48 -44l16 -18l35 31l80 -61l110 103v-201
c-5.33301 -2.66699 -10.333 -5.33398 -15 -8.00098s-9 -5.33398 -13 -8.00098c-24.667 26.667 -52.334 40 -83.001 40c-11.333 0 -21.333 -1.66699 -30 -5l-45.5 -29c-13 -8.66699 -23.833 -16.667 -32.5 -24l17 -21c14.667 16 29.334 24 44.001 24
c15.333 0 30.333 -8.33301 45 -25l18 -21c6 -6.66699 11.667 -13.334 17 -20.001c24.667 30.667 51.667 53.667 81 69c28 13.333 62.333 22 103 26v23c-8.66699 0 -16 -0.166992 -22 -0.5s-10.667 -0.833008 -14 -1.5v360zM212 492.003l51.999 -38v-134l-72 -69l-51 40v176
c22.667 0 46.334 8.33301 71.001 25z" />
    <glyph glyph-name="colon" unicode=":" horiz-adv-x="233" 
d="M111 113l-94 -79l15 -18l29 25l57 -52l98 81l-16 18l-32 -28zM111 380l-94 -79l15 -18l29 25l57 -54l98 82l-16 18l-32 -27z" />
    <glyph glyph-name="semicolon" unicode=";" horiz-adv-x="233" 
d="M97 -28c0 -26.667 -20 -60 -60 -100l13 -17c72.667 46.667 109 102 109 166c0 34.667 -16 64.667 -48 90l-94 -82l16 -17l28 23c24 -16 36 -37 36 -63zM111 380l-94 -79l15 -18l29 25l57 -53l98 81l-16 18l-32 -27z" />
    <glyph glyph-name="less" unicode="&#x3c;" horiz-adv-x="500" 
d="M457 575v37l-414 -266v-7l414 -276v99l-313 209z" />
    <glyph glyph-name="equal" unicode="=" 
d="M380 364h-339l-21 -42h339zM380 226h-339l-21 -43h339z" />
    <glyph glyph-name="greater" unicode="&#x3e;" horiz-adv-x="500" 
d="M43 100v-37l414 266v7l-414 276v-99l313 -209z" />
    <glyph glyph-name="question" unicode="?" horiz-adv-x="310" 
d="M84 267c0 -44.667 16.666 -83 49.999 -115l17 14c-17.333 19.333 -26 41.666 -26 66.999c0 16 13.667 37.667 41 65l52 53c12 12.667 19.333 20.667 22 24c27.333 34.667 41 67.667 41 99c0 37.333 -14 70 -42 98s-60.667 42 -98 42c-69.333 0 -116.333 -43 -141 -129
l73 -66c-1.33301 10.667 -2.16602 18.5 -2.49902 23.5l-0.5 7.5c0 33.333 8.33301 61.666 25 84.999c19.333 27.333 44.333 41 75 41c19.333 0 35.5 -5.66699 48.5 -17s19.5 -26.666 19.5 -45.999c0 -25.333 -13.333 -52.666 -40 -81.999l-37 -38l-37 -39
c-26.667 -30.667 -40 -59.667 -40 -87zM116.999 113l-94 -79l15 -18l30 25l56 -52l98 81l-15 18l-33 -28z" />
    <glyph glyph-name="at" unicode="@" horiz-adv-x="617" 
d="M464 316l-63.999 -47.001c-6.66699 8.66699 -10 20.667 -10 36v93l35 27l-13 16l-22 -16l-35 33c-16 -22 -39.333 -39 -70 -51c7.33301 9.33301 11 17 11 23c0 16.667 -10 25 -30 25c-20.667 0 -31 -9.66699 -31 -29c0 -13.333 16 -35 48 -65
c-34 -29.333 -52.667 -47.333 -56 -54c-6 -9.33301 -9 -20.666 -9 -33.999c0 -28.667 19.667 -47 59 -55l63 51c2.66699 -18.667 11.667 -36 27 -52l156 117v214l56 48l-16 19l-36 -31l-124 89c-24.667 -22.667 -50 -41.5 -76 -56.5s-53 -26.833 -81 -35.5
c-46 -14 -106.667 -21 -182 -21v-23h29v-413l-55 -47l14 -18l33 28l129 -92c26 20 51.833 37 77.5 51s52 25.5 79 34.5s55.167 15.667 84.5 20s60.666 6.5 93.999 6.5v23c-62.667 0 -115 -5.33301 -157 -16c-47.333 -12 -95.333 -33 -144 -63l-96 70v418
c76.667 0 148.667 25.333 216 76l96 -70v-229zM340.001 295.999l-39 -32c-26.667 2.66699 -40 14.667 -40 36c0 10 12.333 25.333 37 46l16 -17l16 14l-42 43c14.667 4.66699 28.667 10.667 42 18l10 -8v-100z" />
    <glyph glyph-name="A" unicode="A" horiz-adv-x="549" 
d="M116 -234l8.99609 -0.00195312c5.33301 0 12.666 0.333008 21.999 1v24c-3.33301 -0.666992 -6.83301 -1.16699 -10.5 -1.5s-7.5 -0.5 -11.5 -0.5c-38 0 -70.667 11.333 -98 34c-28 24.667 -42 55.334 -42 92.001c0 32 12 58.667 36 80
c22.667 18.667 50.334 28 83.001 28c43.333 0 82.333 -16.333 117 -49l98 98l-16 18l-36 -35c-39.333 23.333 -81.333 35 -126 35l39 110h217l41 -138c12.667 -44.667 32.334 -74 59.001 -88l99 98l-16 18l-36 -36c-13.333 5.33301 -23 13.333 -29 24
c-1.33301 2.66699 -3.16602 7 -5.49902 13s-4.83301 13.667 -7.5 23l-131 436c-12 40 -22 65.667 -30 77l9 29l-22 9l-9 -21c-20.667 14.667 -42.667 22 -66 22c-34.667 0 -65.667 -12.333 -93 -37c-9.33301 -7.33301 -19.166 -17.666 -29.499 -30.999
s-21.833 -29.333 -34.5 -48l19 -13c28 40.667 59.667 61 95 61c30 0 55 -14.333 75 -43l-39 -102l-29 1.5c-6.66699 0.333008 -10.667 0.5 -12 0.5c-50.667 0 -76 -29 -76 -87c0 -18 4 -37.333 12 -58l22 10c-3.33301 10 -5 17.667 -5 23c0 30.667 13.333 46 40 46
c8.66699 0 16.334 -3.33301 23.001 -10l-106 -289c-45.333 -5.33301 -83 -23 -113 -53c-31.333 -31.333 -47 -69 -47 -113c0 -43.333 16 -80.333 48 -111c33.333 -31.333 71 -47 113 -47zM372.996 275.998h-164l90 247z" />
    <glyph glyph-name="B" unicode="B" horiz-adv-x="640" 
d="M202 -234c11.333 0 25.3311 1.66895 41.998 5.00195v23c-12 -1.33301 -21.667 -2.5 -29 -3.5s-12.333 -1.5 -15 -1.5c-34.667 0 -64.667 11.667 -90 35c-26 24 -39 53.333 -39 88c0 33.333 11.667 60.666 35 81.999c22.667 18.667 51.334 28 86.001 28
c48.667 0 99.667 -16 153 -48c72.667 54 144.334 81 215.001 81h13c8 0 18.667 -0.333008 32 -1v23c-11.333 2 -26 3 -44 3v255l-78 22l78 57v126c0 35.333 -7.66699 64.333 -23 87c-18 26.667 -44 40 -78 40c-30.667 0 -60.334 -11 -89.001 -33l-110 -83v-410l-24 -18
l14 -19l86 65v411l45.5 31c11 7.33301 18.167 11.666 21.5 12.999c8.66699 4 19 6 31 6c32 0 48 -21.333 48 -64v-181l-94 -71v189h-23v-433c-39.333 16 -78.666 24 -117.999 24c-54.667 0 -102.334 -14.667 -143.001 -44c-43.333 -33.333 -65 -76.333 -65 -129
c0 -46 15.333 -83.333 46 -112s69.334 -43 116.001 -43zM415.998 47.002c-10 6.66699 -19 11.333 -27 14v66c23.333 7.33301 40 11 50 11c9.33301 0 24 -3.66699 44 -11v-56c-24.667 -4.66699 -47 -12.667 -67 -24zM438.998 162.001c-11.333 0 -28 -3 -50 -9v62
c20.667 -6 36.667 -9 48 -9c10.667 0 26 3 46 9v-62c-16 6 -30.667 9 -44 9zM442.998 229.001c-12.667 0 -30.668 3.66699 -54.001 11v44l75 56l19 -8v-92c-13.333 -7.33301 -26.666 -11 -39.999 -11zM-0.00292969 549.001c0 -30 16.334 -61 49.001 -93l16 17
c-25.333 21.333 -38 45.333 -38 72c0 13.333 4.16699 24.833 12.5 34.5s19.166 14.5 32.499 14.5c10.667 0 29 -4.66699 55 -14c26.667 -9.33301 46.334 -14 59.001 -14c19.333 0 41.666 8.66699 66.999 26l57 48l-14 17c-18.667 -16.667 -37 -25 -55 -25l-57 18
c-34 10.667 -60.333 16 -79 16c-27.333 0 -52 -13 -74 -39c-20.667 -23.333 -31 -49.333 -31 -78zM154.998 122.001l-15 -13l15 -18l76 62v371l19 14l-14 19l-81 -60v-125c-60 0 -90 -28.333 -90 -85c0 -19.333 3.33301 -39 10 -59l25 12c-4 10 -6 18 -6 24
c0 11.333 3.66699 21.333 11 30s16.333 13 27 13c7.33301 0 15 -3 23 -9v-176z" />
    <glyph glyph-name="C" unicode="C" horiz-adv-x="525" 
d="M307 -16c101.333 0 181.667 47.999 241 143.999l-18 12c-29.333 -42 -64 -69.667 -104 -83v494c10 4.66699 26.667 17.667 50 39l24 24l24 23l-15 18c-31.333 -26 -52.333 -39 -63 -39c-18.667 0 -37.334 17 -56.001 51l-239 -239l17 -16l61 60v-304l-28 -28l16 -17
l88 87v341l31 28c19.333 -15.333 41.666 -24.666 66.999 -27.999v-499c-16 -2 -29 -3 -39 -3c-79.333 0 -140.666 28.667 -183.999 86c-38 50.667 -57 117.667 -57 201c0 117.333 45 221 135 311l-17 20c-65.333 -58.667 -113.666 -113.667 -144.999 -165
c-38.667 -62.667 -58 -132 -58 -208c0 -86 22.667 -158.333 68 -217c48.667 -62 115.667 -93 201 -93z" />
    <glyph glyph-name="D" unicode="D" horiz-adv-x="604" 
d="M168 -234c29.333 0 59 6.66602 89 19.999l-9 21c-25.333 -12 -50.666 -18 -75.999 -18c-37.333 0 -69.333 11 -96 33c-28.667 24 -43 54.333 -43 91c0 36 15 64.667 45 86c26.667 18 59 27 97 27c44.667 0 89.667 -17 135 -51c63.333 57.333 133.333 86 210 86
c2 0 6 -0.166992 12 -0.5s14.333 -0.833008 25 -1.5v26h-32v388c0 54.667 -10 98.667 -30 132c-25.333 41.333 -63 62 -113 62c-15.333 0 -32.333 -2 -51 -6l-187 -38c-8 -1.33301 -16 -2.5 -24 -3.5s-16 -1.5 -24 -1.5c-26.667 0 -46.334 14.333 -59.001 43l-20 -10
c10.667 -27.333 26.667 -50.666 48 -69.999c23.333 -20.667 49.333 -31 78 -31c19.333 0 60.666 8 123.999 24v-480c-21.333 1.33301 -37.833 2.33301 -49.5 3s-18.167 1 -19.5 1c-50 0 -94.333 -17.333 -133 -52c-40 -34 -60 -75.667 -60 -125
c0 -46 15.667 -83.667 47 -113c30.667 -28 69.334 -42 116.001 -42zM380 50.999c-29.333 18.667 -59.334 30.667 -90.001 36v118c28.667 14.667 55 22 79 22c24.667 0 51.334 -7.33301 80.001 -22v-128c-11.333 -2.66699 -22.833 -6 -34.5 -10s-23.167 -9.33301 -34.5 -16z
M368.999 249.999c-30 0 -56.333 -7.33301 -79 -22v191c24.667 -14.667 51 -22 79 -22c28.667 0 55.334 7.33301 80.001 22v-191c-22.667 14.667 -49.334 22 -80.001 22zM368.999 419.999c-24 0 -50.333 8.66699 -79 26v132c25.333 4.66699 44.333 8 57 10l19 3
c55.333 0 83 -35 83 -105v-40c-27.333 -17.333 -54 -26 -80 -26zM152.999 129.999l-15 -10.999l15 -18l76 61v354l14 11l-14 18l-76 -61v-111c-61.333 0 -92 -28.667 -92 -86c0 -16.667 3.33301 -36.334 10 -59.001l25 6c-3.33301 10 -5 18.667 -5 26c0 31.333 13 47 39 47
c7.33301 0 15 -3 23 -9v-168z" />
    <glyph glyph-name="E" unicode="E" horiz-adv-x="582" 
d="M220 -233c26.667 0 54.002 6.66699 82.002 20l-9 22c-24.667 -12.667 -49.667 -19 -75 -19c-38.667 0 -72 12 -100 36c-30 24.667 -45 56.334 -45 95.001c0 43.333 18 77.666 54 102.999c32.667 24 71.334 36 116.001 36c69.333 0 130.666 -28 183.999 -84l96 95l-16 17
l-27 -26c-17.333 14.667 -38.666 28.667 -63.999 42v201l80 80l-16 16l-26 -24l-81 80l-80 -80v194c29.333 23.333 52.666 35 69.999 35c25.333 0 61 -25 107 -75l88 87l-16 18l-19 -18c-28.667 32.667 -62.334 49 -101.001 49c-19.333 0 -37 -4 -53 -12
c-44 -30 -77 -54 -99 -72v-455c-61.333 -7.33301 -112.333 -28.333 -153 -63c-47.333 -39.333 -71 -87.333 -71 -144c0 -46 17.667 -83.667 53 -113c33.333 -27.333 73.666 -41 120.999 -41zM392.002 113c-30 11.333 -63 17 -99 17v214l34 33l65 -64v-200zM153.002 137
l-14.999 -13l15 -18l76 61v368l15 12l-15 18l-76 -62v-126c-60.667 0 -91 -29 -91 -87c0 -20 3.33301 -40.333 10 -61l25 9c-4 8.66699 -6 17 -6 25c0 12 3.66699 22.333 11 31s17 13 29 13c7.33301 0 14.666 -2.66699 21.999 -8v-162zM-33.9971 550
c0 -30 16 -61.002 48 -93.002l16 17c-24.667 20.667 -37 44.334 -37 71.001c0 13.333 4 24.833 12 34.5s18.667 14.5 32 14.5c12 0 31 -4.66699 57 -14c24 -8.66699 43 -13 57 -13c18.667 0 40.667 9 66 27c1.33301 0.666992 6.66602 4.83398 15.999 12.501l42 34.5l-14 16
c-19.333 -16.667 -37.666 -25 -54.999 -25l-73 23c-26 8 -47 12 -63 12c-28 0 -52.333 -13 -73 -39c-20.667 -23.333 -31 -49.333 -31 -78z" />
    <glyph glyph-name="F" unicode="F" horiz-adv-x="572" 
d="M105 -233c11.333 0 24.335 1.66895 39.002 5.00195v21c-12.667 -2.66699 -25.334 -4 -38.001 -4c-45.333 0 -83.333 16 -114 48c-31.333 31.333 -47 69.666 -47 114.999c0 31.333 7.33301 58.333 22 81c18 28 41 42 69 42c14.667 0 42.667 -15.333 84 -46
c42.667 -30.667 75 -46 97 -46c28 0 57.667 11 89 33l37.5 31l37.5 31v214h51v-456l-44 -35l27 -34l50 42l-10 14v477l84 67h-84v197l21 -3l7 -1c23.333 0 64.666 25.333 123.999 76l-14 19c-34 -26 -57.667 -39 -71 -39c-19.333 0 -38.333 17 -57 51l-160 -131v-482
c-10 -12 -21.333 -18 -34 -18c-10 0 -38.333 19.667 -85 59c-46 40 -84.333 60 -115 60c-45.333 0 -82.333 -22 -111 -66c-27.333 -40.667 -41 -83.334 -41 -128.001c0 -55.333 17.333 -101.333 52 -138c34 -37.333 78.667 -56 134 -56zM432.002 367.002h-50.999v203l23 18
c7.33301 -6.66699 16.666 -12.667 27.999 -18v-203zM187.003 141.002l-13.999 -10.999l14 -19l76 62v338l15 12l-15 18l-76 -61v-107c-60.667 0 -91 -28.667 -91 -86c0 -18.667 3.33301 -38.334 10 -59.001l25 10c-4 10 -6 18 -6 24c0 12 3.83301 22.5 11.5 31.5
s17.167 13.5 28.5 13.5c7.33301 0 14.666 -3 21.999 -9v-157zM36.0039 550.003c0 -31.333 16.3359 -62.334 49.0029 -93.001l17 16c-26 20.667 -39 44.667 -39 72c0 13.333 4.16699 24.833 12.5 34.5s19.166 14.5 32.499 14.5c10.667 0 29 -4.66699 55 -14
c26.667 -9.33301 46.334 -14 59.001 -14c19.333 0 41.666 9.33301 66.999 28c1.33301 1.33301 6.66602 5.83301 15.999 13.5l42 33.5l-14 16c-20.667 -16.667 -39.334 -25 -56.001 -25c-2.66699 0 -23 6.33301 -61 19c-32 10.667 -56.667 16 -74 16
c-28 0 -52.667 -12.667 -74 -38s-32 -51.666 -32 -78.999z" />
    <glyph glyph-name="G" unicode="G" horiz-adv-x="632" 
d="M137 316c0 82.667 9.33301 145.999 28 189.999c22.667 54 64.667 101.333 126 142l-13 19c-72 -40.667 -129 -90 -171 -148c-46 -65.333 -69 -136.333 -69 -213c0 -90 27 -165.333 81 -226c56 -64 128 -96 216 -96c72 0 133 21 183 63
c52.667 44.667 79 102.334 79 173.001c0 59.333 -19.333 105.333 -58 138c-37.333 31.333 -85.666 47 -144.999 47l165 244l-17 18c-30.667 -32.667 -56 -49 -76 -49c-17.333 0 -37.333 16.333 -60 49l-208 -166l15 -21l28 21v-385l-24 -20l15 -18l85 69v144l32 48v-333
c-52.667 0 -96.334 12.333 -131.001 37c-30 20.667 -52 62.667 -66 126c-10 44.667 -15 93.667 -15 147zM493 115.999c-24 -61.333 -64.001 -97.333 -120.001 -108v104c20.667 13.333 41.334 20 62.001 20c18 0 37.333 -5.33301 58 -16zM441.999 153.999
c-22 0 -45.001 -5.33398 -69.001 -16.001v116c22.667 -12.667 45 -19 67 -19c20.667 0 43.334 6.33301 68.001 19c0.666992 -13.333 1 -23.666 1 -30.999v-11c0 -15.333 -3 -40 -9 -74c-20.667 10.667 -40 16 -58 16zM434.998 257.998
c-24.667 0 -45.334 8.00098 -62.001 24.001v98c10.667 1.33301 18.5 2.16602 23.5 2.49902l7.5 0.5c58 0 91.667 -33.667 101 -101c-21.333 -16 -44.666 -24 -69.999 -24zM348.998 380.999l-32 -49v233l27 22c26.667 -18 53 -27 79 -27c18.667 0 42 11 70 33l-120 -178v65
h-24v-99z" />
    <glyph glyph-name="H" unicode="H" horiz-adv-x="634" 
d="M157 -233c12 0 21.666 1.33301 28.999 4v23c-8.66699 -2.66699 -18.667 -4 -30 -4c-38 0 -70.333 11.333 -97 34c-28.667 22.667 -43 53 -43 91c0 32.667 13.333 59.334 40 80.001c24.667 18.667 53.334 28 86.001 28c42 0 80.667 -16 116 -48l99 97l-17 17l-23 -23v96
c24.667 14.667 49.667 22 75 22c26 0 53.667 -7.33301 83 -22v-60l-54 -52l16 -18l21 18l78 -75l98 97l-16 17l-38 -36l-29 30v460l50 50l-15 18l-25 -22l-78 78l-97 -97l16 -18l37 34l36 -34v-65c-25.333 -15.333 -49 -23 -71 -23c-23.333 0 -52.333 7.66699 -87 23v168
h-23c-6 -20.667 -19.333 -31 -40 -31c-16 0 -41.333 7 -76 21c-34 14.667 -59.667 22 -77 22c-28.667 0 -54.334 -12.333 -77.001 -37s-34 -51.334 -34 -80.001c0 -38 17 -67.333 51 -88l13 16c-25.333 18 -38 39.667 -38 65c0 12.667 4.5 23.667 13.5 33s19.833 14 32.5 14
c14.667 0 38.334 -5.66699 71.001 -17c32 -10.667 56.333 -16 73 -16c30 0 59.333 20.333 88 61v-556c-40.667 20.667 -80.667 31 -120 31c-49.333 0 -92.333 -16.333 -129 -49s-55 -73.667 -55 -123c0 -46 16.333 -83.333 49 -112c32 -28 71.333 -42 118 -42zM392.999 206
c-26 0 -51.334 -6.66699 -76.001 -20v105h158v-104c-27.333 12.667 -54.666 19 -81.999 19zM474.998 367h-157.998v95c29.333 -12.667 57.666 -19 84.999 -19c25.333 0 49.666 6.33301 72.999 19v-95zM178 141l-15 -11l15 -18l76 61v353l14 11l-11 18l-79 -61v-121
c-61.333 0 -92 -28.667 -92 -86c0 -17.333 3.66699 -37 11 -59l25 10c-4 8 -6 16 -6 24c0 12 3.5 22.5 10.5 31.5s16.5 13.5 28.5 13.5c7.33301 0 15 -3 23 -9v-157z" />
    <glyph glyph-name="I" unicode="I" horiz-adv-x="491" 
d="M103 -236c11.333 0 21.332 1.33301 29.999 4v22l-33 -3c-45.333 0 -84 16.667 -116 50c-32.667 32.667 -49 71.667 -49 117c0 28.667 7 54 21 76c16 26.667 37 40 63 40c13.333 0 41.666 -14.667 84.999 -44c42.667 -28.667 80.334 -43 113.001 -43
c29.333 0 58.333 9.66699 87 29l103 74v521l37 31l-14 18l-99 -80v-513c-27.333 -22 -47 -33 -59 -33c-18.667 0 -51.667 19.667 -99 59s-85.666 59 -114.999 59c-45.333 0 -82.333 -21.333 -111 -64c-26 -37.333 -39 -79.666 -39 -126.999
c0 -54.667 19 -100.334 57 -137.001c38.667 -37.333 84.667 -56 138 -56zM213.999 99l-14 -10.999l14 -18l76 61v396l15 12l-15 18l-76 -62v-124c-60.667 0 -91 -28.667 -91 -86c0 -17.333 3 -37 9 -59l26 10c-4 10 -6 18 -6 24c0 11.333 3.66699 21.666 11 30.999
s17 14 29 14c6.66699 0 14 -3 22 -9v-197zM61.999 549.001c0 -31.333 16.001 -62.333 48.001 -93l17 17c-26 20.667 -39 44.667 -39 72c0 12.667 4.5 24 13.5 34s19.833 15 32.5 15c10.667 0 29 -4.66699 55 -14c26.667 -9.33301 46.334 -14 59.001 -14
c19.333 0 41.666 8.66699 66.999 26l57 48l-14 17c-18.667 -16.667 -37.334 -25 -56.001 -25c-27.333 8 -53.333 16 -78 24c-22.667 6.66699 -41.667 10 -57 10c-27.333 0 -52 -13 -74 -39c-20.667 -23.333 -31 -49.333 -31 -78z" />
    <glyph glyph-name="J" unicode="J" horiz-adv-x="467" 
d="M419 635l-15.002 17.999l-95 -77v-508c0 -104.667 -46.333 -157 -139 -157c-82 0 -123 45.667 -123 137c5.33301 -25.333 20 -38 44 -38c15.333 0 28.166 5.33301 38.499 16s15.5 23.667 15.5 39s-5.16699 28.5 -15.5 39.5s-23.166 16.5 -38.499 16.5
c-23.333 0 -41.333 -10 -54 -30c-11.333 -17.333 -17 -37.666 -17 -60.999c0 -45.333 17 -82.333 51 -111c32.667 -26 72.334 -39 119.001 -39c52.667 0 97.334 13.333 134.001 40c40.667 30.667 61 71 61 121v566zM191.998 101.999l-15 -11.999l15 -18l76 61v397l14 11
l-14 18l-76 -61v-125c-60.667 0 -91 -28.333 -91 -85c0 -18.667 3.33301 -38.334 10 -59.001l25 9c-4 8 -6 16 -6 24c0 12 3.83301 22.5 11.5 31.5s17.167 13.5 28.5 13.5c6 0 13.333 -2.66699 22 -8v-197zM42.998 550c0 -30 16.332 -61.002 48.999 -93.002l17 16
c-26 22 -39 46.333 -39 73c0 12.667 4.33301 23.834 13 33.501s19.334 14.5 32.001 14.5c12 0 31 -4.66699 57 -14c24 -8.66699 43 -13 57 -13c22 0 44.667 8.66699 68 26l57 48l-14 16c-21.333 -16.667 -40 -25 -56 -25c-4 0 -24 6.33301 -60 19c-30 10.667 -55 16 -75 16
c-28 0 -52.667 -12.667 -74 -38s-32 -51.666 -32 -78.999z" />
    <glyph glyph-name="K" unicode="K" horiz-adv-x="645" 
d="M253 125l13.999 -17.999l81 65v169l28 23v-299c-44.667 19.333 -83.667 29 -117 29c-49.333 0 -92.333 -17 -129 -51c-38 -34 -57 -75.333 -57 -124c0 -44 14.333 -80.333 43 -109s65.334 -43 110.001 -43c6.66699 0 13.667 0.333008 21 1s15.666 1.66699 24.999 3l-5 22
c-18.667 -3.33301 -30.667 -5 -36 -5c-34 0 -64.333 12.333 -91 37s-40 54 -40 88c0 32 13.667 58.667 41 80c24.667 18 53.667 27 87 27c40 0 77.667 -15 113 -45l99 96l-16 17l-25 -23v139l46 36c16.667 -6 29.334 -25.333 38.001 -58c2.66699 -9.33301 5.66699 -22 9 -38
s6.66602 -35.667 9.99902 -59c6 -42 11.333 -68 16 -78c4.66699 -10.667 11.334 -21.334 20.001 -32.001l95 96l-16 17l-20 -23c-12.667 16.667 -25 50 -37 100c-12 48.667 -33.333 87.667 -64 117l101 82l-101 125l-97 -76v103h-23v-121l-28 -23v215
c20.667 18 39.334 27 56.001 27s34 -9.33301 52 -28l20 -23l20 -24l101 79l-18 21l-27 -21c-39.333 32.667 -73.333 49 -102 49c-26.667 0 -51.334 -9.33301 -74.001 -28l-104 -83v-415zM512.999 326.001l-114 -92v150l41 32zM160.999 118.001l-15 -12l15 -18l76 62v375
l14 12l-14 19l-76 -62v-121c-61.333 0 -92 -28.667 -92 -86c0 -15.333 3.33301 -35 10 -59l26 10c-4 8 -6 16 -6 24c0 30 13 45 39 45c7.33301 0 15 -3 23 -9v-180zM11.999 550.001c0 -30 16.333 -61 49 -93l16 16c-25.333 21.333 -38 45.333 -38 72
c0 13.333 4.16699 24.833 12.5 34.5s19.166 14.5 32.499 14.5c12.667 0 32 -4.66699 58 -14c25.333 -8.66699 45 -13 59 -13c20 0 41.667 8.66699 65 26l28 23l28 23l-14 18c-19.333 -16.667 -37.666 -25 -54.999 -25c-4 0 -24 6.33301 -60 19c-30 10.667 -55.333 16 -76 16
c-27.333 0 -52 -13 -74 -39c-20.667 -23.333 -31 -49.333 -31 -78z" />
    <glyph glyph-name="L" unicode="L" horiz-adv-x="570" 
d="M232 -233c26.667 0 52.999 6.00098 78.999 18.001l-8 21c-30 -10.667 -56.333 -16 -79 -16c-34.667 0 -66 13 -94 39c-27.333 26 -41 56.333 -41 91c0 44.667 19.667 80.667 59 108c34.667 24 75.667 36 123 36c84 0 154.667 -29.667 212 -89l98 97l-17 17l-28 -29
c-8.66699 7.33301 -17.334 14 -26.001 20s-17.667 11.333 -27 16v291l20 18l-28 30l-31 -30l16 -18v-281c-43.333 16 -86.666 24 -129.999 24c-75.333 0 -138.666 -20.667 -189.999 -62s-77 -91.333 -77 -150c0 -44.667 17.333 -81.334 52 -110.001
c33.333 -27.333 72.333 -41 117 -41zM239.999 161.001l14.999 -19l90 74v371c18.667 16.667 34 25 46 25c22.667 0 53 -26.333 91 -79l90 88l-15 16l-23 -21c-33.333 34 -64.666 51 -93.999 51c-24 0 -48 -10 -72 -30l-99 -82v-371zM152.998 142.001l-31.999 -26l14 -18
l94 75v356l14 12l-14 18l-76 -61v-125c-61.333 0 -92 -28.667 -92 -86c0 -16 3.66699 -35.667 11 -59l25 10c-4 8 -6 16.333 -6 25c0 12 3.66699 22.333 11 31s16.666 13 27.999 13c7.33301 0 15 -3 23 -9v-156zM11.999 550.001c0 -31.333 16.335 -62.335 49.002 -93.002
l16 16c-25.333 21.333 -38 45.333 -38 72c0 13.333 4.16699 24.833 12.5 34.5s19.166 14.5 32.499 14.5c12 0 31 -4.66699 57 -14c24 -8.66699 43 -13 57 -13c19.333 0 41.666 9 66.999 27c1.33301 0.666992 6.66602 4.83398 15.999 12.501l42 34.5l-15 16
c-21.333 -16 -39.666 -24 -54.999 -24l-57 18c-34 10.667 -60 16 -78 16c-28 0 -52.667 -12.667 -74 -38s-32 -51.666 -32 -78.999z" />
    <glyph glyph-name="M" unicode="M" horiz-adv-x="769" 
d="M125 131l14.999 -18l100 81v331l46 33v-427c0 -48 -20.667 -72 -62 -72c-4.66699 0 -27 6 -67 18c-32 10 -57.333 15 -76 15c-46 0 -83.333 -15.333 -112 -46c-29.333 -31.333 -44 -69.333 -44 -114c0 -50 17 -90.333 51 -121c31.333 -29.333 72.333 -44 123 -44
c36.667 0 69 8 97 24l-10 21c-23.333 -14 -52.333 -21 -87 -21c-39.333 0 -73.333 11.667 -102 35c-30.667 24.667 -46 57 -46 97c0 24.667 8.33301 46 25 64s37.334 27 62.001 27c16 0 41 -6 75 -18c34 -12.667 59.667 -19 77 -19c38 0 68 14.333 90 43
c20 26.667 30 59.334 30 98.001v174h76v-204l-51 -38l14 -19l37 27l87 -83l110 88l-15 19l-37 -30v240h77v-187c0 -54 21 -97.333 63 -130l98 98l-15 15l-34 -30c-15.333 8.66699 -25.333 18.667 -30 30c-4 8.66699 -6 23 -6 43v420l85 60l-14 19l-59 -40l-78 77l-87 -65v54
h-23v-68l-46 -37c-11.333 60 -34 98.667 -68 116l-84 -62v51h-24v-68l-51 -36.5l-37 -25.5c-22.667 -18 -34 -68 -34 -150c-61.333 0 -92 -27 -92 -81c0 -18.667 4 -39.334 12 -62.001l22 9c-3.33301 10 -5 18 -5 24c0 30.667 13 46 39 46c9.33301 0 17.333 -3.33301 24 -10
v-140zM385.999 368h-76v207l29 21c31.333 -10 47 -36.667 47 -80v-148zM507.999 63l-46 47v415l46 35v-497zM607.999 368h-77v207l32 23l45 -47v-183z" />
    <glyph glyph-name="N" unicode="N" horiz-adv-x="594" 
d="M131 -233c8.66699 0 19.999 1 33.999 3l-5 22c-12 -2 -21.667 -3 -29 -3c-36 0 -67.667 11.667 -95 35c-27.333 24 -41 54 -41 90c0 32 12 58.667 36 80c23.333 19.333 51.333 29 84 29c40 0 79.667 -15 119 -45l98 96l-17 16l-35 -34c-28 20 -58.667 31.333 -92 34v119
c25.333 14.667 50 22 74 22c17.333 0 36.333 -3.66699 57 -11c22.667 -9.33301 37.667 -20.333 45 -33l50 -107c29.333 -60 67 -94 113 -102v574c14.667 10 31.334 23.667 50.001 41l46 46l-17 16c-24 -26.667 -40.333 -40 -49 -40c-18 0 -38.333 17.333 -61 52l-117 -117
l16 -17l50 49c15.333 -21.333 35 -32 59 -32v-109c-25.333 -14.667 -52.333 -22 -81 -22c-38.667 0 -70 10 -94 30l-54 107c-9.33301 18.667 -18 34.334 -26 47.001s-15.667 22.667 -23 30c-22 22.667 -49 34 -81 34c-34 0 -65 -15.667 -93 -47
c-11.333 -13.333 -21.5 -27.833 -30.5 -43.5s-16.167 -32.834 -21.5 -51.501l21 -8c20 47.333 49 71 87 71c17.333 0 36.333 -5.66699 57 -17v-197c-61.333 0 -92 -27.333 -92 -82c0 -18 4 -39 12 -63l22 11c-3.33301 8 -5 15.667 -5 23c0 30.667 13.333 46 40 46
c9.33301 0 17 -4 23 -12v-207c-53.333 0 -99.333 -14.667 -138 -44c-41.333 -31.333 -62 -73.333 -62 -126c0 -45.333 16.333 -82.333 49 -111c32 -28 71 -42 117 -42zM262.999 253c-27.333 0 -52.335 -6.33301 -75.002 -19v316c8.66699 -8.66699 14.334 -16 17.001 -22
l137 -294c-23.333 12.667 -49.666 19 -78.999 19zM503.997 100c-14.667 8.66699 -26.334 23 -35.001 43l-125 268c24.667 -10 50.334 -15 77.001 -15c30 0 57.667 6 83 18v-314z" />
    <glyph glyph-name="O" unicode="O" horiz-adv-x="653" 
d="M216 96l14 -18.001l86 69v402l35 25v-566c-10 -0.666992 -18 -1 -24 -1h-10c-120 0 -180 101.667 -180 305c0 85.333 8.33301 148 25 188c10 26 27.667 51.667 53 77l33 33l32 33l-12 14c-153.333 -92 -230 -210 -230 -354c0 -84 26.333 -157.333 79 -220
c56 -66 125.333 -99 208 -99c88 0 158.333 36.333 211 109s79 155.334 79 248.001c0 140 -59 248.667 -177 326l-63 -45v35h-24v-52l-164 -120l14 -18l39 29v-380zM527 206.999c-23.333 -116 -73.999 -181.667 -151.999 -197v203c24 11.333 47.333 17 70 17
c31.333 0 58.666 -7.66699 81.999 -23zM452.001 251.999c-25.333 0 -51 -5.33398 -77 -16.001v176c20.667 -10.667 42.667 -16 66 -16c26 0 51.667 5.33301 77 16c12 -43.333 18 -78 18 -104c0 -2.66699 -0.5 -10.167 -1.5 -22.5s-2.16699 -30.166 -3.5 -53.499
c-26.667 13.333 -53 20 -79 20zM445.001 419.998c-24 0 -47.333 5.66699 -70 17v156c34.667 -24 61.667 -47 81 -69c20.667 -24 39.667 -53.667 57 -89c-22 -10 -44.667 -15 -68 -15z" />
    <glyph glyph-name="P" unicode="P" horiz-adv-x="592" 
d="M114 -215l15 -18.001l85 68l67 -68l17 18v241c24.667 -15.333 45.334 -31.333 62.001 -48c40.667 58.667 89 88 145 88c15.333 0 33 -3.66699 53 -11l8 23c-16.667 6.66699 -33.334 10.667 -50.001 12v453l64 48l-14 19l-35 -26l-83 82l-150 -108v96h-23v-111l-46 -34
c0 104.667 -34 157 -102 157c-40 0 -72 -19.667 -96 -59c-20.667 -32.667 -31 -70.334 -31 -113.001l22 -5c12.667 58.667 38.334 88 77.001 88c36 0 54 -26 54 -78v-124c-61.333 0 -92 -27 -92 -81c0 -19.333 4.33301 -40 13 -62l22 6c-3.33301 10 -5 18.333 -5 25
c0 12.667 3.66699 23.834 11 33.501s17 14.5 29 14.5c7.33301 0 14.666 -3.66699 21.999 -11v-184c-81.333 -35.333 -128.333 -90.666 -141 -165.999l22 -5c17.333 50 57 84.333 119 103v-230zM275 -194.001l-46 46v625l46 35v-706zM413 62.999
c-27.333 25.333 -65.667 44.6689 -115 58.002v90c24.667 12 47.667 18 69 18c20.667 0 45 -6 73 -18v-132c-5.33301 -2.66699 -10.333 -5.33398 -15 -8.00098s-8.66699 -5.33398 -12 -8.00098zM366.999 251.002c-24 0 -47 -4.66699 -69 -14v173
c22 -9.33301 45.333 -14 70 -14c24 0 48 4.66699 72 14v-173c-24.667 9.33301 -49 14 -73 14zM369.999 418.002c-26 0 -50.001 6 -72.001 18v93l94 69l48 -48v-116c-21.333 -10.667 -44.666 -16 -69.999 -16z" />
    <glyph glyph-name="Q" unicode="Q" horiz-adv-x="653" 
d="M216 97l15.002 -18l87 70v400l31 23v-443l-82 -70l15 -18l22 18l44 -52c-8.66699 -0.666992 -15.334 -1 -20.001 -1h-9c-50 0 -93 24 -129 72c-35.333 49.333 -53 128 -53 236c0 78 8.66699 140 26 186c20.667 54 60.334 101.333 119.001 142l-13 20
c-68.667 -38.667 -123.667 -88.334 -165 -149.001c-44 -65.333 -66 -135.333 -66 -210c0 -85.333 26.667 -159.333 80 -222c57.333 -65.333 127.666 -98 210.999 -98c9.33301 0 21 1 35 3c18 -23.333 32.333 -40.333 43 -51c15.333 -15.333 35.333 -23 60 -23
c23.333 0 44.666 7.33301 63.999 22c20 14.667 34.333 32.334 43 53.001l-21 11c-13.333 -26 -30.333 -39 -51 -39c-14.667 0 -36 17 -64 51c118.667 72.667 178 184.667 178 336c0 134 -58.667 240.667 -176 320l-67 -46v38h-24v-55l-160 -119l14 -19l37 26v-373z
M525.002 206c-14 -85.333 -48.333 -143.333 -103 -174l-49 66v114c20 12 43 18 69 18c33.333 0 61 -8 83 -24zM443.002 253c-26 0 -49.3311 -5.33203 -69.998 -15.999v176c22.667 -10 46.667 -15 72 -15c19.333 0 43.666 5 72.999 15c10.667 -38.667 16 -80.334 16 -125.001
c0 -19.333 -1.66699 -38.333 -5 -57c-28.667 14.667 -57.334 22 -86.001 22zM442.004 422.001c-22 0 -45 4.66699 -69 14v161c67.333 -41.333 113.333 -95 138 -161c-24.667 -9.33301 -47.667 -14 -69 -14z" />
    <glyph glyph-name="R" unicode="R" horiz-adv-x="581" 
d="M166 299l0.00195312 -211.005c-37.333 -8.66699 -69.666 -29.667 -96.999 -63c-26.667 -31.333 -40 -66.666 -40 -105.999s14 -74.333 42 -105c29.333 -31.333 63.333 -47 102 -47c2 0 7.66699 0.333008 17 1l40 3l-5 24c-13.333 -1.33301 -23.333 -2.5 -30 -3.5
s-9.33398 -1.5 -8.00098 -1.5c-34.667 0 -65.334 12 -92.001 36c-26 22.667 -39 51.334 -39 86.001s13.333 62 40 82c24.667 17.333 54.667 26 90 26c41.333 0 77.666 -15 108.999 -45l104 96l-16 17l-38 -36c-5.33301 4.66699 -10.833 9.16699 -16.5 13.5l-18.5 13.5v212
l48 35c24.667 -24.667 40 -52.667 46 -84l35 -170c5.33301 -26 13 -45.333 23 -58c8.66699 -11.333 24.334 -24.333 47.001 -39l95 88l-16 16l-35 -32c-14.667 8.66699 -24.667 17.334 -30 26.001c-7.33301 22.667 -12 40.667 -14 54
c-6.66699 40 -13.834 74.333 -21.501 103s-15.834 52.334 -24.501 71.001c-11.333 23.333 -30 43 -56 59c51.333 40 85 68.667 101 86c18 20 27 47.333 27 82c0 46 -25.333 92.333 -76 139l-149 -108v96h-23v-113l-45 -32c0 41.333 -6.66699 76 -20 104
c-19.333 35.333 -47.333 53 -84 53c-70.667 0 -112.667 -58.667 -126 -176h21c12 57.333 38 86 78 86c36.667 0 55 -26.333 55 -79v-125c-61.333 0 -92 -27.333 -92 -82c0 -18.667 4 -40 12 -64l23 13c-4 8.66699 -6 16.334 -6 23.001c0 12 3.66699 22.667 11 32
s17 14 29 14c8.66699 0 16.334 -3.33301 23.001 -10zM287.002 87.9951c-18.667 3.33301 -33.667 5 -45 5v387l45 32v-424zM465.002 487.995c0 -36.667 -18 -67.999 -54 -93.999l-101 -72v208l88 64c24 -23.333 39 -39 45 -47c14.667 -18.667 22 -38.334 22 -59.001z" />
    <glyph glyph-name="S" unicode="S" horiz-adv-x="603" 
d="M379 506l104 83.999l-15 19l-25 -19c-33.333 51.333 -82 77 -146 77c-43.333 0 -82 -13 -116 -39c-36.667 -28 -55 -63 -55 -105c0 -53.333 20.667 -91.666 62 -114.999c41.333 -22 105 -45 191 -69l-25 -31c-42 11.333 -78.333 23.166 -109 35.499
s-56.667 24.833 -78 37.5c-42.667 24.667 -64 63.334 -64 116.001c0 1.33301 0.166992 5.83301 0.5 13.5s0.833008 18.5 1.5 32.5h-22c-8.66699 -30.667 -13 -61.334 -13 -92.001c0 -64 19 -109.333 57 -136c40 -27.333 98 -52 174 -74l-82 -103c-15.333 2 -28 3 -38 3
c-84.667 0 -146.334 -21 -185.001 -63c-60.667 -63.333 -91 -114.666 -91 -153.999c0 -23.333 6 -42.333 18 -57c12.667 -16 30.667 -24 54 -24c25.333 0 52.333 18.333 81 55l136 171c44 -15.333 94.333 -46.666 151 -93.999l132 101c60.667 46.667 91 102.667 91 168
c0 72 -38 122.667 -114 152l81 102l-18 14l-87 -109c-2.66699 1.33301 -4.66699 2.16602 -6 2.49902s-2.66602 0.833008 -3.99902 1.5l-177 62c-50.667 18 -76 45.667 -76 83c0 20.667 7.66699 38.167 23 52.5s33.666 21.5 54.999 21.5c14 0 26.667 -2 38 -6
c19.333 -7.33301 38 -23.333 56 -48c4.66699 -6.66699 10.334 -15.5 17.001 -26.5zM126 80.999c14 0 28.667 -1.66699 44 -5l-140 -174c-19.333 -24 -37.333 -36 -54 -36c-31.333 0 -47 19.333 -47 58c0 42.667 22.667 80 68 112c40.667 30 83.667 45 129 45zM404 52.999
c-54 42.667 -106.669 69.332 -158.002 79.999l79 100c11.333 -3.33301 22.5 -7 33.5 -11s22.167 -7.66699 33.5 -11c30 -12 45 -25.667 45 -41s-14 -34.333 -42 -57l15 -17l32.5 31.5l17.5 17.5c17.333 20.667 26 41 26 61c0 28.667 -11.333 50.334 -34 65.001
c-6.66699 4 -16 8.5 -28 13.5s-27 10.167 -45 15.5l25 30c78.667 -26 118 -66.333 118 -121c0 -32 -8.66699 -57.667 -26 -77c-19.333 -18 -36.666 -33.5 -51.999 -46.5s-28.666 -23.833 -39.999 -32.5z" />
    <glyph glyph-name="T" unicode="T" horiz-adv-x="537" 
d="M321 -16c98 0 178 48.333 240 145l-18 13c-44 -44 -75.333 -69.333 -94 -76v460l112 111l-18 16l-54 -51c-84.667 43.333 -169.667 65 -255 65c-62 0 -114.333 -16 -157 -48c-44 -33.333 -66 -72.666 -66 -117.999c0 -38.667 17.333 -68.334 52 -89.001l11 21
c-23.333 17.333 -35 38.333 -35 63c0 33.333 14.667 61.666 44 84.999c26.667 20.667 57.667 31 93 31c44.667 0 98 -14.667 160 -44l-141 -140l18 -16l36 36v-279l-28 -21l12 -19l92 66v331l34 32l67 -32v-468c-13.333 -4 -26.666 -6 -39.999 -6
c-74.667 0 -135.334 26 -182.001 78c-45.333 50.667 -68 113.667 -68 189c0 81.333 32.333 154.333 97 219l-20 20c-53.333 -46 -91 -88.333 -113 -127c-29.333 -49.333 -44 -103.666 -44 -162.999c0 -78 24.333 -144.333 73 -199c50.667 -56.667 114.667 -85 192 -85z" />
    <glyph glyph-name="U" unicode="U" horiz-adv-x="612" 
d="M-22 -83c0 -46.667 14.667 -83.6689 44 -111.002c28.667 -26 67.334 -39 116.001 -39v23c-34.667 0 -65 11 -91 33c-27.333 23.333 -41 52 -41 86c0 35.333 13 64.666 39 87.999c24.667 20.667 55.334 31 92.001 31c48.667 0 92.667 -19 132 -57l183 150
c0 -65.333 21 -114 63 -146l97 96l-17 16l-32 -32c-23.333 11.333 -35 37 -35 77v413l58 45l-15 20l-28 -20l-79 77l-106 -77l13 -20l37 27l44 -43v-119c-26 -11.333 -50.667 -17 -74 -17c-21.333 0 -43.333 5.66699 -66 17v220h-23v-584
c-6.66699 3.33301 -13.834 6.33301 -21.501 9s-15.834 5 -24.501 7v423c0 18 -0.5 33.333 -1.5 46s-2.16699 22.667 -3.5 30c-6.66699 24.667 -21 45.334 -43 62.001c-16.667 12.667 -34.667 19 -54 19c-39.333 0 -71 -19.667 -95 -59c-20 -33.333 -30 -71.333 -30 -114
l20 -5c5.33301 23.333 13.666 42.333 24.999 57c14 19.333 31.333 29 52 29c36 0 54 -25 54 -75v-125c-61.333 0 -92 -27 -92 -81c0 -18.667 4.33301 -40 13 -64l22 7c-4 10 -6 18.333 -6 25c0 12.667 3.83301 23.834 11.5 33.501s17.5 14.5 29.5 14.5
c8 0 15.333 -3.33301 22 -10v-202c-53.333 -6 -97.666 -24 -132.999 -54c-37.333 -33.333 -56 -75.666 -56 -126.999zM328 50.998c-2.66699 1.33301 -5.16797 2.66699 -7.50098 4s-5.16602 2.33301 -8.49902 3v153c30 11.333 54 17 72 17c19.333 0 42 -5.66699 68 -17v-59z
M382.999 250.999c-22.667 0 -46.333 -4.66699 -71 -14v172c24.667 -9.33301 48 -14 70 -14c22.667 0 46 4.66699 70 14v-172c-24 9.33301 -47 14 -69 14z" />
    <glyph glyph-name="V" unicode="V" horiz-adv-x="608" 
d="M11 -81c0 -42.667 13.332 -78.3311 39.999 -106.998c26.667 -30 61.667 -45 105 -45v23c-30 0 -57 12 -81 36c-23.333 23.333 -35 50 -35 80c0 33.333 14.667 60.666 44 81.999c26.667 18.667 57.334 28 92.001 28c48.667 0 89.667 -13.667 123 -41
c56.667 58 130 87 220 87c8 0 16 -0.5 24 -1.5s16 -2.16699 24 -3.5l8 25c-18 4 -32.667 6 -44 6v454l65 47l-14 20l-35 -24l-82 81l-151 -108v97h-24v-113l-45 -35c0 66.667 -18 113.667 -54 141c-16.667 12.667 -35 19 -55 19c-35.333 0 -64.333 -21 -87 -63
c-17.333 -31.333 -28.333 -68 -33 -110l21 -5c2.66699 22 10.667 41.667 24 59c14.667 18.667 32.667 28 54 28c36 0 54 -25.667 54 -77v-126c-61.333 0 -92 -27.333 -92 -82c0 -18.667 4 -39.334 12 -62.001l23 9c-4 10 -6 18 -6 24c0 31.333 13.333 47 40 47
c8 0 15.667 -3.66699 23 -11v-205c-45.333 -11.333 -82.333 -31.333 -111 -60c-31.333 -31.333 -47 -69.333 -47 -114zM289.999 81.0029l-28 8.5c-7.33301 2.33301 -13 3.83301 -17 4.5v384l45 33v-430zM359.999 48.0029c-11.333 7.33301 -26.667 15.667 -46 25v138
c26 11.333 49.333 17 70 17c22.667 0 47 -5.66699 73 -17v-130c-40 -7.33301 -72.333 -18.333 -97 -33zM381.998 251.004c-23.333 0 -45.999 -4.33301 -67.999 -13v171c22.667 -10 46 -15 70 -15c21.333 0 45.666 5 72.999 15v-171c-26 8.66699 -51 13 -75 13z
M383.999 418.004c-26 0 -49.333 5.66699 -70 17v93l96 70l47 -49v-114c-24 -11.333 -48.333 -17 -73 -17z" />
    <glyph glyph-name="W" unicode="W" horiz-adv-x="774" 
d="M-12 -91c0 -44 15.3271 -78.333 45.9941 -103c26.667 -22 63.334 -35 110.001 -39v23c-35.333 2.66699 -65 13 -89 31c-26.667 20 -40 47.333 -40 82c0 35.333 15.667 64.666 47 87.999c28.667 20.667 61.334 31 98.001 31c46.667 0 86.334 -15.667 119.001 -47l107 76
l76 -76c66.667 58.667 138.334 88 215.001 88c15.333 0 34 -2 56 -6l6 23c-15.333 6 -30.333 9 -45 9v452l80 80l-17 17l-50 -49l-76 78l-89 -89v77h-24v-101l-46 -45c0.666992 9.33301 1 16.666 1 21.999v10c0 50 -21.333 92 -64 126l-89 -89v77h-24v-101l-45 -45
c0 42 -8 80.667 -24 116c-13.333 28 -39.666 42 -78.999 42s-68 -16.667 -86 -50c-17.333 -34 -31 -75.333 -41 -124h20c12.667 56.667 38.334 85 77.001 85c38 0 57 -25.333 57 -76v-126c-61.333 0 -92 -27.333 -92 -82c0 -18.667 4 -40 12 -64l23 5
c-4 10.667 -6 19.334 -6 26.001c0 12 3.83301 23 11.5 33s17.167 15 28.5 15c8 0 15.667 -3.66699 23 -11v-209c-34 -5.33301 -63.333 -13.333 -88 -24c-29.333 -13.333 -53 -35 -71 -65c-18.667 -29.333 -28 -59.666 -28 -90.999zM295.994 73
c-15.333 7.33301 -30.333 12.667 -45 16v386l45 46v-448zM339.994 47.001l-20 15v173c12.667 6 25.667 9 39 9c12.667 0 25 -3 37 -9v-146zM356.994 265.001c-13.333 0 -25.666 -2.33301 -36.999 -7v125c6.66699 -1.33301 13.167 -2.5 19.5 -3.5s13.166 -1.5 20.499 -1.5
c12 0 24 1.66699 36 5v-125c-12 4.66699 -25 7 -39 7zM358.994 401.001c-17.333 0 -30.333 2.33203 -39 6.99902v137l40 40c24 -17.333 36 -42.666 36 -75.999v-101c-10 -4.66699 -22.333 -7 -37 -7zM517.994 42l-46 47v387l46 45v-479zM617.994 83
c-24.667 -4.66699 -50 -13.333 -76 -26v178c19.333 5.33301 32.333 8 39 8s19 -2.66699 37 -8v-152zM581.994 265.001c-16.667 0 -30 -2.33301 -40 -7v125l40 -6c4 -1.33301 16 0.666992 36 6v-125c-10 4.66699 -22 7 -36 7zM579.994 400.001c-11.333 0 -24 2.66699 -38 8
v137l43 43l33 -34v-146c-14 -5.33301 -26.667 -8 -38 -8z" />
    <glyph glyph-name="X" unicode="X" horiz-adv-x="567" 
d="M116 92c-23.333 0 -43.001 -10.668 -59.001 -32.001c-2 -2.66699 -5.83301 -9.16699 -11.5 -19.5l-22.5 -42.5l22 -13c4.66699 8.66699 9.66699 16.667 15 24c6.66699 8.66699 14.667 13 24 13c16.667 0 41.334 -15.667 74.001 -47l127 293l90 -190
c23.333 -50 53.333 -84.333 90 -103l97 95l-18 16l-37 -37c-28.667 6 -54 33.333 -76 82l-71 156h115c10 0 17.333 5.33301 22 16l47 108l-22 9l-25 -57h-172l84 197c24.667 -14 47.667 -21 69 -21s37 5.33301 47 16c8 8 20.333 37.333 37 88l-18 9
c-15.333 -23.333 -28.666 -35 -39.999 -35c-25.333 0 -49.666 16.667 -72.999 50l-120 -277l-87 186c-14 30.667 -27 52 -39 64c-17.333 18 -40 27 -68 27c-34.667 0 -62.334 -17 -83.001 -51c-18.667 -29.333 -28 -62.666 -28 -99.999h22c0 51.333 21 77 63 77
c28.667 0 51 -17.667 67 -53l82 -177h-103c-10.667 0 -18 -4.33301 -22 -13l-45 -106l22 -9l23 52h152l-92 -217c-16.667 14.667 -36.334 22 -59.001 22z" />
    <glyph glyph-name="Y" unicode="Y" horiz-adv-x="613" 
d="M372 -197l-9.00195 -19.998c20.667 -10.667 40.667 -16 60 -16c26 0 47.667 9 65 27s26 40 26 66c0 28.667 -9 51.667 -27 69s-41.333 26 -70 26c-23.333 0 -58.666 -14.333 -105.999 -43c-46.667 -28.667 -71.667 -43 -75 -43c-10.667 0 -19.5 4.33301 -26.5 13
s-10.5 18.334 -10.5 29.001c0 26 25.667 48.667 77 68l177 66c24 9.33301 41.167 22.166 51.5 38.499s15.5 38.5 15.5 66.5v393l63 47l-14 19l-34 -25l-82 83l-150 -108v95h-23v-111l-46 -34c0 40.667 -7 74.667 -21 102c-16.667 34.667 -44 52 -82 52
c-32.667 0 -61.667 -16.667 -87 -50s-38 -73.333 -38 -120l21 -4c10 58.667 36 88 78 88c35.333 0 53 -26.333 53 -79v-123c-61.333 0 -92 -26.667 -92 -80c0 -18 4 -39.333 12 -64l23 6c-4 8 -6 16.333 -6 25c0 32 13.333 48 40 48c8.66699 0 16.334 -3.33301 23.001 -10
v-232l109 -67c-18 -6.66699 -33.5 -13.334 -46.5 -20.001s-23.833 -13.334 -32.5 -20.001c-24 -19.333 -36 -44.333 -36 -75c0 -26 8.33301 -47.5 25 -64.5s37.667 -25.5 63 -25.5c24.667 0 46.667 7 66 21l95 68c14.667 10.667 28.667 16 42 16c12 0 22.333 -5 31 -15
s13 -21.333 13 -34c0 -17.333 -6.33301 -32 -19 -44s-27.667 -18 -45 -18c-16.667 0 -33.667 4.33301 -51 13zM279.998 20.002l-46 29v430l46 34v-493zM443.998 117.002c0 -34 -18.333 -57.333 -55 -70l-86 -31v196c24 11.333 46 17 66 17s45 -5.66699 75 -17v-95z
M373.998 251.002c-19.333 0 -43.001 -5 -71.001 -15v173c30 -9.33301 55.333 -14 76 -14c23.333 0 45 4.66699 65 14v-174c-25.333 10.667 -48.666 16 -69.999 16zM374.997 417.002c-25.333 0 -49.333 5.66699 -72 17v96l94 68l47 -47v-117
c-21.333 -11.333 -44.333 -17 -69 -17z" />
    <glyph glyph-name="Z" unicode="Z" horiz-adv-x="523" 
d="M6 -7l13.0029 -17.998c71.333 39.333 141.666 59 210.999 59s134.333 -19.667 195 -59l82 123l-18 14l-27 -42c-38 26 -81 39 -129 39c-62.667 0 -148 -26.667 -256 -80c73.333 55.333 119.333 97 138 125l45.5 78.5c13 22.333 23.5 41.166 31.5 56.499h124
c13.333 0 23 6.66699 29 20l44 100l-22 10l-22 -54h-117c1.33301 1.33301 2.16602 2.66602 2.49902 3.99902s0.833008 2.33301 1.5 3l45 93c32.667 66.667 79.334 121.334 140.001 164.001l-10 26c-64.667 -40.667 -131 -61 -199 -61c-70.667 0 -126.334 24.333 -167.001 73
l-83 -123l19 -13l26 39c40 -30 82.333 -45 127 -45c41.333 0 101.666 17.333 180.999 52c-21.333 -16.667 -40.166 -32.834 -56.499 -48.501s-30.833 -31.167 -43.5 -46.5c-26.667 -32 -51.334 -71 -74.001 -117h-127c-16.667 0 -27.667 -6.66699 -33 -20l-40 -98l21 -9
l19 51h124c-56.667 -124 -121.667 -222.667 -195 -296z" />
    <glyph glyph-name="bracketleft" unicode="[" horiz-adv-x="266" 
d="M85 -216h147v35h-71v842h76v35h-152v-912z" />
    <glyph glyph-name="backslash" unicode="\" horiz-adv-x="229" 
d="M146 81l0.000976562 467.001l21 18c24 -25.333 43.333 -38 58 -38c15.333 0 32.333 8.66699 51 26c1.33301 1.33301 14.666 16.666 39.999 45.999l-16 17c-18.667 -22.667 -32 -34 -40 -34c-14 0 -32.333 24 -55 72c-33.333 -65.333 -87.333 -111.333 -162 -138l9 -21
l24 9v-424l-58 -49l15 -18l36 30l56 -55l91 76l-15 18l-30 -25z" />
    <glyph glyph-name="bracketright" unicode="]" horiz-adv-x="266" 
d="M181 696h-147v-34h71v-843h-76v-35h152v912z" />
    <glyph glyph-name="asciicircum" unicode="^" horiz-adv-x="500" 
d="M487 286h37l-266 414h-7l-275 -414h98l209 313z" />
    <glyph glyph-name="underscore" unicode="_" horiz-adv-x="500" 
d="M512 -87h-524v-42h524v42z" />
    <glyph glyph-name="grave" unicode="`" horiz-adv-x="500" 
d="M287 427h4.00098c2.66699 0 6.66699 0.333008 12 1v24c-2 -0.666992 -5 -1 -9 -1c-18.667 0 -35.334 8.33301 -50.001 25c-15.333 17.333 -23 35 -23 53l1.5 9.5l4.5 28.5l-91 -26c6.66699 -35.333 24.667 -63.333 54 -84c28.667 -20 61 -30 97 -30z" />
    <glyph glyph-name="a" unicode="a" horiz-adv-x="366" 
d="M216 80c0 -33.333 12.667 -63.667 38 -91l94 75l-15 18l-28 -23c-12.667 17.333 -19 40.666 -19 69.999v161l53 43l-15 18l-34 -26l-55 55c-30.667 -45.333 -75.334 -75.666 -134.001 -90.999l-5 6c26 2.66699 39 16.334 39 41.001c0 12 -4.16699 21.833 -12.5 29.5
s-18.166 11.5 -29.499 11.5c-28.667 0 -43 -14.333 -43 -43c0 -18.667 26.333 -55.334 79 -110.001l-61 -57c-30 -28 -45 -58.333 -45 -91c0 -45.333 29 -74.333 87 -87zM216 110.999l-66.002 -57c-8 0 -16.167 1.83301 -24.5 5.5s-15.833 8.66699 -22.5 15
s-12.167 13.5 -16.5 21.5s-6.5 16 -6.5 24c0 14.667 8 30.667 24 48c6.66699 6.66699 13.334 13 20.001 19s13.334 12.333 20.001 19l26 -29l18 16l-69 77c28 8 53.333 19.333 76 34l21 -19v-174z" />
    <glyph glyph-name="b" unicode="b" horiz-adv-x="383" 
d="M12 33l12.999 -16l30 23l77 -51c32.667 24.667 64.334 42 95.001 52c30 9.33301 66 14 108 14v23l-23 1v219l48 39l-15 18l-32 -26l-73 51l-108 -87v226c0 44 10.667 79.667 32 107l-17 11c-28 -26.667 -48.667 -58 -62 -94l-12 66l-21 -6
c6.66699 -27.333 10 -53.333 10 -78v-447zM241.999 74c-23.333 -6 -42.667 -13.333 -58 -22l-52 35v176l69 55l41 -30v-214z" />
    <glyph glyph-name="c" unicode="c" horiz-adv-x="307" 
d="M24 32l15.001 -19l35 28l72 -52l151 101l-13 19l-86 -57l-53 37v216l21 7c14 -22 22.667 -35.333 26 -40c12 -14 25 -21 39 -21c26 0 55 27.333 87 82l-19 14c-14.667 -24.667 -27.334 -37 -38.001 -37c-12 0 -26.333 23.333 -43 70c-37.333 -43.333 -100 -65 -188 -65
v-23l19.5 -1.5l6.5 -0.5h4c3.33301 0 8.33301 0.333008 15 1v-215z" />
    <glyph glyph-name="d" unicode="d" horiz-adv-x="384" 
d="M24 32l16.001 -17l25 23l77 -49c53.333 43.333 121.666 65 204.999 65v23h-27v216l41 38l-14 18l-31 -28l-203 226l31 28l-16 17l-83 -74l157 -175c-39.333 -18.667 -79.333 -28 -120 -28h-11c-6 0 -14.667 0.333008 -26 1v-23l27 -1v-217zM250.001 72l-56 -18.999
l-52 33v211c32 7.33301 58 15.666 78 24.999l30 -28v-222z" />
    <glyph glyph-name="e" unicode="e" horiz-adv-x="310" 
d="M23 34l14.999 -19l24 23l80 -49l148 97l-13 20l-89 -60l-46 28v56l178 118l-106 132c-51.333 -43.333 -113.666 -65 -186.999 -65v-23c8.66699 -0.666992 15 -1.16699 19 -1.5l6 -0.5h5c3.33301 0 8.33301 0.333008 15 1v-212zM241.999 225l-100 -68v148l27 9z" />
    <glyph glyph-name="f" unicode="f" horiz-adv-x="229" 
d="M18 32l15.0029 -18l36 30l56 -55l91 76l-15 18l-30 -25l-25 23v239c27.333 0 40 -0.333008 38 -1c13.333 1.33301 22.666 8 27.999 20l28 60l-21 10l-14 -29h-59v168c6.66699 4.66699 13.667 10.667 21 18c25.333 -25.333 44.666 -38 57.999 -38
c15.333 0 32.333 8.66699 51 26l20 23l20 23l-16 17c-18.667 -22.667 -32 -34 -40 -34c-12.667 0 -31 24 -55 72c-33.333 -65.333 -87.333 -111.333 -162 -138l9 -21l24 9v-125c-16.667 0 -26.334 -0.666992 -29.001 -2c-7.33301 -2 -13.333 -9 -18 -21l-29 -63l21 -10
l17 36h38v-239z" />
    <glyph glyph-name="g" unicode="g" horiz-adv-x="388" 
d="M180 -3l-167.999 -184l15 -15c24.667 19.333 45.334 29 62.001 29c35.333 0 69.666 -21.667 102.999 -65l109 76c46 32 69 72.667 69 122c0 40 -16.667 72 -50 96v233l49 49l-17 16l-29 -29l-75 55c-48.667 -44.667 -116.334 -67 -203.001 -67v-23l25 -1v-209l-49 -49
l16 -17l33 33zM229.001 50l-89.001 41l-1 204c12.667 2.66699 24.834 6 36.501 10s23.167 9.33301 34.5 16l40 -29v-220zM314 -79c0 -23.333 -7.33301 -42.667 -22 -58c-8 -9.33301 -25 -22.333 -51 -39c-27.333 35.333 -60.333 53 -99 53c-18 0 -35.333 -4.66699 -52 -14
l160 174l-2 -26c44 -17.333 66 -47.333 66 -90z" />
    <glyph glyph-name="h" unicode="h" horiz-adv-x="401" 
d="M24 33l14.998 -17.999l32 28l56 -53l82 69l-16 18l-21 -18l-23 22v162l81 70l25 -23v-256c-20.667 -22.667 -31 -46.334 -31 -71.001c0 -14.667 8.66699 -36.667 26 -66s26 -47.666 26 -54.999c0 -16 -14.333 -36 -43 -60l14 -17c14.667 11.333 26.667 21.166 36 29.499
s16.666 15.166 21.999 20.499c21.333 23.333 32 45.666 32 66.999c0 14 -12.333 35.333 -37 64s-37 46.667 -37 54c0 10.667 6 19.667 18 27c9.33301 6.66699 20.333 10 33 10c10 0 21 -3 33 -9l10 19c-12 6.66699 -22.667 10.334 -32 11.001v236l53 46l-15 17l-32 -27
l-55 53l-127 -109v247c0 26 1.66699 45 5 57c2.66699 6.66699 6.33398 14.167 11.001 22.5s10.667 17.5 18 27.5l-16 10c-29.333 -27.333 -50 -58.666 -62 -93.999c-3.33301 17.333 -6.16602 31.5 -8.49902 42.5s-4.16602 19.167 -5.49902 24.5l-19 -6
c2.66699 -20.667 4.5 -37 5.5 -49s1.5 -20 1.5 -24v-451z" />
    <glyph glyph-name="i" unicode="i" horiz-adv-x="215" 
d="M68 287v-192c0 -49.333 14.667 -84.666 44 -105.999l90 78l-15 18l-26 -23c-15.333 11.333 -23 32.666 -23 63.999v166l50 45l-15 17l-31 -25l-56 51l-90 -79l14 -18l31 27zM43 485l57 -51l79 70l-15 18l-20 -17l-56 50l-81 -70l15 -18z" />
    <glyph glyph-name="j" unicode="j" horiz-adv-x="204" 
d="M73 -225v-2c0 -2 0.333008 -4.66699 1 -8h21c0 18 17 47.667 51 89c34.667 40.667 52 76.667 52 108c0 43.333 -18.667 75 -56 95v234l55 48l-15 18l-31 -27l-56 50l-89 -78l15 -17l29 25l22 -19v-280c46.667 -12 70 -41 70 -87c0 -14 -11.667 -38.333 -35 -73
c-22.667 -34.667 -34 -60 -34 -76zM56 491l57 -51l79 70l-16 18l-20 -17l-56 50l-81 -70l16 -18z" />
    <glyph glyph-name="k" unicode="k" horiz-adv-x="373" 
d="M11 33l15 -18.001l34 29l56 -55l83 69l-15 18l-21 -19l-26 25v59l52 36c18.667 -14.667 35 -45.667 49 -93c14.667 -48 29.667 -79.667 45 -95l89 74l-15 18l-22 -19c-13.333 9.33301 -28 34.333 -44 75c-14.667 38 -32.667 62.667 -54 74l86 59l-86 110l-100 -71v213
c0 44.667 9 78.667 27 102l-14 13c-29.333 -25.333 -49.333 -56.333 -60 -93l-12 67l-20 -6c6 -31.333 9 -56.666 9 -75.999v-449zM251 249.999l-114 -80v110l57 42z" />
    <glyph glyph-name="l" unicode="l" horiz-adv-x="211" 
d="M12 34l16 -18.998l34 28l57 -54l92 80l-16 17l-33 -30l-23 22v443c0 39.333 11 73.666 33 102.999l-16 13c-32.667 -34.667 -53.667 -67.334 -63 -98.001l-5 29c-2 11.333 -4.66699 24.333 -8 39l-22 -7c7.33301 -29.333 11 -53.333 11 -72v-446z" />
    <glyph glyph-name="m" unicode="m" horiz-adv-x="559" 
d="M19 28l16 -16.999l32 28l58 -52l77 68l-16 18l-20 -19l-20 18v165l78 68c14.667 -14.667 22 -36.667 22 -66v-168l-24 -18l74 -66l82 70l-17 17l-24 -20l-21 17v167l85 70l15 -14v-201c0 -54 14.333 -89.333 43 -106l88 71l-14 20l-24 -20
c-15.333 9.33301 -23 31.666 -23 66.999v158l61 53l-15 18l-31 -27l-55 51l-130 -109c0 50.667 -14.667 87 -44 109l-127 -111c0 26.667 -2 46.667 -6 60c-6 16.667 -17.667 33.667 -35 51l-92 -81l15 -18l28 25c14 -15.333 21 -37 21 -65v-160z" />
    <glyph glyph-name="n" unicode="n" horiz-adv-x="395" 
d="M22 33l15 -18.001l33 27l56 -53l81 69l-15 18l-26 -21l-21 21v161l84 73l24 -20v-193c0 -48 13.667 -84 41 -108l89 76l-15 18l-27 -23c-12 12 -18 34.667 -18 68v166l52 44l-15 18l-31 -26l-55 50l-129 -112c0 28 -1.66699 48.667 -5 62
c-5.33301 18.667 -17.333 35.334 -36 50.001l-92 -78l15 -18l30 26c12 -12 18 -35 18 -69v-164z" />
    <glyph glyph-name="o" unicode="o" horiz-adv-x="393" 
d="M24 35l16.001 -18l28 25l75 -53c55.333 43.333 122.666 65 201.999 65v23h-24v217l49 44l-15 18l-32 -28l-71 52c-30 -27.333 -62 -45.333 -96 -54c-27.333 -8 -63.333 -12 -108 -12v-23h25v-213zM251.001 71c-11.333 -2.66699 -21.6689 -5.66895 -31.002 -9.00195
s-17.666 -6.66602 -24.999 -9.99902l-52 38v205c22.667 4.66699 44.334 12.334 65.001 23.001l43 -31v-216z" />
    <glyph glyph-name="p" unicode="p" horiz-adv-x="392" 
d="M18 -215l14.998 -16.999l107 96v170c12.667 -8 24.167 -15.667 34.5 -23l29.5 -21c10.667 12 20.834 22.167 30.501 30.5s19.667 15 30 20s21.833 8.66699 34.5 11s27.334 3.5 44.001 3.5v23c-4 0.666992 -7 1 -9 1h-3h-3c-2 0 -5 -0.333008 -9 -1v212l50 44l-16 17
l-30 -26l-76 55l-107 -96c0 20 -4 37.667 -12 53c-2.66699 4.66699 -6.66699 10.667 -12 18s-12.333 15.666 -21 24.999l-89 -80l15 -17l26 23c15.333 -17.333 23 -40.333 23 -69v-159l-50 -44l16 -18l34 30v-214zM149.998 101.001h-3.00098
c-1.33301 0 -3.66602 -0.333008 -6.99902 -1v153l69 61l40 -29v-223c-4 -1.33301 -8.33301 -4.33301 -13 -9c-20 32 -48.667 48 -86 48z" />
    <glyph glyph-name="q" unicode="q" horiz-adv-x="389" 
d="M253 -166l-54 -49l15 -17l111 99v419l52 47l-16 17l-29 -25l-73 55c-41.333 -45.333 -97.666 -68 -168.999 -68h-13c-6.66699 0 -16.334 0.333008 -29.001 1v-24l27 -1v-212l-52 -47l15 -17l30 27l80 -49l105 80v-236zM255 102l-67 -52l-43 27v216c28 6 52 14 72 24
l38 -29v-186z" />
    <glyph glyph-name="r" unicode="r" horiz-adv-x="298" 
d="M20 34l15.001 -17l28 26l78 -54l103 71l-14 19l-43 -30l-46 32v181l25 34c22 -24 42 -36 60 -36c14.667 0 29.667 8 45 24l32 44l-19 14l-6 -8l-6 -8c-4.66699 -6.66699 -9.33398 -10 -14.001 -10c-9.33301 0 -29 21.333 -59 64l-58 -79
c-3.33301 24 -17.333 50.333 -42 79l-93 -80l15 -18l29 24c14 -16 21 -39 21 -69v-157z" />
    <glyph glyph-name="s" unicode="s" horiz-adv-x="358" 
d="M151 167l-120.999 -166l18 -12c14.667 20.667 32.667 31 54 31c22.667 0 47.667 -10 75 -30c43.333 43.333 95.666 65 156.999 65v23h-26v128h-101l117 160l-19 14c-17.333 -20 -36 -30 -56 -30c-20.667 0 -46.667 9.66699 -78 29c-44 -44 -93.333 -66 -148 -66v-23h25
v-123h103zM178.001 206h-60v101l16 10c18.667 -14.667 38.667 -22 60 -22c24 0 46.667 8.33301 68 25zM90.001 47l88.999 120h57v-106l-12 -5c-21.333 12 -39.666 18 -54.999 18c-20 0 -46.333 -9 -79 -27z" />
    <glyph glyph-name="t" unicode="t" horiz-adv-x="235" 
d="M22 34l14.999 -18l32 27l59 -54l91 76l-15 18l-35 -30l-21 20v248h27c22 0 36.667 8.66699 44 26l22 55l-21 9l-14 -31h-58v161l42 37l-15 18l-97 -82v-134h-22c-13.333 0 -24.666 -10.667 -33.999 -32l-21 -53l21 -9l15 35h41v-240z" />
    <glyph glyph-name="u" unicode="u" horiz-adv-x="388" 
d="M367 335l-15 18l-34 -27l-55 54l-81 -71l15 -17l26 21l21 -21v-161l-84 -73l-24 20v192c0 48 -13.667 84.667 -41 110l-89 -78l15 -17l27 23c12 -13.333 18 -36 18 -68v-166l-52 -44l15 -18l31 26l55 -49l129 110c0 -28 2 -48.333 6 -61c4.66699 -18 16 -34.333 34 -49
l93 77l-15 18l-31 -26c-11.333 11.333 -17 34.333 -17 69v164z" />
    <glyph glyph-name="v" unicode="v" horiz-adv-x="381" 
d="M18 36l15.001 -17l29 25l77 -55c44 44.667 100 67 168 67h12c6 0 14 -0.333008 24 -1v24c-4.66699 0.666992 -8.33398 1 -11.001 1h-3h-3c-2 0 -5 -0.333008 -9 -1v209l52 47l-16 17l-34 -30l-60 58l-82 -74l16 -18l22 21l32 -31v-205c-33.333 -10 -55.333 -18 -66 -24
l-43 32v276c-56 0 -84 17.333 -84 52c0 19.333 14.333 35.333 43 48l-7 22c-52.667 -16 -79 -51 -79 -105c0 -37.333 19 -65 57 -83v-209z" />
    <glyph glyph-name="w" unicode="w" horiz-adv-x="539" 
d="M23 32l15 -16.9971l32 28l59 -54l104 65l72 -65c46.667 45.333 102 68 166 68h10c5.33301 0 12.333 -0.333008 21 -1l-1 23l-12 1.5l-4 0.5h-3c-2 0 -5 -0.333008 -9 -1v207l54 46l-15 18l-39 -32l-66 61l-84 -74l15 -17l28 24l41 -40v-200
c-18.667 -4 -38 -11.667 -58 -23l-44 42v180c0 49.333 -14.333 85.333 -43 108l-91 -78l16 -18l26 23c14.667 -14 22 -36.333 22 -67v-158l-54 -34l-43 40v222c-30.667 24.667 -46 52.667 -46 84c0 55.333 47.667 102.666 143 141.999l-5 20
c-60 -23.333 -107.333 -50.333 -142 -81c-36.667 -32.667 -55 -75.334 -55 -128.001c0 -38.667 12.333 -69.334 37 -92.001v-182z" />
    <glyph glyph-name="x" unicode="x" horiz-adv-x="377" 
d="M0 27l17.998 -12c10 18 18.333 27 25 27c16.667 0 38 -18.667 64 -56l73 148c5.33301 -14.667 10.833 -29 16.5 -43s11.167 -28.333 16.5 -43c17.333 -34.667 37.333 -55.334 60 -62.001l89 75l-14 19l-38 -32c-12 5.33301 -21.333 13.333 -28 24
c-4.66699 7.33301 -9.66699 18.666 -15 33.999l-44 116l31 64c16 -12 30.333 -18 43 -18c15.333 0 30 8 44 24l30 45l-17 11c-11.333 -16 -20.666 -24 -27.999 -24c-10 0 -27.667 17.667 -53 53l-62 -125l-25.5 67c-6.33301 16 -10.833 26.333 -13.5 31
c-6 10 -17.667 19 -35 27l-95 -80l15 -18l43 36c8.66699 -4.66699 15 -11.667 19 -21c0.666992 -1.33301 1.83398 -4.16602 3.50098 -8.49902s4.16699 -10.166 7.5 -17.499l39 -103l-41 -84c-3.33301 2.66699 -7 5 -11 7s-7.66699 4.33301 -11 7
c-8.66699 4.66699 -17 7 -25 7c-18 0 -32.333 -6 -43 -18l-22.5 -33c-6.33301 -9.33301 -11.5 -17.333 -15.5 -24z" />
    <glyph glyph-name="y" unicode="y" horiz-adv-x="379" 
d="M124 -191l-9.99902 -21c28.667 -14 55.667 -21 81 -21c34.667 0 66 9 94 27c32 20 48 46.667 48 80c0 22 -7.83301 39.833 -23.5 53.5s-34.5 20.5 -56.5 20.5c-0.666992 0 -37.334 -10 -110.001 -30l-13.5 -4l-12.5 -4c-16 0 -24 8.33301 -24 25c0 16 11 28.667 33 38
l132 52c25.333 10 40.333 18.333 45 25s7 27.667 7 63v174l56 48l-16 18l-31 -28l-61 55l-81 -72l15 -17l25 22l23 -24v-218c0 -16 -6.66699 -28 -20 -36c-4 -2 -18 -7 -42 -15l-44 19v241c0 33.333 -14 66.666 -42 99.999l-90 -79l15 -18l26 23
c10 -15.333 16 -26.333 18 -33c2 -7.33301 3 -19.666 3 -36.999v-191l86 -37c-28.667 -11.333 -50.667 -22 -66 -32c-17.333 -11.333 -26 -31.333 -26 -60c0 -22.667 7 -40.5 21 -53.5s32.333 -19.5 55 -19.5c15.333 0 38.666 6.33301 69.999 19
c32.667 12 54.334 18 65.001 18c18 0 27 -8 27 -24c0 -18.667 -12.667 -34.667 -38 -48c-20.667 -10.667 -42 -16 -64 -16c-19.333 0 -44 5.66699 -74 17z" />
    <glyph glyph-name="z" unicode="z" horiz-adv-x="298" 
d="M12 15l20.001 -15c20 22 48.333 33 85 33c33.333 0 69.666 -14.667 108.999 -44l60 85l-19 13l-16 -23c-27.333 15.333 -53 23 -77 23c-32 0 -69.333 -13.333 -112 -40l87 118c44 0 69.667 2 77 6c6 3.33301 20.333 22.333 43 57l-19 14l-21 -30h-46l103 145l-18 14
c-19.333 -19.333 -46 -29 -80 -29c-36 0 -68.667 12.667 -98 38l-70 -100l19 -13l21 31c22.667 -12.667 45 -19 67 -19c30.667 0 63.667 12.333 99 37l-72 -104h-58c-12.667 0 -34 -23 -64 -69l19 -13l25 35h44z" />
    <glyph glyph-name="braceleft" unicode="{" horiz-adv-x="459" 
d="M82 265l-0.00195312 -21.999c38 0 63.667 -6 77 -18c14.667 -12.667 22 -38 22 -76v-198c0 -75.333 13.333 -122 40 -140s79.334 -27 158.001 -27v35c-44 0 -75.333 7.66699 -94 23c-18.667 16.667 -28 47 -28 91v171c0 44 -4.5 78.333 -13.5 103
s-29.5 40.334 -61.5 47.001c30.667 6.66699 51.667 21 63 43c8 16 12 41.333 12 76v166c0 49.333 10.333 82.333 31 99c10 9.33301 21.333 15.666 34 18.999c8 2.66699 27 4 57 4v35c-73.333 -0.666992 -120.666 -6 -141.999 -16c-37.333 -17.333 -56 -57.333 -56 -120v-170
c0 -34.667 -1 -60.334 -3 -77.001c-2 -17.333 -15 -30.333 -39 -39c-18 -6 -37 -9 -57 -9z" />
    <glyph glyph-name="bar" unicode="|" horiz-adv-x="500" 
d="M277 666h-53v-832h53v832z" />
    <glyph glyph-name="braceright" unicode="}" horiz-adv-x="459" 
d="M377 215v22c-37.333 0 -63 6 -77 18c-14.667 12.667 -22 37.667 -22 75v199c0 80 -12 127.667 -36 143c-24 16 -73.333 24 -148 24h-14v-35c46 0 77.333 -7.33301 94 -22c18.667 -16 28 -46.667 28 -92v-172c0 -44 4.33301 -77.667 13 -101
c8.66699 -24.667 29.334 -40.667 62.001 -48c-30 -6.66699 -50.667 -21.334 -62 -44.001c-8.66699 -16.667 -13 -42 -13 -76v-165c0 -46 -8.83301 -77.833 -26.5 -95.5s-49.5 -26.5 -95.5 -26.5v-35c37.333 0.666992 67.666 2.33398 90.999 5.00098
s40.333 6.33398 51 11.001c37.333 17.333 56 57.333 56 120v169c0 41.333 1 67.666 3 78.999c2 14 11.5 25.333 28.5 34s39.5 13 67.5 13z" />
    <glyph glyph-name="asciitilde" unicode="~" horiz-adv-x="500" 
d="M37 280l29.9971 -21.001c40.667 37.333 65 56 73 56c4.66699 0 22.334 -6.66699 53.001 -20c18.667 -7.33301 33 -13.166 43 -17.499s15.667 -6.83301 17 -7.5c10.667 -4 24.667 -6 42 -6c32 0 57.333 6.66699 76 20l48.5 42.5c13.667 12.333 24.834 22.833 33.501 31.5
l-29 21c-37.333 -37.333 -61.333 -56 -72 -56c-18.667 0 -45 8.33301 -79 25c-34.667 17.333 -60.667 26 -78 26c-31.333 0 -60.666 -10.333 -87.999 -31c-4 -2.66699 -27.333 -23.667 -70 -63z" />
    <glyph glyph-name="exclamdown" unicode="&#xa1;" horiz-adv-x="237" 
d="M149 -152l-24 368.001l-25 -15l-31 -364c-14.667 -6.66699 -32 -19.334 -52 -38.001l15 -18c8.66699 8.66699 19 13 31 13c20 0 38.667 -13 56 -39l98 82l-15 18l-27 -22c-9.33301 6.66699 -18 11.667 -26 15zM120 255.001l93 78l-15 18l-29 -24l-57 53l-97 -82l15 -18
l33 27z" />
    <glyph glyph-name="cent" unicode="&#xa2;" 
d="M229 554v-107c-26 -18.667 -52.667 -31 -80 -37c-19.333 -4.66699 -48 -7 -86 -7v-24l45 -1v-214l-51 -44l15 -19l35 28l92 -68l30 20v-91h22v106l99 67l-13 19l-86 -57v216l10.5 -1.5l3.5 -0.5c25.333 0 54 27 86 81l-19 14c-15.333 -24 -28 -36 -38 -36
c-9.33301 0 -18.333 9.33301 -27 28l-8 20l-8 21v87h-22zM199 400c12 -19.333 22 -34 30 -44v-216l-51 36v216z" />
    <glyph glyph-name="sterling" unicode="&#xa3;" horiz-adv-x="445" 
d="M71 -96h22c0 38 10.5 68.5 31.5 91.5s50.5 34.5 88.5 34.5c55.333 0 99.333 -18.333 132 -55l98 97l-17 16l-35 -35c-41.333 26 -84.333 39 -129 39c-52 0 -97.333 -17.333 -136 -52c-38 -35.333 -57 -73 -57 -113c0 -1.33301 0.166992 -4 0.5 -8s0.833008 -9 1.5 -15z
M143 155c0 -16 -6.66895 -32.666 -20.002 -49.999l-38 -38l17 -16c68.667 50.667 103 101 103 151c0 2 -0.833008 7.66699 -2.5 17s-4.16699 22.333 -7.5 39h99v23h-104l-45 122c-11.333 32 -17 53.667 -17 65c0 21.333 7.5 38.666 22.5 51.999s33.167 20 54.5 20
c28 0 56.333 -12.667 85 -38c22.667 -20.667 41.334 -45.667 56.001 -75l99 99l-17 17l-28 -29c-39.333 47.333 -85.666 71 -138.999 71c-52 0 -96 -18 -132 -54c-35.333 -36.667 -53 -80.667 -53 -132c0 -24.667 9.66699 -64 29 -118h-74v-23h83
c19.333 -54 29 -88.333 29 -103z" />
    <glyph glyph-name="currency" unicode="&#xa4;" 
d="M69 164l-65 -65.002l25 -26l66 66c34.667 -24 69.334 -36 104.001 -36c34 0 69.667 12.333 107 37l66 -67l25 26l-67 67c24 34.667 36 69.334 36 104.001c0 32 -11.667 66.667 -35 104l67 67l-25 25l-67 -66c-38.667 24.667 -74 37 -106 37
c-38.667 0 -74.334 -12.333 -107.001 -37l-66 66l-25 -25l65 -66c-23.333 -39.333 -35 -75.333 -35 -108c0 -35.333 12.333 -69.666 37 -102.999zM200 389.998c33.333 0 61.666 -11.667 84.999 -35s35 -51.666 35 -84.999s-11.667 -61.666 -35 -84.999
s-51.666 -35 -84.999 -35s-61.666 11.667 -84.999 35s-35 51.666 -35 84.999s11.667 61.666 35 84.999s51.666 35 84.999 35z" />
    <glyph glyph-name="yen" unicode="&#xa5;" 
d="M352 351l-98.001 -0.000976562l36 133c9.33301 -9.33301 21.333 -14 36 -14c16.667 0 29.334 5.33301 38.001 16c7.33301 8 18.666 32.667 33.999 74l-17 10c-6 -15.333 -9.33301 -23.333 -10 -24c-5.33301 -8 -12.333 -12 -21 -12c-19.333 0 -37.666 16.667 -54.999 50
l-73 -277l-68 197l-11.5 30c-3 8 -5.83301 13.667 -8.5 17c-8 12.667 -20.667 23.667 -38 33l-95 -79l14 -19l43 36c15.333 -7.33301 26.333 -22.666 33 -45.999l37 -125h-81v-26h89l16 -54h-102v-27h108v-162l-57 -48l16 -19l34 28l57 -54l92 80l-16 17l-33 -30l-23 22v166
h121v27h-116l14 54h105v26z" />
    <glyph glyph-name="brokenbar" unicode="&#xa6;" horiz-adv-x="500" 
d="M277 666h-53v-334h53v334zM277 153h-53v-319h53v319z" />
    <glyph glyph-name="section" unicode="&#xa7;" horiz-adv-x="435" 
d="M397 45c0 38.667 -13.9971 70.001 -41.9971 94.001c26.667 44 40.334 67 41.001 69c14 26.667 21 51.667 21 75c0 35.333 -10 62.666 -30 81.999c-21.333 20.667 -59.333 38.667 -114 54c-34.667 10 -62.5 18.5 -83.5 25.5s-35.167 12.167 -42.5 15.5
c-39.333 19.333 -59 47 -59 83c0 24 7.66699 43.167 23 57.5s35 21.5 59 21.5c51.333 0 96.666 -36.667 135.999 -110l99 100l-16 17l-32 -32c-36.667 46.667 -82.667 70 -138 70c-47.333 0 -87.333 -14.333 -120 -43c-36 -31.333 -54 -69.333 -54 -114
c0 -38 15.333 -72 46 -102c-13.333 -21.333 -24.333 -39.833 -33 -55.5s-15.334 -28.167 -20.001 -37.5c-9.33301 -20 -14 -39.333 -14 -58c0 -53.333 28 -92 84 -116l156 -48c56 -20 84 -50.667 84 -92c0 -18 -5.33301 -36.667 -16 -56l-15.5 -25.5l-15.5 -25.5
c-32.667 19.333 -66.667 29 -102 29c-73.333 0 -122.333 -35.333 -147 -106l22 -16c15.333 43.333 44.666 65 87.999 65c21.333 0 42.666 -6.66699 63.999 -20c8 -6 25 -21 51 -45l91 163c19.333 33.333 29 60.333 29 81zM369.003 238.001
c0 -16.667 -11.335 -45.332 -34.002 -85.999c-7.33301 3.33301 -13.666 6.33301 -18.999 9s-9.66602 4.66699 -12.999 6c-9.33301 2.66699 -17 4.66699 -23 6l-120 37c-58.667 18 -88 48.667 -88 92c0 14 12.333 44.333 37 91c18 -12.667 35 -21.334 51 -26.001l122 -37
c58 -17.333 87 -48 87 -92z" />
    <glyph glyph-name="dieresis" unicode="&#xa8;" horiz-adv-x="500" 
d="M147 505l52 -52l52 46l-68 68l-78 -67l15 -18zM377 515l-53 52l-52 -45l69 -69l77 67l-15 18z" />
    <glyph glyph-name="copyright" unicode="&#xa9;" horiz-adv-x="756" 
d="M374 137c61.333 0 109.333 28.335 144 85.002l-16 11c-10.667 -16.667 -29.334 -32.334 -56.001 -47.001v270c4 1.33301 8.5 4 13.5 8l17.5 14l28 28l-13 15c-21.333 -15.333 -34 -23 -38 -23c-10 0 -20.333 10 -31 30l-137 -132l14 -14l25 24v-161l-10 -10l14 -15l47 45
v191l15 14c8.66699 -8 20.334 -13 35.001 -15v-274c-10 -0.666992 -17.667 -1 -23 -1h-8c-39.333 0 -70.333 17 -93 51c-20.667 29.333 -31 64.666 -31 105.999c0 64 26.333 122.333 79 175l-14 16c-40 -34.667 -68.667 -66 -86 -94c-23.333 -37.333 -35 -77.333 -35 -120
c0 -50 13.667 -91.667 41 -125c28.667 -34.667 68 -52 118 -52zM38 333.002c0 -94 33 -174 99 -240c66.667 -66 147 -99 241 -99c95.333 0 175.666 32.667 240.999 98c66 64.667 99 145 99 241s-33 176.667 -99 242c-65.333 65.333 -145.666 98 -240.999 98
c-94.667 0 -175 -33 -241 -99s-99 -146.333 -99 -241zM687 333.002c0 -86.667 -30 -160.001 -90 -220.001c-59.333 -59.333 -132.333 -89 -219 -89c-85.333 0 -158.333 30.333 -219 91c-60 60.667 -90 133.334 -90 218.001c0 86 30 159 90 219s133 90 219 90
c86.667 0 159.667 -30 219 -90c60 -59.333 90 -132.333 90 -219z" />
    <glyph glyph-name="ordfeminine" unicode="&#xaa;" horiz-adv-x="289" 
d="M160 367c3.33301 -20 12.334 -37.334 27.001 -52.001l64 49l-14 15l-18 -13c-6 10 -9 22 -9 36v94l35 26l-14 16l-21 -16l-35 33c-14.667 -20.667 -38 -37.667 -70 -51c7.33301 9.33301 11 17 11 23s-3.33301 11.667 -10 17s-13.334 8 -20.001 8
c-20.667 0 -31 -9.66699 -31 -29c0 -12.667 16 -34 48 -64c-16.667 -14.667 -29.5 -26.5 -38.5 -35.5s-14.833 -15.167 -17.5 -18.5c-6 -9.33301 -9 -20.666 -9 -33.999c0 -28.667 19.667 -47 59 -55zM159.001 392.999l-39 -31.999c-9.33301 1.33301 -18 5.33301 -26 12
c-9.33301 7.33301 -14 15.333 -14 24c0 9.33301 4.33301 18 13 26c4.66699 3.33301 9 6.66602 13 9.99902l12 10l16 -17l16 14l-42 44c14 2.66699 27.667 8.66699 41 18l10 -9v-100zM41.001 280v-27h202v27h-202z" />
    <glyph glyph-name="guillemotleft" unicode="&#xab;" horiz-adv-x="451" 
d="M29 176c73.333 -32.667 125.667 -83.666 157 -152.999l34 74c-38.667 53.333 -85 86.666 -139 99.999l126 130l-16 17zM204.001 176.001c76 -35.333 128.333 -86.332 157 -152.999l34 74c-40 53.333 -86 86.666 -138 99.999l125 130l-16 17z" />
    <glyph glyph-name="logicalnot" unicode="&#xac;" horiz-adv-x="500" 
d="M372 226v-226h93v267h-429v-41h336z" />
    <glyph glyph-name="registered" unicode="&#xae;" horiz-adv-x="756" 
d="M288 199c-24 -10.667 -43.3301 -28.999 -57.9971 -54.999l19 -14c14.667 18.667 35.334 28 62.001 28c23.333 0 44.333 -9.33301 63 -28l55 51l-14 14l-12 -12c-7.33301 6 -13 10.333 -17 13v115l24 17c12 -15.333 24 -50.333 36 -105
c11.333 -47.333 28.666 -78 51.999 -92l60 54l-14 13l-21 -18c-7.33301 4.66699 -12.333 9 -15 13c-1.33301 4 -2.33301 7.66699 -3 11s-1.33398 6.33301 -2.00098 9c-3.33301 18.667 -6.33301 34.167 -9 46.5s-5.33398 21.833 -8.00098 28.5
c-8.66699 26.667 -22.334 47.667 -41.001 63c34.667 28 54.667 45 60 51c8 8.66699 12 23 12 43c0 26.667 -16 54 -48 82l-83 -58v51h-20v-65l-27 -19c0 60 -21.333 90 -64 90c-44 0 -69.333 -35 -76 -105h18c6 32 20.333 48 43 48c18.667 0 28 -13.333 28 -40v-67
c-35.333 0 -53 -16.333 -53 -49c0 -12.667 3 -26.334 9 -41.001l19 10c-2.66699 6 -4 11.333 -4 16c0 14 6.33301 21 19 21c4 0 7.33301 -1.33301 10 -4v-116zM366.003 430.001v-227c-3.33301 0.666992 -7.33301 1.16699 -12 1.5s-9.66699 0.5 -15 0.5v207zM469.003 423.001
c0 -17.333 -9.99902 -34.333 -29.999 -51c-2.66699 -2.66699 -20.334 -14.667 -53.001 -36v108l47 34c24 -24 36 -42.333 36 -55zM38.0039 333.001c0 -94 33 -174 99 -240c66.667 -66 147 -99 241 -99c95.333 0 175.666 32.667 240.999 98c66 64.667 99 145 99 241
s-33 176.667 -99 242c-65.333 65.333 -145.666 98 -240.999 98c-94.667 0 -175 -33 -241 -99s-99 -146.333 -99 -241zM687.004 333.001c0 -86.667 -30 -160.001 -90 -220.001c-59.333 -59.333 -132.333 -89 -219 -89c-85.333 0 -158.333 30.333 -219 91
c-60 60.667 -90 133.334 -90 218.001c0 86 30 159 90 219s133 90 219 90c86.667 0 159.667 -30 219 -90c60 -59.333 90 -132.333 90 -219z" />
    <glyph glyph-name="macron" unicode="&#xaf;" horiz-adv-x="481" 
d="M62 626l14.999 35h216c23.333 0 38.333 9.33301 45 28l21 53l-21 9l-13 -31h-230c-12.667 0 -24.334 -11.333 -35.001 -34c-1.33301 -2.66699 -3.66602 -8.16699 -6.99902 -16.5s-7.66602 -19.833 -12.999 -34.5z" />
    <glyph glyph-name="degree" unicode="&#xb0;" horiz-adv-x="393" 
d="M198 424c35.333 0 65 11.9971 89 35.9971c24 24.667 36 54.667 36 90c0 34 -12.333 63 -37 87c-24 24 -53.333 36 -88 36s-64.667 -11.667 -90 -35s-38 -52.666 -38 -87.999c0 -18 3.33301 -34.667 10 -50s15.667 -28.666 27 -39.999s24.833 -20.166 40.5 -26.499
s32.5 -9.5 50.5 -9.5zM196 642.997c28 0 50.833 -8.83496 68.5 -26.502s26.5 -40.5 26.5 -68.5c0 -13.333 -2.5 -25.666 -7.5 -36.999s-11.833 -21.166 -20.5 -29.499s-18.667 -15 -30 -20s-23.333 -7.5 -36 -7.5c-26.667 0 -49.167 9.16699 -67.5 27.5
s-27.5 40.833 -27.5 67.5c0 26 9 48.167 27 66.5s40.333 27.5 67 27.5z" />
    <glyph glyph-name="plusminus" unicode="&#xb1;" 
d="M177 335h-136l-21 -43h157v-145l46 21v124h136l21 43h-157v145l-46 -21v-124zM380 115h-339l-21 -43h339z" />
    <glyph glyph-name="twosuperior" unicode="&#xb2;" horiz-adv-x="269" 
d="M171 525c0 -22.667 -22.6689 -58.332 -68.002 -106.999s-73 -99.334 -83 -152.001l18 -7c8.66699 20.667 24 31 46 31c26.667 0 58.334 -10.333 95.001 -31l55 60l-17 13l-19 -21c-28 13.333 -51.333 20 -70 20c-26 0 -49.333 -7.33301 -70 -22l43.5 43.5l41.5 40.5
c54.667 52.667 82 96 82 130h15v21c-6.66699 -0.666992 -11.834 -1.16699 -15.501 -1.5s-6.16699 -0.5 -7.5 -0.5c-43.333 0 -79 21 -107 63c-19.333 -47.333 -47.666 -71 -84.999 -71l-2 -17c12.667 -4 26.334 -6 41.001 -6c28 0 54.333 10.667 79 32
c10.667 -5.33301 19.667 -9.33301 27 -12c0.666992 -2 1 -3.66699 1 -5v-1z" />
    <glyph glyph-name="threesuperior" unicode="&#xb3;" horiz-adv-x="269" 
d="M25 301l15 -16.001c12 10 21 15 27 15c10 0 26.667 -14 50 -42c10 10.667 19.167 19.667 27.5 27s17 13.333 26 18s18.833 7.83398 29.5 9.50098s23 2.5 37 2.5v20c-3.33301 0.666992 -5.66602 1 -6.99902 1h-2h-3c-2 0 -5.33301 -0.333008 -10 -1v80l-59 35l53 23l1 52
l15 -1v20c-42 4.66699 -76.667 24.667 -104 60c-16.667 -30.667 -32 -46 -46 -46c-7.33301 0 -16 4 -26 12l-13 -16c21.333 -20.667 44.666 -31 69.999 -31c12 0 27.333 7.33301 46 22l6 -3v-69l-106 -46l10 -18l37 16l63 -37v-66l-13 -8c-19.333 16 -36.333 24 -51 24
c-20 0 -44.333 -12.333 -73 -37z" />
    <glyph glyph-name="acute" unicode="&#xb4;" horiz-adv-x="500" 
d="M165 455l-0.000976562 -23c7.33301 -0.666992 13 -1 17 -1h9c38.667 0 72.334 13.333 101.001 40c27.333 26 43.333 58.333 48 97l-92 -26c0 -26 -7.5 -47 -22.5 -63s-35.167 -24 -60.5 -24z" />
    <glyph glyph-name="mu" unicode="&#xb5;" horiz-adv-x="448" 
d="M145 -9l134.002 139.003c0 -36.667 3.66699 -63.334 11 -80.001c8.66699 -16.667 28 -36.334 58 -59.001h8l86 110l-10 10l-35 -38c-16.667 -0.666992 -25 12.333 -25 39v262c0 20.667 9.33301 34.334 28 41.001v7c-30.667 8 -54.334 34.333 -71.001 79h-8
c-14.667 -42 -38.334 -68.333 -71.001 -79v-7c19.333 -7.33301 29 -21 29 -41v-221l-82 -86c-20 23.333 -34 37.666 -42 42.999v285c0 43.333 -21.333 77.333 -64 102h-9l-81 -103l9 -9l28 31c16.667 -6 25 -19.333 25 -40l2 -299c0 -60.667 10.667 -137.334 32 -230.001h7
c3.33301 12 7 24 11 36l12 36c10 32.667 16 56.667 18 72z" />
    <glyph glyph-name="paragraph" unicode="&#xb6;" 
d="M357 587l-104 80c-41.333 -46 -98.333 -69 -171 -69h-12c-6.66699 0 -16 0.333008 -28 1v-23l27 -2v-212l-52 -47l15 -17l30 27l80 -50l105 81v-516l-47 -42l16 -17l146 130v648l50 45l-16 17zM249 388l-67 -51l-43 26v216c26.667 4.66699 50.667 12.667 72 24l38 -29
v-186zM288 -125v670l33 -26v-614z" />
    <glyph glyph-name="periodcentered" unicode="&#xb7;" horiz-adv-x="233" 
d="M111 262l-94 -79l15 -18l29 25l57 -53l98 82l-16 18l-32 -28z" />
    <glyph glyph-name="periodcentered" unicode="&#x2219;" horiz-adv-x="233" 
d="M111 262l-94 -79l15 -18l29 25l57 -53l98 82l-16 18l-32 -28z" />
    <glyph glyph-name="cedilla" unicode="&#xb8;" horiz-adv-x="500" 
d="M224 -161l-6.99707 -23.999c11.333 -0.666992 20.166 -1.16699 26.499 -1.5s10.166 -0.5 11.499 -0.5c23.333 0 44.666 7 63.999 21c20.667 14.667 31 33.667 31 57c0 29.333 -18.667 50.666 -56 63.999l-70 -54c20 -2 32.333 -4 37 -6c14 -5.33301 21 -14 21 -26
c0 -21.333 -14 -32 -42 -32l-4 0.5z" />
    <glyph glyph-name="onesuperior" unicode="&#xb9;" horiz-adv-x="269" 
d="M69 295l16 -15l21 19l43 -40l69 65l-16 14l-22 -21l-15 15v189c0 40 -13.667 67 -41 81l-71 -66l15 -14l24 22c13.333 -9.33301 20 -22.333 20 -39v-170z" />
    <glyph glyph-name="ordmasculine" unicode="&#xba;" horiz-adv-x="303" 
d="M38 348l13.999 -15l19 15l46 -32c38.667 26 82.334 39 131.001 39v21h-15v123l32 27l-14 16l-20 -17l-45 30c-31.333 -26 -75.333 -39 -132 -39v-21h16v-120zM182.999 372l-16 -4c-5.33301 -1.33301 -10.666 -3.33301 -15.999 -6l-30 20v117
c13.333 2.66699 25.666 6.66699 36.999 12l25 -16v-123zM46.999 280v-27h209v27h-209z" />
    <glyph glyph-name="guillemotright" unicode="&#xbb;" horiz-adv-x="451" 
d="M422 191c-41.333 18.667 -72.667 38.999 -94 60.999c-18.667 18.667 -39.667 49.334 -63 92.001l-34 -74c42 -56 88.333 -89.333 139 -100l-126 -130l16 -17zM246.999 190.999c-74 33.333 -126.333 84.333 -157 153l-34 -74c40.667 -56 86.667 -89.333 138 -100
l-125 -130l16 -17z" />
    <glyph glyph-name="onequarter" unicode="&#xbc;" horiz-adv-x="641" 
d="M68 295l16 -15l21 19l43 -40l69 65l-16 14l-22 -21l-15 15v189c0 40 -13.667 67 -41 81l-71 -66l15 -15l24 22c13.333 -9.33301 20 -22 20 -38v-170zM136 -22l387 629l-20 13l-386 -629zM483 25l14 -15l20 15l36 -32l63 49l-14 16l-20 -16l-10 9v47h51v21l-51 -1v160
l34 28l-14 15l-20 -16l-33 31l-144 -191v-47h125v-44zM521 119h-75v59l75 98v-157z" />
    <glyph glyph-name="onehalf" unicode="&#xbd;" horiz-adv-x="641" 
d="M69 295l16 -15l21 19l43 -40l69 65l-16 14l-22 -21l-15 15v189c0 40 -13.667 67 -41 81l-71 -66l15 -15l24 22c13.333 -9.33301 20 -22 20 -38v-170zM137 -22l387 629l-20 13l-386 -629zM543 265c0 -28 -22.332 -65.333 -66.999 -112
c-45.333 -47.333 -73 -98.333 -83 -153l17 -6c10 19.333 25.667 29 47 29c26 0 57.667 -9.66699 95 -29l54 59l-16 13l-19 -21c-26.667 13.333 -50.334 20 -71.001 20c-24 0 -47.333 -7.33301 -70 -22c8.66699 18 28 39.333 58 64c40 33.333 64.667 55 74 65
c24 26.667 36 54.667 36 84l14 1v21c-6.66699 -0.666992 -11.834 -1.16699 -15.501 -1.5s-6.16699 -0.5 -7.5 -0.5c-43.333 0 -78.666 20.667 -105.999 62c-19.333 -47.333 -48 -71 -86 -71l-1 -17c16.667 -4 30.334 -6 41.001 -6c27.333 0 53.666 11 78.999 33
c6 -5.33301 15 -9.33301 27 -12z" />
    <glyph glyph-name="threequarters" unicode="&#xbe;" horiz-adv-x="641" 
d="M25 302l15 -17c12.667 10 21.667 15 27 15c10 0 26.667 -14 50 -42c18.667 22.667 36 37.667 52 45c16.667 8.66699 39.334 13 68.001 13v20l-22 -1v81l-59 35l53 23l1 51l15 -1v20c-41.333 5.33301 -76 25.333 -104 60c-16.667 -30.667 -32 -46 -46 -46
c-7.33301 0 -16 4 -26 12l-13 -16c21.333 -20.667 44.666 -31 69.999 -31c12 0 27.333 7.66699 46 23l6 -3v-69l-106 -47l10 -18l37 17l63 -38v-66l-13 -8c-19.333 16 -36.333 24 -51 24c-14 0 -38.333 -12 -73 -36zM137 -22l387 629l-20 13l-387 -629zM483 25l14 -15l20 15
l36 -32l63 49l-13 16l-20 -16l-11 9v47h51v21l-51 -1v160l35 28l-14 15l-20 -16l-34 31l-144 -191v-47h125v-44zM521 119h-75v59l75 98v-157z" />
    <glyph glyph-name="questiondown" unicode="&#xbf;" horiz-adv-x="310" 
d="M197 101c0 44.667 -16.668 83 -50.001 115l-17 -14c18 -20 27 -42.333 27 -67c0 -16 -13.333 -37.333 -40 -64l-52.5 -53l-23.5 -24c-27.333 -34.667 -41 -67.667 -41 -99c0 -38 13.667 -70.667 41 -98c28 -28 61 -42 99 -42c68.667 0 115.667 43 141 129l-73 67l3 -30
c0 -33.333 -8 -62.333 -24 -87c-19.333 -27.333 -44.666 -41 -75.999 -41c-18.667 0 -34.667 6.16699 -48 18.5s-20 27.5 -20 45.5c0 24.667 13.333 51.667 40 81l37 38l37 38c26.667 30.667 40 59.667 40 87zM163.999 255l94 79l-16 18l-29 -25l-57 53l-97 -81l15 -18
l33 27z" />
    <glyph glyph-name="Agrave" unicode="&#xc0;" horiz-adv-x="549" 
d="M116 -234l8.99609 -0.00195312c5.33301 0 12.666 0.333008 21.999 1v24c-3.33301 -0.666992 -6.83301 -1.16699 -10.5 -1.5s-7.5 -0.5 -11.5 -0.5c-38 0 -70.667 11.333 -98 34c-28 24.667 -42 55.334 -42 92.001c0 32 12 58.667 36 80
c22.667 18.667 50.334 28 83.001 28c43.333 0 82.333 -16.333 117 -49l98 98l-16 18l-36 -35c-39.333 23.333 -81.333 35 -126 35l39 110h217l41 -138c12.667 -44.667 32.334 -74 59.001 -88l99 98l-16 18l-36 -36c-13.333 5.33301 -23 13.333 -29 24
c-1.33301 2.66699 -3.16602 7 -5.49902 13s-4.83301 13.667 -7.5 23l-131 436c-12 40 -22 65.667 -30 77l9 29l-22 9l-9 -21c-20.667 14.667 -42.667 22 -66 22c-34.667 0 -65.667 -12.333 -93 -37c-9.33301 -7.33301 -19.166 -17.666 -29.499 -30.999
s-21.833 -29.333 -34.5 -48l19 -13c28 40.667 59.667 61 95 61c30 0 55 -14.333 75 -43l-39 -102l-29 1.5c-6.66699 0.333008 -10.667 0.5 -12 0.5c-50.667 0 -76 -29 -76 -87c0 -18 4 -37.333 12 -58l22 10c-3.33301 10 -5 17.667 -5 23c0 30.667 13.333 46 40 46
c8.66699 0 16.334 -3.33301 23.001 -10l-106 -289c-45.333 -5.33301 -83 -23 -113 -53c-31.333 -31.333 -47 -69 -47 -113c0 -43.333 16 -80.333 48 -111c33.333 -31.333 71 -47 113 -47zM372.996 275.998h-164l90 247zM296.996 706.998l7.99902 0.000976562
c4.66699 0 10.334 0.333008 17.001 1v24c-2 -0.666992 -5 -1 -9 -1c-18 0 -34.667 8.66699 -50 26s-23 34.666 -23 51.999l1.5 9.5l4.5 28.5l-91 -26c6 -32.667 23 -60 51 -82c28.667 -21.333 59 -32 91 -32z" />
    <glyph glyph-name="Aacute" unicode="&#xc1;" horiz-adv-x="549" 
d="M116 -234l8.99609 -0.00195312c5.33301 0 12.666 0.333008 21.999 1v24c-3.33301 -0.666992 -6.83301 -1.16699 -10.5 -1.5s-7.5 -0.5 -11.5 -0.5c-38 0 -70.667 11.333 -98 34c-28 24.667 -42 55.334 -42 92.001c0 32 12 58.667 36 80
c22.667 18.667 50.334 28 83.001 28c43.333 0 82.333 -16.333 117 -49l98 98l-16 18l-36 -35c-39.333 23.333 -81.333 35 -126 35l39 110h217l41 -138c12.667 -44.667 32.334 -74 59.001 -88l99 98l-16 18l-36 -36c-13.333 5.33301 -23 13.333 -29 24
c-1.33301 2.66699 -3.16602 7 -5.49902 13s-4.83301 13.667 -7.5 23l-131 436c-12 40 -22 65.667 -30 77l9 29l-22 9l-9 -21c-20.667 14.667 -42.667 22 -66 22c-34.667 0 -65.667 -12.333 -93 -37c-9.33301 -7.33301 -19.166 -17.666 -29.499 -30.999
s-21.833 -29.333 -34.5 -48l19 -13c28 40.667 59.667 61 95 61c30 0 55 -14.333 75 -43l-39 -102l-29 1.5c-6.66699 0.333008 -10.667 0.5 -12 0.5c-50.667 0 -76 -29 -76 -87c0 -18 4 -37.333 12 -58l22 10c-3.33301 10 -5 17.667 -5 23c0 30.667 13.333 46 40 46
c8.66699 0 16.334 -3.33301 23.001 -10l-106 -289c-45.333 -5.33301 -83 -23 -113 -53c-31.333 -31.333 -47 -69 -47 -113c0 -43.333 16 -80.333 48 -111c33.333 -31.333 71 -47 113 -47zM372.996 275.998h-164l90 247zM257.996 733.998l0.000976562 -23
c7.33301 -0.666992 13 -1 17 -1h9c39.333 0 72.666 13.333 99.999 40c28 26.667 44.333 59 49 97l-92 -26c0 -26 -7.5 -47 -22.5 -63s-35.167 -24 -60.5 -24z" />
    <glyph glyph-name="Acircumflex" unicode="&#xc2;" horiz-adv-x="549" 
d="M116 -234l8.99609 -0.00195312c5.33301 0 12.666 0.333008 21.999 1v24c-3.33301 -0.666992 -6.83301 -1.16699 -10.5 -1.5s-7.5 -0.5 -11.5 -0.5c-38 0 -70.667 11.333 -98 34c-28 24.667 -42 55.334 -42 92.001c0 32 12 58.667 36 80
c22.667 18.667 50.334 28 83.001 28c43.333 0 82.333 -16.333 117 -49l98 98l-16 18l-36 -35c-39.333 23.333 -81.333 35 -126 35l39 110h217l41 -138c12.667 -44.667 32.334 -74 59.001 -88l99 98l-16 18l-36 -36c-13.333 5.33301 -23 13.333 -29 24
c-1.33301 2.66699 -3.16602 7 -5.49902 13s-4.83301 13.667 -7.5 23l-131 436c-12 40 -22 65.667 -30 77l9 29l-22 9l-9 -21c-20.667 14.667 -42.667 22 -66 22c-34.667 0 -65.667 -12.333 -93 -37c-9.33301 -7.33301 -19.166 -17.666 -29.499 -30.999
s-21.833 -29.333 -34.5 -48l19 -13c28 40.667 59.667 61 95 61c30 0 55 -14.333 75 -43l-39 -102l-29 1.5c-6.66699 0.333008 -10.667 0.5 -12 0.5c-50.667 0 -76 -29 -76 -87c0 -18 4 -37.333 12 -58l22 10c-3.33301 10 -5 17.667 -5 23c0 30.667 13.333 46 40 46
c8.66699 0 16.334 -3.33301 23.001 -10l-106 -289c-45.333 -5.33301 -83 -23 -113 -53c-31.333 -31.333 -47 -69 -47 -113c0 -43.333 16 -80.333 48 -111c33.333 -31.333 71 -47 113 -47zM372.996 275.998h-164l90 247zM170.996 729.998l17.001 -17l74 80
c33.333 -53.333 85.666 -80 156.999 -80v21c-53.333 6 -80 35 -80 87c0 6 1 14.667 3 26l-83 -24z" />
    <glyph glyph-name="Atilde" unicode="&#xc3;" horiz-adv-x="549" 
d="M116 -234l8.99609 -0.00195312c5.33301 0 12.666 0.333008 21.999 1v24c-3.33301 -0.666992 -6.83301 -1.16699 -10.5 -1.5s-7.5 -0.5 -11.5 -0.5c-38 0 -70.667 11.333 -98 34c-28 24.667 -42 55.334 -42 92.001c0 32 12 58.667 36 80
c22.667 18.667 50.334 28 83.001 28c43.333 0 82.333 -16.333 117 -49l98 98l-16 18l-36 -35c-39.333 23.333 -81.333 35 -126 35l39 110h217l41 -138c12.667 -44.667 32.334 -74 59.001 -88l99 98l-16 18l-36 -36c-13.333 5.33301 -23 13.333 -29 24
c-1.33301 2.66699 -3.16602 7 -5.49902 13s-4.83301 13.667 -7.5 23l-131 436c-12 40 -22 65.667 -30 77l9 29l-22 9l-9 -21c-20.667 14.667 -42.667 22 -66 22c-34.667 0 -65.667 -12.333 -93 -37c-9.33301 -7.33301 -19.166 -17.666 -29.499 -30.999
s-21.833 -29.333 -34.5 -48l19 -13c28 40.667 59.667 61 95 61c30 0 55 -14.333 75 -43l-39 -102l-29 1.5c-6.66699 0.333008 -10.667 0.5 -12 0.5c-50.667 0 -76 -29 -76 -87c0 -18 4 -37.333 12 -58l22 10c-3.33301 10 -5 17.667 -5 23c0 30.667 13.333 46 40 46
c8.66699 0 16.334 -3.33301 23.001 -10l-106 -289c-45.333 -5.33301 -83 -23 -113 -53c-31.333 -31.333 -47 -69 -47 -113c0 -43.333 16 -80.333 48 -111c33.333 -31.333 71 -47 113 -47zM372.996 275.998h-164l90 247zM160.996 744.998l18.998 -17
c24.667 30.667 40.334 46 47.001 46c4 0 18.667 -7 44 -21c24.667 -14 43.334 -21 56.001 -21c20 0 36.333 5.66699 49 17l31.5 35c9 10 16.167 18.667 21.5 26l-19 17l-10.5 -14l-10.5 -14c-10 -12 -18.333 -18 -25 -18c-12 0 -29 7 -51 21c-21.333 14 -38 21 -50 21
c-23.333 0 -43 -9 -59 -27z" />
    <glyph glyph-name="Adieresis" unicode="&#xc4;" horiz-adv-x="549" 
d="M116 -234l8.99609 -0.00195312c5.33301 0 12.666 0.333008 21.999 1v24c-3.33301 -0.666992 -6.83301 -1.16699 -10.5 -1.5s-7.5 -0.5 -11.5 -0.5c-38 0 -70.667 11.333 -98 34c-28 24.667 -42 55.334 -42 92.001c0 32 12 58.667 36 80
c22.667 18.667 50.334 28 83.001 28c43.333 0 82.333 -16.333 117 -49l98 98l-16 18l-36 -35c-39.333 23.333 -81.333 35 -126 35l39 110h217l41 -138c12.667 -44.667 32.334 -74 59.001 -88l99 98l-16 18l-36 -36c-13.333 5.33301 -23 13.333 -29 24
c-1.33301 2.66699 -3.16602 7 -5.49902 13s-4.83301 13.667 -7.5 23l-131 436c-12 40 -22 65.667 -30 77l9 29l-22 9l-9 -21c-20.667 14.667 -42.667 22 -66 22c-34.667 0 -65.667 -12.333 -93 -37c-9.33301 -7.33301 -19.166 -17.666 -29.499 -30.999
s-21.833 -29.333 -34.5 -48l19 -13c28 40.667 59.667 61 95 61c30 0 55 -14.333 75 -43l-39 -102l-29 1.5c-6.66699 0.333008 -10.667 0.5 -12 0.5c-50.667 0 -76 -29 -76 -87c0 -18 4 -37.333 12 -58l22 10c-3.33301 10 -5 17.667 -5 23c0 30.667 13.333 46 40 46
c8.66699 0 16.334 -3.33301 23.001 -10l-106 -289c-45.333 -5.33301 -83 -23 -113 -53c-31.333 -31.333 -47 -69 -47 -113c0 -43.333 16 -80.333 48 -111c33.333 -31.333 71 -47 113 -47zM372.996 275.998h-164l90 247zM160.996 783.998l52 -52l52 46l-68 68l-78 -67l15 -18
zM390.996 793.998l-53 52l-52 -45l69 -69l77 67l-15 18z" />
    <glyph glyph-name="Aring" unicode="&#xc5;" horiz-adv-x="549" 
d="M116 -234l8.99609 -0.00195312c5.33301 0 12.666 0.333008 21.999 1v24c-3.33301 -0.666992 -6.83301 -1.16699 -10.5 -1.5s-7.5 -0.5 -11.5 -0.5c-38 0 -70.667 11.333 -98 34c-28 24.667 -42 55.334 -42 92.001c0 32 12 58.667 36 80
c22.667 18.667 50.334 28 83.001 28c43.333 0 82.333 -16.333 117 -49l98 98l-16 18l-36 -35c-39.333 23.333 -81.333 35 -126 35l39 110h217l41 -138c12.667 -44.667 32.334 -74 59.001 -88l99 98l-16 18l-36 -36c-13.333 5.33301 -23 13.333 -29 24
c-1.33301 2.66699 -3.16602 7 -5.49902 13s-4.83301 13.667 -7.5 23l-131 436c-12 40 -22 65.667 -30 77l9 29l-22 9l-9 -21c-20.667 14.667 -42.667 22 -66 22c-34.667 0 -65.667 -12.333 -93 -37c-9.33301 -7.33301 -19.166 -17.666 -29.499 -30.999
s-21.833 -29.333 -34.5 -48l19 -13c28 40.667 59.667 61 95 61c30 0 55 -14.333 75 -43l-39 -102l-29 1.5c-6.66699 0.333008 -10.667 0.5 -12 0.5c-50.667 0 -76 -29 -76 -87c0 -18 4 -37.333 12 -58l22 10c-3.33301 10 -5 17.667 -5 23c0 30.667 13.333 46 40 46
c8.66699 0 16.334 -3.33301 23.001 -10l-106 -289c-45.333 -5.33301 -83 -23 -113 -53c-31.333 -31.333 -47 -69 -47 -113c0 -43.333 16 -80.333 48 -111c33.333 -31.333 71 -47 113 -47zM372.996 275.998h-164l90 247zM195.996 774.998c0 -38 33 -65.335 99 -82.002
c66.667 20.667 100 51.334 100 92.001s-33.333 68.334 -100 83.001c-66 -26 -99 -57 -99 -93zM353.996 766.996c0 -16 -8.66699 -29.668 -26 -41.001c-61.333 13.333 -92 34.666 -92 63.999c0 16.667 8.33301 31.334 25 44.001c62 -9.33301 93 -31.666 93 -66.999z" />
    <glyph glyph-name="AE" unicode="&#xc6;" horiz-adv-x="850" 
d="M738 530l89.001 86.998l-17 18l-19 -18c-28.667 32.667 -62.334 49 -101.001 49c-18.667 0 -36 -3.66699 -52 -11l-57.5 -41c-17 -12 -31.167 -22.667 -42.5 -32v-485l-41 -27v456c0 42.667 -3.66699 70.667 -11 84l25 37l-23 14l-20 -28c-22 22 -50 33 -84 33
c-32.667 0 -63.334 -12 -92.001 -36c-26 -21.333 -47 -47.666 -63 -78.999l20 -14c25.333 41.333 58.666 62 99.999 62c34 0 56.667 -15 68 -45l-68 -106c-9.33301 1.33301 -18.333 2.5 -27 3.5s-17 1.5 -25 1.5c-59.333 0 -89 -28 -89 -84c0 -20.667 4.33301 -40 13 -58
l21 9c-3.33301 10 -5 17.667 -5 23c0 12.667 3.33301 23.334 10 32.001c6.66699 10 16.334 15 29.001 15c10 0 18.667 -4.66699 26 -14l-189 -286c-44.667 -6 -82 -24 -112 -54c-30.667 -30.667 -46 -68 -46 -112c0 -42.667 15.667 -79.667 47 -111
c32.667 -31.333 70.334 -47 113.001 -47h10c5.33301 0 12.666 0.333008 21.999 1v24c-3.33301 -0.666992 -6.83301 -1.16699 -10.5 -1.5s-7.83398 -0.5 -12.501 -0.5c-37.333 0 -69.666 11.667 -96.999 35c-28 24 -42 54.333 -42 91c0 32 12 58.667 36 80
c22.667 18.667 50.334 28 83.001 28c42.667 0 81.334 -16.333 116.001 -49l99 98l-17 18l-35 -35c-40.667 23.333 -80.667 35 -120 35l72 109h201v-195l-15 -11l15 -18c56 48 102.667 72 140 72c40 0 84.667 -24 134 -72l95 95l-14 17l-27 -27
c-13.333 10 -25.5 18.5 -36.5 25.5l-27.5 17.5v199l79 80l-17 18l-24 -25l-82 80l-78 -79v195c29.333 23.333 52.666 35 69.999 35c24 0 59.333 -25.333 106 -76zM269.001 275.998l153 234v-234h-153zM562.001 108.998v234l34 32l64 -62v-202c-18 6.66699 -34.667 10 -50 10
c-16 0 -32 -4 -48 -12z" />
    <glyph glyph-name="Ccedilla" unicode="&#xc7;" horiz-adv-x="525" 
d="M307 -16c101.333 0 181.669 47.666 241.002 142.999l-18 13c-31.333 -44 -66 -71.667 -104 -83v494c10 4.66699 27 17.334 51 38.001l47 47l-15 19c-30.667 -26.667 -51.667 -40 -63 -40c-18.667 0 -37.334 17.333 -56.001 52l-239 -239l17 -17l61 61v-304l-28 -28
l16 -17l88 86v342l31 28c17.333 -15.333 39.666 -24.666 66.999 -27.999v-499c-12.667 -2.66699 -25.667 -4 -39 -4c-79.333 0 -140.333 29 -183 87c-38.667 51.333 -58 118.333 -58 201c0 117.333 45 221 135 311l-17 20c-76 -76 -124.333 -130.667 -145 -164
c-38.667 -58.667 -58 -128.334 -58 -209.001c0 -86 22.667 -158.333 68 -217c48.667 -62 115.667 -93 201 -93zM236.003 -161.001l-6.99805 -23.999c11.333 -0.666992 20.166 -1.16699 26.499 -1.5s10.166 -0.5 11.499 -0.5c24 0 45.667 6.66699 65 20
c20.667 14.667 31 34 31 58c0 29.333 -19 50.666 -57 63.999l-70 -54c20 -2 32.333 -4 37 -6c14 -5.33301 21 -14 21 -26c0 -9.33301 -4.16699 -16.833 -12.5 -22.5s-17.5 -8.5 -27.5 -8.5h-6c-2.66699 0 -6.66699 0.333008 -12 1z" />
    <glyph glyph-name="Egrave" unicode="&#xc8;" horiz-adv-x="582" 
d="M220 -233c26.667 0 54.002 6.66699 82.002 20l-9 22c-24.667 -12.667 -49.667 -19 -75 -19c-38.667 0 -72 12 -100 36c-30 24.667 -45 56.334 -45 95.001c0 43.333 18 77.666 54 102.999c32.667 24 71.334 36 116.001 36c69.333 0 130.666 -28 183.999 -84l96 95l-16 17
l-27 -26c-17.333 14.667 -38.666 28.667 -63.999 42v201l80 80l-16 16l-26 -24l-81 80l-80 -80v194c29.333 23.333 52.666 35 69.999 35c25.333 0 61 -25 107 -75l88 87l-16 18l-19 -18c-28.667 32.667 -62.334 49 -101.001 49c-19.333 0 -37 -4 -53 -12
c-44 -30 -77 -54 -99 -72v-455c-61.333 -7.33301 -112.333 -28.333 -153 -63c-47.333 -39.333 -71 -87.333 -71 -144c0 -46 17.667 -83.667 53 -113c33.333 -27.333 73.666 -41 120.999 -41zM392.002 113c-30 11.333 -63 17 -99 17v214l34 33l65 -64v-200zM153.002 137
l-14.999 -13l15 -18l76 61v368l15 12l-15 18l-76 -62v-126c-60.667 0 -91 -29 -91 -87c0 -20 3.33301 -40.333 10 -61l25 9c-4 8.66699 -6 17 -6 25c0 12 3.66699 22.333 11 31s17 13 29 13c7.33301 0 14.666 -2.66699 21.999 -8v-162zM-33.9971 550
c0 -30 16 -61.002 48 -93.002l16 17c-24.667 20.667 -37 44.334 -37 71.001c0 13.333 4 24.833 12 34.5s18.667 14.5 32 14.5c12 0 31 -4.66699 57 -14c24 -8.66699 43 -13 57 -13c18.667 0 40.667 9 66 27c1.33301 0.666992 6.66602 4.83398 15.999 12.501l42 34.5l-14 16
c-19.333 -16.667 -37.666 -25 -54.999 -25l-73 23c-26 8 -47 12 -63 12c-28 0 -52.333 -13 -73 -39c-20.667 -23.333 -31 -49.333 -31 -78zM313.003 707.998h8.00098c4 0 9.66699 0.333008 17 1v24c-2 -0.666992 -5 -1 -9 -1c-18.667 0 -35.334 8.33301 -50.001 25
c-15.333 17.333 -23 35 -23 53l1.5 9.5l4.5 28.5l-91 -26c6 -32 23 -59 51 -81s58.333 -33 91 -33z" />
    <glyph glyph-name="Eacute" unicode="&#xc9;" horiz-adv-x="582" 
d="M220 -233c26.667 0 54.002 6.66699 82.002 20l-9 22c-24.667 -12.667 -49.667 -19 -75 -19c-38.667 0 -72 12 -100 36c-30 24.667 -45 56.334 -45 95.001c0 43.333 18 77.666 54 102.999c32.667 24 71.334 36 116.001 36c69.333 0 130.666 -28 183.999 -84l96 95l-16 17
l-27 -26c-17.333 14.667 -38.666 28.667 -63.999 42v201l80 80l-16 16l-26 -24l-81 80l-80 -80v194c29.333 23.333 52.666 35 69.999 35c25.333 0 61 -25 107 -75l88 87l-16 18l-19 -18c-28.667 32.667 -62.334 49 -101.001 49c-19.333 0 -37 -4 -53 -12
c-44 -30 -77 -54 -99 -72v-455c-61.333 -7.33301 -112.333 -28.333 -153 -63c-47.333 -39.333 -71 -87.333 -71 -144c0 -46 17.667 -83.667 53 -113c33.333 -27.333 73.666 -41 120.999 -41zM392.002 113c-30 11.333 -63 17 -99 17v214l34 33l65 -64v-200zM153.002 137
l-14.999 -13l15 -18l76 61v368l15 12l-15 18l-76 -62v-126c-60.667 0 -91 -29 -91 -87c0 -20 3.33301 -40.333 10 -61l25 9c-4 8.66699 -6 17 -6 25c0 12 3.66699 22.333 11 31s17 13 29 13c7.33301 0 14.666 -2.66699 21.999 -8v-162zM-33.9971 550
c0 -30 16 -61.002 48 -93.002l16 17c-24.667 20.667 -37 44.334 -37 71.001c0 13.333 4 24.833 12 34.5s18.667 14.5 32 14.5c12 0 31 -4.66699 57 -14c24 -8.66699 43 -13 57 -13c18.667 0 40.667 9 66 27c1.33301 0.666992 6.66602 4.83398 15.999 12.501l42 34.5l-14 16
c-19.333 -16.667 -37.666 -25 -54.999 -25l-73 23c-26 8 -47 12 -63 12c-28 0 -52.333 -13 -73 -39c-20.667 -23.333 -31 -49.333 -31 -78zM273.003 734.998l0.000976562 -23c7.33301 -0.666992 13 -1 17 -1h9c39.333 0 72.666 13.333 99.999 40c28 26.667 44.333 59 49 97
l-92 -26c0 -26 -7.5 -47 -22.5 -63s-35.167 -24 -60.5 -24z" />
    <glyph glyph-name="Ecircumflex" unicode="&#xca;" horiz-adv-x="582" 
d="M220 -233c26.667 0 54.002 6.66699 82.002 20l-9 22c-24.667 -12.667 -49.667 -19 -75 -19c-38.667 0 -72 12 -100 36c-30 24.667 -45 56.334 -45 95.001c0 43.333 18 77.666 54 102.999c32.667 24 71.334 36 116.001 36c69.333 0 130.666 -28 183.999 -84l96 95l-16 17
l-27 -26c-17.333 14.667 -38.666 28.667 -63.999 42v201l80 80l-16 16l-26 -24l-81 80l-80 -80v194c29.333 23.333 52.666 35 69.999 35c25.333 0 61 -25 107 -75l88 87l-16 18l-19 -18c-28.667 32.667 -62.334 49 -101.001 49c-19.333 0 -37 -4 -53 -12
c-44 -30 -77 -54 -99 -72v-455c-61.333 -7.33301 -112.333 -28.333 -153 -63c-47.333 -39.333 -71 -87.333 -71 -144c0 -46 17.667 -83.667 53 -113c33.333 -27.333 73.666 -41 120.999 -41zM392.002 113c-30 11.333 -63 17 -99 17v214l34 33l65 -64v-200zM153.002 137
l-14.999 -13l15 -18l76 61v368l15 12l-15 18l-76 -62v-126c-60.667 0 -91 -29 -91 -87c0 -20 3.33301 -40.333 10 -61l25 9c-4 8.66699 -6 17 -6 25c0 12 3.66699 22.333 11 31s17 13 29 13c7.33301 0 14.666 -2.66699 21.999 -8v-162zM-33.9971 550
c0 -30 16 -61.002 48 -93.002l16 17c-24.667 20.667 -37 44.334 -37 71.001c0 13.333 4 24.833 12 34.5s18.667 14.5 32 14.5c12 0 31 -4.66699 57 -14c24 -8.66699 43 -13 57 -13c18.667 0 40.667 9 66 27c1.33301 0.666992 6.66602 4.83398 15.999 12.501l42 34.5l-14 16
c-19.333 -16.667 -37.666 -25 -54.999 -25l-73 23c-26 8 -47 12 -63 12c-28 0 -52.333 -13 -73 -39c-20.667 -23.333 -31 -49.333 -31 -78zM187.003 730.998l17 -17l74 80c34 -53.333 86.333 -80 157 -80v21c-53.333 6 -80 35 -80 87c0 6 1 14.667 3 26l-83 -24z" />
    <glyph glyph-name="Edieresis" unicode="&#xcb;" horiz-adv-x="582" 
d="M220 -233c26.667 0 54.002 6.66699 82.002 20l-9 22c-24.667 -12.667 -49.667 -19 -75 -19c-38.667 0 -72 12 -100 36c-30 24.667 -45 56.334 -45 95.001c0 43.333 18 77.666 54 102.999c32.667 24 71.334 36 116.001 36c69.333 0 130.666 -28 183.999 -84l96 95l-16 17
l-27 -26c-17.333 14.667 -38.666 28.667 -63.999 42v201l80 80l-16 16l-26 -24l-81 80l-80 -80v194c29.333 23.333 52.666 35 69.999 35c25.333 0 61 -25 107 -75l88 87l-16 18l-19 -18c-28.667 32.667 -62.334 49 -101.001 49c-19.333 0 -37 -4 -53 -12
c-44 -30 -77 -54 -99 -72v-455c-61.333 -7.33301 -112.333 -28.333 -153 -63c-47.333 -39.333 -71 -87.333 -71 -144c0 -46 17.667 -83.667 53 -113c33.333 -27.333 73.666 -41 120.999 -41zM392.002 113c-30 11.333 -63 17 -99 17v214l34 33l65 -64v-200zM153.002 137
l-14.999 -13l15 -18l76 61v368l15 12l-15 18l-76 -62v-126c-60.667 0 -91 -29 -91 -87c0 -20 3.33301 -40.333 10 -61l25 9c-4 8.66699 -6 17 -6 25c0 12 3.66699 22.333 11 31s17 13 29 13c7.33301 0 14.666 -2.66699 21.999 -8v-162zM-33.9971 550
c0 -30 16 -61.002 48 -93.002l16 17c-24.667 20.667 -37 44.334 -37 71.001c0 13.333 4 24.833 12 34.5s18.667 14.5 32 14.5c12 0 31 -4.66699 57 -14c24 -8.66699 43 -13 57 -13c18.667 0 40.667 9 66 27c1.33301 0.666992 6.66602 4.83398 15.999 12.501l42 34.5l-14 16
c-19.333 -16.667 -37.666 -25 -54.999 -25l-73 23c-26 8 -47 12 -63 12c-28 0 -52.333 -13 -73 -39c-20.667 -23.333 -31 -49.333 -31 -78zM176.003 784.998l52 -52l52 46l-68 68l-78 -67l15 -18zM406.003 794.998l-53 52l-52 -45l69 -69l77 67l-15 18z" />
    <glyph glyph-name="Igrave" unicode="&#xcc;" horiz-adv-x="491" 
d="M103 -236c11.333 0 21.332 1.33301 29.999 4v22l-33 -3c-45.333 0 -84 16.667 -116 50c-32.667 32.667 -49 71.667 -49 117c0 28.667 7 54 21 76c16 26.667 37 40 63 40c13.333 0 41.666 -14.667 84.999 -44c42.667 -28.667 80.334 -43 113.001 -43
c29.333 0 58.333 9.66699 87 29l103 74v521l37 31l-14 18l-99 -80v-513c-27.333 -22 -47 -33 -59 -33c-18.667 0 -51.667 19.667 -99 59s-85.666 59 -114.999 59c-45.333 0 -82.333 -21.333 -111 -64c-26 -37.333 -39 -79.666 -39 -126.999
c0 -54.667 19 -100.334 57 -137.001c38.667 -37.333 84.667 -56 138 -56zM213.999 99l-14 -10.999l14 -18l76 61v396l15 12l-15 18l-76 -62v-124c-60.667 0 -91 -28.667 -91 -86c0 -17.333 3 -37 9 -59l26 10c-4 10 -6 18 -6 24c0 11.333 3.66699 21.666 11 30.999
s17 14 29 14c6.66699 0 14 -3 22 -9v-197zM61.999 549.001c0 -31.333 16.001 -62.333 48.001 -93l17 17c-26 20.667 -39 44.667 -39 72c0 12.667 4.5 24 13.5 34s19.833 15 32.5 15c10.667 0 29 -4.66699 55 -14c26.667 -9.33301 46.334 -14 59.001 -14
c19.333 0 41.666 8.66699 66.999 26l57 48l-14 17c-18.667 -16.667 -37.334 -25 -56.001 -25c-27.333 8 -53.333 16 -78 24c-22.667 6.66699 -41.667 10 -57 10c-27.333 0 -52 -13 -74 -39c-20.667 -23.333 -31 -49.333 -31 -78zM301 707.001h7.99902
c4.66699 0 10.334 0.333008 17.001 1v24c-2 -0.666992 -5 -1 -9 -1c-18.667 0 -35.334 8.33301 -50.001 25c-15.333 17.333 -23 35 -23 53l1.5 9.5l4.5 28.5l-91 -26c6 -32 22.667 -59.333 50 -82c28.667 -21.333 59.334 -32 92.001 -32z" />
    <glyph glyph-name="Iacute" unicode="&#xcd;" horiz-adv-x="491" 
d="M103 -236c11.333 0 21.332 1.33301 29.999 4v22l-33 -3c-45.333 0 -84 16.667 -116 50c-32.667 32.667 -49 71.667 -49 117c0 28.667 7 54 21 76c16 26.667 37 40 63 40c13.333 0 41.666 -14.667 84.999 -44c42.667 -28.667 80.334 -43 113.001 -43
c29.333 0 58.333 9.66699 87 29l103 74v521l37 31l-14 18l-99 -80v-513c-27.333 -22 -47 -33 -59 -33c-18.667 0 -51.667 19.667 -99 59s-85.666 59 -114.999 59c-45.333 0 -82.333 -21.333 -111 -64c-26 -37.333 -39 -79.666 -39 -126.999
c0 -54.667 19 -100.334 57 -137.001c38.667 -37.333 84.667 -56 138 -56zM213.999 99l-14 -10.999l14 -18l76 61v396l15 12l-15 18l-76 -62v-124c-60.667 0 -91 -28.667 -91 -86c0 -17.333 3 -37 9 -59l26 10c-4 10 -6 18 -6 24c0 11.333 3.66699 21.666 11 30.999
s17 14 29 14c6.66699 0 14 -3 22 -9v-197zM61.999 549.001c0 -31.333 16.001 -62.333 48.001 -93l17 17c-26 20.667 -39 44.667 -39 72c0 12.667 4.5 24 13.5 34s19.833 15 32.5 15c10.667 0 29 -4.66699 55 -14c26.667 -9.33301 46.334 -14 59.001 -14
c19.333 0 41.666 8.66699 66.999 26l57 48l-14 17c-18.667 -16.667 -37.334 -25 -56.001 -25c-27.333 8 -53.333 16 -78 24c-22.667 6.66699 -41.667 10 -57 10c-27.333 0 -52 -13 -74 -39c-20.667 -23.333 -31 -49.333 -31 -78zM229 734.001l0.000976562 -23
c7.33301 -0.666992 13 -1 17 -1h9c39.333 0 72.666 13.333 99.999 40c28 26.667 44.333 59 49 97l-92 -26c0 -26 -7.5 -47 -22.5 -63s-35.167 -24 -60.5 -24z" />
    <glyph glyph-name="Icircumflex" unicode="&#xce;" horiz-adv-x="491" 
d="M103 -236c11.333 0 21.332 1.33301 29.999 4v22l-33 -3c-45.333 0 -84 16.667 -116 50c-32.667 32.667 -49 71.667 -49 117c0 28.667 7 54 21 76c16 26.667 37 40 63 40c13.333 0 41.666 -14.667 84.999 -44c42.667 -28.667 80.334 -43 113.001 -43
c29.333 0 58.333 9.66699 87 29l103 74v521l37 31l-14 18l-99 -80v-513c-27.333 -22 -47 -33 -59 -33c-18.667 0 -51.667 19.667 -99 59s-85.666 59 -114.999 59c-45.333 0 -82.333 -21.333 -111 -64c-26 -37.333 -39 -79.666 -39 -126.999
c0 -54.667 19 -100.334 57 -137.001c38.667 -37.333 84.667 -56 138 -56zM213.999 99l-14 -10.999l14 -18l76 61v396l15 12l-15 18l-76 -62v-124c-60.667 0 -91 -28.667 -91 -86c0 -17.333 3 -37 9 -59l26 10c-4 10 -6 18 -6 24c0 11.333 3.66699 21.666 11 30.999
s17 14 29 14c6.66699 0 14 -3 22 -9v-197zM61.999 549.001c0 -31.333 16.001 -62.333 48.001 -93l17 17c-26 20.667 -39 44.667 -39 72c0 12.667 4.5 24 13.5 34s19.833 15 32.5 15c10.667 0 29 -4.66699 55 -14c26.667 -9.33301 46.334 -14 59.001 -14
c19.333 0 41.666 8.66699 66.999 26l57 48l-14 17c-18.667 -16.667 -37.334 -25 -56.001 -25c-27.333 8 -53.333 16 -78 24c-22.667 6.66699 -41.667 10 -57 10c-27.333 0 -52 -13 -74 -39c-20.667 -23.333 -31 -49.333 -31 -78zM162 730.001l17.001 -17l74 80
c33.333 -53.333 85.666 -80 156.999 -80v21c-53.333 6 -80 35 -80 87c0 6 1 14.667 3 26l-83 -24z" />
    <glyph glyph-name="Idieresis" unicode="&#xcf;" horiz-adv-x="491" 
d="M103 -236c11.333 0 21.332 1.33301 29.999 4v22l-33 -3c-45.333 0 -84 16.667 -116 50c-32.667 32.667 -49 71.667 -49 117c0 28.667 7 54 21 76c16 26.667 37 40 63 40c13.333 0 41.666 -14.667 84.999 -44c42.667 -28.667 80.334 -43 113.001 -43
c29.333 0 58.333 9.66699 87 29l103 74v521l37 31l-14 18l-99 -80v-513c-27.333 -22 -47 -33 -59 -33c-18.667 0 -51.667 19.667 -99 59s-85.666 59 -114.999 59c-45.333 0 -82.333 -21.333 -111 -64c-26 -37.333 -39 -79.666 -39 -126.999
c0 -54.667 19 -100.334 57 -137.001c38.667 -37.333 84.667 -56 138 -56zM213.999 99l-14 -10.999l14 -18l76 61v396l15 12l-15 18l-76 -62v-124c-60.667 0 -91 -28.667 -91 -86c0 -17.333 3 -37 9 -59l26 10c-4 10 -6 18 -6 24c0 11.333 3.66699 21.666 11 30.999
s17 14 29 14c6.66699 0 14 -3 22 -9v-197zM61.999 549.001c0 -31.333 16.001 -62.333 48.001 -93l17 17c-26 20.667 -39 44.667 -39 72c0 12.667 4.5 24 13.5 34s19.833 15 32.5 15c10.667 0 29 -4.66699 55 -14c26.667 -9.33301 46.334 -14 59.001 -14
c19.333 0 41.666 8.66699 66.999 26l57 48l-14 17c-18.667 -16.667 -37.334 -25 -56.001 -25c-27.333 8 -53.333 16 -78 24c-22.667 6.66699 -41.667 10 -57 10c-27.333 0 -52 -13 -74 -39c-20.667 -23.333 -31 -49.333 -31 -78zM179 785.001l52 -52l52 46l-68 68l-78 -67
l15 -18zM409 795.001l-53 52l-52 -45l69 -69l77 67l-15 18z" />
    <glyph glyph-name="Eth" unicode="&#xd0;" horiz-adv-x="604" 
d="M99 313h54v-183l-15 -11l15 -18l76 61v354l14 11l-14 18l-76 -61v-124h-46c-8 0 -15.667 -7.66699 -23 -23l-23 -50l21 -10zM168 -234c29.333 0 59 6.66602 89 19.999l-9 21c-25.333 -12 -50.666 -18 -75.999 -18c-37.333 0 -69.333 11 -96 33
c-28.667 24 -43 54.333 -43 91c0 36 15 64.667 45 86c26.667 18 59 27 97 27c44.667 0 89.667 -17 135 -51c63.333 57.333 133.333 86 210 86c2 0 6 -0.166992 12 -0.5s14.333 -0.833008 25 -1.5v26h-32v388c0 54.667 -10 98.667 -30 132c-25.333 41.333 -63 62 -113 62
c-15.333 0 -32.333 -2 -51 -6l-187 -38c-8 -1.33301 -16 -2.5 -24 -3.5s-16 -1.5 -24 -1.5c-26.667 0 -46.334 14.333 -59.001 43l-20 -10c10.667 -27.333 26.667 -50.666 48 -69.999c23.333 -20.667 49.333 -31 78 -31c19.333 0 60.666 8 123.999 24v-480
c-21.333 1.33301 -37.833 2.33301 -49.5 3s-18.167 1 -19.5 1c-50 0 -94.333 -17.333 -133 -52c-40 -34 -60 -75.667 -60 -125c0 -46 15.667 -83.667 47 -113c30.667 -28 69.334 -42 116.001 -42zM290 227.999l0.000976562 85c39.333 0 62.666 2 69.999 6
c8.66699 4.66699 20 25 34 61l-21 9l-14 -29h-69v86c24.667 -14.667 51 -22 79 -22c28.667 0 55.334 7.33301 80.001 22v-218c-22.667 14.667 -49.334 22 -80.001 22c-30 0 -56.333 -7.33301 -79 -22zM380.001 50.999c-29.333 18.667 -59.334 30.667 -90.001 36v118
c28.667 14.667 55 22 79 22c24.667 0 51.334 -7.33301 80.001 -22v-128c-11.333 -2.66699 -22.833 -6 -34.5 -10s-23.167 -9.33301 -34.5 -16zM373 446.999c-30 0 -57.666 8.66699 -82.999 26v105c25.333 4.66699 44.333 8 57 10l19 3c25.333 0 45.666 -9.33301 60.999 -28
s23 -41 23 -67c0 -32.667 -25.667 -49 -77 -49z" />
    <glyph glyph-name="Ntilde" unicode="&#xd1;" horiz-adv-x="594" 
d="M131 -233c8.66699 0 19.999 1 33.999 3l-5 22c-12 -2 -21.667 -3 -29 -3c-36 0 -67.667 11.667 -95 35c-27.333 24 -41 54 -41 90c0 32 12 58.667 36 80c23.333 19.333 51.333 29 84 29c40 0 79.667 -15 119 -45l98 96l-17 16l-35 -34c-28 20 -58.667 31.333 -92 34v119
c25.333 14.667 50 22 74 22c17.333 0 36.333 -3.66699 57 -11c22.667 -9.33301 37.667 -20.333 45 -33l50 -107c29.333 -60 67 -94 113 -102v574c14.667 10 31.334 23.667 50.001 41l46 46l-17 16c-24 -26.667 -40.333 -40 -49 -40c-18 0 -38.333 17.333 -61 52l-117 -117
l16 -17l50 49c15.333 -21.333 35 -32 59 -32v-109c-25.333 -14.667 -52.333 -22 -81 -22c-38.667 0 -70 10 -94 30l-54 107c-9.33301 18.667 -18 34.334 -26 47.001s-15.667 22.667 -23 30c-22 22.667 -49 34 -81 34c-34 0 -65 -15.667 -93 -47
c-11.333 -13.333 -21.5 -27.833 -30.5 -43.5s-16.167 -32.834 -21.5 -51.501l21 -8c20 47.333 49 71 87 71c17.333 0 36.333 -5.66699 57 -17v-197c-61.333 0 -92 -27.333 -92 -82c0 -18 4 -39 12 -63l22 11c-3.33301 8 -5 15.667 -5 23c0 30.667 13.333 46 40 46
c9.33301 0 17 -4 23 -12v-207c-53.333 0 -99.333 -14.667 -138 -44c-41.333 -31.333 -62 -73.333 -62 -126c0 -45.333 16.333 -82.333 49 -111c32 -28 71 -42 117 -42zM262.999 253c-27.333 0 -52.335 -6.33301 -75.002 -19v316c8.66699 -8.66699 14.334 -16 17.001 -22
l137 -294c-23.333 12.667 -49.666 19 -78.999 19zM503.997 100c-14.667 8.66699 -26.334 23 -35.001 43l-125 268c24.667 -10 50.334 -15 77.001 -15c30 0 57.667 6 83 18v-314zM202.997 745l18.998 -17c24.667 30.667 40.334 46 47.001 46c4 0 18.667 -7 44 -21
c24.667 -14 43.334 -21 56.001 -21c20 0 36.333 5.66699 49 17l31.5 35c9 10 16.167 18.667 21.5 26l-19 17c-22.667 -30.667 -38 -46 -46 -46c-12 0 -29 7 -51 21c-21.333 14 -38 21 -50 21c-23.333 0 -43 -9 -59 -27z" />
    <glyph glyph-name="Ograve" unicode="&#xd2;" horiz-adv-x="653" 
d="M216 96l14 -18.001l86 69v402l35 25v-566c-10 -0.666992 -18 -1 -24 -1h-10c-120 0 -180 101.667 -180 305c0 85.333 8.33301 148 25 188c10 26 27.667 51.667 53 77l33 33l32 33l-12 14c-153.333 -92 -230 -210 -230 -354c0 -84 26.333 -157.333 79 -220
c56 -66 125.333 -99 208 -99c88 0 158.333 36.333 211 109s79 155.334 79 248.001c0 140 -59 248.667 -177 326l-63 -45v35h-24v-52l-164 -120l14 -18l39 29v-380zM527 206.999c-23.333 -116 -73.999 -181.667 -151.999 -197v203c24 11.333 47.333 17 70 17
c31.333 0 58.666 -7.66699 81.999 -23zM452.001 251.999c-25.333 0 -51 -5.33398 -77 -16.001v176c20.667 -10.667 42.667 -16 66 -16c26 0 51.667 5.33301 77 16c12 -43.333 18 -78 18 -104c0 -2.66699 -0.5 -10.167 -1.5 -22.5s-2.16699 -30.166 -3.5 -53.499
c-26.667 13.333 -53 20 -79 20zM445.001 419.998c-24 0 -47.333 5.66699 -70 17v156c34.667 -24 61.667 -47 81 -69c20.667 -24 39.667 -53.667 57 -89c-22 -10 -44.667 -15 -68 -15zM349.001 707.998l8 -0.000976562c4 0 9.33301 0.333008 16 1v24
c-2 -0.666992 -5 -1 -9 -1c-18.667 0 -35.334 8.33301 -50.001 25c-15.333 17.333 -23 35 -23 53l1.5 9.5l4.5 28.5l-91 -26c4.66699 -31.333 21.667 -58.666 51 -81.999c28.667 -21.333 59.334 -32 92.001 -32z" />
    <glyph glyph-name="Oacute" unicode="&#xd3;" horiz-adv-x="653" 
d="M216 96l14 -18.001l86 69v402l35 25v-566c-10 -0.666992 -18 -1 -24 -1h-10c-120 0 -180 101.667 -180 305c0 85.333 8.33301 148 25 188c10 26 27.667 51.667 53 77l33 33l32 33l-12 14c-153.333 -92 -230 -210 -230 -354c0 -84 26.333 -157.333 79 -220
c56 -66 125.333 -99 208 -99c88 0 158.333 36.333 211 109s79 155.334 79 248.001c0 140 -59 248.667 -177 326l-63 -45v35h-24v-52l-164 -120l14 -18l39 29v-380zM527 206.999c-23.333 -116 -73.999 -181.667 -151.999 -197v203c24 11.333 47.333 17 70 17
c31.333 0 58.666 -7.66699 81.999 -23zM452.001 251.999c-25.333 0 -51 -5.33398 -77 -16.001v176c20.667 -10.667 42.667 -16 66 -16c26 0 51.667 5.33301 77 16c12 -43.333 18 -78 18 -104c0 -2.66699 -0.5 -10.167 -1.5 -22.5s-2.16699 -30.166 -3.5 -53.499
c-26.667 13.333 -53 20 -79 20zM445.001 419.998c-24 0 -47.333 5.66699 -70 17v156c34.667 -24 61.667 -47 81 -69c20.667 -24 39.667 -53.667 57 -89c-22 -10 -44.667 -15 -68 -15zM309.001 734.998l-0.000976562 -23c7.33301 -0.666992 13 -1 17 -1h9
c38.667 0 72.334 13.333 101.001 40c27.333 26 43.333 58.333 48 97l-92 -26c0 -26 -7.5 -47 -22.5 -63s-35.167 -24 -60.5 -24z" />
    <glyph glyph-name="Ocircumflex" unicode="&#xd4;" horiz-adv-x="653" 
d="M216 96l14 -18.001l86 69v402l35 25v-566c-10 -0.666992 -18 -1 -24 -1h-10c-120 0 -180 101.667 -180 305c0 85.333 8.33301 148 25 188c10 26 27.667 51.667 53 77l33 33l32 33l-12 14c-153.333 -92 -230 -210 -230 -354c0 -84 26.333 -157.333 79 -220
c56 -66 125.333 -99 208 -99c88 0 158.333 36.333 211 109s79 155.334 79 248.001c0 140 -59 248.667 -177 326l-63 -45v35h-24v-52l-164 -120l14 -18l39 29v-380zM527 206.999c-23.333 -116 -73.999 -181.667 -151.999 -197v203c24 11.333 47.333 17 70 17
c31.333 0 58.666 -7.66699 81.999 -23zM452.001 251.999c-25.333 0 -51 -5.33398 -77 -16.001v176c20.667 -10.667 42.667 -16 66 -16c26 0 51.667 5.33301 77 16c12 -43.333 18 -78 18 -104c0 -2.66699 -0.5 -10.167 -1.5 -22.5s-2.16699 -30.166 -3.5 -53.499
c-26.667 13.333 -53 20 -79 20zM445.001 419.998c-24 0 -47.333 5.66699 -70 17v156c34.667 -24 61.667 -47 81 -69c20.667 -24 39.667 -53.667 57 -89c-22 -10 -44.667 -15 -68 -15zM222.001 730.998l17.001 -17l74 80c33.333 -53.333 85.666 -80 156.999 -80v21
c-53.333 6 -80 35 -80 87c0 6 1 14.667 3 26l-83 -24z" />
    <glyph glyph-name="Otilde" unicode="&#xd5;" horiz-adv-x="653" 
d="M216 96l14 -18.001l86 69v402l35 25v-566c-10 -0.666992 -18 -1 -24 -1h-10c-120 0 -180 101.667 -180 305c0 85.333 8.33301 148 25 188c10 26 27.667 51.667 53 77l33 33l32 33l-12 14c-153.333 -92 -230 -210 -230 -354c0 -84 26.333 -157.333 79 -220
c56 -66 125.333 -99 208 -99c88 0 158.333 36.333 211 109s79 155.334 79 248.001c0 140 -59 248.667 -177 326l-63 -45v35h-24v-52l-164 -120l14 -18l39 29v-380zM527 206.999c-23.333 -116 -73.999 -181.667 -151.999 -197v203c24 11.333 47.333 17 70 17
c31.333 0 58.666 -7.66699 81.999 -23zM452.001 251.999c-25.333 0 -51 -5.33398 -77 -16.001v176c20.667 -10.667 42.667 -16 66 -16c26 0 51.667 5.33301 77 16c12 -43.333 18 -78 18 -104c0 -2.66699 -0.5 -10.167 -1.5 -22.5s-2.16699 -30.166 -3.5 -53.499
c-26.667 13.333 -53 20 -79 20zM445.001 419.998c-24 0 -47.333 5.66699 -70 17v156c34.667 -24 61.667 -47 81 -69c20.667 -24 39.667 -53.667 57 -89c-22 -10 -44.667 -15 -68 -15zM212.001 744.998l19 -17.001c26 30.667 41.667 46 47 46c4 0 18.667 -7 44 -21
c24.667 -14 43.334 -21 56.001 -21c20 0 36.333 5.66699 49 17l31.5 35c9 10 16.167 18.667 21.5 26l-19 17c-22.667 -30.667 -38 -46 -46 -46c-12 0 -29 7 -51 21c-21.333 14 -38 21 -50 21c-20.667 0 -40.334 -9 -59.001 -27
c-1.33301 -1.33301 -5.5 -6.16602 -12.5 -14.499z" />
    <glyph glyph-name="Odieresis" unicode="&#xd6;" horiz-adv-x="653" 
d="M216 96l14 -18.001l86 69v402l35 25v-566c-10 -0.666992 -18 -1 -24 -1h-10c-120 0 -180 101.667 -180 305c0 85.333 8.33301 148 25 188c10 26 27.667 51.667 53 77l33 33l32 33l-12 14c-153.333 -92 -230 -210 -230 -354c0 -84 26.333 -157.333 79 -220
c56 -66 125.333 -99 208 -99c88 0 158.333 36.333 211 109s79 155.334 79 248.001c0 140 -59 248.667 -177 326l-63 -45v35h-24v-52l-164 -120l14 -18l39 29v-380zM527 206.999c-23.333 -116 -73.999 -181.667 -151.999 -197v203c24 11.333 47.333 17 70 17
c31.333 0 58.666 -7.66699 81.999 -23zM452.001 251.999c-25.333 0 -51 -5.33398 -77 -16.001v176c20.667 -10.667 42.667 -16 66 -16c26 0 51.667 5.33301 77 16c12 -43.333 18 -78 18 -104c0 -2.66699 -0.5 -10.167 -1.5 -22.5s-2.16699 -30.166 -3.5 -53.499
c-26.667 13.333 -53 20 -79 20zM445.001 419.998c-24 0 -47.333 5.66699 -70 17v156c34.667 -24 61.667 -47 81 -69c20.667 -24 39.667 -53.667 57 -89c-22 -10 -44.667 -15 -68 -15zM212.001 784.998l52 -52l52 46l-68 68l-78 -67l15 -18zM442.001 794.998l-53 52l-52 -45
l69 -69l77 67l-15 18z" />
    <glyph glyph-name="multiply" unicode="&#xd7;" 
d="M170 273l-97 -97l28 -32l99 99l99 -99l29 32l-98 97l98 97l-29 32l-99 -99l-99 99l-28 -32z" />
    <glyph glyph-name="Oslash" unicode="&#xd8;" horiz-adv-x="653" 
d="M240 496l-0.000976562 -247.001l-80 -115c-15.333 47.333 -23 107 -23 179c0 80.667 8.66699 143 26 187c14 34.667 41.333 71.334 82 110.001l20 19.5c6 5.66699 11 10.167 15 13.5l-12 14c-153.333 -92 -230 -210 -230 -354c0 -85.333 27.333 -160.666 82 -225.999
l-49 -71l20 -15l47 66c52.667 -48.667 115.334 -73 188.001 -73c88.667 0 160.667 38 216 114c48.667 68.667 73 149.667 73 243s-28.333 174.666 -85 243.999l47 68l-20 13l-44 -62c-21.333 22 -46.333 43 -75 63l-63 -45v35h-24v-52l-164 -120l14 -18zM171.999 105.999
l68 97v-87l-24 -20l14 -18l86 69v402l35 25v-566c-10 -0.666992 -18 -1 -24 -1h-10c-64 0 -112.333 33 -145 99zM374.999 235.999v127l98 141c42 -56 63 -118.333 63 -187c0 -4 -0.5 -13 -1.5 -27s-2.16699 -33.333 -3.5 -58c-26.667 13.333 -53 20 -79 20
c-25.333 0 -51 -5.33301 -77 -16zM455.999 523.999l-81 -116v185c32.667 -23.333 59.667 -46.333 81 -69zM526.999 206.999c-23.333 -116 -73.999 -181.667 -151.999 -197v203c24 11.333 47.333 17 70 17c31.333 0 58.666 -7.66699 81.999 -23z" />
    <glyph glyph-name="Ugrave" unicode="&#xd9;" horiz-adv-x="612" 
d="M-22 -83c0 -46.667 14.667 -83.6689 44 -111.002c28.667 -26 67.334 -39 116.001 -39v23c-34.667 0 -65 11 -91 33c-27.333 23.333 -41 52 -41 86c0 35.333 13 64.666 39 87.999c24.667 20.667 55.334 31 92.001 31c48.667 0 92.667 -19 132 -57l183 150
c0 -65.333 21 -114 63 -146l97 96l-17 16l-32 -32c-23.333 11.333 -35 37 -35 77v413l58 45l-15 20l-28 -20l-79 77l-106 -77l13 -20l37 27l44 -43v-119c-26 -11.333 -50.667 -17 -74 -17c-21.333 0 -43.333 5.66699 -66 17v220h-23v-584
c-6.66699 3.33301 -13.834 6.33301 -21.501 9s-15.834 5 -24.501 7v423c0 18 -0.5 33.333 -1.5 46s-2.16699 22.667 -3.5 30c-6.66699 24.667 -21 45.334 -43 62.001c-16.667 12.667 -34.667 19 -54 19c-39.333 0 -71 -19.667 -95 -59c-20 -33.333 -30 -71.333 -30 -114
l20 -5c5.33301 23.333 13.666 42.333 24.999 57c14 19.333 31.333 29 52 29c36 0 54 -25 54 -75v-125c-61.333 0 -92 -27 -92 -81c0 -18.667 4.33301 -40 13 -64l22 7c-4 10 -6 18.333 -6 25c0 12.667 3.83301 23.834 11.5 33.501s17.5 14.5 29.5 14.5
c8 0 15.333 -3.33301 22 -10v-202c-53.333 -6 -97.666 -24 -132.999 -54c-37.333 -33.333 -56 -75.666 -56 -126.999zM328 50.998c-2.66699 1.33301 -5.16797 2.66699 -7.50098 4s-5.16602 2.33301 -8.49902 3v153c30 11.333 54 17 72 17c19.333 0 42 -5.66699 68 -17v-59z
M382.999 250.999c-22.667 0 -46.333 -4.66699 -71 -14v172c24.667 -9.33301 48 -14 70 -14c22.667 0 46 4.66699 70 14v-172c-24 9.33301 -47 14 -69 14zM328 706.999h7.99902c4.66699 0 10.334 0.333008 17.001 1v24c-2 -0.666992 -5 -1 -9 -1
c-18.667 0 -35.334 8.33301 -50.001 25c-15.333 17.333 -23 35 -23 53l1.5 9.5l4.5 28.5l-91 -26c6 -32 22.667 -59.333 50 -82c28.667 -21.333 59.334 -32 92.001 -32z" />
    <glyph glyph-name="Uacute" unicode="&#xda;" horiz-adv-x="612" 
d="M-22 -83c0 -46.667 14.667 -83.6689 44 -111.002c28.667 -26 67.334 -39 116.001 -39v23c-34.667 0 -65 11 -91 33c-27.333 23.333 -41 52 -41 86c0 35.333 13 64.666 39 87.999c24.667 20.667 55.334 31 92.001 31c48.667 0 92.667 -19 132 -57l183 150
c0 -65.333 21 -114 63 -146l97 96l-17 16l-32 -32c-23.333 11.333 -35 37 -35 77v413l58 45l-15 20l-28 -20l-79 77l-106 -77l13 -20l37 27l44 -43v-119c-26 -11.333 -50.667 -17 -74 -17c-21.333 0 -43.333 5.66699 -66 17v220h-23v-584
c-6.66699 3.33301 -13.834 6.33301 -21.501 9s-15.834 5 -24.501 7v423c0 18 -0.5 33.333 -1.5 46s-2.16699 22.667 -3.5 30c-6.66699 24.667 -21 45.334 -43 62.001c-16.667 12.667 -34.667 19 -54 19c-39.333 0 -71 -19.667 -95 -59c-20 -33.333 -30 -71.333 -30 -114
l20 -5c5.33301 23.333 13.666 42.333 24.999 57c14 19.333 31.333 29 52 29c36 0 54 -25 54 -75v-125c-61.333 0 -92 -27 -92 -81c0 -18.667 4.33301 -40 13 -64l22 7c-4 10 -6 18.333 -6 25c0 12.667 3.83301 23.834 11.5 33.501s17.5 14.5 29.5 14.5
c8 0 15.333 -3.33301 22 -10v-202c-53.333 -6 -97.666 -24 -132.999 -54c-37.333 -33.333 -56 -75.666 -56 -126.999zM328 50.998c-2.66699 1.33301 -5.16797 2.66699 -7.50098 4s-5.16602 2.33301 -8.49902 3v153c30 11.333 54 17 72 17c19.333 0 42 -5.66699 68 -17v-59z
M382.999 250.999c-22.667 0 -46.333 -4.66699 -71 -14v172c24.667 -9.33301 48 -14 70 -14c22.667 0 46 4.66699 70 14v-172c-24 9.33301 -47 14 -69 14zM288 733.999l-0.000976562 -23c7.33301 -0.666992 13 -1 17 -1h9c38.667 0 72.334 13.333 101.001 40
c27.333 26 43.333 58.333 48 97l-92 -26c0 -26 -7.5 -47 -22.5 -63s-35.167 -24 -60.5 -24z" />
    <glyph glyph-name="Ucircumflex" unicode="&#xdb;" horiz-adv-x="612" 
d="M-22 -83c0 -46.667 14.667 -83.6689 44 -111.002c28.667 -26 67.334 -39 116.001 -39v23c-34.667 0 -65 11 -91 33c-27.333 23.333 -41 52 -41 86c0 35.333 13 64.666 39 87.999c24.667 20.667 55.334 31 92.001 31c48.667 0 92.667 -19 132 -57l183 150
c0 -65.333 21 -114 63 -146l97 96l-17 16l-32 -32c-23.333 11.333 -35 37 -35 77v413l58 45l-15 20l-28 -20l-79 77l-106 -77l13 -20l37 27l44 -43v-119c-26 -11.333 -50.667 -17 -74 -17c-21.333 0 -43.333 5.66699 -66 17v220h-23v-584
c-6.66699 3.33301 -13.834 6.33301 -21.501 9s-15.834 5 -24.501 7v423c0 18 -0.5 33.333 -1.5 46s-2.16699 22.667 -3.5 30c-6.66699 24.667 -21 45.334 -43 62.001c-16.667 12.667 -34.667 19 -54 19c-39.333 0 -71 -19.667 -95 -59c-20 -33.333 -30 -71.333 -30 -114
l20 -5c5.33301 23.333 13.666 42.333 24.999 57c14 19.333 31.333 29 52 29c36 0 54 -25 54 -75v-125c-61.333 0 -92 -27 -92 -81c0 -18.667 4.33301 -40 13 -64l22 7c-4 10 -6 18.333 -6 25c0 12.667 3.83301 23.834 11.5 33.501s17.5 14.5 29.5 14.5
c8 0 15.333 -3.33301 22 -10v-202c-53.333 -6 -97.666 -24 -132.999 -54c-37.333 -33.333 -56 -75.666 -56 -126.999zM328 50.998c-2.66699 1.33301 -5.16797 2.66699 -7.50098 4s-5.16602 2.33301 -8.49902 3v153c30 11.333 54 17 72 17c19.333 0 42 -5.66699 68 -17v-59z
M382.999 250.999c-22.667 0 -46.333 -4.66699 -71 -14v172c24.667 -9.33301 48 -14 70 -14c22.667 0 46 4.66699 70 14v-172c-24 9.33301 -47 14 -69 14zM202 729.999l17.001 -17l74 80c33.333 -53.333 85.666 -80 156.999 -80v21c-53.333 6 -80 35 -80 87
c0 6 1 14.667 3 26l-83 -24z" />
    <glyph glyph-name="Udieresis" unicode="&#xdc;" horiz-adv-x="612" 
d="M-22 -83c0 -46.667 14.667 -83.6689 44 -111.002c28.667 -26 67.334 -39 116.001 -39v23c-34.667 0 -65 11 -91 33c-27.333 23.333 -41 52 -41 86c0 35.333 13 64.666 39 87.999c24.667 20.667 55.334 31 92.001 31c48.667 0 92.667 -19 132 -57l183 150
c0 -65.333 21 -114 63 -146l97 96l-17 16l-32 -32c-23.333 11.333 -35 37 -35 77v413l58 45l-15 20l-28 -20l-79 77l-106 -77l13 -20l37 27l44 -43v-119c-26 -11.333 -50.667 -17 -74 -17c-21.333 0 -43.333 5.66699 -66 17v220h-23v-584
c-6.66699 3.33301 -13.834 6.33301 -21.501 9s-15.834 5 -24.501 7v423c0 18 -0.5 33.333 -1.5 46s-2.16699 22.667 -3.5 30c-6.66699 24.667 -21 45.334 -43 62.001c-16.667 12.667 -34.667 19 -54 19c-39.333 0 -71 -19.667 -95 -59c-20 -33.333 -30 -71.333 -30 -114
l20 -5c5.33301 23.333 13.666 42.333 24.999 57c14 19.333 31.333 29 52 29c36 0 54 -25 54 -75v-125c-61.333 0 -92 -27 -92 -81c0 -18.667 4.33301 -40 13 -64l22 7c-4 10 -6 18.333 -6 25c0 12.667 3.83301 23.834 11.5 33.501s17.5 14.5 29.5 14.5
c8 0 15.333 -3.33301 22 -10v-202c-53.333 -6 -97.666 -24 -132.999 -54c-37.333 -33.333 -56 -75.666 -56 -126.999zM328 50.998c-2.66699 1.33301 -5.16797 2.66699 -7.50098 4s-5.16602 2.33301 -8.49902 3v153c30 11.333 54 17 72 17c19.333 0 42 -5.66699 68 -17v-59z
M382.999 250.999c-22.667 0 -46.333 -4.66699 -71 -14v172c24.667 -9.33301 48 -14 70 -14c22.667 0 46 4.66699 70 14v-172c-24 9.33301 -47 14 -69 14zM191 784.999l52 -52l52 46l-68 68l-78 -67l15 -18zM421 794.999l-53 52l-52 -45l69 -69l77 67l-15 18z" />
    <glyph glyph-name="Yacute" unicode="&#xdd;" horiz-adv-x="613" 
d="M372 -197l-9.00195 -19.998c20.667 -10.667 40.667 -16 60 -16c26 0 47.667 9 65 27s26 40 26 66c0 28.667 -9 51.667 -27 69s-41.333 26 -70 26c-23.333 0 -58.666 -14.333 -105.999 -43c-46.667 -28.667 -71.667 -43 -75 -43c-10.667 0 -19.5 4.33301 -26.5 13
s-10.5 18.334 -10.5 29.001c0 26 25.667 48.667 77 68l177 66c24 9.33301 41.167 22.166 51.5 38.499s15.5 38.5 15.5 66.5v393l63 47l-14 19l-34 -25l-82 83l-150 -108v95h-23v-111l-46 -34c0 40.667 -7 74.667 -21 102c-16.667 34.667 -44 52 -82 52
c-32.667 0 -61.667 -16.667 -87 -50s-38 -73.333 -38 -120l21 -4c10 58.667 36 88 78 88c35.333 0 53 -26.333 53 -79v-123c-61.333 0 -92 -26.667 -92 -80c0 -18 4 -39.333 12 -64l23 6c-4 8 -6 16.333 -6 25c0 32 13.333 48 40 48c8.66699 0 16.334 -3.33301 23.001 -10
v-232l109 -67c-18 -6.66699 -33.5 -13.334 -46.5 -20.001s-23.833 -13.334 -32.5 -20.001c-24 -19.333 -36 -44.333 -36 -75c0 -26 8.33301 -47.5 25 -64.5s37.667 -25.5 63 -25.5c24.667 0 46.667 7 66 21l95 68c14.667 10.667 28.667 16 42 16c12 0 22.333 -5 31 -15
s13 -21.333 13 -34c0 -17.333 -6.33301 -32 -19 -44s-27.667 -18 -45 -18c-16.667 0 -33.667 4.33301 -51 13zM279.998 20.002l-46 29v430l46 34v-493zM443.998 117.002c0 -34 -18.333 -57.333 -55 -70l-86 -31v196c24 11.333 46 17 66 17s45 -5.66699 75 -17v-95z
M373.998 251.002c-19.333 0 -43.001 -5 -71.001 -15v173c30 -9.33301 55.333 -14 76 -14c23.333 0 45 4.66699 65 14v-174c-25.333 10.667 -48.666 16 -69.999 16zM374.997 417.002c-25.333 0 -49.333 5.66699 -72 17v96l94 68l47 -47v-117
c-21.333 -11.333 -44.333 -17 -69 -17zM288.997 735.002l-0.000976562 -23c7.33301 -0.666992 13 -1 17 -1h9c38.667 0 72.334 13.333 101.001 40c27.333 26 43.333 58.333 48 97l-92 -26c0 -26 -7.5 -47 -22.5 -63s-35.167 -24 -60.5 -24z" />
    <glyph glyph-name="Thorn" unicode="&#xde;" horiz-adv-x="592" 
d="M114 -215l15 -18.001l85 68l67 -68l17 18v241c24.667 -15.333 45.334 -31.333 62.001 -48c40.667 58.667 89 88 145 88c15.333 0 33 -3.66699 53 -11l8 23c-16.667 6.66699 -33.334 10.667 -50.001 12v253l64 48l-14 19l-35 -26l-83 82l-150 -108v296h-23v-311l-46 -34
v200c0 104.667 -34 157 -102 157c-40 0 -72 -19.667 -96 -59c-20.667 -32.667 -31 -70.334 -31 -113.001l22 -5c12.667 58.667 38.334 88 77.001 88c36 0 54 -26 54 -78v-124c-61.333 0 -92 -27 -92 -81c0 -19.333 4.33301 -40 13 -62l22 6c-3.33301 10 -5 18.333 -5 25
c0 12.667 3.66699 23.834 11 33.501s17 14.5 29 14.5c7.33301 0 14.666 -3.66699 21.999 -11v-184c-81.333 -35.333 -128.333 -90.666 -141 -165.999l22 -5c17.333 50 57 84.333 119 103v-230zM275 -194.001l-46 46v425l46 35v-506zM413 62.999
c-27.333 25.333 -65.667 44.6689 -115 58.002v24c26 11.333 49 17 69 17c18.667 0 43 -5.66699 73 -17v-66c-5.33301 -2.66699 -10.333 -5.33398 -15 -8.00098s-8.66699 -5.33398 -12 -8.00098zM366.999 184.002c-24 0 -47 -4.66699 -69 -14v107c22 -10 45.333 -15 70 -15
c26 0 50 5 72 15v-107c-24.667 9.33301 -49 14 -73 14zM369.999 285.002c-24 0 -48.001 5.66699 -72.001 17v27l94 69l48 -48v-49c-21.333 -10.667 -44.666 -16 -69.999 -16z" />
    <glyph glyph-name="germandbls" unicode="&#xdf;" 
d="M196 380c-8.66699 -8.66699 -17 -16.1631 -25 -22.4961s-16.333 -11.833 -25 -16.5v208c6.66699 4.66699 13.667 10.667 21 18c23.333 -25.333 42.666 -38 57.999 -38s32.333 8.66699 51 26l20 23l20 23l-16 17c-18.667 -22.667 -32 -34 -40 -34
c-13.333 0 -31.666 23.667 -54.999 71c-33.333 -65.333 -87.333 -111.333 -162 -138l9 -20c10.667 2.66699 18.667 5.66699 24 9v-425l-58 -48l15 -18l36 30l56 -55l85 71l-15 17l-24 -19l-25 23v248c22.667 -22.667 47 -34 73 -34c26.667 0 49.334 8.33301 68.001 25
l-111 -153h78v-134c-20.667 -22.667 -31 -46.334 -31 -71.001c0 -14.667 8.33301 -36.334 25 -65.001c17.333 -29.333 26 -48 26 -56c0 -16 -14 -36 -42 -60l14 -17c14.667 11.333 26.667 21.166 36 29.499s16.666 15.166 21.999 20.499c21.333 23.333 32 45.666 32 66.999
c0 14.667 -12.333 35.667 -37 63c-24.667 26.667 -37 45 -37 55c0 10.667 6 19.667 18 27c9.33301 6.66699 20.333 10 33 10c10 0 21 -3 33 -9l10 19c-6.66699 2.66699 -12.667 4.83398 -18 6.50098l-14 4.5v148h-92l117 161l-18 14c-18 -20 -37 -30 -57 -30
c-20.667 0 -46.667 9.66699 -78 29z" />
    <glyph glyph-name="agrave" unicode="&#xe0;" horiz-adv-x="366" 
d="M216 80c0 -33.333 12.667 -63.667 38 -91l94 75l-15 18l-28 -23c-12.667 17.333 -19 40.666 -19 69.999v161l53 43l-15 18l-34 -26l-55 55c-30.667 -45.333 -75.334 -75.666 -134.001 -90.999l-5 6c26 2.66699 39 16.334 39 41.001c0 12 -4.16699 21.833 -12.5 29.5
s-18.166 11.5 -29.499 11.5c-28.667 0 -43 -14.333 -43 -43c0 -18.667 26.333 -55.334 79 -110.001l-61 -57c-30 -28 -45 -58.333 -45 -91c0 -45.333 29 -74.333 87 -87zM216 110.999l-66.002 -57c-8 0 -16.167 1.83301 -24.5 5.5s-15.833 8.66699 -22.5 15
s-12.167 13.5 -16.5 21.5s-6.5 16 -6.5 24c0 14.667 8 30.667 24 48c6.66699 6.66699 13.334 13 20.001 19s13.334 12.333 20.001 19l26 -29l18 16l-69 77c28 8 53.333 19.333 76 34l21 -19v-174zM219.998 426.999l4.00098 0.000976562c2.66699 0 6.66699 0.333008 12 1v24
c-2 -0.666992 -5 -1 -9 -1c-18 0 -34.667 8.66699 -50 26s-23 34.666 -23 51.999l1.5 9.5l4.5 28.5l-91 -26c7.33301 -35.333 25.666 -63.333 54.999 -84c28 -20 60 -30 96 -30z" />
    <glyph glyph-name="aacute" unicode="&#xe1;" horiz-adv-x="366" 
d="M216 80c0 -33.333 12.667 -63.667 38 -91l94 75l-15 18l-28 -23c-12.667 17.333 -19 40.666 -19 69.999v161l53 43l-15 18l-34 -26l-55 55c-30.667 -45.333 -75.334 -75.666 -134.001 -90.999l-5 6c26 2.66699 39 16.334 39 41.001c0 12 -4.16699 21.833 -12.5 29.5
s-18.166 11.5 -29.499 11.5c-28.667 0 -43 -14.333 -43 -43c0 -18.667 26.333 -55.334 79 -110.001l-61 -57c-30 -28 -45 -58.333 -45 -91c0 -45.333 29 -74.333 87 -87zM216 110.999l-66.002 -57c-8 0 -16.167 1.83301 -24.5 5.5s-15.833 8.66699 -22.5 15
s-12.167 13.5 -16.5 21.5s-6.5 16 -6.5 24c0 14.667 8 30.667 24 48c6.66699 6.66699 13.334 13 20.001 19s13.334 12.333 20.001 19l26 -29l18 16l-69 77c28 8 53.333 19.333 76 34l21 -19v-174zM97.998 453.999v-23.001c7.33301 -0.666992 13.333 -1 18 -1h9
c38.667 0 71.667 13 99 39c28 26.667 44.333 59.334 49 98.001l-92 -26c0 -26 -7.5 -47 -22.5 -63s-35.167 -24 -60.5 -24z" />
    <glyph glyph-name="acircumflex" unicode="&#xe2;" horiz-adv-x="366" 
d="M216 80c0 -33.333 12.667 -63.667 38 -91l94 75l-15 18l-28 -23c-12.667 17.333 -19 40.666 -19 69.999v161l53 43l-15 18l-34 -26l-55 55c-30.667 -45.333 -75.334 -75.666 -134.001 -90.999l-5 6c26 2.66699 39 16.334 39 41.001c0 12 -4.16699 21.833 -12.5 29.5
s-18.166 11.5 -29.499 11.5c-28.667 0 -43 -14.333 -43 -43c0 -18.667 26.333 -55.334 79 -110.001l-61 -57c-30 -28 -45 -58.333 -45 -91c0 -45.333 29 -74.333 87 -87zM216 110.999l-66.002 -57c-8 0 -16.167 1.83301 -24.5 5.5s-15.833 8.66699 -22.5 15
s-12.167 13.5 -16.5 21.5s-6.5 16 -6.5 24c0 14.667 8 30.667 24 48c6.66699 6.66699 13.334 13 20.001 19s13.334 12.333 20.001 19l26 -29l18 16l-69 77c28 8 53.333 19.333 76 34l21 -19v-174zM58.998 449.999l17.001 -17l74 80c33.333 -53.333 85.666 -80 156.999 -80
v21c-53.333 6 -80 35 -80 87c0 6 1 14.667 3 26l-83 -24z" />
    <glyph glyph-name="atilde" unicode="&#xe3;" horiz-adv-x="366" 
d="M216 80c0 -33.333 12.667 -63.667 38 -91l94 75l-15 18l-28 -23c-12.667 17.333 -19 40.666 -19 69.999v161l53 43l-15 18l-34 -26l-55 55c-30.667 -45.333 -75.334 -75.666 -134.001 -90.999l-5 6c26 2.66699 39 16.334 39 41.001c0 12 -4.16699 21.833 -12.5 29.5
s-18.166 11.5 -29.499 11.5c-28.667 0 -43 -14.333 -43 -43c0 -18.667 26.333 -55.334 79 -110.001l-61 -57c-30 -28 -45 -58.333 -45 -91c0 -45.333 29 -74.333 87 -87zM216 110.999l-66.002 -57c-8 0 -16.167 1.83301 -24.5 5.5s-15.833 8.66699 -22.5 15
s-12.167 13.5 -16.5 21.5s-6.5 16 -6.5 24c0 14.667 8 30.667 24 48c6.66699 6.66699 13.334 13 20.001 19s13.334 12.333 20.001 19l26 -29l18 16l-69 77c28 8 53.333 19.333 76 34l21 -19v-174zM48.998 464.999l19 -17c26.667 30.667 42.334 46 47.001 46
c3.33301 0 17.666 -7 42.999 -21c24.667 -14 43.667 -21 57 -21c20 0 36.333 5.66699 49 17l31.5 35c9 10 16.167 18.667 21.5 26l-19 17c-24.667 -30.667 -40 -46 -46 -46c-12 0 -29 7 -51 21c-21.333 14 -38 21 -50 21c-20.667 0 -40.334 -9 -59.001 -27
c-1.33301 -1.33301 -5.66602 -6.33301 -12.999 -15z" />
    <glyph glyph-name="adieresis" unicode="&#xe4;" horiz-adv-x="366" 
d="M216 80c0 -33.333 12.667 -63.667 38 -91l94 75l-15 18l-28 -23c-12.667 17.333 -19 40.666 -19 69.999v161l53 43l-15 18l-34 -26l-55 55c-30.667 -45.333 -75.334 -75.666 -134.001 -90.999l-5 6c26 2.66699 39 16.334 39 41.001c0 12 -4.16699 21.833 -12.5 29.5
s-18.166 11.5 -29.499 11.5c-28.667 0 -43 -14.333 -43 -43c0 -18.667 26.333 -55.334 79 -110.001l-61 -57c-30 -28 -45 -58.333 -45 -91c0 -45.333 29 -74.333 87 -87zM216 110.999l-66.002 -57c-8 0 -16.167 1.83301 -24.5 5.5s-15.833 8.66699 -22.5 15
s-12.167 13.5 -16.5 21.5s-6.5 16 -6.5 24c0 14.667 8 30.667 24 48c6.66699 6.66699 13.334 13 20.001 19s13.334 12.333 20.001 19l26 -29l18 16l-69 77c28 8 53.333 19.333 76 34l21 -19v-174zM79.998 504.999l52 -52l52 46l-68 68l-78 -67l15 -18zM309.998 514.999
l-53 52l-52 -45l69 -69l77 67l-15 18z" />
    <glyph glyph-name="aring" unicode="&#xe5;" horiz-adv-x="366" 
d="M216 80c0 -33.333 12.667 -63.667 38 -91l94 75l-15 18l-28 -23c-12.667 17.333 -19 40.666 -19 69.999v161l53 43l-15 18l-34 -26l-55 55c-30.667 -45.333 -75.334 -75.666 -134.001 -90.999l-5 6c26 2.66699 39 16.334 39 41.001c0 12 -4.16699 21.833 -12.5 29.5
s-18.166 11.5 -29.499 11.5c-28.667 0 -43 -14.333 -43 -43c0 -18.667 26.333 -55.334 79 -110.001l-61 -57c-30 -28 -45 -58.333 -45 -91c0 -45.333 29 -74.333 87 -87zM216 110.999l-66.002 -57c-8 0 -16.167 1.83301 -24.5 5.5s-15.833 8.66699 -22.5 15
s-12.167 13.5 -16.5 21.5s-6.5 16 -6.5 24c0 14.667 8 30.667 24 48c6.66699 6.66699 13.334 13 20.001 19s13.334 12.333 20.001 19l26 -29l18 16l-69 77c28 8 53.333 19.333 76 34l21 -19v-174zM96.998 494.999c0 -38 33 -65.335 99 -82.002
c66.667 18.667 100 49.334 100 92.001c0 40.667 -33.333 68.334 -100 83.001c-66 -26 -99 -57 -99 -93zM254.998 486.997c0 -16 -8.66699 -29.668 -26 -41.001c-61.333 13.333 -92 34.666 -92 63.999c0 16.667 8.33301 31.334 25 44.001c62 -9.33301 93 -31.666 93 -66.999z
" />
    <glyph glyph-name="ae" unicode="&#xe6;" horiz-adv-x="453" 
d="M110 -11l106 91c0 -40 23.333 -70.333 70 -91l148 97l-13 20l-89 -60l-46 28v56l178 118l-106 132c-27.333 -22 -52.333 -38 -75 -48l-48 48c-32.667 -46.667 -77.334 -77 -134.001 -91l-5 6c26 2.66699 39 16.334 39 41.001c0 12 -4.16699 21.833 -12.5 29.5
s-18.166 11.5 -29.499 11.5c-28.667 0 -43 -14.333 -43 -43c0 -18.667 26.333 -55.334 79 -110.001l-61 -57c-30 -28 -45 -58.333 -45 -91c0 -45.333 29 -74.333 87 -87zM216 111l-66 -58c-16.667 2.66699 -32 10 -46 22c-16 12.667 -24 27.334 -24 44.001
c0 15.333 7.66699 31.666 23 48.999l10.5 9.5l30.5 28.5l26 -29l18 16l-69 77c28 8 53.333 19.333 76 34l21 -19v-174zM386 225l-100 -68v148c14 4.66699 23 8 27 10z" />
    <glyph glyph-name="ccedilla" unicode="&#xe7;" horiz-adv-x="307" 
d="M24 33l15 -20l35 28l72 -52l151 101l-13 20l-86 -58l-53 37v216l21 7c14 -22 22.667 -35.333 26 -40c12 -14 25 -21 39 -21c26 0 55 27.333 87 82l-19 14c-15.333 -24 -28 -36 -38 -36c-12.667 0 -27 23 -43 69c-39.333 -43.333 -102 -65 -188 -65v-23l45 -1v-214z
M115 -115l0.000976562 -22c6.66699 -0.666992 12 -1 16 -1h8c23.333 0 44.666 6.66699 63.999 20c22 14.667 33 33.334 33 56.001c0 29.333 -14.667 46.666 -44 51.999l-67 -47c34 0 51 -9.33301 51 -28c0 -20 -20.333 -30 -61 -30z" />
    <glyph glyph-name="egrave" unicode="&#xe8;" horiz-adv-x="310" 
d="M23 34l14.999 -19l24 23l80 -49l148 97l-13 20l-89 -60l-46 28v56l178 118l-106 132c-51.333 -43.333 -113.666 -65 -186.999 -65v-23c8.66699 -0.666992 15 -1.16699 19 -1.5l6 -0.5h5c3.33301 0 8.33301 0.333008 15 1v-212zM241.999 225l-100 -68v148l27 9z
M197.999 427h4.00195c2.66699 0 6.66699 0.333008 12 1v24c-2 -0.666992 -5 -1 -9 -1c-18.667 0 -35.334 8.33301 -50.001 25c-15.333 17.333 -23 35 -23 53l1.5 9.5l4.5 28.5l-91 -26c7.33301 -35.333 25.666 -63.333 54.999 -84c28 -20 60 -30 96 -30z" />
    <glyph glyph-name="eacute" unicode="&#xe9;" horiz-adv-x="310" 
d="M23 34l14.999 -19l24 23l80 -49l148 97l-13 20l-89 -60l-46 28v56l178 118l-106 132c-51.333 -43.333 -113.666 -65 -186.999 -65v-23c8.66699 -0.666992 15 -1.16699 19 -1.5l6 -0.5h5c3.33301 0 8.33301 0.333008 15 1v-212zM241.999 225l-100 -68v148l27 9z
M89.999 454l-0.000976562 -23c7.33301 -0.666992 13 -1 17 -1h9c38.667 0 71.667 13 99 39c28.667 27.333 45.334 60 50.001 98l-92 -26c0 -26 -7.5 -47 -22.5 -63s-35.167 -24 -60.5 -24z" />
    <glyph glyph-name="ecircumflex" unicode="&#xea;" horiz-adv-x="310" 
d="M23 34l14.999 -19l24 23l80 -49l148 97l-13 20l-89 -60l-46 28v56l178 118l-106 132c-51.333 -43.333 -113.666 -65 -186.999 -65v-23c8.66699 -0.666992 15 -1.16699 19 -1.5l6 -0.5h5c3.33301 0 8.33301 0.333008 15 1v-212zM241.999 225l-100 -68v148l27 9z
M50.999 450l17.001 -17l74 80c33.333 -53.333 85.666 -80 156.999 -80v21c-53.333 6 -80 35 -80 87c0 6 1 14.667 3 26l-83 -24z" />
    <glyph glyph-name="edieresis" unicode="&#xeb;" horiz-adv-x="310" 
d="M23 34l14.999 -19l24 23l80 -49l148 97l-13 20l-89 -60l-46 28v56l178 118l-106 132c-51.333 -43.333 -113.666 -65 -186.999 -65v-23c8.66699 -0.666992 15 -1.16699 19 -1.5l6 -0.5h5c3.33301 0 8.33301 0.333008 15 1v-212zM241.999 225l-100 -68v148l27 9z
M51.999 505l52 -52l52 46l-68 68l-78 -67l15 -18zM281.999 515l-53 52l-52 -45l69 -69l77 67l-15 18z" />
    <glyph glyph-name="igrave" unicode="&#xec;" horiz-adv-x="217" 
d="M68 287v-192c0 -49.333 14.667 -84.666 44 -105.999l90 78l-15 18l-26 -23c-15.333 11.333 -23 32.666 -23 63.999v166l50 45l-15 17l-31 -25l-56 51l-90 -79l14 -18l31 27zM145 427h4c2.66699 0 6.66699 0.333008 12 1v24c-2 -0.666992 -5 -1 -9 -1
c-18.667 0 -35.334 8.33301 -50.001 25c-15.333 17.333 -23 35 -23 53l1.5 9.5l4.5 28.5l-90 -26c4.66699 -34.667 22.334 -62.667 53.001 -84c28.667 -20 61 -30 97 -30z" />
    <glyph glyph-name="iacute" unicode="&#xed;" horiz-adv-x="215" 
d="M68 287v-192c0 -49.333 14.667 -84.666 44 -105.999l90 78l-15 18l-26 -23c-15.333 11.333 -23 32.666 -23 63.999v166l50 45l-15 17l-31 -25l-56 51l-90 -79l14 -18l31 27zM23 454l-0.000976562 -23c7.33301 -0.666992 13 -1 17 -1h9c38.667 0 71.667 13 99 39
c28.667 27.333 45.334 60 50.001 98l-92 -26c0 -26 -7.5 -47 -22.5 -63s-35.167 -24 -60.5 -24z" />
    <glyph glyph-name="icircumflex" unicode="&#xee;" horiz-adv-x="215" 
d="M68 287v-192c0 -49.333 14.667 -84.666 44 -105.999l90 78l-15 18l-26 -23c-15.333 11.333 -23 32.666 -23 63.999v166l50 45l-15 17l-31 -25l-56 51l-90 -79l14 -18l31 27zM-15 450l16.001 -17l74 80c33.333 -53.333 85.666 -80 156.999 -80v21c-53.333 6 -80 35 -80 87
c0 6 1 14.667 3 26l-83 -24z" />
    <glyph glyph-name="idieresis" unicode="&#xef;" horiz-adv-x="215" 
d="M68 287v-192c0 -49.333 14.667 -84.666 44 -105.999l90 78l-15 18l-26 -23c-15.333 11.333 -23 32.666 -23 63.999v166l50 45l-15 17l-31 -25l-56 51l-90 -79l14 -18l31 27zM-19 506l51 -52l52 46l-68 68l-77 -67l15 -18zM210 516l-53 52l-52 -45l69 -69l77 67l-15 18z
" />
    <glyph glyph-name="eth" unicode="&#xf0;" horiz-adv-x="393" 
d="M139 419l66.001 -74c-38.667 -20.667 -91 -31 -157 -31v-23h25v-213l-49 -43l16 -18l28 25l75 -53c55.333 43.333 122.666 65 201.999 65v23h-24v217l49 44l-15 18l-35 -34l-121 135l90 58l-16 22l-93 -59l-62 69l30 28l-16 17l-83 -74l70 -78l-90 -58l15 -23z
M251.001 71c-11.333 -2.66699 -21.6689 -5.66895 -31.002 -9.00195s-17.666 -6.66602 -24.999 -9.99902l-52 38v205c22.667 4.66699 44.334 12.334 65.001 23.001l43 -31v-216z" />
    <glyph glyph-name="ntilde" unicode="&#xf1;" horiz-adv-x="395" 
d="M22 33l15 -18.001l33 27l56 -53l81 69l-15 18l-26 -21l-21 21v161l84 73l24 -20v-193c0 -48 13.667 -84 41 -108l89 76l-15 18l-27 -23c-12 12 -18 34.667 -18 68v166l52 44l-15 18l-31 -26l-55 50l-129 -112c0 28 -1.66699 48.667 -5 62
c-5.33301 18.667 -17.333 35.334 -36 50.001l-92 -78l15 -18l30 26c12 -12 18 -35 18 -69v-164zM83 464.999l19.002 -17c26.667 30.667 42.334 46 47.001 46c3.33301 0 17.666 -7 42.999 -21c24.667 -14 43.667 -21 57 -21c19.333 0 35.666 5.66699 48.999 17l31.5 35
c9 10 16.167 18.667 21.5 26l-19 17c-24.667 -30.667 -40 -46 -46 -46c-11.333 0 -28 7 -50 21s-39 21 -51 21c-20.667 0 -40.334 -9 -59.001 -27c-1.33301 -1.33301 -5.5 -6.33301 -12.5 -15z" />
    <glyph glyph-name="ograve" unicode="&#xf2;" horiz-adv-x="393" 
d="M24 35l16.001 -18l28 25l75 -53c55.333 43.333 122.666 65 201.999 65v23h-24v217l49 44l-15 18l-32 -28l-71 52c-30 -27.333 -62 -45.333 -96 -54c-27.333 -8 -63.333 -12 -108 -12v-23h25v-213zM251.001 71c-11.333 -2.66699 -21.6689 -5.66895 -31.002 -9.00195
s-17.666 -6.66602 -24.999 -9.99902l-52 38v205c22.667 4.66699 44.334 12.334 65.001 23.001l43 -31v-216zM233.998 426.998h4.00098c2.66699 0 6.66699 0.333008 12 1v24c-2 -0.666992 -5 -1 -9 -1c-18.667 0 -35.334 8.33301 -50.001 25c-15.333 17.333 -23 35 -23 53
l1.5 9.5l4.5 28.5l-91 -26c6 -35.333 24 -63.333 54 -84c28.667 -20 61 -30 97 -30z" />
    <glyph glyph-name="oacute" unicode="&#xf3;" horiz-adv-x="393" 
d="M24 35l16.001 -18l28 25l75 -53c55.333 43.333 122.666 65 201.999 65v23h-24v217l49 44l-15 18l-32 -28l-71 52c-30 -27.333 -62 -45.333 -96 -54c-27.333 -8 -63.333 -12 -108 -12v-23h25v-213zM251.001 71c-11.333 -2.66699 -21.6689 -5.66895 -31.002 -9.00195
s-17.666 -6.66602 -24.999 -9.99902l-52 38v205c22.667 4.66699 44.334 12.334 65.001 23.001l43 -31v-216zM111.998 453.998l-0.000976562 -23c7.33301 -0.666992 13 -1 17 -1h9c38.667 0 71.667 13 99 39c28.667 27.333 45.334 60 50.001 98l-92 -26
c0 -26 -7.5 -47 -22.5 -63s-35.167 -24 -60.5 -24z" />
    <glyph glyph-name="ocircumflex" unicode="&#xf4;" horiz-adv-x="393" 
d="M24 35l16.001 -18l28 25l75 -53c55.333 43.333 122.666 65 201.999 65v23h-24v217l49 44l-15 18l-32 -28l-71 52c-30 -27.333 -62 -45.333 -96 -54c-27.333 -8 -63.333 -12 -108 -12v-23h25v-213zM251.001 71c-11.333 -2.66699 -21.6689 -5.66895 -31.002 -9.00195
s-17.666 -6.66602 -24.999 -9.99902l-52 38v205c22.667 4.66699 44.334 12.334 65.001 23.001l43 -31v-216zM73.998 449.998l17.001 -17l74 80c33.333 -53.333 85.666 -80 156.999 -80v21c-53.333 6 -80 35 -80 87c0 6 1 14.667 3 26l-83 -24z" />
    <glyph glyph-name="otilde" unicode="&#xf5;" horiz-adv-x="393" 
d="M24 35l16.001 -18l28 25l75 -53c55.333 43.333 122.666 65 201.999 65v23h-24v217l49 44l-15 18l-32 -28l-71 52c-30 -27.333 -62 -45.333 -96 -54c-27.333 -8 -63.333 -12 -108 -12v-23h25v-213zM251.001 71c-11.333 -2.66699 -21.6689 -5.66895 -31.002 -9.00195
s-17.666 -6.66602 -24.999 -9.99902l-52 38v205c22.667 4.66699 44.334 12.334 65.001 23.001l43 -31v-216zM62.998 464.998l19.001 -17c26.667 30.667 42.334 46 47.001 46c3.33301 0 17.666 -7 42.999 -21c24.667 -14 43.667 -21 57 -21c20 0 36.333 5.66699 49 17
l31.5 35c9 10 16.167 18.667 21.5 26l-19 17c-24.667 -30.667 -40 -46 -46 -46c-11.333 0 -28 7 -50 21s-39 21 -51 21c-20.667 0 -40.334 -9 -59.001 -27c-1.33301 -1.33301 -5.5 -6.33301 -12.5 -15z" />
    <glyph glyph-name="odieresis" unicode="&#xf6;" horiz-adv-x="393" 
d="M24 35l16.001 -18l28 25l75 -53c55.333 43.333 122.666 65 201.999 65v23h-24v217l49 44l-15 18l-32 -28l-71 52c-30 -27.333 -62 -45.333 -96 -54c-27.333 -8 -63.333 -12 -108 -12v-23h25v-213zM251.001 71c-11.333 -2.66699 -21.6689 -5.66895 -31.002 -9.00195
s-17.666 -6.66602 -24.999 -9.99902l-52 38v205c22.667 4.66699 44.334 12.334 65.001 23.001l43 -31v-216zM93.998 504.998l52 -52l52 46l-68 68l-78 -67l15 -18zM323.998 514.998l-53 52l-52 -45l69 -69l77 67l-15 18z" />
    <glyph glyph-name="divide" unicode="&#xf7;" 
d="M380 295h-339l-21 -43h339zM193 193l-66 -55l14 -16l20 17l44 -40l68 57l-14 16l-23 -19zM193 448l-66 -55l14 -16l20 18l44 -41l68 57l-14 16l-23 -19z" />
    <glyph glyph-name="oslash" unicode="&#xf8;" horiz-adv-x="393" 
d="M379 380l-55 -53l-73 53c-29.333 -27.333 -61.333 -45.333 -96 -54c-27.333 -8 -63.333 -12 -108 -12v-23h25v-210l-77 -76l15 -16l57 54l75 -54c57.333 43.333 125 65 203 65v23h-24v214l73 71zM142 90l-0.00195312 26.999l109 106v-152
c-11.333 -2.66699 -21.666 -5.66699 -30.999 -9s-17.666 -6.66602 -24.999 -9.99902zM250.998 254.999l-109.001 -106.001v146c22.667 4.66699 44.334 12.334 65.001 23.001l44 -31v-32z" />
    <glyph glyph-name="ugrave" unicode="&#xf9;" horiz-adv-x="388" 
d="M367 335l-15 18l-34 -27l-55 54l-81 -71l15 -17l26 21l21 -21v-161l-84 -73l-24 20v192c0 48 -13.667 84.667 -41 110l-89 -78l15 -17l27 23c12 -13.333 18 -36 18 -68v-166l-52 -44l15 -18l31 26l55 -49l129 110c0 -28 2 -48.333 6 -61c4.66699 -18 16 -34.333 34 -49
l93 77l-15 18l-31 -26c-11.333 11.333 -17 34.333 -17 69v164zM231 427h4.00098c2.66699 0 6.66699 0.333008 12 1v24c-2 -0.666992 -5 -1 -9 -1c-18.667 0 -35.334 8.33301 -50.001 25c-15.333 17.333 -23 35 -23 53l1.5 9.5l4.5 28.5l-91 -26c6 -35.333 24 -63.333 54 -84
c28.667 -20 61 -30 97 -30z" />
    <glyph glyph-name="uacute" unicode="&#xfa;" horiz-adv-x="388" 
d="M367 335l-15 18l-34 -27l-55 54l-81 -71l15 -17l26 21l21 -21v-161l-84 -73l-24 20v192c0 48 -13.667 84.667 -41 110l-89 -78l15 -17l27 23c12 -13.333 18 -36 18 -68v-166l-52 -44l15 -18l31 26l55 -49l129 110c0 -28 2 -48.333 6 -61c4.66699 -18 16 -34.333 34 -49
l93 77l-15 18l-31 -26c-11.333 11.333 -17 34.333 -17 69v164zM110 454l-0.000976562 -23c7.33301 -0.666992 13 -1 17 -1h9c38.667 0 71.667 13 99 39c28.667 27.333 45.334 60 50.001 98l-92 -26c0 -26 -7.5 -47 -22.5 -63s-35.167 -24 -60.5 -24z" />
    <glyph glyph-name="ucircumflex" unicode="&#xfb;" horiz-adv-x="388" 
d="M367 335l-15 18l-34 -27l-55 54l-81 -71l15 -17l26 21l21 -21v-161l-84 -73l-24 20v192c0 48 -13.667 84.667 -41 110l-89 -78l15 -17l27 23c12 -13.333 18 -36 18 -68v-166l-52 -44l15 -18l31 26l55 -49l129 110c0 -28 2 -48.333 6 -61c4.66699 -18 16 -34.333 34 -49
l93 77l-15 18l-31 -26c-11.333 11.333 -17 34.333 -17 69v164zM71 450l17.001 -17l74 80c33.333 -53.333 85.666 -80 156.999 -80v21c-53.333 6 -80 35 -80 87c0 6 1 14.667 3 26l-83 -24z" />
    <glyph glyph-name="udieresis" unicode="&#xfc;" horiz-adv-x="388" 
d="M367 335l-15 18l-34 -27l-55 54l-81 -71l15 -17l26 21l21 -21v-161l-84 -73l-24 20v192c0 48 -13.667 84.667 -41 110l-89 -78l15 -17l27 23c12 -13.333 18 -36 18 -68v-166l-52 -44l15 -18l31 26l55 -49l129 110c0 -28 2 -48.333 6 -61c4.66699 -18 16 -34.333 34 -49
l93 77l-15 18l-31 -26c-11.333 11.333 -17 34.333 -17 69v164zM91 505l52 -52l52 46l-68 68l-78 -67l15 -18zM321 515l-53 52l-52 -45l69 -69l77 67l-15 18z" />
    <glyph glyph-name="yacute" unicode="&#xfd;" horiz-adv-x="379" 
d="M124 -191l-9.99902 -21c28.667 -14 55.667 -21 81 -21c34.667 0 66 9 94 27c32 20 48 46.667 48 80c0 22 -7.83301 39.833 -23.5 53.5s-34.5 20.5 -56.5 20.5c-0.666992 0 -37.334 -10 -110.001 -30l-13.5 -4l-12.5 -4c-16 0 -24 8.33301 -24 25c0 16 11 28.667 33 38
l132 52c25.333 10 40.333 18.333 45 25s7 27.667 7 63v174l56 48l-16 18l-31 -28l-61 55l-81 -72l15 -17l25 22l23 -24v-218c0 -16 -6.66699 -28 -20 -36c-4 -2 -18 -7 -42 -15l-44 19v241c0 33.333 -14 66.666 -42 99.999l-90 -79l15 -18l26 23
c10 -15.333 16 -26.333 18 -33c2 -7.33301 3 -19.666 3 -36.999v-191l86 -37c-28.667 -11.333 -50.667 -22 -66 -32c-17.333 -11.333 -26 -31.333 -26 -60c0 -22.667 7 -40.5 21 -53.5s32.333 -19.5 55 -19.5c15.333 0 38.666 6.33301 69.999 19
c32.667 12 54.334 18 65.001 18c18 0 27 -8 27 -24c0 -18.667 -12.667 -34.667 -38 -48c-20.667 -10.667 -42 -16 -64 -16c-19.333 0 -44 5.66699 -74 17zM105.001 455l0.000976562 -23c7.33301 -0.666992 13 -1 17 -1h9c39.333 0 72.666 13.333 99.999 40
c28 26.667 44.333 59 49 97l-92 -26c0 -26 -7.5 -47 -22.5 -63s-35.167 -24 -60.5 -24z" />
    <glyph glyph-name="thorn" unicode="&#xfe;" horiz-adv-x="392" 
d="M18 -216l15.999 -17.001l106 96v170c8.66699 -5.33301 18.167 -11.666 28.5 -18.999l35.5 -25c36.667 44.667 75.334 67 116.001 67c2 0 5 -0.166992 9 -0.5s8.66699 -0.833008 14 -1.5v24c-4 0.666992 -7 1 -9 1h-3h-3c-2 0 -4.66699 -0.333008 -8 -1v211l49 45l-16 17
l-30 -26l-75 55l-108 -96v233c0 24 2 42.667 6 56c4 15.333 13.333 32.333 28 51l-16 13c-33.333 -36 -54.333 -68.333 -63 -97l-13 67l-22 -6c6.66699 -26.667 10 -52 10 -76v-447l-49 -45l15 -17l34 30v-214zM149.999 100.999h-3
c-1.33301 0 -3.66602 -0.333008 -6.99902 -1v153l69 61l41 -29v-223c-5.33301 -2.66699 -10 -6 -14 -10c-18.667 32.667 -47.334 49 -86.001 49z" />
    <glyph glyph-name="ydieresis" unicode="&#xff;" horiz-adv-x="379" 
d="M124 -191l-9.99902 -21c28.667 -14 55.667 -21 81 -21c34.667 0 66 9 94 27c32 20 48 46.667 48 80c0 22 -7.83301 39.833 -23.5 53.5s-34.5 20.5 -56.5 20.5c-0.666992 0 -37.334 -10 -110.001 -30l-13.5 -4l-12.5 -4c-16 0 -24 8.33301 -24 25c0 16 11 28.667 33 38
l132 52c25.333 10 40.333 18.333 45 25s7 27.667 7 63v174l56 48l-16 18l-31 -28l-61 55l-81 -72l15 -17l25 22l23 -24v-218c0 -16 -6.66699 -28 -20 -36c-4 -2 -18 -7 -42 -15l-44 19v241c0 33.333 -14 66.666 -42 99.999l-90 -79l15 -18l26 23
c10 -15.333 16 -26.333 18 -33c2 -7.33301 3 -19.666 3 -36.999v-191l86 -37c-28.667 -11.333 -50.667 -22 -66 -32c-17.333 -11.333 -26 -31.333 -26 -60c0 -22.667 7 -40.5 21 -53.5s32.333 -19.5 55 -19.5c15.333 0 38.666 6.33301 69.999 19
c32.667 12 54.334 18 65.001 18c18 0 27 -8 27 -24c0 -18.667 -12.667 -34.667 -38 -48c-20.667 -10.667 -42 -16 -64 -16c-19.333 0 -44 5.66699 -74 17zM87.001 505l52 -52l52 46l-68 68l-78 -67l15 -18zM317.001 515l-53 52l-52 -45l69 -69l77 67l-15 18z" />
    <glyph glyph-name="OE" unicode="&#x152;" horiz-adv-x="894" 
d="M280 642l-11.9951 13.999c-153.333 -92 -230 -210 -230 -354c0 -87.333 26.667 -161.666 80 -222.999c54.667 -64 125 -96 211 -96c29.333 0 73 12.667 131 38c58 26 95.333 39 112 39c29.333 0 59.666 -9 90.999 -27c14.667 -8.66699 40 -27.667 76 -57l95 95l-16 15
l-27 -25c-20.667 18.667 -42 33 -64 43v200l80 79l-16 18l-25 -25l-81 79l-80 -79v195c29.333 23.333 52.666 35 69.999 35c18 0 37.667 -9 59 -27c4.66699 -4 11 -10 19 -18s17.667 -18.333 29 -31l89 87l-17 18l-19 -18c-28.667 32.667 -62.334 49 -101.001 49
c-18.667 0 -36 -3.66699 -52 -11l-57.5 -41c-17 -12 -31.167 -22.667 -42.5 -32v-469c-23.333 -6.66699 -58 -25 -104 -55c-44.667 -28.667 -79.334 -44.667 -104.001 -48v204c22 9.33301 37.333 14 46 14c11.333 0 26.333 -4.66699 45 -14v-108l-15 -13l14 -18l76 62v390
c0 86 -34.333 132.333 -103 139l-63 -45v35l-23 1v-53l-163 -118l13 -19l39 28v-381l-24 -18l15 -19l85 70v400l35 27v-567c-9.33301 -0.666992 -17 -1 -23 -1h-10c-120.667 0 -181 101.667 -181 305c0 84.667 8.33301 147 25 187c9.33301 23.333 26.666 49 51.999 77l24 25
c10.667 11.333 24.667 25.333 42 42zM421.005 421.999c-12.667 0 -28.333 5.33301 -47 16v153l20 13c47.333 0 71 -35 71 -105v-64c-17.333 -8.66699 -32 -13 -44 -13zM374.006 235.999l0.00195312 175c18.667 -8 33.667 -12 45 -12c13.333 0 28.666 4.33301 45.999 13v-175
c-15.333 8 -30 12 -44 12c-14.667 0 -30.334 -4.33301 -47.001 -13zM606.008 116.999v227l34 32l64 -63v-201c-18 7.33301 -34 11 -48 11c-15.333 0 -32 -2 -50 -6z" />
    <glyph glyph-name="oe" unicode="&#x153;" horiz-adv-x="489" 
d="M67 42l74.999 -53c32.667 28 64.334 45.333 95.001 52l83 -52l148 97l-13 20l-89 -60l-46 28v56l178 118l-106 132c-28.667 -26 -57.667 -43.667 -87 -53l-55 53c-51.333 -44 -119 -66 -203 -66v-23h25v-213l-49 -44l16 -17zM249.999 71
c-22 -6 -40.668 -12.668 -56.001 -20.001l-52 38v206c22.667 4.66699 44.334 12.334 65.001 23.001l43 -31v-216zM419.998 223.999l-100 -67v147l27 11z" />
    <glyph glyph-name="Scaron" unicode="&#x160;" horiz-adv-x="603" 
d="M379 506l104 83.999l-15 19l-25 -19c-33.333 51.333 -82 77 -146 77c-43.333 0 -82 -13 -116 -39c-36.667 -28 -55 -63 -55 -105c0 -53.333 20.667 -91.666 62 -114.999c41.333 -22 105 -45 191 -69l-25 -31c-42 11.333 -78.333 23.166 -109 35.499
s-56.667 24.833 -78 37.5c-42.667 24.667 -64 63.334 -64 116.001c0 1.33301 0.166992 5.83301 0.5 13.5s0.833008 18.5 1.5 32.5h-22c-8.66699 -30.667 -13 -61.334 -13 -92.001c0 -64 19 -109.333 57 -136c40 -27.333 98 -52 174 -74l-82 -103c-15.333 2 -28 3 -38 3
c-84.667 0 -146.334 -21 -185.001 -63c-60.667 -63.333 -91 -114.666 -91 -153.999c0 -23.333 6 -42.333 18 -57c12.667 -16 30.667 -24 54 -24c25.333 0 52.333 18.333 81 55l136 171c44 -15.333 94.333 -46.666 151 -93.999l132 101c60.667 46.667 91 102.667 91 168
c0 72 -38 122.667 -114 152l81 102l-18 14l-87 -109c-2.66699 1.33301 -4.66699 2.16602 -6 2.49902s-2.66602 0.833008 -3.99902 1.5l-177 62c-50.667 18 -76 45.667 -76 83c0 20.667 7.66699 38.167 23 52.5s33.666 21.5 54.999 21.5c14 0 26.667 -2 38 -6
c19.333 -7.33301 38 -23.333 56 -48c4.66699 -6.66699 10.334 -15.5 17.001 -26.5zM126 80.999c14 0 28.667 -1.66699 44 -5l-140 -174c-19.333 -24 -37.333 -36 -54 -36c-31.333 0 -47 19.333 -47 58c0 42.667 22.667 80 68 112c40.667 30 83.667 45 129 45zM404 52.999
c-54 42.667 -106.669 69.332 -158.002 79.999l79 100c11.333 -3.33301 22.5 -7 33.5 -11s22.167 -7.66699 33.5 -11c30 -12 45 -25.667 45 -41s-14 -34.333 -42 -57l15 -17l32.5 31.5l17.5 17.5c17.333 20.667 26 41 26 61c0 28.667 -11.333 50.334 -34 65.001
c-6.66699 4 -16 8.5 -28 13.5s-27 10.167 -45 15.5l25 30c78.667 -26 118 -66.333 118 -121c0 -32 -8.66699 -57.667 -26 -77c-19.333 -18 -36.666 -33.5 -51.999 -46.5s-28.666 -23.833 -39.999 -32.5zM424.998 829.997l-17 17.001l-74 -80c-32 53.333 -84.333 80 -157 80
v-21c53.333 -6 80 -35 80 -87c0 -6.66699 -1 -15.334 -3 -26.001l83 23z" />
    <glyph glyph-name="scaron" unicode="&#x161;" horiz-adv-x="358" 
d="M151 167l-120.999 -166l18 -12c14.667 20.667 32.667 31 54 31c22.667 0 47.667 -10 75 -30c43.333 43.333 95.666 65 156.999 65v23h-26v128h-101l117 160l-19 14c-17.333 -20 -36 -30 -56 -30c-20.667 0 -46.667 9.66699 -78 29c-44 -44 -93.333 -66 -148 -66v-23h25
v-123h103zM178.001 206h-60v101l16 10c18.667 -14.667 38.667 -22 60 -22c24 0 46.667 8.33301 68 25zM90.001 47l88.999 120h57v-106l-12 -5c-21.333 12 -39.666 18 -54.999 18c-20 0 -46.333 -9 -79 -27zM303 550l-17 17.001l-74 -80c-32 53.333 -84.333 80 -157 80v-21
c53.333 -6 80 -35 80 -87c0 -6.66699 -1 -15.334 -3 -26.001l83 23z" />
    <glyph glyph-name="Ydieresis" unicode="&#x178;" horiz-adv-x="613" 
d="M372 -197l-9.00195 -19.998c20.667 -10.667 40.667 -16 60 -16c26 0 47.667 9 65 27s26 40 26 66c0 28.667 -9 51.667 -27 69s-41.333 26 -70 26c-23.333 0 -58.666 -14.333 -105.999 -43c-46.667 -28.667 -71.667 -43 -75 -43c-10.667 0 -19.5 4.33301 -26.5 13
s-10.5 18.334 -10.5 29.001c0 26 25.667 48.667 77 68l177 66c24 9.33301 41.167 22.166 51.5 38.499s15.5 38.5 15.5 66.5v393l63 47l-14 19l-34 -25l-82 83l-150 -108v95h-23v-111l-46 -34c0 40.667 -7 74.667 -21 102c-16.667 34.667 -44 52 -82 52
c-32.667 0 -61.667 -16.667 -87 -50s-38 -73.333 -38 -120l21 -4c10 58.667 36 88 78 88c35.333 0 53 -26.333 53 -79v-123c-61.333 0 -92 -26.667 -92 -80c0 -18 4 -39.333 12 -64l23 6c-4 8 -6 16.333 -6 25c0 32 13.333 48 40 48c8.66699 0 16.334 -3.33301 23.001 -10
v-232l109 -67c-18 -6.66699 -33.5 -13.334 -46.5 -20.001s-23.833 -13.334 -32.5 -20.001c-24 -19.333 -36 -44.333 -36 -75c0 -26 8.33301 -47.5 25 -64.5s37.667 -25.5 63 -25.5c24.667 0 46.667 7 66 21l95 68c14.667 10.667 28.667 16 42 16c12 0 22.333 -5 31 -15
s13 -21.333 13 -34c0 -17.333 -6.33301 -32 -19 -44s-27.667 -18 -45 -18c-16.667 0 -33.667 4.33301 -51 13zM279.998 20.002l-46 29v430l46 34v-493zM443.998 117.002c0 -34 -18.333 -57.333 -55 -70l-86 -31v196c24 11.333 46 17 66 17s45 -5.66699 75 -17v-95z
M373.998 251.002c-19.333 0 -43.001 -5 -71.001 -15v173c30 -9.33301 55.333 -14 76 -14c23.333 0 45 4.66699 65 14v-174c-25.333 10.667 -48.666 16 -69.999 16zM374.997 417.002c-25.333 0 -49.333 5.66699 -72 17v96l94 68l47 -47v-117
c-21.333 -11.333 -44.333 -17 -69 -17zM191.997 785.002l52 -52l52 46l-68 68l-78 -67l15 -18zM421.997 795.002l-53 52l-52 -45l69 -69l77 67l-15 18z" />
    <glyph glyph-name="florin" unicode="&#x192;" 
d="M84 311h57.999l-82 -464l-60 -47l12 -17l123 96l77 432h75l4 24h-75l32 180l24 18c20.667 -24.667 37.334 -37 50.001 -37c18.667 0 37.667 8.33301 57 25l24 23l24 23l-13 17c-26.667 -22.667 -42 -34 -46 -34c-10 0 -17.667 5.66699 -23 17
c-4.66699 12 -8.5 22.5 -11.5 31.5s-5.5 16.833 -7.5 23.5c-46 -65.333 -108 -111.333 -186 -138l5 -21l25 10l-24 -138h-58z" />
    <glyph glyph-name="circumflex" unicode="&#x2c6;" horiz-adv-x="500" 
d="M127 450l17 -17l74 80c34 -53.333 86.333 -80 157 -80v21c-53.333 6 -80 35 -80 87c0 6 1 14.667 3 26l-83 -24z" />
    <glyph glyph-name="tilde" unicode="&#x2dc;" horiz-adv-x="500" 
d="M37 280l29.9971 -21.001c40.667 37.333 65 56 73 56c4.66699 0 22.334 -6.66699 53.001 -20c18.667 -7.33301 33 -13.166 43 -17.499s15.667 -6.83301 17 -7.5c10.667 -4 24.667 -6 42 -6c32 0 57.333 6.66699 76 20l48.5 42.5c13.667 12.333 24.834 22.833 33.501 31.5
l-29 21c-37.333 -37.333 -61.333 -56 -72 -56c-18.667 0 -45 8.33301 -79 25c-34.667 17.333 -60.667 26 -78 26c-31.333 0 -60.666 -10.333 -87.999 -31c-4 -2.66699 -27.333 -23.667 -70 -63z" />
    <glyph glyph-name="endash" unicode="&#x2013;" 
d="M62 126l14.999 35h216c23.333 0 38.333 9.33301 45 28l21 53l-21 9l-13 -31h-230c-12.667 0 -24.334 -11.333 -35.001 -34c-1.33301 -2.66699 -3.66602 -8.16699 -6.99902 -16.5s-7.66602 -19.833 -12.999 -34.5z" />
    <glyph glyph-name="emdash" unicode="&#x2014;" horiz-adv-x="481" 
d="M42 126l14.999 35h338c23.333 0 38.333 9.33301 45 28l21 53l-21 9l-13 -31h-352c-12.667 0 -24.334 -11.333 -35.001 -34c-1.33301 -2.66699 -3.66602 -8.16699 -6.99902 -16.5s-7.66602 -19.833 -12.999 -34.5z" />
    <glyph glyph-name="quoteleft" unicode="&#x2018;" horiz-adv-x="232" 
d="M110 532c0 30 20.333 60.332 61 90.999l-11 21c-32 -15.333 -58 -37.333 -78 -66c-21.333 -30.667 -32 -62.667 -32 -96c0 -27.333 9.66699 -54.666 29 -81.999l98 83l-15 18l-31 -26c-14 20 -21 39 -21 57z" />
    <glyph glyph-name="quoteright" unicode="&#x2019;" horiz-adv-x="233" 
d="M123 512c0 -30.667 -20.333 -61.333 -61 -92l11 -20c32 14.667 58 36.667 78 66c21.333 30.667 32 62.667 32 96c0 28 -9.33301 55.333 -28 82l-99 -83l15 -18l31 26c14 -19.333 21 -38.333 21 -57z" />
    <glyph glyph-name="quotesinglbase" unicode="&#x201a;" horiz-adv-x="233" 
d="M123 -19c0 -30.667 -20.333 -61.333 -61 -92l11 -20c32 14.667 58.333 36.667 79 66s31 61 31 95c0 28 -9.33301 55.333 -28 82l-99 -83l15 -18l31 26c14 -19.333 21 -38 21 -56z" />
    <glyph glyph-name="quotedblleft" unicode="&#x201c;" horiz-adv-x="411" 
d="M110 532c0 30 20.333 60.332 61 90.999l-11 21c-32 -15.333 -58 -37.333 -78 -66c-21.333 -30.667 -32 -62.667 -32 -96c0 -27.333 9.66699 -54.666 29 -81.999l98 83l-15 18l-31 -26c-14 20 -21 39 -21 57zM289 531.999c0 30 20.333 60.333 61 91l-11 21
c-31.333 -14.667 -57.333 -36.334 -78 -65.001c-21.333 -30.667 -32 -63 -32 -97c0 -27.333 9.66699 -54.666 29 -81.999l98 83l-15 18l-31 -26c-14 18.667 -21 37.667 -21 57z" />
    <glyph glyph-name="quotedblright" unicode="&#x201d;" horiz-adv-x="411" 
d="M122 512c0 -30.667 -20.333 -61.333 -61 -92l11 -20c30.667 14.667 56.667 36.667 78 66c21.333 31.333 32 63.333 32 96c0 28 -9.33301 55.333 -28 82l-99 -83l15 -18l31 26c14 -20 21 -39 21 -57zM301 512.001c0 -30.667 -20.333 -61.333 -61 -92l11 -20
c30.667 14.667 56.667 36.667 78 66c21.333 30.667 32 62.667 32 96c0 28 -9.33301 55.333 -28 82l-99 -83l15 -18l31 26c14 -19.333 21 -38.333 21 -57z" />
    <glyph glyph-name="quotedblbase" unicode="&#x201e;" horiz-adv-x="411" 
d="M122 -19c0 -30.667 -20.333 -61.334 -61 -92.001l11 -20c31.333 15.333 57 37.333 77 66c22 30.667 33 62.334 33 95.001c0 28 -9.33301 55.333 -28 82l-99 -83l15 -18l31 26c14 -20 21 -38.667 21 -56zM301 -19c0 -30.667 -20.333 -61.334 -61 -92.001l11 -20
c30.667 14.667 56.667 36.667 78 66c21.333 30.667 32 62.334 32 95.001c0 28 -9.33301 55.333 -28 82l-99 -83l15 -18l31 26c14 -19.333 21 -38 21 -56z" />
    <glyph glyph-name="dagger" unicode="&#x2020;" 
d="M340 457h-104.999v210l33 29l-15 18l-88 -74v-183h-85c-12.667 0 -22 -7 -28 -21l-27 -64l21 -9l15 35h104v-563l-33 -30l16 -17l87 73v537h74c20 0 34.667 8.66699 44 26c5.33301 12 9.66602 22.5 12.999 31.5l9 23.5l-21 9z" />
    <glyph glyph-name="daggerdbl" unicode="&#x2021;" 
d="M61 398h104.002v-296h-74c-20.667 0 -35.334 -9 -44.001 -27c-5.33301 -11.333 -9.66602 -21.5 -12.999 -30.5l-9 -23.5l21 -9l14 32h105v-209l-33 -29l15 -18l88 74v182h85c13.333 0 22.666 6.66699 27.999 20l27 64l-21 9l-15 -35h-104v296h74
c20 0 34.667 8.66699 44 26c5.33301 12 9.66602 22.5 12.999 31.5l9 23.5l-21 9l-14 -31h-105v210l33 29l-15 18l-88 -74v-183h-85c-12.667 0 -22 -7 -28 -21l-27 -64l21 -9z" />
    <glyph glyph-name="bullet" unicode="&#x2022;" horiz-adv-x="600" 
d="M294 382c-28 0 -51 -9 -69 -27s-27 -41 -27 -69c0 -26.667 9 -49.334 27 -68.001s41 -28 69 -28s51.333 9 70 27s28 41 28 69c0 13.333 -2.66699 25.833 -8 37.5s-12.5 21.834 -21.5 30.501s-19.333 15.5 -31 20.5s-24.167 7.5 -37.5 7.5z" />
    <glyph glyph-name="ellipsis" unicode="&#x2026;" horiz-adv-x="700" 
d="M111 113l-94 -79l15 -18l29 25l57 -52l98 81l-16 18l-32 -28zM344 113l-94 -79l15 -18l30 25l56 -52l98 81l-15 18l-33 -28zM578 113l-94 -79l15 -18l29 25l57 -52l97 81l-15 18l-33 -28z" />
    <glyph glyph-name="perthousand" unicode="&#x2030;" horiz-adv-x="714" 
d="M17 363l14 -14l16 14l43 -29c23.333 23.333 52.666 35 87.999 35c1.33301 0 4.16602 -0.166992 8.49902 -0.5s9.83301 -0.833008 16.5 -1.5v20c-3.33301 0.666992 -5.66602 1 -6.99902 1h-2h-2c-0.666992 0 -2 -0.333008 -4 -1v183l24 21l-14 14l-14 -13l-41 28
c-16 -16 -33.333 -26.333 -52 -31c-11.333 -2.66699 -31.666 -4 -60.999 -4v-19l13 -1v-180zM112 374l-24.002 16.002v177c10.667 2.66699 21.667 6.66699 33 12l23 -15v-180c-5.33301 -0.666992 -10.666 -1.83398 -15.999 -3.50098s-10.666 -3.83398 -15.999 -6.50098z
M74.998 7.00195l362 653h-27l-361 -653h26zM272.998 77.002l13.999 -14l16 14l43 -29c23.333 23.333 52.333 35 87 35c2 0 5 -0.166992 9 -0.5s9.33301 -0.833008 16 -1.5v20c-2.66699 0.666992 -4.66699 1 -6 1h-2h-2c-0.666992 0 -2 -0.333008 -4 -1v183l24 21l-14 14
l-15 -13l-41 28c-23.333 -23.333 -60.666 -35 -111.999 -35v-19l13 -1v-180zM367.997 88.002l-24.999 16v177c13.333 4 24.666 8 33.999 12l22 -15v-180c-7.33301 -2 -13.5 -3.83301 -18.5 -5.5s-9.16699 -3.16699 -12.5 -4.5zM501.998 77.002l14 -14l16 14l43 -29
c23.333 23.333 52.333 35 87 35c2 0 5 -0.166992 9 -0.5s9.33301 -0.833008 16 -1.5v20c-2.66699 0.666992 -4.66699 1 -6 1h-2h-2c-0.666992 0 -2 -0.333008 -4 -1v183l24 21l-14 14l-14 -13l-41 28c-23.333 -23.333 -61 -35 -113 -35v-19l13 -1v-180zM596.998 88.002
l-24.002 16.002v177c14.667 4 25.667 8 33 12l23 -15v-180c-5.33301 -0.666992 -10.666 -1.83398 -15.999 -3.50098s-10.666 -3.83398 -15.999 -6.50098z" />
    <glyph glyph-name="guilsinglleft" unicode="&#x2039;" horiz-adv-x="275" 
d="M29 176c42.667 -20 74 -40 94 -60c16.667 -17.333 37.667 -48.333 63 -93l34 74c-40.667 54.667 -87 88 -139 100l126 130l-16 17z" />
    <glyph glyph-name="guilsinglright" unicode="&#x203a;" horiz-adv-x="275" 
d="M246 191c-73.333 32.667 -125.667 83.667 -157 153l-34 -74c40.667 -56 86.667 -89.333 138 -100l-125 -130l16 -17z" />
    <glyph glyph-name="trademark" unicode="&#x2122;" horiz-adv-x="808" 
d="M190 276c58 0 106.001 28.999 144.001 86.999l-16 10c-11.333 -12 -28 -26 -50 -42v251l66 64l-15 14l-32 -30c-48 24 -97 36 -147 36c-31.333 0 -60.333 -7.66699 -87 -23c-30.667 -18.667 -46 -43 -46 -73c0 -19.333 9.33301 -36 28 -50l10 18c-10 8 -15 17.667 -15 29
c0 18.667 8.33301 34 25 46c14.667 10.667 32 16 52 16c19.333 0 48 -7.33301 86 -22l-78 -75l12 -16l18 17v-147l-8 -6l11 -16l48 33v185l17 16l35 -16v-258c-23.333 -2 -36.333 -3 -39 -3c-34.667 0 -64.334 16.333 -89.001 49c-22.667 28.667 -34 61.334 -34 98.001
c0 44 19.333 85 58 123l-17 15c-62.667 -52 -94 -107.333 -94 -166c0 -44.667 15 -83 45 -115c30.667 -32.667 68 -49 112 -49zM533.001 634.999l0.000976562 25.0029h-20v-40l-29.5 -18.5l-20.5 -12.5c-18.667 -12.667 -28 -41.334 -28 -86.001c-35.333 0 -53 -16 -53 -48
c0 -12 3 -25.333 9 -40l19 8c-2.66699 5.33301 -4 10.666 -4 15.999c0 14.667 6.33301 22 19 22c4 0 7.33301 -1.33301 10 -4v-75l-15 -12l13 -15l53 42v181l27 18v-233c0 -24.667 -11 -37 -33 -37c-9.33301 0 -23 3 -41 9c-17.333 6.66699 -31.333 10 -42 10
c-28 0 -50.667 -8.66699 -68 -26s-26 -40 -26 -68c0 -30 9.83301 -53.5 29.5 -70.5s44.5 -25.5 74.5 -25.5c23.333 0 43.666 5.33301 60.999 16l-8 17c-15.333 -8.66699 -32.666 -13 -51.999 -13c-21.333 0 -40.333 6.33301 -57 19c-18 14 -27 31.333 -27 52
c0 13.333 4.66699 24.666 14 33.999s20.666 14 33.999 14c6 0 20.667 -3.66699 44 -11c22 -6.66699 36.667 -10 44 -10c22.667 0 41 8 55 24c12 14.667 18 34 18 58v95h37v-109l-22 -16l12 -16l13 9l54 -50l66 50l-13 16l-12 -8v124h38v-102
c0 -31.333 13.333 -57.333 40 -78l62 60l-14 13l-20 -17c-11.333 6 -17 18.333 -17 37v233l51 35l-12 16l-35 -23l-45 43l-48 -34v27h-20v-40l-28 -21c0 31.333 -14 54 -42 68zM570.002 499.002l-37 0.000976562v111l15 9c14.667 -4.66699 22 -18.334 22 -41.001v-79z
M648.002 326.003l-27 26v224l27 21v-271zM706.002 499.003h-38v111l15 10l23 -23v-98z" />
    <glyph glyph-name=".null" unicode="&#xe000;" horiz-adv-x="0" 
 />
    <glyph glyph-name="nonmarkingreturn" unicode="&#xe001;" horiz-adv-x="310" 
 />
    <glyph glyph-name="DST" unicode="&#xe002;" horiz-adv-x="1426" 
d="M1415 -37v837h-1404v-837h1404zM1390 562c0 -19.333 -7.33203 -36.002 -21.999 -50.002s-31.667 -21 -51 -21h-146c-23.333 0 -35 -15 -35 -45v-302c0 -20 6.33301 -34 19 -42v-56c-48 10.667 -72 39.334 -72 86.001v322c0 64 38.333 96 115 96c10.667 0 26.667 -1 48 -3
c11.333 -0.666992 21 -1.16699 29 -1.5s14.667 -0.5 20 -0.5c26.667 0 40 7 40 21c0 12.667 -13.667 19 -41 19c-5.33301 0 -12 -0.166992 -20 -0.5s-17.333 -0.833008 -28 -1.5s-19.834 -1.16699 -27.501 -1.5s-14.167 -0.5 -19.5 -0.5c-77.333 0 -116 29.333 -116 88v131
h57v-131c0 -23.333 12.333 -35 37 -35h148c18.667 0 34.167 -7.16699 46.5 -21.5s18.5 -31.166 18.5 -50.499zM1003 135.998c0 -26 -7.83496 -47.167 -23.502 -63.5s-36.5 -24.5 -62.5 -24.5h-282c-20 0 -36.667 6.66699 -50 20s-20 30 -20 50s6 37.167 18 51.5
s27.667 21.5 47 21.5h279v-53h-270c-13.333 0 -20 -6 -20 -18c0 -14 7.33301 -21 22 -21h250c40.667 0 61 15 61 45v76c0 30 -15 45 -45 45h-250c-28 0 -50.333 8.33301 -67 25s-25 39 -25 67v89c0 30 8.83301 54.5 26.5 73.5s41.5 28.5 71.5 28.5h246
c50.667 0 80.334 -25.333 89.001 -76h-50c-13.333 14 -27.666 21 -42.999 21h-244c-27.333 0 -41 -14.333 -41 -43v-95c0 -24.667 13.667 -37 41 -37h246c29.333 0 52.333 -7.33301 69 -22c18 -16 27 -38 27 -66v-94zM495.999 799.998l-1 -684
c0 -20 -7.16699 -37.333 -21.5 -52s-31.5 -22 -51.5 -22c-21.333 0 -38.666 7.33301 -51.999 22s-20 33 -20 55v64c0 19.333 -0.333008 37 -1 53c0 32.667 -0.333008 50 -1 52c-29.333 34 -58.333 65 -87 93l-95 93c-9.33301 9.33301 -18.333 14 -27 14
c-6.66699 0 -12.334 -2 -17.001 -6c-5.33301 -18 -8 -28.667 -8 -32v-310c0 -28.667 11.667 -43 35 -43h81c8.66699 4 17 11 25 21h53c-9.33301 -48 -35 -72 -77 -72h-82c-58.667 0 -88 32 -88 96v330c0 20.667 8.66699 37.667 26 51c15.333 11.333 34 17 56 17
s39.333 -6.33301 52 -19l179 -177c20.667 -20.667 31 -45.667 31 -75v-151c0 -14 6.33301 -21 19 -21c4 0 8 2.5 12 7.5s6 9.5 6 13.5l-2 682h56z" />
    <glyph glyph-name="longs" unicode="&#xe003;" horiz-adv-x="229" 
d="M146 81l0.000976562 467.001l21 18c24 -25.333 43.333 -38 58 -38c15.333 0 32.333 8.66699 51 26c1.33301 1.33301 14.666 16.666 39.999 45.999l-16 17c-18.667 -22.667 -32 -34 -40 -34c-14 0 -32.333 24 -55 72c-33.333 -65.333 -87.333 -111.333 -162 -138l9 -21
l24 9v-424l-58 -49l15 -18l36 30l56 -55l91 76l-15 18l-30 -25z" />
  </font>
</defs>
</svg>
