<?xml version="1.0" standalone="no"?>
<!DOCTYPE svg PUBLIC "-//W3C//DTD SVG 1.1//EN" "http://www.w3.org/Graphics/SVG/1.1/DTD/svg11.dtd" >
<svg>
<metadata>
Created by FontForge 20090914 at Sat Jul 20 11:44:10 2019
 By www-data
Entworfen von Rudolf Koch fuer die Schriftgiesserei Gebr. Klingspor (Offenbach/M.), 1932
</metadata>
<defs>
<font id="Prisma" horiz-adv-x="831" >
  <font-face 
    font-family="Prisma"
    font-weight="400"
    font-stretch="normal"
    units-per-em="1000"
    panose-1="2 0 4 0 0 0 0 0 0 0"
    ascent="800"
    descent="-200"
    x-height="782"
    cap-height="782"
    bbox="-58 -247.002 1601.01 1132"
    underline-thickness="58"
    underline-position="-77"
    unicode-range="U+0020-U+F002"
  />
<missing-glyph horiz-adv-x="174" 
 />
    <glyph glyph-name=".notdef" horiz-adv-x="174" 
 />
    <glyph glyph-name="space" unicode=" " horiz-adv-x="174" 
 />
    <glyph glyph-name="exclam" unicode="!" horiz-adv-x="225" 
d="M117 175v-175h-18v175h18zM153 175v-175h-18v175h18zM189 175v-175h-18v175h18zM225 175v-175h-18v175h18zM81 175v-175h-18v175h18zM117 782v-558h-18v558h18zM153 782v-558h-18v558h18zM189 782v-558h-18v558h18zM225 782v-558h-18v558h18zM81 782v-558h-18v558h18z
" />
    <glyph glyph-name="quotedbl" unicode="&#x22;" horiz-adv-x="433" 
d="M101 790v-196h-18v196h18zM137 790v-196h-18v196h18zM173 790v-196h-18v196h18zM209 790v-196h-18v196h18zM65 790v-196h-18v196h18zM316 790v-196h-18v196h18zM352 790v-196h-18v196h18zM388 790v-196h-18v196h18zM424 790v-196h-18v196h18zM280 790v-196h-18v196h18z
" />
    <glyph glyph-name="numbersign" unicode="#" horiz-adv-x="825" 
d="M399 746h117l-77 -216h123l76 216h118l-77 -216h144l-35 -99h-144l-46 -129h144l-35 -98h-144l-77 -217h-117l77 217h-123l-77 -217h-117l77 217h-143l35 98h143l45 129h-142l35 99h143zM358 302h123l46 129h-123z" />
    <glyph glyph-name="dollar" unicode="$" horiz-adv-x="512" 
d="M330 327c32.667 -20.667 49 -50 49 -88c0 -33.333 -16.333 -63 -49 -89v-20c44.667 22.667 67 59 67 109c0 48 -22.333 84.333 -67 109v-21zM330 367c19.333 -7.33301 37.333 -21.001 54 -41.001c20.667 -25.333 31 -54.333 31 -87
c0 -33.333 -10.333 -62.666 -31 -87.999c-16 -19.333 -34 -32.666 -54 -39.999v-19c23.333 5.33301 45.333 20.333 66 45c24.667 29.333 37 63.333 37 102c0 37.333 -12 70.666 -36 99.999c-20 23.333 -42.333 39.333 -67 48v-20zM330 404.999
c32 -9.33301 59.334 -27.333 82.001 -54c26 -31.333 39 -68.666 39 -111.999c0 -42.667 -13.667 -80.334 -41 -113.001c-22.667 -26.667 -49.334 -44.667 -80.001 -54v-18c34 8 64.667 27.333 92 58c31.333 36.667 47 79 47 127c0 47.333 -14.667 88.333 -44 123
c-26 30.667 -57.667 51.667 -95 63v-20zM330.001 442.999c39.333 -8.66699 74.335 -30.333 105.002 -65c34.667 -40 52 -86.333 52 -139s-17.333 -98.667 -52 -138c-30 -34.667 -65 -56.667 -105 -66v-19c45.333 10.667 84.666 34.667 117.999 72c38 42.667 57 93 57 151
s-18.667 108.333 -56 151c-32.667 36 -72.334 60 -119.001 72v-19zM330.003 173c21.333 18.667 32 40.666 32 65.999c0 26.667 -10.667 48.334 -32 65.001v-131zM240.003 767.999c-49.333 -10.667 -90.3311 -35.6699 -122.998 -75.0029s-49 -84.666 -49 -135.999
c0 -52 16.5 -97.667 49.5 -137s73.833 -63.666 122.5 -72.999v18c-44.667 10.667 -81.334 33.667 -110.001 69s-43 76.333 -43 123s14.667 88.334 44 125.001s65.666 59 108.999 67v19zM240.005 731.996c-39.333 -10 -71.832 -31.165 -97.499 -63.498
s-38.5 -69.5 -38.5 -111.5c0 -41.333 13.167 -78.333 39.5 -111s58.5 -53.334 96.5 -62.001v19c-34 9.33301 -62 28.166 -84 56.499s-33 60.833 -33 97.5s11.167 69.667 33.5 99s50.166 48 83.499 56v20zM240.006 694.998c-29.333 -10 -53.333 -27.502 -72 -52.502
s-28 -53.5 -28 -85.5c0 -31.333 9.5 -59.666 28.5 -84.999s42.833 -42.333 71.5 -51v20c-24 8.66699 -43.5 23.5 -58.5 44.5s-22.5 44.833 -22.5 71.5s7.5 50.834 22.5 72.501s34.5 36.5 58.5 44.5v21zM240.006 654.996c-18.667 -7.33301 -34.167 -20.168 -46.5 -38.501
s-18.5 -38.166 -18.5 -59.499c0 -46 21.667 -78.667 65 -98v20c-31.333 16 -47 42 -47 78c0 36.667 15.667 62.667 47 78v20zM330.006 479.994c50.667 -10.667 94.333 -36.3291 131 -76.9961c41.333 -46.667 62 -101.334 62 -164.001s-21 -117.334 -63 -164.001
c-37.333 -42 -80.666 -67.667 -129.999 -77v-11h-18v813h18v-11c38.667 -4.66699 75 -19.667 109 -45s59.333 -58 76 -98l-15 -10c-15.333 38 -39 69 -71 93c-29.333 22.667 -62.333 36.667 -99 42v-19c32 -4 61.667 -16.667 89 -38c30 -23.333 51.333 -52.333 64 -87
l-15 -10c-10.667 32.667 -30 60 -58 82c-25.333 20 -52 31.667 -80 35v-18c24.667 -4 48 -15 70 -33c24 -20 41 -44.667 51 -74l-14 -9c-8.66699 26.667 -23.667 49 -45 67c-19.333 16 -40 26.333 -62 31v-18c18 -4 35.333 -13.333 52 -28
c18.667 -16.667 31.334 -37.334 38.001 -62.001l-16 -9c-4.66699 20.667 -15.334 39 -32.001 55c-13.333 13.333 -27.333 21.666 -42 24.999v-20c11.333 -3.33301 22.666 -10.666 33.999 -21.999c13.333 -14 21.333 -29.667 24 -47l-17 -10
c-4 29.333 -17.667 49.666 -41 60.999v-143zM240.005 613.999c-18.667 -15.333 -28 -34.333 -28 -57s9.33301 -41.667 28 -57v114zM240.005 799.999h18.001v-813h-18v6c-38 2.66699 -74.167 14.5 -108.5 35.5s-62.166 48.833 -83.499 83.5l15 10
c42 -69.333 101 -106.333 177 -111v18c-69.333 6 -123.666 40.333 -162.999 103l15 11c33.333 -58 82.666 -90 147.999 -96v17c-25.333 2.66699 -50.333 11.834 -75 27.501s-44 36.167 -58 61.5l16 10c25.333 -48 64.333 -75 117 -81v19c-46.667 6.66699 -81 30.667 -103 72
l15 11c19.333 -38 48.666 -59.667 87.999 -65v18c-32.667 6 -57 25.333 -73 58l15 9c11.333 -26 30.666 -42.333 57.999 -49v174c-54 9.33301 -99.167 35.5 -135.5 78.5s-54.5 92.833 -54.5 149.5s18.167 106.667 54.5 150s81.5 69.666 135.5 78.999v14zM294.006 799.999
v-813h-18v813h18z" />
    <glyph glyph-name="percent" unicode="%" horiz-adv-x="1072" 
d="M285 791c66.667 0 123.334 -23.5 170.001 -70.5s70 -103.5 70 -169.5s-23.333 -122.5 -70 -169.5s-103.334 -70.5 -170.001 -70.5c-66 0 -122.5 23.5 -169.5 70.5s-70.5 103.5 -70.5 169.5s23.5 122.5 70.5 169.5s103.5 70.5 169.5 70.5zM63 551
c0 -61.333 21.6689 -113.666 65.002 -156.999s95.666 -65 156.999 -65s113.666 21.667 156.999 65s65 95.666 65 156.999s-21.667 113.666 -65 156.999s-95.666 65 -156.999 65c-60.667 0 -112.834 -21.667 -156.501 -65s-65.5 -95.666 -65.5 -156.999zM285.002 347
c-56.667 0 -104.834 19.833 -144.501 59.5s-59.5 87.834 -59.5 144.501s19.833 104.834 59.5 144.501s87.834 59.5 144.501 59.5s104.834 -19.833 144.501 -59.5s59.5 -87.834 59.5 -144.501s-19.833 -104.834 -59.5 -144.501s-87.834 -59.5 -144.501 -59.5zM99.002 551
c0 -51.333 18.1689 -95.166 54.502 -131.499s80.166 -54.5 131.499 -54.5s95.166 18.167 131.499 54.5s54.5 80.166 54.5 131.499s-18.167 95.166 -54.5 131.499s-80.166 54.5 -131.499 54.5c-50.667 0 -94.334 -18.167 -131.001 -54.5s-55 -80.166 -55 -131.499z
M285.004 383c-46.667 0 -86.334 16.333 -119.001 49s-49 72.334 -49 119.001s16.333 86.334 49 119.001s72.334 49 119.001 49s86.334 -16.333 119.001 -49s49 -72.334 49 -119.001s-16.333 -86.334 -49 -119.001s-72.334 -49 -119.001 -49zM135.004 551
c0 -41.333 14.6689 -76.666 44.002 -105.999s64.666 -44 105.999 -44s76.833 14.667 106.5 44s44.5 64.666 44.5 105.999s-14.833 76.666 -44.5 105.999s-65.167 44 -106.5 44c-40.667 0 -75.834 -14.667 -105.501 -44s-44.5 -64.666 -44.5 -105.999zM285.006 419
c-36.667 0 -67.834 12.833 -93.501 38.5s-38.5 56.834 -38.5 93.501s12.833 67.834 38.5 93.501s56.834 38.5 93.501 38.5s68 -12.833 94 -38.5s39 -56.834 39 -93.501s-13 -67.834 -39 -93.501s-57.333 -38.5 -94 -38.5zM171.006 551c0 -32 11.167 -59 33.5 -81
s49.166 -33 80.499 -33c32 0 59.167 11 81.5 33s33.5 49 33.5 81c0 31.333 -11.167 58.166 -33.5 80.499s-49.5 33.5 -81.5 33.5c-31.333 0 -58.166 -11.167 -80.499 -33.5s-33.5 -49.166 -33.5 -80.499zM847.006 471c66 0 122.5 -23.333 169.5 -70s70.5 -103 70.5 -169
c0 -66.667 -23.5 -123.334 -70.5 -170.001s-103.5 -70 -169.5 -70s-122.5 23.333 -169.5 70s-70.5 103.334 -70.5 170.001c0 66 23.5 122.333 70.5 169s103.5 70 169.5 70zM625.006 232c0 -61.333 21.667 -113.666 65 -156.999s95.666 -65 156.999 -65
s113.666 21.667 156.999 65s65 95.666 65 156.999c0 60.667 -21.667 112.667 -65 156s-95.666 65 -156.999 65s-113.666 -21.5 -156.999 -64.5s-65 -95.167 -65 -156.5zM847.006 27c-56.667 0 -104.834 20 -144.501 60s-59.5 88.333 -59.5 145s19.833 104.834 59.5 144.501
s87.834 59.5 144.501 59.5s104.834 -19.833 144.501 -59.5s59.5 -87.834 59.5 -144.501s-19.833 -105 -59.5 -145s-87.834 -60 -144.501 -60zM661.006 232c0 -51.333 18.167 -95.333 54.5 -132s80.166 -55 131.499 -55s95.166 18.333 131.499 55s54.5 80.667 54.5 132
s-18.167 95.166 -54.5 131.499s-80.166 54.5 -131.499 54.5s-95.166 -18.167 -131.499 -54.5s-54.5 -80.166 -54.5 -131.499zM847.006 63c-46.667 0 -86.334 16.5 -119.001 49.5s-49 72.833 -49 119.5s16.333 86.334 49 119.001s72.334 49 119.001 49
s86.334 -16.333 119.001 -49s49 -72.334 49 -119.001s-16.333 -86.5 -49 -119.5s-72.334 -49.5 -119.001 -49.5zM697.006 232c0 -41.333 14.667 -76.833 44 -106.5s64.666 -44.5 105.999 -44.5s76.666 14.833 105.999 44.5s44 65.167 44 106.5s-14.667 76.666 -44 105.999
s-64.666 44 -105.999 44s-76.666 -14.667 -105.999 -44s-44 -64.666 -44 -105.999zM847.006 99c-36.667 0 -67.834 13 -93.501 39s-38.5 57.333 -38.5 94c0 36 12.833 67 38.5 93s56.834 39 93.501 39s67.834 -13 93.501 -39s38.5 -57 38.5 -93
c0 -36.667 -12.833 -68 -38.5 -94s-56.834 -39 -93.501 -39zM733.006 232c0 -32 11 -59.167 33 -81.5s49 -33.5 81 -33.5c31.333 0 58.166 11.167 80.499 33.5s33.5 49.5 33.5 81.5c0 31.333 -11.167 58.166 -33.5 80.499s-49.166 33.5 -80.499 33.5
c-32 0 -59 -11.167 -81 -33.5s-33 -49.166 -33 -80.499zM683.006 784l-307 -842h-19l307 842h19zM759.006 784l-307 -842h-19l307 842h19zM721.006 784l-307 -842h-19l307 842h19z" />
    <glyph glyph-name="ampersand" unicode="&#x26;" horiz-adv-x="660" 
d="M125 540c0 57.333 20.5039 106.33 61.5039 146.997s89.833 61 146.5 61c57.333 0 106.333 -20.333 147 -61s61 -89.667 61 -147c0 -46 -14.333 -87.667 -43 -125c-18 -23.333 -39.333 -42.333 -64 -57l64 -70c16 14.667 36 36 60 64l13 -14
c-52.667 -64.667 -117 -117.334 -193 -158.001c-42.667 -22.667 -73.334 -37 -92.001 -43c-7.33301 -2 -15 -3 -23 -3c-19.333 0 -36 7 -50 21s-21 30.667 -21 50c0 30.667 14 53.334 42 68.001l41 22l-13 14l-37 -20c-34 -18.667 -51 -46 -51 -82
c0 -13.333 2.66699 -26 8 -38c14.667 -34 42.334 -51 83.001 -51c8.66699 0 17 1 25 3c18 4 51.333 19 100 45c75.333 40.667 139.333 94 192 160l13 -14c-53.333 -65.333 -117.333 -118.666 -192 -159.999c-51.333 -28 -88 -44.333 -110 -49c-9.33301 -2 -18.333 -3 -27 -3
c-48 0 -81.333 20.667 -100 62c-6 14 -9 28.333 -9 43c0 44.667 20.333 77.667 61 99c7.33301 4.66699 18.333 10.334 33 17.001l-14 16l-28 -15c-48 -26 -72 -64.333 -72 -115c0 -18 4 -36 12 -54c22 -48.667 60.667 -73 116 -73c10.667 0 21 1.33301 31 4
c28.667 6.66699 68.667 24.667 120 54c73.333 42 137.333 95.333 192 160l13 -15c-51.333 -59.333 -115.666 -112.333 -192.999 -159c-48 -28.667 -91 -48 -129 -58c-10.667 -2.66699 -21.667 -4 -33 -4c-27.333 0 -53 7.33301 -77 22c-26 15.333 -45 36 -57 62
c-8.66699 19.333 -13 39 -13 59c0 59.333 27.333 104 82 134l22 12l-12 15l-18 -10c-28.667 -16 -51.334 -37.667 -68.001 -65s-25 -56.333 -25 -87c0 -23.333 5 -45.666 15 -66.999c14 -30 34.5 -53.167 61.5 -69.5s56.5 -24.5 88.5 -24.5c12.667 0 25 1.33301 37 4
c32.667 7.33301 79 28.333 139 63c76.667 44.667 140.667 98 192 160l12 -14c-54 -65.333 -118 -118.666 -192 -159.999c-70.667 -39.333 -120 -61.666 -148 -66.999c-12.667 -2.66699 -25.334 -4 -38.001 -4c-35.333 0 -68 9 -98 27c-32 18 -55.667 43.667 -71 77
c-11.333 24 -17 49.333 -17 76c0 35.333 9.5 68.5 28.5 99.5s44.5 53.833 76.5 68.5l13 6l-12 14l-9 -4c-36.667 -16.667 -65.167 -41.334 -85.5 -74.001s-30.5 -68 -30.5 -106c0 -30.667 6.33301 -59.667 19 -87c36 -76 97.333 -114 184 -114c15.333 0 30 1.33301 44 4
c35.333 7.33301 87.166 30.666 155.499 69.999s132.166 93 191.499 161l12 -13c-16 -20 -36.333 -41 -61 -63l58 -64l-14 -13l-58 64l-13 -11l58 -65l-13 -12l-59 65l-14 -12l59 -65l-13 -12l-60 67l-15 -11l62 -68l-14 -12l-64 71l-14 -10l65 -73l-13 -13l-68 76
c-72.667 -44 -127.667 -69.333 -165 -76c-16.667 -3.33301 -33.334 -5 -50.001 -5c-44 0 -83.5 11 -118.5 33s-61.5 53 -79.5 93c-13.333 29.333 -20 60 -20 92c0 41.333 11 79.833 33 115.5s53 63.5 93 83.5l4 2c-9.33301 8.66699 -19 23.667 -29 45
c-13.333 28.667 -20 58 -20 88zM422.004 372.997c28.667 14.667 52.665 36.999 71.998 66.999s29 63.333 29 100c0 52.667 -18.5 97.5 -55.5 134.5s-81.833 55.5 -134.5 55.5s-97.5 -18.5 -134.5 -55.5s-55.5 -81.833 -55.5 -134.5c0 -48.667 13.667 -88 41 -118l198 -219
l15 8l-198 222c-24.667 27.333 -37 63 -37 107c0 47.333 16.833 87.833 50.5 121.5s73.834 50.5 120.501 50.5s86.834 -16.833 120.501 -50.5s50.5 -74.167 50.5 -121.5c0 -69.333 -31.667 -120.666 -95 -153.999zM486.002 539.996c0 42.667 -14.8311 79.167 -44.498 109.5
s-65.834 45.5 -108.501 45.5s-78.834 -15.167 -108.501 -45.5s-44.5 -66.833 -44.5 -109.5c0 -38.667 11.333 -70.667 34 -96l198 -222l16 10l-201 223c-20 22 -30 50.333 -30 85c0 37.333 13.333 69.5 40 96.5s58.667 40.5 96 40.5s69.333 -13.5 96 -40.5
s40 -59.167 40 -96.5c0 -28.667 -8 -54.167 -24 -76.5s-36 -38.833 -60 -49.5l12 -14c25.333 12.667 46.5 31.5 63.5 56.5s25.5 52.833 25.5 83.5zM451.004 539.996c0 33.333 -11.5 61.501 -34.5 84.501s-50.833 34.5 -83.5 34.5s-60.5 -11.5 -83.5 -34.5
s-34.5 -51.167 -34.5 -84.5c0 -30.667 8.66699 -55.667 26 -75l201 -223l15 11l-201 223c-15.333 17.333 -23 38.666 -23 63.999c0 27.333 9.83301 51 29.5 71s43.167 30 70.5 30s50.833 -10 70.5 -30s29.5 -43.667 29.5 -71c0 -45.333 -25 -78 -75 -98l14 -15
c22 8.66699 40.667 23.167 56 43.5s23 43.5 23 69.5zM415.004 539.997c0 22.667 -7.99902 42.167 -23.999 58.5s-35.333 24.5 -58 24.5s-42 -8.16699 -58 -24.5s-24 -35.833 -24 -58.5c0 -21.333 6.66699 -39.333 20 -54l199 -222l14 11l-199 222
c-11.333 12.667 -17 27 -17 43c0 18 6.33301 33.333 19 46s28 19 46 19s33.167 -6.33301 45.5 -19s18.5 -28 18.5 -46c0 -19.333 -7.33301 -35 -22 -47c-6.66699 -5.33301 -20.334 -13.333 -41.001 -24l13 -13c45.333 17.333 68 45.333 68 84zM299.005 507.997l22 -25l30 15
c18.667 9.33301 28 23.333 28 42c0 12.667 -4.5 23.667 -13.5 33s-19.833 14 -32.5 14s-23.667 -4.66699 -33 -14s-14 -20.333 -14 -33c0 -8 4.33301 -18.667 13 -32zM241.005 255.997c-20 -10 -30 -26.999 -30 -50.999c0 -14.667 5.16699 -27 15.5 -37
s23.166 -15 38.499 -15c6 0 12 1 18 3c16.667 5.33301 44.334 17.666 83.001 36.999l-78 87z" />
    <glyph glyph-name="quotesingle" unicode="'" horiz-adv-x="221" 
d="M101 790v-196h-18v196h18zM137 790v-196h-18v196h18zM173 790v-196h-18v196h18zM209 790v-196h-18v196h18zM65 790v-196h-18v196h18z" />
    <glyph glyph-name="parenleft" unicode="(" horiz-adv-x="352" 
d="M225 187c0 -34.667 12.5 -64.5 37.5 -89.5s54.833 -37.5 89.5 -37.5v-18c-40 0 -74.167 14.167 -102.5 42.5s-42.5 62.5 -42.5 102.5v412c0 40 14 74.167 42 102.5s62.333 42.5 103 42.5v-18c-34.667 0 -64.5 -12.333 -89.5 -37s-37.5 -54.667 -37.5 -90v-412zM189 187
c0 -44.667 16 -83 48 -115s70.333 -48 115 -48v-18c-49.333 0 -91.833 17.833 -127.5 53.5s-53.5 78.167 -53.5 127.5v412c0 50 17.833 92.667 53.5 128s78.167 53 127.5 53v-18c-44.667 0 -83 -15.833 -115 -47.5s-48 -70.167 -48 -115.5v-412zM153 187
c0 -54.667 19.5 -101.5 58.5 -140.5s85.833 -58.5 140.5 -58.5v-18c-59.333 0 -110.333 21.333 -153 64s-64 93.667 -64 153v412c0 60 21.333 111.167 64 153.5s93.667 63.5 153 63.5v-18c-54.667 0 -101.5 -19.5 -140.5 -58.5s-58.5 -85.833 -58.5 -140.5v-412zM117 187
c0 -64.667 22.833 -120 68.5 -166s101.167 -69 166.5 -69v-18c-70 0 -129.667 24.833 -179 74.5s-74 109.167 -74 178.5v412c0 70 24.667 129.667 74 179s109 74 179 74v-18c-65.333 0 -120.833 -23 -166.5 -69s-68.5 -101.333 -68.5 -166v-412zM81 187
c0 -74.667 26.5 -138.5 79.5 -191.5s116.833 -79.5 191.5 -79.5v-17c-80 0 -148.167 28 -204.5 84s-84.5 124 -84.5 204v412c0 80 28.167 148.167 84.5 204.5s124.5 84.5 204.5 84.5v-18c-74.667 0 -138.5 -26.5 -191.5 -79.5s-79.5 -116.833 -79.5 -191.5v-412z" />
    <glyph glyph-name="parenright" unicode=")" horiz-adv-x="352" 
d="M190 599c0 35.333 -12.333 65.333 -37 90s-54.667 37 -90 37v18c40.667 0 75 -14.167 103 -42.5s42 -62.5 42 -102.5v-412c0 -40 -14 -74.167 -42 -102.5s-62.333 -42.5 -103 -42.5v18c35.333 0 65.333 12.5 90 37.5s37 54.833 37 89.5v412zM226 599
c0 45.333 -15.833 83.833 -47.5 115.5s-70.167 47.5 -115.5 47.5v18c50 0 92.667 -17.667 128 -53s53 -78 53 -128v-412c0 -49.333 -17.667 -91.833 -53 -127.5s-78 -53.5 -128 -53.5v18c45.333 0 83.833 16 115.5 48s47.5 70.333 47.5 115v412zM262 599
c0 54.667 -19.5 101.5 -58.5 140.5s-85.833 58.5 -140.5 58.5v18c60 0 111.167 -21.167 153.5 -63.5s63.5 -93.5 63.5 -153.5v-412c0 -59.333 -21.167 -110.333 -63.5 -153s-93.5 -64 -153.5 -64v18c54.667 0 101.5 19.5 140.5 58.5s58.5 85.833 58.5 140.5v412zM298 599
c0 64.667 -22.833 120 -68.5 166s-101.167 69 -166.5 69v18c70 0 129.667 -24.667 179 -74s74 -109 74 -179v-412c0 -69.333 -24.667 -128.833 -74 -178.5s-109 -74.5 -179 -74.5v18c65.333 0 120.833 23 166.5 69s68.5 101.333 68.5 166v412zM334 599
c0 74.667 -26.5 138.5 -79.5 191.5s-116.833 79.5 -191.5 79.5v18c80 0 148.167 -28.167 204.5 -84.5s84.5 -124.5 84.5 -204.5v-412c0 -80 -28.167 -148 -84.5 -204s-124.5 -84 -204.5 -84v17c74.667 0 138.5 26.5 191.5 79.5s79.5 116.833 79.5 191.5v412z" />
    <glyph glyph-name="asterisk" unicode="*" horiz-adv-x="308" 
d="M208 736l75 43l9 -16l-102 -58v116h18v-85zM61 630l-9 16l76 43l-76 44l9 15l103 -59zM208 643v-88h-18v118l102 -58l-9 -16zM154 821h18v-116l-102 59l9 16l75 -43v84zM154 642l-75 -44l-9 16l102 59v-118h-18v87zM237 689l73 -42l-9 -16l-101 58l101 58l9 -15z" />
    <glyph glyph-name="plus" unicode="+" horiz-adv-x="719" 
d="M437 388v-18h18v18h-18zM401 388v-18h18v18h-18zM437 334h18v18h-18v-18zM401 334h18v18h-18v-18zM365 352v-18h18v18h-18zM365 388v-18h18v18h-18zM437 298h18v18h-18v-18zM401 298h18v18h-18v-18zM365 298h18v18h-18v-18zM329 316v-18h18v18h-18zM329 352v-18h18v18
h-18zM329 388v-18h18v18h-18zM437 262h18v18h-18v-18zM401 262h18v18h-18v-18zM365 262h18v18h-18v-18zM329 262h18v18h-18v-18zM717 244h-244v-244h-18v244h-18v-244h-18v244h-18v-244h-18v244h-18v-244h-18v244h-18v-244h-18v244h-244v18h244v18h-244v18h244v18h-244v18
h244v18h-244v18h244v18h-244v18h244v244h18v-244h18v244h18v-244h18v244h18v-244h18v244h18v-244h18v244h18v-244h244v-18h-244v-18h244v-18h-244v-18h244v-18h-244v-18h244v-18h-244v-18h244v-18z" />
    <glyph glyph-name="comma" unicode="," horiz-adv-x="237" 
d="M119 175c12 -30 18 -63.332 18 -99.999c0 -33.333 -6 -67.333 -18 -102h-20c13.333 26.667 20 60.667 20 102c0 37.333 -6.33301 70.666 -19 99.999h19zM158 175.001c10 -34 15 -67.332 15 -99.999c0 -32 -5 -66 -15 -102h-20c11.333 30 17 64 17 102
c0 41.333 -5.66699 74.666 -17 99.999h20zM196 175.002c8.66699 -27.333 13 -60.667 13 -100c0 -34.667 -4.66699 -68.667 -14 -102h-18c9.33301 40 14 74 14 102c0 38.667 -4.66699 72 -14 100h19zM233 175.001c8 -27.333 12 -60.667 12 -100
c0 -40.667 -4.33301 -74.667 -13 -102h-18c8.66699 26 13 60 13 102c0 40.667 -4.33301 74 -13 100h19zM81 175c13.333 -30 20 -63.332 20 -99.999c0 -40 -7 -74 -21 -102h-20c16 32 24 66 24 102c0 33.333 -7.66699 66.666 -23 99.999h20z" />
    <glyph glyph-name="hyphen" unicode="-" horiz-adv-x="466" 
d="M63 301h398v-18h-398v18zM63 337h398v-18h-398v18zM63 373h398v-18h-398v18zM63 409h398v-18h-398v18zM63 265h398v-18h-398v18z" />
    <glyph glyph-name="hyphen" unicode="&#x2010;" horiz-adv-x="466" 
d="M63 301h398v-18h-398v18zM63 337h398v-18h-398v18zM63 373h398v-18h-398v18zM63 409h398v-18h-398v18zM63 265h398v-18h-398v18z" />
    <glyph glyph-name="period" unicode="." horiz-adv-x="226" 
d="M115 175v-175h-18v175h18zM151 175v-175h-18v175h18zM187 175v-175h-18v175h18zM223 175v-175h-18v175h18zM79 175v-175h-18v175h18z" />
    <glyph glyph-name="slash" unicode="/" horiz-adv-x="436" 
d="M358 784l-286 -787h-19l286 787h19zM434 784l-286 -787h-19l286 787h19zM396 784l-286 -787h-19l286 787h19z" />
    <glyph glyph-name="zero" unicode="0" horiz-adv-x="651" 
d="M68 502c0 80 28.167 148.167 84.5 204.5s124.166 84.5 203.499 84.5c80 0 148.167 -28.167 204.5 -84.5s84.5 -124.5 84.5 -204.5v-222c0 -79.333 -28.167 -147.166 -84.5 -203.499s-124.5 -84.5 -204.5 -84.5c-79.333 0 -147.166 28.167 -203.499 84.5
s-84.5 124.166 -84.5 203.499v222zM86 280c0 -74.667 26.333 -138.334 79 -191.001s116.334 -79 191.001 -79s138.5 26.333 191.5 79s79.5 116.334 79.5 191.001v222c0 74.667 -26.5 138.5 -79.5 191.5s-116.833 79.5 -191.5 79.5s-138.334 -26.5 -191.001 -79.5
s-79 -116.833 -79 -191.5v-222zM140 502c0 60 21.167 111.167 63.5 153.5s93.166 63.5 152.499 63.5c60 0 111.167 -21.167 153.5 -63.5s63.5 -93.5 63.5 -153.5v-222c0 -59.333 -21.167 -110.333 -63.5 -153s-93.5 -64 -153.5 -64c-59.333 0 -110.166 21.333 -152.499 64
s-63.5 93.667 -63.5 153v222zM158 280c0 -54.667 19.167 -101.5 57.5 -140.5s85.166 -58.5 140.499 -58.5c54.667 0 101.5 19.5 140.5 58.5s58.5 85.833 58.5 140.5v222c0 54.667 -19.5 101.5 -58.5 140.5s-85.833 58.5 -140.5 58.5
c-55.333 0 -102.166 -19.5 -140.499 -58.5s-57.5 -85.833 -57.5 -140.5v-222zM211 502c0 40 14.167 74.167 42.5 102.5s62.5 42.5 102.5 42.5c40.667 0 75 -14.167 103 -42.5s42 -62.5 42 -102.5v-222c0 -40 -14 -74.167 -42 -102.5s-62.333 -42.5 -103 -42.5
c-40 0 -74.167 14.167 -102.5 42.5s-42.5 62.5 -42.5 102.5v222zM229 280c0 -34.667 12.5 -64.5 37.5 -89.5s54.833 -37.5 89.5 -37.5c35.333 0 65.333 12.5 90 37.5s37 54.833 37 89.5v222c0 35.333 -12.333 65.333 -37 90s-54.667 37 -90 37
c-34.667 0 -64.5 -12.333 -89.5 -37s-37.5 -54.667 -37.5 -90v-222zM175 502c0 49.333 17.833 91.833 53.5 127.5s78.167 53.5 127.5 53.5c50 0 92.667 -17.833 128 -53.5s53 -78.167 53 -127.5v-222c0 -49.333 -17.667 -91.833 -53 -127.5s-78 -53.5 -128 -53.5
c-49.333 0 -91.833 17.833 -127.5 53.5s-53.5 78.167 -53.5 127.5v222zM193 280c0 -44.667 16 -83 48 -115s70.333 -48 115 -48c45.333 0 83.833 16 115.5 48s47.5 70.333 47.5 115v222c0 45.333 -15.833 83.833 -47.5 115.5s-70.167 47.5 -115.5 47.5
c-44.667 0 -83 -15.833 -115 -47.5s-48 -70.167 -48 -115.5v-222zM122 280c0 -65.333 22.833 -120.833 68.5 -166.5s100.834 -68.5 165.501 -68.5c65.333 0 120.833 23 166.5 69s68.5 101.333 68.5 166v222c0 64.667 -22.833 120 -68.5 166s-101.167 69 -166.5 69
c-64.667 0 -119.834 -22.833 -165.501 -68.5s-68.5 -101.167 -68.5 -166.5v-222zM104 502c0 70 24.667 129.667 74 179s108.666 74 177.999 74c70 0 129.667 -24.667 179 -74s74 -109 74 -179v-222c0 -69.333 -24.667 -128.833 -74 -178.5s-109 -74.5 -179 -74.5
c-69.333 0 -128.666 24.833 -177.999 74.5s-74 109.167 -74 178.5v222z" />
    <glyph glyph-name="one" unicode="1" horiz-adv-x="651" 
d="M367 782v-782h-18v782h18zM403 782v-782h-18v782h18zM439 782v-782h-18v782h18zM475 782v-782h-18v782h18zM313 591l-127 -78l-9 14l136 86v21l-146 -91l-9 15l155 97v22l-165 -104l-10 16l175 109v21l-184 -115l-10 15l194 121v22l-203 -128l-10 16l213 132h18v-782h-18
v591z" />
    <glyph glyph-name="two" unicode="2" horiz-adv-x="651" 
d="M101 18h496v-18h-509zM128 54h469v-18h-483zM153 90h444v-18h-456zM180 126h417v-18h-430zM439 481c12.667 17.333 18.9893 35.6689 18.9893 55.002c0 25.333 -9.16699 47.166 -27.5 65.499s-40.166 27.5 -65.499 27.5s-47.166 -9.16699 -65.499 -27.5
s-27.5 -40.166 -27.5 -65.499c0 -32.667 14.333 -58.334 43 -77.001l-11 -15c-33.333 21.333 -50 52 -50 92c0 30.667 10.833 56.834 32.5 78.501s47.834 32.5 78.501 32.5s56.834 -10.833 78.501 -32.5s32.5 -47.834 32.5 -78.501c0 -24 -7 -45.667 -21 -65l-227 -309h21
l220 300c16.667 22.667 25 47.334 25 74.001c0 35.333 -12.667 65.666 -38 90.999s-55.666 38 -90.999 38s-65.666 -12.667 -90.999 -38s-38 -55.666 -38 -90.999c0 -46 19.333 -81.667 58 -107l-11 -15c-43.333 29.333 -65 70 -65 122c0 40 14.333 74.5 43 103.5
s63.334 43.5 104.001 43.5c40 0 74.5 -14.5 103.5 -43.5s43.5 -63.5 43.5 -103.5c0 -31.333 -9 -59.333 -27 -84l-213 -290h23l205 281c20 27.333 30 58.333 30 93c0 45.333 -16.167 84.166 -48.5 116.499s-71.166 48.5 -116.499 48.5s-84.166 -16.167 -116.499 -48.5
s-48.5 -71.166 -48.5 -116.499c0 -58.667 24.333 -104 73 -136l-12 -14c-52.667 36.667 -79 86.667 -79 150c0 50 17.833 93 53.5 129s78.834 54 129.501 54c50 0 93 -18 129 -54s54 -79 54 -129c0 -39.333 -11 -74 -33 -104l-198 -270h21l193 261
c23.333 31.333 35 69 35 113c0 55.333 -19.667 102.666 -59 141.999s-86.666 59 -141.999 59s-102.666 -19.667 -141.999 -59s-59 -86.666 -59 -141.999c0 -69.333 29 -124.333 87 -165l-11 -15c-62 45.333 -93 105.333 -93 180c0 60 21.333 111.5 64 154.5
s94 64.5 154 64.5s111.167 -21.5 153.5 -64.5s63.5 -94.5 63.5 -154.5c0 -48 -12.333 -89 -37 -123l-183 -251h22l177 242c26.667 36.667 40 80.667 40 132c0 65.333 -23.167 121.166 -69.5 167.499s-101.833 69.5 -166.5 69.5s-120.334 -23.167 -167.001 -69.5
s-70 -102.166 -70 -167.499c0 -82.667 34 -147.334 102 -194.001l-10 -14c-32.667 21.333 -59 50.666 -79 87.999s-30 77.333 -30 120c0 70.667 24.667 130.834 74 180.501s109.333 74.5 180 74.5c70 0 129.667 -24.833 179 -74.5s74 -109.834 74 -180.501
c0 -55.333 -14 -102.333 -42 -141l-170 -233h191v-18h-405z" />
    <glyph glyph-name="three" unicode="3" horiz-adv-x="651" 
d="M281 426v18.002h45c25.333 0 47.166 9 65.499 27s27.5 39.667 27.5 65s-9.16699 47.166 -27.5 65.499s-40.166 27.5 -65.499 27.5c-21.333 0 -40.333 -6.5 -57 -19.5s-27.667 -29.5 -33 -49.5l-15 14c19.333 48.667 54.333 73 105 73
c30.667 0 56.834 -10.833 78.501 -32.5s32.5 -47.834 32.5 -78.501c0 -30 -10.833 -55.833 -32.5 -77.5s-47.834 -32.5 -78.501 -32.5h-45zM281 408.002l45.0039 -0.00195312c35.333 0 65.666 12.5 90.999 37.5s38 55.167 38 90.5s-12.667 65.666 -38 90.999
s-55.666 38 -90.999 38c-55.333 0 -95 -25.667 -119 -77l-14 12c29.333 55.333 73.666 83 132.999 83c40 0 74.5 -14.5 103.5 -43.5s43.5 -63.5 43.5 -103.5c0 -30.667 -8.83301 -58.167 -26.5 -82.5s-40.834 -42.166 -69.501 -53.499
c30.667 -11.333 55.5 -30.166 74.5 -56.499s28.5 -56.166 28.5 -89.499c0 -42.667 -15 -79.167 -45 -109.5s-66.333 -45.5 -109 -45.5c-32 0 -61 8.83301 -87 26.5s-44.667 40.834 -56 69.501l15 12c9.33301 -26.667 25.666 -48.334 48.999 -65.001s49.666 -25 78.999 -25
c37.333 0 69.333 13.5 96 40.5s40 59.167 40 96.5s-13.333 69.333 -40 96s-58.667 40 -96 40h-45v18zM227.004 236c3.33301 -22.667 14.666 -42.167 33.999 -58.5s41 -24.5 65 -24.5c27.333 0 50.833 10 70.5 30s29.5 43.667 29.5 71s-9.83301 50.833 -29.5 70.5
s-43.167 29.5 -70.5 29.5h-45v18h45c32.667 0 60.5 -11.5 83.5 -34.5s34.5 -50.833 34.5 -83.5s-11.5 -60.667 -34.5 -84s-50.833 -35 -83.5 -35c-26.667 0 -50.667 8 -72 24s-35.666 36.667 -42.999 62zM520.004 403c28 39.333 42 83.668 42 133.001
c0 65.333 -23.167 121.166 -69.5 167.499s-101.833 69.5 -166.5 69.5c-84 0 -150.667 -36.333 -200 -109l-13 11c20 32.667 48.667 59.667 86 81c40 23.333 82.333 35 127 35c70 0 129.667 -24.833 179 -74.5s74 -109.834 74 -180.501c0 -51.333 -12.667 -96 -38 -134
c31.333 -40.667 47 -90 47 -148c0 -72.667 -25.667 -134.5 -77 -185.5s-113 -76.5 -185 -76.5c-47.333 0 -91 11.333 -131 34s-71.333 53 -94 91l14 12c22 -36 51.667 -64.833 89 -86.5s78 -32.5 122 -32.5c67.333 0 124.833 23.667 172.5 71s71.5 105 71.5 173
c0 50.667 -16.667 100.334 -50 149.001zM474.004 401.002c34.667 39.333 52 84.333 52 135c0 55.333 -19.5 102.666 -58.5 141.999s-86.167 59 -141.5 59c-76 0 -133.667 -33 -173 -99l-12 12c41.333 70 103 105 185 105c60 0 111.167 -21.5 153.5 -64.5
s63.5 -94.5 63.5 -154.5c0 -53.333 -15.333 -98 -46 -134c36.667 -43.333 55 -92.666 55 -147.999c0 -62.667 -22.167 -116.167 -66.5 -160.5s-97.5 -66.5 -159.5 -66.5c-42 0 -80.333 10.333 -115 31s-62 48.667 -82 84l13 13c18 -32.667 43.333 -59.167 76 -79.5
s68.667 -30.5 108 -30.5c57.333 0 106.333 20.333 147 61s61 90 61 148c0 56.667 -20 105.667 -60 147zM447.004 400.002c46 -37.333 68.999 -86 68.999 -146c0 -52.667 -18.667 -97.667 -56 -135s-82 -56 -134 -56c-75.333 0 -132.333 35 -171 105l14 13
c14 -30 35.167 -54.167 63.5 -72.5s59.5 -27.5 93.5 -27.5c47.333 0 87.833 17 121.5 51s50.5 74.667 50.5 122c0 33.333 -9 64.333 -27 93c-15.333 22.667 -33.666 40.334 -54.999 53.001c20 12 36.667 29 50 51c16 26 24 54.333 24 85c0 45.333 -16 84.166 -48 116.499
s-70.667 48.5 -116 48.5c-31.333 0 -60 -8 -86 -24s-46 -37.333 -60 -64l-14 13c36 62 89.333 93 160 93c50 0 92.833 -18 128.5 -54s53.5 -79 53.5 -129c0 -56 -20.333 -101.333 -61 -136z" />
    <glyph glyph-name="four" unicode="4" horiz-adv-x="651" 
d="M408 155h-18v-155h-18v155h-306v18h582v-18h-114v-155h-18v155h-18v-155h-18v155h-18v-155h-18v155h-18v-155h-18v155zM498 724v-407h18v437zM462 664v-347h18v379zM426 605v-288h18v317zM390 545v-228h18v258zM254 317h118v198zM534 782v-465h114v-18h-582v18l279 465
h21l-279 -465h20l280 465h20l-280 -465h21l280 465h22l-281 -465h22l279 465h22l-281 -465h22l280 465h20h1zM66 209h582v-18h-582v18zM66 245h582v-18h-582v18zM66 281h582v-18h-582v18z" />
    <glyph glyph-name="five" unicode="5" horiz-adv-x="651" 
d="M298 621l-17.999 -0.000976562v-267h-18v267h-18v-267h-18v267h-18v-267h-18v267h-18v-267h-18v284h375v-17h-213v-105h10c72 0 133.667 -25.5 185 -76.5s77 -112.833 77 -185.5s-25.667 -134.5 -77 -185.5s-113 -76.5 -185 -76.5c-90 0 -161.667 37 -215 111l14 11
c48.667 -69.333 115.667 -104 201 -104c67.333 0 124.833 23.667 172.5 71s71.5 105 71.5 173c0 67.333 -23.833 124.833 -71.5 172.5s-105.167 71.5 -172.5 71.5h-10v-18h10c62 0 115.167 -22.167 159.5 -66.5s66.5 -97.5 66.5 -159.5
c0 -62.667 -22.167 -116.167 -66.5 -160.5s-97.5 -66.5 -159.5 -66.5c-78.667 0 -141.334 33.333 -188.001 100l13 13c40.667 -63.333 99 -95 175 -95c57.333 0 106.333 20.333 147 61s61 90 61 148c0 57.333 -20.333 106.333 -61 147s-89.667 61 -147 61h-10v-18h10
c52 0 96.667 -18.667 134 -56s56 -82 56 -134c0 -52.667 -18.667 -97.667 -56 -135s-82 -56 -134 -56c-68.667 0 -122.334 29.333 -161.001 88l14 13c32 -55.333 81 -83 147 -83c47.333 0 87.833 17 121.5 51s50.5 74.667 50.5 122s-16.833 87.833 -50.5 121.5
s-74.167 50.5 -121.5 50.5h-10v-18h10c42.667 0 79 -15 109 -45s45 -66.333 45 -109s-15 -79.167 -45 -109.5s-66.333 -45.5 -109 -45.5c-28.667 0 -55.167 7.33301 -79.5 22s-42.5 33.334 -54.5 56.001l14 11c26 -47.333 66 -71 120 -71c37.333 0 69.333 13.5 96 40.5
s40 59.167 40 96.5s-13.333 69.333 -40 96s-58.667 40 -96 40h-10v-18h10c32.667 0 60.5 -11.5 83.5 -34.5s34.5 -50.833 34.5 -83.5s-11.5 -60.667 -34.5 -84s-50.833 -35 -83.5 -35c-23.333 0 -44.666 6.16699 -63.999 18.5s-33.333 28.5 -42 48.5l14 12
c17.333 -40.667 48 -61 92 -61c27.333 0 50.833 10 70.5 30s29.5 43.667 29.5 71s-9.83301 50.833 -29.5 70.5s-43.167 29.5 -70.5 29.5h-28v267zM154.001 781.999h375v-18h-375v18zM154.001 745.999h375v-18h-375v18zM154.001 709.999h375v-18h-375v18zM154.001 673.999
h375v-18h-375v18z" />
    <glyph glyph-name="six" unicode="6" horiz-adv-x="651" 
d="M618 254c0 -72.667 -25.501 -134.498 -76.501 -185.498s-112.833 -76.5 -185.5 -76.5s-134.5 25.5 -185.5 76.5s-76.5 112.833 -76.5 185.5c0 48 13 93.667 39 137l236 391h21l-241 -399c-24.667 -40.667 -37 -83.667 -37 -129c0 -68 23.833 -125.667 71.5 -173
s105.167 -71 172.5 -71c68 0 125.667 23.667 173 71s71 105 71 173c0 64.667 -22 120.667 -66 168c-41.333 43.333 -90.666 68 -147.999 74l-11 -17c56 -4 104.5 -27.333 145.5 -70s61.5 -94.334 61.5 -155.001c0 -62.667 -22 -116.167 -66 -160.5s-97.333 -66.5 -160 -66.5
c-62 0 -115.167 22.167 -159.5 66.5s-66.5 97.833 -66.5 160.5c0 41.333 11.333 80.666 34 117.999l247 410h20l-252 -419c-20.667 -34.667 -31 -71 -31 -109c0 -58 20.333 -107.333 61 -148s89.667 -61 147 -61s106.333 20.333 147 61s61 90 61 148
c0 56.667 -19.5 105 -58.5 145s-85.833 61 -140.5 63l-11 -18c54 0 99.667 -18.667 137 -56s56 -82 56 -134c0 -52.667 -18.667 -97.667 -56 -135s-82.333 -56 -135 -56c-52 0 -96.667 18.667 -134 56s-56 82.333 -56 135c0 34 10 67.667 30 101l256 427h22l-264 -436
c-17.333 -28.667 -26 -59.334 -26 -92.001c0 -47.333 16.833 -88 50.5 -122s74.167 -51 121.5 -51s88 17 122 51s51 74.667 51 122s-17 87.833 -51 121.5s-74.667 50.5 -122 50.5h-12l-12 -19c1.33301 0 5 0.333008 11 1h13c42.667 0 79.167 -15 109.5 -45
s45.5 -66.333 45.5 -109s-15 -79.167 -45 -109.5s-66.667 -45.5 -110 -45.5c-42.667 0 -79 15.167 -109 45.5s-45 66.833 -45 109.5c0 28.667 8 56.334 24 83.001l269 445h21l-274 -453c-14.667 -24 -22 -49 -22 -75c0 -37.333 13.333 -69.5 40 -96.5s58.667 -40.5 96 -40.5
s69.5 13.5 96.5 40.5s40.5 59.167 40.5 96.5s-13.5 69.333 -40.5 96s-59.167 40 -96.5 40c-14.667 0 -27 -1.66699 -37 -5l-15 -25c16 8 33.333 12 52 12c32.667 0 60.667 -11.5 84 -34.5s35 -50.833 35 -83.5s-11.5 -60.667 -34.5 -84s-51.167 -35 -84.5 -35
c-32.667 0 -60.5 11.667 -83.5 35s-34.5 51.333 -34.5 84c0 22 6.66699 44 20 66l279 462h21l-163 -269c58.667 -7.33301 109.667 -34 153 -80c46.667 -50 70 -109.667 70 -179zM456.999 254.002c0 27.333 -10 50.833 -30 70.5s-43.667 29.5 -71 29.5
s-50.833 -9.83301 -70.5 -29.5s-29.5 -43.167 -29.5 -70.5s9.83301 -51 29.5 -71s43.167 -30 70.5 -30s51 10 71 30s30 43.667 30 71z" />
    <glyph glyph-name="seven" unicode="7" horiz-adv-x="651" 
d="M167 0l214 621h-274v17h280l6 18h-286v18h293l6 18h-299v18h304l7 18h-311v18h317l6 18h-323v18h348l-269 -782h-19zM493 782l-269 -782h-19l269 782h19zM531 782l-269 -782h-19l269 782h19zM569 782l-269 -782h-19l269 782h19zM607 782l-269 -782h-19l269 782h19z" />
    <glyph glyph-name="eight" unicode="8" horiz-adv-x="651" 
d="M433 232c0 22 -7.5 40.667 -22.5 56s-33.5 23 -55.5 23c-21.333 0 -39.666 -7.83301 -54.999 -23.5s-23 -34.167 -23 -55.5c0 -22 7.66699 -40.667 23 -56s33.666 -23 54.999 -23c22 0 40.5 7.66699 55.5 23s22.5 34 22.5 56zM595 232
c0 -66.667 -23.5 -123.334 -70.5 -170.001s-103.5 -70 -169.5 -70s-122.5 23.333 -169.5 70s-70.5 103.334 -70.5 170.001c0 61.333 20.667 114.333 62 159c-41.333 44.667 -62 98 -62 160c0 66 23.5 122.5 70.5 169.5s103.5 70.5 169.5 70.5s122.5 -23.5 169.5 -70.5
s70.5 -103.5 70.5 -169.5c0 -60 -20 -113.333 -60 -160c40 -45.333 60 -98.333 60 -159zM522 405c36.667 42 55.002 90.665 55.002 145.998c0 61.333 -21.667 113.666 -65 156.999s-95.666 65 -156.999 65c-60.667 0 -112.834 -21.667 -156.501 -65
s-65.5 -95.666 -65.5 -156.999s21.667 -113.666 65 -156.999s95.666 -65 156.999 -65c26 0 48.5 -9.66699 67.5 -29s28.5 -42 28.5 -68c0 -26.667 -9.33301 -49.5 -28 -68.5s-41.334 -28.5 -68.001 -28.5s-49.334 9.5 -68.001 28.5s-28 41.833 -28 68.5
c0 39.333 16.333 67 49 83c-5.33301 0.666992 -13.666 2.66699 -24.999 6c-28 -22 -42 -51.667 -42 -89c0 -32 11.167 -59.167 33.5 -81.5s49.166 -33.5 80.499 -33.5c32 0 59 11.167 81 33.5s33 49.5 33 81.5s-11 59.167 -33 81.5s-49 33.5 -81 33.5
c-56.667 0 -104.834 19.833 -144.501 59.5s-59.5 87.834 -59.5 144.501s19.833 104.834 59.5 144.501s87.834 59.5 144.501 59.5s104.834 -19.833 144.501 -59.5s59.5 -87.834 59.5 -144.501c0 -52 -17 -97 -51 -135zM494.002 426.998
c31.333 35.333 47.0029 76.6641 47.0029 123.997c0 51.333 -18.167 95.166 -54.5 131.499s-80.166 54.5 -131.499 54.5c-50.667 0 -94.334 -18.167 -131.001 -54.5s-55 -80.166 -55 -131.499s18.167 -95.166 54.5 -131.499s80.166 -54.5 131.499 -54.5
c36 0 67 -13.167 93 -39.5s39 -57.5 39 -93.5c0 -36.667 -12.833 -68 -38.5 -94s-56.834 -39 -93.501 -39s-67.834 13 -93.501 39s-38.5 57.333 -38.5 94c0 38 14 70.333 42 97c-2 0.666992 -5 1.83398 -9 3.50098s-7 2.83398 -9 3.50098c-28 -28 -42 -62.667 -42 -104
s14.667 -76.833 44 -106.5s64.666 -44.5 105.999 -44.5s76.666 14.833 105.999 44.5s44 65.167 44 106.5s-14.667 76.833 -44 106.5s-64.666 44.5 -105.999 44.5c-46.667 0 -86.334 16.333 -119.001 49s-49 72.334 -49 119.001s16.333 86.334 49 119.001
s72.334 49 119.001 49s86.334 -16.333 119.001 -49s49 -72.334 49 -119.001c0 -44.667 -14.333 -82.334 -43 -113.001zM463.005 446.996c28 28 42.002 62.665 42.002 103.998s-14.667 76.666 -44 105.999s-64.666 44 -105.999 44c-40.667 0 -75.834 -14.667 -105.501 -44
s-44.5 -64.666 -44.5 -105.999s14.667 -76.666 44 -105.999s64.666 -44 105.999 -44c46.667 0 86.334 -16.5 119.001 -49.5s49 -72.833 49 -119.5s-16.333 -86.5 -49 -119.5s-72.334 -49.5 -119.001 -49.5s-86.334 16.5 -119.001 49.5s-49 72.833 -49 119.5
c0 44.667 15 82.667 45 114c-1.33301 0.666992 -6.33301 3.66699 -15 9c-32 -32 -48 -73 -48 -123c0 -51.333 18.167 -95.333 54.5 -132s80.166 -55 131.499 -55s95.166 18.333 131.499 55s54.5 80.667 54.5 132s-18.167 95.333 -54.5 132s-80.166 55 -131.499 55
c-36.667 0 -67.834 12.833 -93.501 38.5s-38.5 56.834 -38.5 93.501s12.833 67.834 38.5 93.501s56.834 38.5 93.501 38.5s67.834 -12.833 93.501 -38.5s38.5 -56.834 38.5 -93.501c0 -38 -13.667 -70 -41 -96c5.33301 -4 11 -6.66699 17 -8zM426.007 460.994
c28.667 23.333 43.002 53.332 43.002 89.999c0 31.333 -11 58.166 -33 80.499s-49 33.5 -81 33.5c-31.333 0 -58.166 -11.167 -80.499 -33.5s-33.5 -49.166 -33.5 -80.499c0 -32 11.167 -59 33.5 -81s49.166 -33 80.499 -33c56.667 0 104.834 -20 144.501 -60
s59.5 -88.333 59.5 -145s-19.833 -105 -59.5 -145s-87.834 -60 -144.501 -60s-104.834 20 -144.501 60s-59.5 88.333 -59.5 145c0 52 17 97 51 135c-4 1.33301 -8.33301 5 -13 11c-37.333 -39.333 -56 -88 -56 -146c0 -61.333 21.667 -113.666 65 -156.999
s95.666 -65 156.999 -65s113.666 21.667 156.999 65s65 95.666 65 156.999s-21.667 113.833 -65 157.5s-95.666 65.5 -156.999 65.5c-26.667 0 -49.334 9.33301 -68.001 28s-28 41.334 -28 68.001s9.33301 49.334 28 68.001s41.334 28 68.001 28s49.334 -9.33301 68.001 -28
s28 -41.334 28 -68.001c0 -36.667 -15.667 -64.667 -47 -84c7.33301 -1.33301 14.666 -3.33301 21.999 -6zM433.009 550.993c0 21.333 -7.5 39.666 -22.5 54.999s-33.5 23 -55.5 23c-21.333 0 -39.666 -7.66699 -54.999 -23s-23 -33.666 -23 -54.999
c0 -22 7.66699 -40.5 23 -55.5s33.666 -22.5 54.999 -22.5c22 0 40.5 7.5 55.5 22.5s22.5 33.5 22.5 55.5z" />
    <glyph glyph-name="nine" unicode="9" horiz-adv-x="651" 
d="M91 529c0 72 25.5 133.667 76.5 185s112.833 77 185.5 77s134.5 -25.667 185.5 -77s76.5 -113 76.5 -185c0 -48.667 -13 -94.667 -39 -138l-236 -391h-21l241 400c24.667 40.667 37 83.667 37 129c0 67.333 -23.833 124.833 -71.5 172.5s-105.167 71.5 -172.5 71.5
s-124.833 -23.833 -172.5 -71.5s-71.5 -105.167 -71.5 -172.5c0 -65.333 22.333 -121.333 67 -168c41.333 -44 90.333 -69 147 -75l11 17c-56 4 -104 27 -144 69c-42 44 -63 96.333 -63 157c0 62 22 115.167 66 159.5s97.333 66.5 160 66.5s116 -22.167 160 -66.5
s66 -97.5 66 -159.5c0 -42 -11.333 -81.667 -34 -119l-247 -410h-20l253 420c20 33.333 30 69.666 30 108.999c0 57.333 -20.333 106.333 -61 147s-89.667 61 -147 61s-106.333 -20.333 -147 -61s-61 -89.667 -61 -147s19.667 -105.833 59 -145.5
s86.333 -60.834 141 -63.501l10 18c-54 0 -99.5 18.667 -136.5 56s-55.5 82.333 -55.5 135c0 52 18.5 96.667 55.5 134s81.833 56 134.5 56s97.5 -18.667 134.5 -56s55.5 -82 55.5 -134c0 -36 -9.66699 -70 -29 -102l-257 -427h-21l263 437
c17.333 28.667 26 59.334 26 92.001c0 47.333 -16.833 87.833 -50.5 121.5s-74.167 50.5 -121.5 50.5s-87.833 -16.833 -121.5 -50.5s-50.5 -74.167 -50.5 -121.5c0 -48 16.833 -88.833 50.5 -122.5s74.167 -50.5 121.5 -50.5h13l11 19h-10
c-5.33301 -0.666992 -10 -1 -14 -1c-42.667 0 -79 15 -109 45s-45 66.667 -45 110c0 42.667 15 79 45 109s66.333 45 109 45s79 -15 109 -45s45 -66.333 45 -109c0 -29.333 -8 -57.333 -24 -84l-268 -445h-22l274 453c14.667 24 22 49.333 22 76
c0 37.333 -13.333 69.333 -40 96s-58.667 40 -96 40s-69.333 -13.333 -96 -40s-40 -58.667 -40 -96c0 -38 13.333 -70.333 40 -97s58.667 -40 96 -40c14.667 0 27 1.66699 37 5l15 25c-24 -8 -41.333 -12 -52 -12c-32.667 0 -60.5 11.667 -83.5 35s-34.5 51.333 -34.5 84
s11.5 60.5 34.5 83.5s50.833 34.5 83.5 34.5s60.5 -11.5 83.5 -34.5s34.5 -50.833 34.5 -83.5c0 -22.667 -6.66699 -45 -20 -67l-279 -462h-21l163 270c-58.667 6.66699 -109.667 33.334 -153 80.001c-46.667 50 -70 109.667 -70 179zM253 529
c0 -27.333 9.83301 -51 29.5 -71s43.167 -30 70.5 -30s50.833 10 70.5 30s29.5 43.667 29.5 71s-9.83301 50.833 -29.5 70.5s-43.167 29.5 -70.5 29.5s-50.833 -9.83301 -70.5 -29.5s-29.5 -43.167 -29.5 -70.5z" />
    <glyph glyph-name="colon" unicode=":" horiz-adv-x="226" 
d="M117 175v-175h-18v175h18zM153 175v-175h-18v175h18zM189 175v-175h-18v175h18zM225 175v-175h-18v175h18zM81 175v-175h-18v175h18zM117 503v-175h-18v175h18zM153 503v-175h-18v175h18zM189 503v-175h-18v175h18zM225 503v-175h-18v175h18zM81 503v-175h-18v175h18z
" />
    <glyph glyph-name="semicolon" unicode=";" horiz-adv-x="237" 
d="M117 503v-175h-18v175h18zM153 503v-175h-18v175h18zM189 503v-175h-18v175h18zM225 503v-175h-18v175h18zM81 503v-175h-18v175h18zM119 175c12 -30 18 -63.332 18 -99.999c0 -33.333 -6 -67.333 -18 -102h-20c13.333 26.667 20 60.667 20 102
c0 37.333 -6.33301 70.666 -19 99.999h19zM158 175.001c10 -34 15 -67.332 15 -99.999c0 -32 -5 -66 -15 -102h-20c11.333 30 17 64 17 102c0 41.333 -5.66699 74.666 -17 99.999h20zM196 175.002c8.66699 -27.333 13 -60.667 13 -100c0 -34.667 -4.66699 -68.667 -14 -102
h-18c9.33301 40 14 74 14 102c0 38.667 -4.66699 72 -14 100h19zM233 175.001c8 -27.333 12 -60.667 12 -100c0 -40.667 -4.33301 -74.667 -13 -102h-18c8.66699 26 13 60 13 102c0 40.667 -4.33301 74 -13 100h19zM81 175c13.333 -30 20 -63.332 20 -99.999
c0 -40 -7 -74 -21 -102h-20c16 32 24 66 24 102c0 33.333 -7.66699 66.666 -23 99.999h20z" />
    <glyph glyph-name="less" unicode="&#x3c;" horiz-adv-x="553" 
d="M63 389l489 182v-130l-314 -112l314 -112v-130l-489 181v121z" />
    <glyph glyph-name="equal" unicode="=" horiz-adv-x="850" 
d="M851 549v-170h-785v170h785zM851 268v-168h-785v168h785z" />
    <glyph glyph-name="greater" unicode="&#x3e;" horiz-adv-x="553" 
d="M552 268l-489 -181v130l314 112l-314 112v130l489 -182v-121z" />
    <glyph glyph-name="question" unicode="?" horiz-adv-x="383" 
d="M117 175v-175h-18v175h18zM153 175v-175h-18v175h18zM189 175v-175h-18v175h18zM225 175v-175h-18v175h18zM81 175v-175h-18v175h18zM63 758l0.00195312 18.001c35.333 10 68.666 15 99.999 15c63.333 0 117.5 -22.167 162.5 -66.5s67.5 -97.833 67.5 -160.5
c0 -45.333 -12.333 -87 -37 -125c-22.667 -34.667 -52.334 -61.334 -89.001 -80.001c-28 -14.667 -42 -39 -42 -73v-66h-18v66c0 42 17.667 71.667 53 89c33.333 16.667 60.333 41.334 81 74.001c22.667 35.333 34 73.666 34 114.999c0 58 -20.667 107.333 -62 148
s-91.333 61 -150 61c-30 0 -63.333 -5 -100 -15zM63.002 720.001l0.000976562 19.001c35.333 10.667 68.666 16 99.999 16c54 0 99.833 -18.5 137.5 -55.5s56.5 -82.167 56.5 -135.5c0 -46.667 -15.333 -88.334 -46 -125.001c-22 -25.333 -41.667 -41.333 -59 -48
c-10 -4 -21.667 -13.667 -35 -29c-18.667 -22.667 -28 -48 -28 -76v-66h-18v66c0 56 24.333 96.667 73 122c63.333 33.333 95 85.333 95 156c0 48 -17.167 88.833 -51.5 122.5s-75.833 50.5 -124.5 50.5c-30.667 0 -64 -5.66699 -100 -17zM63.0029 683.002
l-0.00195312 19.001c36 11.333 69.333 17 100 17c44 0 81.333 -15 112 -45s46 -66.667 46 -110c0 -28 -7.66699 -55.333 -23 -82s-35.666 -46 -60.999 -58c-18 -8.66699 -34.667 -22 -50 -40c-22.667 -28 -34 -60.667 -34 -98v-66h-18v66c0 41.333 13 78 39 110
c18 22 36.333 37 55 45c16.667 7.33301 32.334 21 47.001 41c18 25.333 27 52.666 27 81.999c0 38 -13.667 70.333 -41 97s-60.333 40 -99 40c-34.667 0 -68 -6 -100 -18zM63.001 647.003v18c29.333 12 62.666 18 99.999 18c34 0 62.833 -11.5 86.5 -34.5
s35.5 -51.167 35.5 -84.5c0 -46.667 -21.333 -82 -64 -106c-22.667 -12.667 -42.667 -29.667 -60 -51c-29.333 -36 -44 -76.333 -44 -121v-66h-18v66c0 50 15.667 94.333 47 133c20.667 24.667 43.334 43 68.001 55c35.333 17.333 53 47.333 53 90
c0 28.667 -10 52.667 -30 72s-44.667 29 -74 29c-38.667 0 -72 -6 -100 -18zM63.001 612.003v18c23.333 11.333 56.666 17 99.999 17c24 0 44.333 -8 61 -24s25 -35.667 25 -59c0 -18 -5.33301 -34.667 -16 -50c-8.66699 -12.667 -17.667 -21 -27 -25
c-24.667 -10.667 -49 -30.334 -73 -59.001c-34.667 -42 -52 -90 -52 -144v-66h-18v66c0 58.667 18.667 110.334 56 155.001c24 28.667 50.667 50 80 64c22 10 33 29.667 33 59c0 19.333 -6.66699 35 -20 47s-29.666 18 -48.999 18c-40.667 0 -74 -5.66699 -100 -17z" />
    <glyph glyph-name="at" unicode="@" horiz-adv-x="987" 
d="M616 178c-42 -68.667 -98.334 -102.669 -169.001 -102.002c-63.333 0.666992 -111 27.334 -143 80.001c-15.333 25.333 -23 57.666 -23 96.999c0 52 11.167 100.333 33.5 145s52.5 81.334 90.5 110.001s78 44.667 120 48c22 2 44 -0.333008 66 -7
c28.667 -8.66699 49.667 -22.667 63 -42c3.33301 -3.33301 9.33301 -14 18 -32l19 63h140l-68 -237c-16.667 -58 -25 -95.333 -25 -112c0 -34.667 20 -48 60 -40c48 10 86.667 51.333 116 124c18.667 46.667 28 93.667 28 141c0 62.667 -16.667 117.667 -50 165
c-35.333 50 -89.333 86.333 -162 109c-57.333 18 -114 25.667 -170 23c-148.667 -7.33301 -263 -82 -343 -224c-34.667 -62 -52 -132 -52 -210c0 -72 15 -136 45 -192c68 -126.667 183.667 -190 347 -190c106.667 0 216 33.667 328 101l29 -43
c-127.333 -80.667 -255.666 -121 -384.999 -121c-85.333 0 -165 18.667 -239 56v-1c-75.333 37.333 -134.5 91.5 -177.5 162.5s-64.5 148.5 -64.5 232.5c0 162 68.333 292 205 390c90 64.667 199.667 97 329 97c79.333 0 149.333 -13.333 210 -40v0
c56 -24.667 102.167 -61.334 138.5 -110.001s58.833 -103 67.5 -163c2 -13.333 3 -27.666 3 -42.999c0 -51.333 -9 -101.666 -27 -150.999c-20.667 -58 -51 -102.667 -91 -134c-44 -34.667 -91.667 -52 -143 -52c-18.667 0 -36 3 -52 9
c-39.333 14.667 -63.333 45.667 -72 93zM430.999 215.998c-0.666992 -29.333 8.33398 -50.333 27.001 -63c8.66699 -6 19 -9 31 -9c11.333 0 22 3 32 9c29.333 14 56.333 54 81 120c18.667 49.333 30 92.333 34 129c4 33.333 -4.33301 57.666 -25 72.999
c-16.667 12.667 -36.667 15.334 -60 8.00098c-32.667 -13.333 -62 -57 -88 -131c-20.667 -58 -31.334 -103.333 -32.001 -136z" />
    <glyph glyph-name="A" unicode="A" horiz-adv-x="819" 
d="M310 211l-8 -18h287l-7 18h-272zM323 247l-7 -18h259l-6 18h-246zM548 301l-102 259l-101 -259h203zM338 283l-7 -18h230l-6 18h-217zM604 158l-7 17h-301l-7 -17h315zM282 140l-55 -140h-19l306 782h20l305 -782h-20l-296 758l-9 -24l285 -734h-19l-276 708l-9 -24
l267 -684h-20l-257 660l-9 -25l248 -635h-20l-238 611l-9 -27l227 -584h-19l-54 140h-329zM494 782l-306 -782h-20l307 782h19zM456 782l-306 -782h-20l307 782h19zM418 782l-306 -782h-20l305 782h21zM377 782l-304 -782h-20l305 782h19z" />
    <glyph glyph-name="B" unicode="B" horiz-adv-x="514" 
d="M225 400v-18h41c33.333 0 61.666 -11.667 84.999 -35s35 -51.666 35 -84.999c0 -32.667 -11.667 -60.5 -35 -83.5s-51.666 -34.5 -84.999 -34.5h-41v-18h41c37.333 0 69.5 13.333 96.5 40s40.5 58.667 40.5 96s-13.5 69.666 -40.5 96.999s-59.167 41 -96.5 41h-41z
M225 364v-202h41c28 0 52 9.66699 72 29s30 43 30 71s-10 52 -30 72s-44 30 -72 30h-41zM422 537c0 42.667 -15.1689 79.166 -45.502 109.499s-67.166 45.5 -110.499 45.5h-41v-18h41c38 0 70.5 -13.5 97.5 -40.5s40.5 -59.167 40.5 -96.5
c0 -33.333 -11 -62.666 -33 -87.999c-16 -19.333 -34.333 -32.666 -55 -39.999c31.333 -10.667 56.833 -29.5 76.5 -56.5s29.5 -57.167 29.5 -90.5c0 -42.667 -15.167 -79 -45.5 -109s-67.166 -45 -110.499 -45h-41v-18h41c48 0 88.833 16.833 122.5 50.5
s50.5 74.167 50.5 121.5c0 65.333 -27.667 114.666 -83 147.999c44 30 66 72.333 66 127zM457.998 536.999c0 52.667 -18.834 97.668 -56.501 135.001s-82.834 56 -135.501 56h-41v-18h41c48.667 0 89.834 -16.833 123.501 -50.5s50.5 -74.5 50.5 -122.5
c0 -29.333 -7.33301 -57.333 -22 -84c-10 -18.667 -21 -32.667 -33 -42c48.667 -38.667 73 -88.334 73 -149.001c0 -52.667 -18.667 -97.5 -56 -134.5s-82.666 -55.5 -135.999 -55.5h-41v-18h41c58 0 107.5 20.333 148.5 61s61.5 89.667 61.5 147c0 58 -21.667 108 -65 150
c31.333 38 47 79.667 47 125zM493.997 537c0 62.667 -22.168 116.167 -66.501 160.5s-98.166 66.5 -161.499 66.5h-41v-18h41c58 0 107.5 -20.5 148.5 -61.5s61.5 -90.167 61.5 -147.5c0 -40 -13.333 -81.333 -40 -124c38 -44.667 57 -95 57 -151
c0 -62.667 -22.167 -116 -66.5 -160s-97.833 -66 -160.5 -66h-41v-18h41c68 0 126 23.833 174 71.5s72 105.167 72 172.5c0 58 -18 108.667 -54 152c24 37.333 36 78.333 36 123zM224.996 621l0.00195312 -168.002h41c23.333 0 43.166 8.33301 59.499 25
s24.5 36.334 24.5 59.001s-8.33301 42.334 -25 59.001s-36.334 25 -59.001 25h-41zM224.998 655.998v-18h41c28 0 52 -9.83301 72 -29.5s30 -43.5 30 -71.5s-10 -51.833 -30 -71.5s-44 -29.5 -72 -29.5h-41v-18h41c33.333 0 61.666 11.667 84.999 35s35 51.333 35 84
s-11.667 60.667 -35 84s-51.666 35 -84.999 35h-41zM478.998 414.998c33.333 -46 50 -96.999 50 -152.999c0 -72.667 -25.667 -134.5 -77 -185.5s-113.333 -76.5 -186 -76.5h-59v782h59c68 0 126 -24 174 -72s72 -105.667 72 -173c0 -42.667 -11 -83.334 -33 -122.001z
M116.998 781.999v-782h-18v782h18zM152.998 781.999v-782h-18v782h18zM188.998 781.999v-782h-18v782h18zM80.998 781.999v-782h-18v782h18z" />
    <glyph glyph-name="C" unicode="C" horiz-adv-x="493" 
d="M494 625c-20 2.66699 -36 4 -48 4c-65.333 0 -121.333 -23.333 -168 -70s-70 -102.667 -70 -168s23.333 -121.333 70 -168s102.667 -70 168 -70c16 0 32 2 48 6v-19c-13.333 -3.33301 -29.333 -5 -48 -5c-70.667 0 -131 25 -181 75s-75 110.333 -75 181
c0 71.333 25 131.833 75 181.5s110.333 74.5 181 74.5c18 0 34 -1.33301 48 -4v-18zM494 661c-14 2.66699 -30 4 -48 4c-75.333 0 -139.833 -26.833 -193.5 -80.5s-80.5 -118.167 -80.5 -193.5s26.833 -139.833 80.5 -193.5s118.167 -80.5 193.5 -80.5
c18.667 0 34.667 1.66699 48 5v-18c-13.333 -3.33301 -29.333 -5 -48 -5c-80.667 0 -149.5 28.5 -206.5 85.5s-85.5 125.833 -85.5 206.5s28.5 149.5 85.5 206.5s125.833 85.5 206.5 85.5c18 0 34 -1.33301 48 -4v-18zM494 697c-12.667 2.66699 -28.667 4 -48 4
c-85.333 0 -158.333 -30.333 -219 -91s-91 -133.667 -91 -219s30.333 -158.333 91 -219s133.667 -91 219 -91c18 0 34 1.33301 48 4v-18c-14 -2.66699 -30 -4 -48 -4c-90.667 0 -168 32 -232 96s-96 141.333 -96 232s32 168 96 232s141.333 96 232 96c16 0 32 -1 48 -3v-19z
M494 734c-16 2 -32 3 -48 3c-95.333 0 -176.833 -33.833 -244.5 -101.5s-101.5 -149.167 -101.5 -244.5s33.833 -176.833 101.5 -244.5s149.167 -101.5 244.5 -101.5c10.667 0 26.667 1.33301 48 4v-18c-21.333 -2.66699 -37.333 -4 -48 -4
c-100.667 0 -186.5 35.5 -257.5 106.5s-106.5 156.833 -106.5 257.5s35.5 186.5 106.5 257.5s156.833 106.5 257.5 106.5c16 0 32 -1 48 -3v-18zM494 770c-16 2 -32 3 -48 3c-104.667 0 -194.5 -37.333 -269.5 -112s-112.5 -164.667 -112.5 -270
c0 -104.667 37.333 -194.334 112 -269.001s164.667 -112 270 -112c16 0 32 1 48 3v-18c-16 -2 -32 -3 -48 -3c-110.667 0 -204.834 38.833 -282.501 116.5s-116.5 171.834 -116.5 282.501s38.833 205 116.5 283s171.834 117 282.501 117c16 0 32 -1 48 -3v-18z" />
    <glyph glyph-name="D" unicode="D" horiz-adv-x="601" 
d="M225 36v-18c103.333 2 191.333 39 264 111s109 159.333 109 262s-36.333 190 -109 262s-160.667 109 -264 111v-18c99.333 -2 183.333 -37 252 -105s103 -151.333 103 -250s-34.333 -182 -103 -250s-152.667 -103 -252 -105zM225 72v-18c94 2 173.667 35.333 239 100
s98 143.667 98 237s-32.667 172.333 -98 237s-145 98 -239 100v-18c89.333 -2 164.833 -33.5 226.5 -94.5s92.5 -135.833 92.5 -224.5c0 -88 -31 -162.667 -93 -224s-137.333 -93 -226 -95zM225 108v-18c84 2 155.167 31.833 213.5 89.5s87.5 128.167 87.5 211.5
s-29.167 153.833 -87.5 211.5s-129.5 87.5 -213.5 89.5v-18c79.333 -2 146.333 -30 201 -84s82 -120.333 82 -199c0 -78 -27.5 -144.167 -82.5 -198.5s-121.833 -82.5 -200.5 -84.5zM225 144v-18c74 2 136.667 28.333 188 79s77 112.667 77 186s-25.667 135.333 -77 186
s-114 77 -188 79v-18c70 -2 128.833 -26.5 176.5 -73.5s71.5 -104.833 71.5 -173.5s-24 -126.5 -72 -173.5s-106.667 -71.5 -176 -73.5zM225 621v-459.001c64 2 118.333 24.833 163 68.5s67 97.167 67 160.5s-22.333 116.833 -67 160.5s-99 66.834 -163 69.501z
M207 -0.000976562v782h18c109.333 0 201.833 -37.833 277.5 -113.5s113.5 -168.167 113.5 -277.5s-38.167 -201.833 -114.5 -277.5s-168.5 -113.5 -276.5 -113.5h-18zM117 781.999v-782h-18v782h18zM153 781.999v-782h-18v782h18zM189 781.999v-782h-18v782h18zM81 781.999
v-782h-18v782h18z" />
    <glyph glyph-name="E" unicode="E" horiz-adv-x="513" 
d="M81 782v-782h-18v782h18zM189 782v-782h-18v782h18zM153 782v-782h-18v782h18zM117 782v-782h-18v782h18zM225 347v-18h217v-18h-217v-149h292v-18h-292v-18h292v-18h-292v-18h292v-18h-292v-18h292v-18h-292v-18h292v-18h-310v782h310v-18h-292v-18h292v-18h-292v-18
h292v-18h-292v-18h292v-18h-292v-18h292v-17h-292v-148h217v-18h-217v-18h217v-18h-217v-18h217v-18h-217v-18h217v-18h-217z" />
    <glyph glyph-name="F" unicode="F" horiz-adv-x="510" 
d="M81 782v-782h-18v782h18zM189 782v-782h-18v782h18zM153 782v-782h-18v782h18zM117 782v-782h-18v782h18zM225 347v-18h217v-18h-217v-311h-18v782h310v-18h-292v-18h292v-18h-292v-18h292v-18h-292v-18h292v-18h-292v-18h292v-17h-292v-148h217v-18h-217v-18h217v-18
h-217v-18h217v-18h-217v-18h217v-18h-217z" />
    <glyph glyph-name="G" unicode="G" horiz-adv-x="688" 
d="M526 382h18.002v-382h-18v3c-29.333 -7.33301 -56 -11 -80 -11c-110.667 0 -204.834 38.833 -282.501 116.5s-116.5 171.834 -116.5 282.501s38.833 205 116.5 283s171.834 117 282.501 117c88 0 167.667 -26.667 239 -80l-11 -14c-68 50.667 -144 76 -228 76
c-104.667 0 -194.5 -37.333 -269.5 -112s-112.5 -164.667 -112.5 -270c0 -104.667 37.333 -194.334 112 -269.001s164.667 -112 270 -112c13.333 0 40 4 80 12v19c-38.667 -9.33301 -65.334 -14 -80.001 -14c-100.667 0 -186.5 35.5 -257.5 106.5
s-106.5 156.833 -106.5 257.5s35.5 186.5 106.5 257.5s156.833 106.5 257.5 106.5c80.667 0 153.334 -24.333 218.001 -73l-11 -15c-60.667 46.667 -129.667 70 -207 70c-95.333 0 -176.833 -33.833 -244.5 -101.5s-101.5 -149.167 -101.5 -244.5
s33.833 -176.833 101.5 -244.5s149.167 -101.5 244.5 -101.5c16.667 0 43.334 5.33301 80.001 16v19c-30.667 -11.333 -57.334 -17 -80.001 -17c-90.667 0 -168 32 -232 96s-96 141.333 -96 232s32 168 96 232s141.333 96 232 96c72 0 138 -22.333 198 -67l-11 -14
c-56.667 42 -119 63 -187 63c-85.333 0 -158.333 -30.333 -219 -91s-91 -133.667 -91 -219s30.333 -158.333 91 -219s133.667 -91 219 -91c20.667 0 47.334 6.66699 80.001 20v23c-26.667 -16.667 -53.334 -25 -80.001 -25c-80.667 0 -149.5 28.5 -206.5 85.5
s-85.5 125.833 -85.5 206.5s28.5 149.5 85.5 206.5s125.833 85.5 206.5 85.5c63.333 0 122.333 -19.667 177 -59l-10 -15c-50 37.333 -105.667 56 -167 56c-75.333 0 -139.833 -26.833 -193.5 -80.5s-80.5 -118.167 -80.5 -193.5s26.833 -139.833 80.5 -193.5
s118.167 -80.5 193.5 -80.5c26 0 52.667 9.66699 80 29v24c-20.667 -23.333 -47.334 -35 -80.001 -35c-70.667 0 -131 25 -181 75s-75 110.333 -75 181c0 71.333 25 131.833 75 181.5s110.333 74.5 181 74.5c57.333 0 109.666 -17.667 156.999 -53l-12 -16
c-40 34 -88.333 51 -145 51c-65.333 0 -121.333 -23.333 -168 -70s-70 -102.667 -70 -168s23.333 -121.333 70 -168s102.667 -70 168 -70c33.333 0 60 14.667 80 44v185zM580.002 382v-382h-18v382h18zM616.002 382v-382h-18v382h18zM652.002 382v-382h-18v382h18z
M688.002 382v-382h-18v382h18z" />
    <glyph glyph-name="H" unicode="H" horiz-adv-x="695" 
d="M693 782v-782h-18v782h18zM658 782v-782h-18v782h18zM622 782v-782h-18v782h18zM586 782v-782h-18v782h18zM81 782v-782h-18v782h18zM189 782v-782h-18v782h18zM153 782v-782h-18v782h18zM117 782v-782h-18v782h18zM225 365h307v18h-307v-18zM225 329h307v18h-307v-18z
M532 473v309h18v-782h-18v311h-307v-311h-18v782h18v-309h307zM225 437h307v18h-307v-18zM532 401v18h-307v-18h307z" />
    <glyph glyph-name="I" unicode="I" horiz-adv-x="225" 
d="M117 782v-782h-18v782h18zM153 782v-782h-18v782h18zM189 782v-782h-18v782h18zM225 782v-782h-18v782h18zM81 782v-782h-18v782h18z" />
    <glyph glyph-name="J" unicode="J" horiz-adv-x="402" 
d="M294 199c0 -25.333 -9 -46.833 -27 -64.5s-39.667 -26.5 -65 -26.5h-139v18h139c20 0 37.333 7.16699 52 21.5s22 31.5 22 51.5v583h18v-583zM366 199c0 -44.667 -16 -83 -48 -115s-70.667 -48 -116 -48h-139v18h139c40 0 74.333 14.167 103 42.5s43 62.5 43 102.5v583
h18v-583zM240 199v583h18v-583c0 -15.333 -5.5 -28.333 -16.5 -39s-24.167 -16 -39.5 -16h-139v18h139c10 0 18.833 3.66699 26.5 11s11.5 16 11.5 26zM384 199v583h18v-583c0 -54.667 -19.5 -101.5 -58.5 -140.5s-86.167 -58.5 -141.5 -58.5h-139v18h139
c50 0 92.833 17.667 128.5 53s53.5 78 53.5 128zM312 199v583h18v-583c0 -35.333 -12.5 -65.333 -37.5 -90s-55.167 -37 -90.5 -37h-139v18h139c30 0 55.833 10.667 77.5 32s32.5 47 32.5 77z" />
    <glyph glyph-name="K" unicode="K" horiz-adv-x="698" 
d="M304 504l202 278h23l-201 -278l11 -15l212 293h22l-223 -307l12 -15l233 322h22l-244 -337l11 -16l257 353h21l-267 -367l11 -15l278 382h22l-288 -397l289 -385h-21zM225 0h-18v782h18v-381l302 -401h-22l-280 371v-371zM249 428l323 -428h-22l-311 413zM272 460
l345 -460h-22l-335 444zM294 489l368 -489h-22l-358 474zM117 782v-782h-18v782h18zM153 782v-782h-18v782h18zM189 782v-782h-18v782h18zM81 782v-782h-18v782h18z" />
    <glyph glyph-name="L" unicode="L" horiz-adv-x="536" 
d="M81 782v-782h-18v782h18zM189 782v-782h-18v782h18zM153 782v-782h-18v782h18zM117 782v-782h-18v782h18zM225 162h319v-18h-319v-18h319v-18h-319v-18h319v-18h-319v-18h319v-18h-319v-18h319v-18h-337v782h18v-620z" />
    <glyph glyph-name="M" unicode="M" horiz-adv-x="1134" 
d="M668 0l226 521l-5 32l-239 -553h-20l254 585l-6 34l-267 -619h-21l282 654l-5 30l-298 -684h-19l312 719l-6 32l-325 -751h-20l-214 504l-85 -504h-17l88 535l-12 32l-96 -567h-16l99 595l-13 32l-105 -627h-18l110 659l-13 31l-116 -690h-17l120 719l-14 32l-125 -751
h-18l131 782h19l322 -761l10 21l-313 740h19l303 -716l10 22l-292 694h21l281 -670l11 24l-275 646h20l264 -623l10 22l-255 601h19l245 -579l252 579h18l131 -782h-18l-82 488l-212 -488h-20zM906 782l130 -782h-17l-131 782h18zM942 782l131 -782h-18l-131 782h18z
M978 782l131 -782h-18l-130 782h17zM1015 782l131 -782h-18l-131 782h18z" />
    <glyph glyph-name="N" unicode="N" horiz-adv-x="702" 
d="M209 782l450 -782h-21l-450 782h21zM168 782l450 -782h-22l-449 782h21zM126 782l450 -782h-21l-449 782h20zM593 187l18 -31v626h18v-657l18 -31v688h18v-720l18 -30v750h18v-782h-22l-450 782h20l290 -502v502h18v-533l18 -30v563h18v-595zM99 720l-18 32v-752h-18v782
h19l453 -782h-22l-288 501v-501h-18v532l-18 31v-563h-18v594l-18 32v-626h-18v658l-18 31v-689h-18v720z" />
    <glyph glyph-name="O" unicode="O" 
d="M446 -8c-110.667 0 -204.834 38.833 -282.501 116.5s-116.5 171.834 -116.5 282.501s38.833 205 116.5 283s171.834 117 282.501 117s205 -39 283 -117s117 -172.333 117 -283s-39 -204.834 -117 -282.501s-172.333 -116.5 -283 -116.5zM64 391
c0 -104.667 37.333 -194.334 112 -269.001s164.667 -112 270 -112s195.333 37.333 270 112s112 164.334 112 269.001c0 105.333 -37.333 195.333 -112 270s-164.667 112 -270 112c-104.667 0 -194.5 -37.333 -269.5 -112s-112.5 -164.667 -112.5 -270zM446 27
c-100.667 0 -186.5 35.5 -257.5 106.5s-106.5 156.833 -106.5 257.5s35.5 186.5 106.5 257.5s156.833 106.5 257.5 106.5s186.5 -35.5 257.5 -106.5s106.5 -156.833 106.5 -257.5s-35.5 -186.5 -106.5 -257.5s-156.833 -106.5 -257.5 -106.5zM100 391
c0 -95.333 33.833 -176.833 101.5 -244.5s149.167 -101.5 244.5 -101.5s176.833 33.833 244.5 101.5s101.5 149.167 101.5 244.5s-33.833 176.833 -101.5 244.5s-149.167 101.5 -244.5 101.5s-176.833 -33.833 -244.5 -101.5s-101.5 -149.167 -101.5 -244.5zM446 63
c-90.667 0 -168 32 -232 96s-96 141.333 -96 232s32 168 96 232s141.333 96 232 96s168 -32 232 -96s96 -141.333 96 -232s-32 -168 -96 -232s-141.333 -96 -232 -96zM136 391c0 -85.333 30.333 -158.333 91 -219s133.667 -91 219 -91s158.333 30.333 219 91
s91 133.667 91 219s-30.333 158.333 -91 219s-133.667 91 -219 91s-158.333 -30.333 -219 -91s-91 -133.667 -91 -219zM446 99c-80.667 0 -149.5 28.5 -206.5 85.5s-85.5 125.833 -85.5 206.5s28.5 149.5 85.5 206.5s125.833 85.5 206.5 85.5s149.5 -28.5 206.5 -85.5
s85.5 -125.833 85.5 -206.5s-28.5 -149.5 -85.5 -206.5s-125.833 -85.5 -206.5 -85.5zM172 391c0 -75.333 26.833 -139.833 80.5 -193.5s118.167 -80.5 193.5 -80.5s139.833 26.833 193.5 80.5s80.5 118.167 80.5 193.5s-26.833 139.833 -80.5 193.5
s-118.167 80.5 -193.5 80.5s-139.833 -26.833 -193.5 -80.5s-80.5 -118.167 -80.5 -193.5zM446 135c-70.667 0 -131 25 -181 75s-75 110.333 -75 181c0 71.333 25 131.833 75 181.5s110.333 74.5 181 74.5c71.333 0 131.833 -24.833 181.5 -74.5s74.5 -110.167 74.5 -181.5
c0 -70.667 -24.833 -131 -74.5 -181s-110.167 -75 -181.5 -75zM208 391c0 -65.333 23.333 -121.333 70 -168s102.667 -70 168 -70s121.333 23.333 168 70s70 102.667 70 168s-23.333 121.333 -70 168s-102.667 70 -168 70s-121.333 -23.333 -168 -70s-70 -102.667 -70 -168z
" />
    <glyph glyph-name="P" unicode="P" horiz-adv-x="524" 
d="M117 782v-782h-18v782h18zM153 782v-782h-18v782h18zM189 782v-782h-18v782h18zM81 782v-782h-18v782h18zM225 764v-18h69c57.333 0 106.5 -20.5 147.5 -61.5s61.5 -90.167 61.5 -147.5s-20.5 -106.5 -61.5 -147.5s-90.167 -61.5 -147.5 -61.5h-69v-18h69
c63.333 0 117 22.167 161 66.5s66 97.833 66 160.5c0 63.333 -22 117 -66 161s-97.667 66 -161 66h-69zM225 728v-18h69c48 0 88.833 -17 122.5 -51s50.5 -74.667 50.5 -122s-17 -88 -51 -122s-74.667 -51 -122 -51h-69v-18h69c52.667 0 97.667 18.667 135 56
s56 82.333 56 135s-18.667 97.667 -56 135s-82.333 56 -135 56h-69zM225 692v-18h69c38 0 70.333 -13.5 97 -40.5s40 -59.167 40 -96.5s-13.5 -69.5 -40.5 -96.5s-59.167 -40.5 -96.5 -40.5h-69v-18h69c42.667 0 79.167 15.167 109.5 45.5s45.5 66.833 45.5 109.5
s-15.167 79.167 -45.5 109.5s-66.833 45.5 -109.5 45.5h-69zM225 656v-18h69c28 0 51.833 -9.83301 71.5 -29.5s29.5 -43.5 29.5 -71.5s-9.83301 -51.833 -29.5 -71.5s-43.5 -29.5 -71.5 -29.5h-69v-18h69c32.667 0 60.667 11.667 84 35s35 51.333 35 84
s-11.667 60.667 -35 84s-51.333 35 -84 35h-69zM225 621v-168.002h69c22.667 0 42.167 8.33301 58.5 25s24.5 36.334 24.5 59.001s-8.16699 42.334 -24.5 59.001s-35.833 25 -58.5 25h-69zM294 781.998c67.333 0 125 -24 173 -72s72 -105.667 72 -173s-24 -125 -72 -173
s-105.667 -72 -173 -72h-69v-292h-18v782h87z" />
    <glyph glyph-name="Q" unicode="Q" 
d="M648 48c-54 -37.333 -121.333 -56.001 -202 -56.001c-110.667 0 -204.834 38.833 -282.501 116.5s-116.5 171.834 -116.5 282.501s38.833 205 116.5 283s171.834 117 282.501 117s205 -39 283 -117s117 -172.333 117 -283c0 -83.333 -26 -162.333 -78 -237l52 -61
l-13 -12l-158 187c23.333 37.333 35 78.333 35 123c0 65.333 -23.333 121.333 -70 168s-102.667 70 -168 70s-121.333 -23.333 -168 -70s-70 -102.667 -70 -168s23.333 -121.333 70 -168s102.667 -70 168 -70c44.667 0 82 9.66699 112 29l152 -181l-13 -12zM554 158.999
c-39.333 -16 -75.333 -24 -108 -24c-70.667 0 -131 25 -181 75s-75 110.333 -75 181c0 71.333 25 131.833 75 181.5s110.333 74.5 181 74.5c71.333 0 131.833 -24.833 181.5 -74.5s74.5 -110.167 74.5 -181.5c0 -44 -10.333 -84.333 -31 -121l13 -14
c24 42.667 36 87.667 36 135c0 75.333 -26.833 139.833 -80.5 193.5s-118.167 80.5 -193.5 80.5s-139.833 -26.833 -193.5 -80.5s-80.5 -118.167 -80.5 -193.5s26.833 -139.833 80.5 -193.5s118.167 -80.5 193.5 -80.5c47.333 0 87.333 9.66699 120 29zM577 130.999
c-40.667 -21.333 -84.333 -32 -131 -32c-80.667 0 -149.5 28.5 -206.5 85.5s-85.5 125.833 -85.5 206.5s28.5 149.5 85.5 206.5s125.833 85.5 206.5 85.5s149.5 -28.5 206.5 -85.5s85.5 -125.833 85.5 -206.5c0 -53.333 -14 -103.333 -42 -150l12 -15
c32 46.667 48 101.667 48 165c0 85.333 -30.333 158.333 -91 219s-133.667 91 -219 91s-158.333 -30.333 -219 -91s-91 -133.667 -91 -219s30.333 -158.333 91 -219s133.667 -91 219 -91c54.667 0 102.667 12 144 36zM601.001 102.999
c-48.667 -26.667 -100.333 -40 -155 -40c-90.667 0 -168 32 -232 96s-96 141.333 -96 232s32 168 96 232s141.333 96 232 96s168 -32 232 -96s96 -141.333 96 -232c0 -68 -18 -127.667 -54 -179l13 -14c39.333 54 59 118.333 59 193c0 95.333 -33.833 176.833 -101.5 244.5
s-149.167 101.5 -244.5 101.5s-176.833 -33.833 -244.5 -101.5s-101.5 -149.167 -101.5 -244.5s33.833 -176.833 101.5 -244.5s149.167 -101.5 244.5 -101.5c60 0 116 14.667 168 44zM626.002 74.999c-59.333 -32 -119.332 -47.999 -179.999 -47.999
c-100.667 0 -186.5 35.5 -257.5 106.5s-106.5 156.833 -106.5 257.5s35.5 186.5 106.5 257.5s156.833 106.5 257.5 106.5s186.5 -35.5 257.5 -106.5s106.5 -156.833 106.5 -257.5c0 -78.667 -22 -147.667 -66 -207l12 -15c48 66.667 72 140.667 72 222
c0 105.333 -37.333 195.333 -112 270s-164.667 112 -270 112c-104.667 0 -194.5 -37.333 -269.5 -112s-112.5 -164.667 -112.5 -270c0 -104.667 37.333 -194.334 112 -269.001s164.667 -112 270 -112c71.333 0 134.666 16.667 189.999 50zM589.003 201l149 -178l-14 -11
l-150 179zM615.003 225l150 -178l-13 -12l-149 176c4 4 8 8.66699 12 14zM640.003 253l153 -183l-14 -12l-151 180c2.66699 4 6.66699 9 12 15z" />
    <glyph glyph-name="R" unicode="R" horiz-adv-x="541" 
d="M271 430l174 -430h-19l-173 427c4.66699 0.666992 10.667 1.66699 18 3zM307 441l177 -441h-20l-175 434c4.66699 2 10.667 4.33301 18 7zM338 456l185 -456h-20l-181 448c6.66699 1.33301 12 4 16 8zM431 323l130 -323h-19l-188 464c26.667 22 40 46.333 40 73
c0 22.667 -8.16699 42.334 -24.5 59.001s-35.833 25 -58.5 25h-86v-195h10l171 -426h-19l-162 401v-401h-18v782h104c67.333 0 125 -24 173 -72s72 -105.667 72 -173c0 -55.333 -17 -105 -51 -149c-23.333 -30.667 -48 -52.334 -74 -65.001zM424 339
c76 45.333 114 111.333 114 198c0 63.333 -22 117 -66 161s-97.667 66 -161 66h-86v-18h86c57.333 0 106.5 -20.5 147.5 -61.5s61.5 -90.167 61.5 -147.5c0 -78.667 -34 -138.667 -102 -180zM410 373c61.333 40.667 92 95.334 92 164.001c0 52.667 -18.833 97.667 -56.5 135
s-82.5 56 -134.5 56h-86v-18h86c48 0 88.833 -17 122.5 -51s50.5 -74.667 50.5 -122c0 -62.667 -26.667 -111.334 -80 -146.001zM396 407c46.667 32 70 75.333 70 130c0 42.667 -15.167 79.167 -45.5 109.5s-66.833 45.5 -109.5 45.5h-86v-18h86c38 0 70.333 -13.5 97 -40.5
s40 -59.167 40 -96.5c0 -46.667 -19.333 -84 -58 -112zM383 442c31.333 24 47 55.667 47 95c0 32.667 -11.667 60.667 -35 84s-51.333 35 -84 35h-86v-18h86c28 0 51.833 -9.83301 71.5 -29.5s29.5 -43.5 29.5 -71.5c0 -35.333 -12 -61 -36 -77zM117 782v-782h-18v782h18z
M153 782v-782h-18v782h18zM189 782v-782h-18v782h18zM81 782v-782h-18v782h18z" />
    <glyph glyph-name="S" unicode="S" horiz-adv-x="489" 
d="M481 636c-16.667 40.667 -43.167 73.6641 -79.5 98.9971s-76.833 38 -121.5 38c-58.667 0 -109.334 -21.167 -152.001 -63.5s-64 -93.166 -64 -152.499c0 -56 18.833 -104.167 56.5 -144.5s84.167 -63.166 139.5 -68.499c29.333 -2.66699 53.333 -13.834 72 -33.501
s28 -43.5 28 -71.5c0 -28.667 -10 -53.167 -30 -73.5s-44.333 -30.5 -73 -30.5c-42.667 0 -73.667 20 -93 60l15 9c14 -34 40 -51 78 -51c23.333 0 43.333 8.5 60 25.5s25 37.167 25 60.5c0 22.667 -8 42.334 -24 59.001s-35.333 26 -58 28
c-59.333 4.66699 -109.666 29.167 -150.999 73.5s-62 96.833 -62 157.5c0 64.667 22.667 119.834 68 165.501s100.333 68.5 165 68.5c48 0 91.5 -13.5 130.5 -40.5s67.5 -61.833 85.5 -104.5zM418 599.997c-9.33301 30 -26.6689 54.332 -52.002 72.999s-54 28 -86 28
c-39.333 0 -73.166 -14.167 -101.499 -42.5s-42.5 -62.166 -42.5 -101.499c0 -37.333 12.667 -69.666 38 -96.999s56.333 -42.666 93 -45.999c48 -4 87.5 -22.5 118.5 -55.5s46.5 -72.833 46.5 -119.5c0 -48 -17.167 -89.333 -51.5 -124s-75.5 -52 -123.5 -52
c-32.667 0 -62.667 8.16699 -90 24.5s-48.333 38.166 -63 65.499l15 10c30 -54.667 76 -82 138 -82c43.333 0 80.333 15.5 111 46.5s46 68.167 46 111.5c0 41.333 -14.5 77.166 -43.5 107.499s-64 47.166 -105 50.499s-75.667 20.333 -104 51s-42.5 67 -42.5 109
c0 44.667 15.667 82.834 47 114.501s69.333 47.5 114 47.5c34.667 0 65.834 -10.333 93.501 -31s47.167 -47 58.5 -79zM350.997 560.996c-1.33301 18.667 -8.83105 34.667 -22.498 48s-29.834 20 -48.501 20c-19.333 0 -36 -7.16699 -50 -21.5s-21 -31.166 -21 -50.499
s6.5 -35.833 19.5 -49.5s28.833 -21.167 47.5 -22.5c62 -4.66699 115 -29.667 159 -75c46 -48 69 -105 69 -171c0 -68 -24.167 -126.167 -72.5 -174.5s-106.5 -72.5 -174.5 -72.5c-44 0 -84.833 10.833 -122.5 32.5s-67.834 50.834 -90.501 87.501l16 10
c44 -74.667 109.667 -112 197 -112c63.333 0 117.333 22.333 162 67s67 98.667 67 162c0 62 -20.667 114.333 -62 157s-91.333 66.667 -150 72c-24.667 2 -44.834 11.333 -60.501 28s-23.5 37 -23.5 61c0 25.333 8.83301 46.666 26.5 63.999s38.834 26 63.501 26
c22 0 41.5 -7.33301 58.5 -22s27.167 -32.334 30.5 -53.001zM384.999 580.996c-4.66699 24 -17 44 -37 60s-42.667 24 -68 24c-29.333 0 -54.666 -10.667 -75.999 -32s-32 -46.666 -32 -75.999c0 -28 9.5 -52.167 28.5 -72.5s42.833 -31.833 71.5 -34.5
c54 -4.66699 100.167 -26.834 138.5 -66.501s57.5 -87.834 57.5 -144.501c0 -58 -20.667 -107.833 -62 -149.5s-91 -62.5 -149 -62.5c-78 0 -139 35 -183 105l15 11c16.667 -29.333 40 -53 70 -71s62.667 -27 98 -27c53.333 0 98.833 19 136.5 57s56.5 83.667 56.5 137
c0 51.333 -17 95.166 -51 131.499s-77 56.833 -129 61.5c-32 3.33301 -59.167 17 -81.5 41s-33.5 52 -33.5 84c0 34.667 12.167 64.334 36.5 89.001s53.833 37 88.5 37c28.667 0 54.167 -8.66699 76.5 -26s37.166 -39.666 44.499 -66.999zM448.999 616.996
c-12 35.333 -33.668 64.1631 -65.001 86.4961s-66 33.5 -104 33.5c-49.333 0 -91.666 -17.667 -126.999 -53s-53 -77.666 -53 -126.999c0 -46.667 15.833 -87 47.5 -121s70.167 -53 115.5 -57c37.333 -3.33301 68.833 -18.166 94.5 -44.499s38.5 -58.166 38.5 -95.499
c0 -38.667 -13.5 -71.667 -40.5 -99s-59.833 -41 -98.5 -41c-57.333 0 -98.333 24.667 -123 74l15 11c22.667 -44.667 58.667 -67 108 -67c33.333 0 61.833 12 85.5 36s35.5 52.667 35.5 86c0 32 -11.167 59.833 -33.5 83.5s-49.833 36.834 -82.5 39.501
c-50 4 -92.167 24.667 -126.5 62s-51.5 81.666 -51.5 132.999c0 54.667 19 101.334 57 140.001s84.333 58 139 58c42 0 79.667 -11.833 113 -35.5s57 -54.5 71 -92.5z" />
    <glyph glyph-name="T" unicode="T" horiz-adv-x="531" 
d="M55 782h478v-18h-478v18zM55 746h478v-18h-478v18zM55 710h478v-18h-478v18zM55 674h478v-18h-478v18zM249 621h-17v-621h-18v621h-159v17h478v-17h-158v-621h-18v621h-18v-621h-18v621h-18v-621h-18v621h-18v-621h-18v621z" />
    <glyph glyph-name="U" unicode="U" horiz-adv-x="641" 
d="M641 280c0 -79.333 -28.167 -147.166 -84.5 -203.499s-124.5 -84.5 -204.5 -84.5s-148.167 28.167 -204.5 84.5s-84.5 124.166 -84.5 203.499v502h18v-502c0 -74.667 26.5 -138.334 79.5 -191.001s116.833 -79 191.5 -79s138.5 26.333 191.5 79
s79.5 116.334 79.5 191.001v502h18v-502zM605 280c0 -69.333 -24.667 -128.833 -74 -178.5s-109 -74.5 -179 -74.5s-129.667 24.833 -179 74.5s-74 109.167 -74 178.5v502h18v-502c0 -64.667 23 -120 69 -166s101.333 -69 166 -69c65.333 0 120.833 23 166.5 69
s68.5 101.333 68.5 166v502h18v-502zM569 280c0 -59.333 -21.333 -110.333 -64 -153s-93.667 -64 -153 -64s-110.333 21.333 -153 64s-64 93.667 -64 153v502h18v-502c0 -54.667 19.333 -101.5 58 -140.5s85.667 -58.5 141 -58.5c54.667 0 101.5 19.5 140.5 58.5
s58.5 85.833 58.5 140.5v502h18v-502zM533 280c0 -49.333 -17.833 -91.833 -53.5 -127.5s-78.167 -53.5 -127.5 -53.5s-91.833 17.833 -127.5 53.5s-53.5 78.167 -53.5 127.5v502h18v-502c0 -44.667 16 -83 48 -115s70.333 -48 115 -48c45.333 0 83.833 16 115.5 48
s47.5 70.333 47.5 115v502h18v-502zM497 280c0 -40 -14.167 -74.167 -42.5 -102.5s-62.5 -42.5 -102.5 -42.5s-74.167 14.167 -102.5 42.5s-42.5 62.5 -42.5 102.5v502h18v-502c0 -34.667 12.5 -64.5 37.5 -89.5s54.833 -37.5 89.5 -37.5c35.333 0 65.333 12.5 90 37.5
s37 54.833 37 89.5v502h18v-502z" />
    <glyph glyph-name="V" unicode="V" horiz-adv-x="768" 
d="M439 156l9 -25l236 651h19l-245 -677l9 -27l255 704h19l-264 -731l9 -26l275 757h19l-284 -782h-19l-282 782h19l196 -545l197 545h20l-207 -573l9 -25l216 598h19zM99 782l283 -782h-19l-283 782h19zM137 782l284 -782h-19l-285 782h20zM175 782l284 -782h-20l-283 782
h19zM61 782l283 -782h-19l-283 782h19z" />
    <glyph glyph-name="W" unicode="W" horiz-adv-x="1191" 
d="M174 782l223 -782h-18l-225 782h20zM549 782h19l-200 -545l8 -31l211 576h20l-222 -604l8 -29l233 633h19l-243 -663l8 -29l253 692h20l-264 -723l8 -29l275 752h19l174 -511l145 511h19l-153 -542l10 -31l161 573h19l-169 -602l10 -30l178 632h18l-186 -661l10 -30
l195 691h19l-204 -723l11 -29l212 752h18l-220 -782h-19l-258 754l-9 -26l247 -728h-19l-239 699l-9 -27l230 -672h-19l-221 647l-10 -26l212 -621h-20l-202 592l-9 -26l192 -566h-19l-184 539l-196 -539h-18l-226 782h19l148 -516zM136 782l226 -782h-20l-224 782h18z
M99 782l224 -782h-19l-224 782h19zM61 782l225 -782h-19l-224 782h18z" />
    <glyph glyph-name="X" unicode="X" horiz-adv-x="668" 
d="M396 499l11 -18l170 301h21l-180 -319l9 -19l191 338h20l-200 -356l10 -19l212 375h21l-222 -392l220 -390h-21l-443 782h22l129 -228l129 228h21l-140 -246l10 -19l150 265h21zM334 280l-9 18l-170 -298h-21l180 316l-11 18l-190 -334h-20l200 353l-10 18l-210 -371h-21
l221 390l-223 392h21l442 -782h-19l-129 226l-128 -226h-19l137 243l-10 19l-148 -262h-22zM112 782l443 -782h-21l-442 782h20zM153 782l443 -782h-21l-443 782h21zM195 782l442 -782h-20l-444 782h22z" />
    <glyph glyph-name="Y" unicode="Y" horiz-adv-x="690" 
d="M441 281l-241 501h19l159 -332l159 332h19l-169 -352l9 -18l179 370h19l-189 -389l9 -19l198 408h19l-208 -427l9 -18l218 445h19l-228 -464l9 -18l239 482h19l-249 -501v-281h-18v281zM423 0h-18v281l-243 501h19l242 -501v-281zM387 0h-18v281l-244 501h19l243 -501
v-281zM351 0h-18v281l-246 501h19l245 -501v-281zM315 0h-18v281l-249 501h19l248 -501v-281z" />
    <glyph glyph-name="Z" unicode="Z" horiz-adv-x="618" 
d="M59 782h549l-9 -18h-540v18zM59 746h532l-9 -18h-523v18zM59 710h514l-9 -18h-505v18zM59 674h497l-9 -18h-488v18zM510 621h-21l-302 -621h-20l302 621h-19l-303 -621h-19l302 621h-20l-303 -621h-20l302 621h-19l-302 -621h-20l302 621h-291v17h479l-233 -476h313v-18
h-321l-8 -18h329v-18h-338l-8 -18h346v-18h-356l-8 -18h364v-18h-373l-8 -18h381v-18h-411z" />
    <glyph glyph-name="bracketleft" unicode="[" horiz-adv-x="267" 
d="M117 782v-925h-18v925h18zM81 782v-925h-18v925h18zM153 -89h112v-18h-112v-18h112v-18h-130v925h130v-18h-112v-18h112v-18h-112v-817z" />
    <glyph glyph-name="backslash" unicode="\" horiz-adv-x="434" 
d="M149 784l287 -787h-20l-286 787h19zM73 784l286 -787h-19l-286 787h19zM111 784l286 -787h-19l-286 787h19z" />
    <glyph glyph-name="bracketright" unicode="]" horiz-adv-x="267" 
d="M265 782v-925h-18v925h18zM175 728h-112v18h112v18h-112v18h130v-925h-130v18h112v18h-112v18h112v817zM229 782v-925h-18v925h18z" />
    <glyph glyph-name="asciicircum" unicode="^" horiz-adv-x="458" 
d="M225 974l-139 -140h-26l140 140h25zM276 974l-139 -140h-25l139 140h25zM289 936l-13 -13l88 -89h-26l-75 76l-75 -76h-25l138 140h26l139 -140h-25l-127 127l-13 -13l113 -114h-25z" />
    <glyph glyph-name="underscore" unicode="_" horiz-adv-x="588" 
d="M663 -146h-601v70h601v-70z" />
    <glyph glyph-name="grave" unicode="`" horiz-adv-x="326" 
d="M140 974l138 -140h-25l-139 140h26zM190 974l140 -140h-26l-139 140h25zM89 974l138 -140h-25l-139 140h26z" />
    <glyph glyph-name="a" unicode="a" horiz-adv-x="819" 
d="M310 211l-8 -18h287l-7 18h-272zM323 247l-7 -18h259l-6 18h-246zM548 301l-102 259l-101 -259h203zM338 283l-7 -18h230l-6 18h-217zM604 158l-7 17h-301l-7 -17h315zM282 140l-55 -140h-19l306 782h20l305 -782h-20l-296 758l-9 -24l285 -734h-19l-276 708l-9 -24
l267 -684h-20l-257 660l-9 -25l248 -635h-20l-238 611l-9 -27l227 -584h-19l-54 140h-329zM494 782l-306 -782h-20l307 782h19zM456 782l-306 -782h-20l307 782h19zM418 782l-306 -782h-20l305 782h21zM377 782l-304 -782h-20l305 782h19z" />
    <glyph glyph-name="b" unicode="b" horiz-adv-x="514" 
d="M225 400v-18h41c33.333 0 61.666 -11.667 84.999 -35s35 -51.666 35 -84.999c0 -32.667 -11.667 -60.5 -35 -83.5s-51.666 -34.5 -84.999 -34.5h-41v-18h41c37.333 0 69.5 13.333 96.5 40s40.5 58.667 40.5 96s-13.5 69.666 -40.5 96.999s-59.167 41 -96.5 41h-41z
M225 364v-202h41c28 0 52 9.66699 72 29s30 43 30 71s-10 52 -30 72s-44 30 -72 30h-41zM422 537c0 42.667 -15.1689 79.166 -45.502 109.499s-67.166 45.5 -110.499 45.5h-41v-18h41c38 0 70.5 -13.5 97.5 -40.5s40.5 -59.167 40.5 -96.5
c0 -33.333 -11 -62.666 -33 -87.999c-16 -19.333 -34.333 -32.666 -55 -39.999c31.333 -10.667 56.833 -29.5 76.5 -56.5s29.5 -57.167 29.5 -90.5c0 -42.667 -15.167 -79 -45.5 -109s-67.166 -45 -110.499 -45h-41v-18h41c48 0 88.833 16.833 122.5 50.5
s50.5 74.167 50.5 121.5c0 65.333 -27.667 114.666 -83 147.999c44 30 66 72.333 66 127zM457.998 536.999c0 52.667 -18.834 97.668 -56.501 135.001s-82.834 56 -135.501 56h-41v-18h41c48.667 0 89.834 -16.833 123.501 -50.5s50.5 -74.5 50.5 -122.5
c0 -29.333 -7.33301 -57.333 -22 -84c-10 -18.667 -21 -32.667 -33 -42c48.667 -38.667 73 -88.334 73 -149.001c0 -52.667 -18.667 -97.5 -56 -134.5s-82.666 -55.5 -135.999 -55.5h-41v-18h41c58 0 107.5 20.333 148.5 61s61.5 89.667 61.5 147c0 58 -21.667 108 -65 150
c31.333 38 47 79.667 47 125zM493.997 537c0 62.667 -22.168 116.167 -66.501 160.5s-98.166 66.5 -161.499 66.5h-41v-18h41c58 0 107.5 -20.5 148.5 -61.5s61.5 -90.167 61.5 -147.5c0 -40 -13.333 -81.333 -40 -124c38 -44.667 57 -95 57 -151
c0 -62.667 -22.167 -116 -66.5 -160s-97.833 -66 -160.5 -66h-41v-18h41c68 0 126 23.833 174 71.5s72 105.167 72 172.5c0 58 -18 108.667 -54 152c24 37.333 36 78.333 36 123zM224.996 621l0.00195312 -168.002h41c23.333 0 43.166 8.33301 59.499 25
s24.5 36.334 24.5 59.001s-8.33301 42.334 -25 59.001s-36.334 25 -59.001 25h-41zM224.998 655.998v-18h41c28 0 52 -9.83301 72 -29.5s30 -43.5 30 -71.5s-10 -51.833 -30 -71.5s-44 -29.5 -72 -29.5h-41v-18h41c33.333 0 61.666 11.667 84.999 35s35 51.333 35 84
s-11.667 60.667 -35 84s-51.666 35 -84.999 35h-41zM478.998 414.998c33.333 -46 50 -96.999 50 -152.999c0 -72.667 -25.667 -134.5 -77 -185.5s-113.333 -76.5 -186 -76.5h-59v782h59c68 0 126 -24 174 -72s72 -105.667 72 -173c0 -42.667 -11 -83.334 -33 -122.001z
M116.998 781.999v-782h-18v782h18zM152.998 781.999v-782h-18v782h18zM188.998 781.999v-782h-18v782h18zM80.998 781.999v-782h-18v782h18z" />
    <glyph glyph-name="c" unicode="c" horiz-adv-x="493" 
d="M494 625c-20 2.66699 -36 4 -48 4c-65.333 0 -121.333 -23.333 -168 -70s-70 -102.667 -70 -168s23.333 -121.333 70 -168s102.667 -70 168 -70c16 0 32 2 48 6v-19c-13.333 -3.33301 -29.333 -5 -48 -5c-70.667 0 -131 25 -181 75s-75 110.333 -75 181
c0 71.333 25 131.833 75 181.5s110.333 74.5 181 74.5c18 0 34 -1.33301 48 -4v-18zM494 661c-14 2.66699 -30 4 -48 4c-75.333 0 -139.833 -26.833 -193.5 -80.5s-80.5 -118.167 -80.5 -193.5s26.833 -139.833 80.5 -193.5s118.167 -80.5 193.5 -80.5
c18.667 0 34.667 1.66699 48 5v-18c-13.333 -3.33301 -29.333 -5 -48 -5c-80.667 0 -149.5 28.5 -206.5 85.5s-85.5 125.833 -85.5 206.5s28.5 149.5 85.5 206.5s125.833 85.5 206.5 85.5c18 0 34 -1.33301 48 -4v-18zM494 697c-12.667 2.66699 -28.667 4 -48 4
c-85.333 0 -158.333 -30.333 -219 -91s-91 -133.667 -91 -219s30.333 -158.333 91 -219s133.667 -91 219 -91c18 0 34 1.33301 48 4v-18c-14 -2.66699 -30 -4 -48 -4c-90.667 0 -168 32 -232 96s-96 141.333 -96 232s32 168 96 232s141.333 96 232 96c16 0 32 -1 48 -3v-19z
M494 734c-16 2 -32 3 -48 3c-95.333 0 -176.833 -33.833 -244.5 -101.5s-101.5 -149.167 -101.5 -244.5s33.833 -176.833 101.5 -244.5s149.167 -101.5 244.5 -101.5c10.667 0 26.667 1.33301 48 4v-18c-21.333 -2.66699 -37.333 -4 -48 -4
c-100.667 0 -186.5 35.5 -257.5 106.5s-106.5 156.833 -106.5 257.5s35.5 186.5 106.5 257.5s156.833 106.5 257.5 106.5c16 0 32 -1 48 -3v-18zM494 770c-16 2 -32 3 -48 3c-104.667 0 -194.5 -37.333 -269.5 -112s-112.5 -164.667 -112.5 -270
c0 -104.667 37.333 -194.334 112 -269.001s164.667 -112 270 -112c16 0 32 1 48 3v-18c-16 -2 -32 -3 -48 -3c-110.667 0 -204.834 38.833 -282.501 116.5s-116.5 171.834 -116.5 282.501s38.833 205 116.5 283s171.834 117 282.501 117c16 0 32 -1 48 -3v-18z" />
    <glyph glyph-name="d" unicode="d" horiz-adv-x="601" 
d="M225 36v-18c103.333 2 191.333 39 264 111s109 159.333 109 262s-36.333 190 -109 262s-160.667 109 -264 111v-18c99.333 -2 183.333 -37 252 -105s103 -151.333 103 -250s-34.333 -182 -103 -250s-152.667 -103 -252 -105zM225 72v-18c94 2 173.667 35.333 239 100
s98 143.667 98 237s-32.667 172.333 -98 237s-145 98 -239 100v-18c89.333 -2 164.833 -33.5 226.5 -94.5s92.5 -135.833 92.5 -224.5c0 -88 -31 -162.667 -93 -224s-137.333 -93 -226 -95zM225 108v-18c84 2 155.167 31.833 213.5 89.5s87.5 128.167 87.5 211.5
s-29.167 153.833 -87.5 211.5s-129.5 87.5 -213.5 89.5v-18c79.333 -2 146.333 -30 201 -84s82 -120.333 82 -199c0 -78 -27.5 -144.167 -82.5 -198.5s-121.833 -82.5 -200.5 -84.5zM225 144v-18c74 2 136.667 28.333 188 79s77 112.667 77 186s-25.667 135.333 -77 186
s-114 77 -188 79v-18c70 -2 128.833 -26.5 176.5 -73.5s71.5 -104.833 71.5 -173.5s-24 -126.5 -72 -173.5s-106.667 -71.5 -176 -73.5zM225 621v-459.001c64 2 118.333 24.833 163 68.5s67 97.167 67 160.5s-22.333 116.833 -67 160.5s-99 66.834 -163 69.501z
M207 -0.000976562v782h18c109.333 0 201.833 -37.833 277.5 -113.5s113.5 -168.167 113.5 -277.5s-38.167 -201.833 -114.5 -277.5s-168.5 -113.5 -276.5 -113.5h-18zM117 781.999v-782h-18v782h18zM153 781.999v-782h-18v782h18zM189 781.999v-782h-18v782h18zM81 781.999
v-782h-18v782h18z" />
    <glyph glyph-name="e" unicode="e" horiz-adv-x="513" 
d="M81 782v-782h-18v782h18zM189 782v-782h-18v782h18zM153 782v-782h-18v782h18zM117 782v-782h-18v782h18zM225 347v-18h217v-18h-217v-149h292v-18h-292v-18h292v-18h-292v-18h292v-18h-292v-18h292v-18h-292v-18h292v-18h-310v782h310v-18h-292v-18h292v-18h-292v-18
h292v-18h-292v-18h292v-18h-292v-18h292v-17h-292v-148h217v-18h-217v-18h217v-18h-217v-18h217v-18h-217v-18h217v-18h-217z" />
    <glyph glyph-name="f" unicode="f" horiz-adv-x="510" 
d="M81 782v-782h-18v782h18zM189 782v-782h-18v782h18zM153 782v-782h-18v782h18zM117 782v-782h-18v782h18zM225 347v-18h217v-18h-217v-311h-18v782h310v-18h-292v-18h292v-18h-292v-18h292v-18h-292v-18h292v-18h-292v-18h292v-17h-292v-148h217v-18h-217v-18h217v-18
h-217v-18h217v-18h-217v-18h217v-18h-217z" />
    <glyph glyph-name="g" unicode="g" horiz-adv-x="688" 
d="M526 382h18.002v-382h-18v3c-29.333 -7.33301 -56 -11 -80 -11c-110.667 0 -204.834 38.833 -282.501 116.5s-116.5 171.834 -116.5 282.501s38.833 205 116.5 283s171.834 117 282.501 117c88 0 167.667 -26.667 239 -80l-11 -14c-68 50.667 -144 76 -228 76
c-104.667 0 -194.5 -37.333 -269.5 -112s-112.5 -164.667 -112.5 -270c0 -104.667 37.333 -194.334 112 -269.001s164.667 -112 270 -112c13.333 0 40 4 80 12v19c-38.667 -9.33301 -65.334 -14 -80.001 -14c-100.667 0 -186.5 35.5 -257.5 106.5
s-106.5 156.833 -106.5 257.5s35.5 186.5 106.5 257.5s156.833 106.5 257.5 106.5c80.667 0 153.334 -24.333 218.001 -73l-11 -15c-60.667 46.667 -129.667 70 -207 70c-95.333 0 -176.833 -33.833 -244.5 -101.5s-101.5 -149.167 -101.5 -244.5
s33.833 -176.833 101.5 -244.5s149.167 -101.5 244.5 -101.5c16.667 0 43.334 5.33301 80.001 16v19c-30.667 -11.333 -57.334 -17 -80.001 -17c-90.667 0 -168 32 -232 96s-96 141.333 -96 232s32 168 96 232s141.333 96 232 96c72 0 138 -22.333 198 -67l-11 -14
c-56.667 42 -119 63 -187 63c-85.333 0 -158.333 -30.333 -219 -91s-91 -133.667 -91 -219s30.333 -158.333 91 -219s133.667 -91 219 -91c20.667 0 47.334 6.66699 80.001 20v23c-26.667 -16.667 -53.334 -25 -80.001 -25c-80.667 0 -149.5 28.5 -206.5 85.5
s-85.5 125.833 -85.5 206.5s28.5 149.5 85.5 206.5s125.833 85.5 206.5 85.5c63.333 0 122.333 -19.667 177 -59l-10 -15c-50 37.333 -105.667 56 -167 56c-75.333 0 -139.833 -26.833 -193.5 -80.5s-80.5 -118.167 -80.5 -193.5s26.833 -139.833 80.5 -193.5
s118.167 -80.5 193.5 -80.5c26 0 52.667 9.66699 80 29v24c-20.667 -23.333 -47.334 -35 -80.001 -35c-70.667 0 -131 25 -181 75s-75 110.333 -75 181c0 71.333 25 131.833 75 181.5s110.333 74.5 181 74.5c57.333 0 109.666 -17.667 156.999 -53l-12 -16
c-40 34 -88.333 51 -145 51c-65.333 0 -121.333 -23.333 -168 -70s-70 -102.667 -70 -168s23.333 -121.333 70 -168s102.667 -70 168 -70c33.333 0 60 14.667 80 44v185zM580.002 382v-382h-18v382h18zM616.002 382v-382h-18v382h18zM652.002 382v-382h-18v382h18z
M688.002 382v-382h-18v382h18z" />
    <glyph glyph-name="h" unicode="h" horiz-adv-x="695" 
d="M693 782v-782h-18v782h18zM658 782v-782h-18v782h18zM622 782v-782h-18v782h18zM586 782v-782h-18v782h18zM81 782v-782h-18v782h18zM189 782v-782h-18v782h18zM153 782v-782h-18v782h18zM117 782v-782h-18v782h18zM225 365h307v18h-307v-18zM225 329h307v18h-307v-18z
M532 473v309h18v-782h-18v311h-307v-311h-18v782h18v-309h307zM225 437h307v18h-307v-18zM532 401v18h-307v-18h307z" />
    <glyph glyph-name="i" unicode="i" horiz-adv-x="225" 
d="M117 782v-782h-18v782h18zM153 782v-782h-18v782h18zM189 782v-782h-18v782h18zM225 782v-782h-18v782h18zM81 782v-782h-18v782h18z" />
    <glyph glyph-name="j" unicode="j" horiz-adv-x="402" 
d="M294 199c0 -25.333 -9 -46.833 -27 -64.5s-39.667 -26.5 -65 -26.5h-139v18h139c20 0 37.333 7.16699 52 21.5s22 31.5 22 51.5v583h18v-583zM366 199c0 -44.667 -16 -83 -48 -115s-70.667 -48 -116 -48h-139v18h139c40 0 74.333 14.167 103 42.5s43 62.5 43 102.5v583
h18v-583zM240 199v583h18v-583c0 -15.333 -5.5 -28.333 -16.5 -39s-24.167 -16 -39.5 -16h-139v18h139c10 0 18.833 3.66699 26.5 11s11.5 16 11.5 26zM384 199v583h18v-583c0 -54.667 -19.5 -101.5 -58.5 -140.5s-86.167 -58.5 -141.5 -58.5h-139v18h139
c50 0 92.833 17.667 128.5 53s53.5 78 53.5 128zM312 199v583h18v-583c0 -35.333 -12.5 -65.333 -37.5 -90s-55.167 -37 -90.5 -37h-139v18h139c30 0 55.833 10.667 77.5 32s32.5 47 32.5 77z" />
    <glyph glyph-name="k" unicode="k" horiz-adv-x="698" 
d="M304 504l202 278h23l-201 -278l11 -15l212 293h22l-223 -307l12 -15l233 322h22l-244 -337l11 -16l257 353h21l-267 -367l11 -15l278 382h22l-288 -397l289 -385h-21zM225 0h-18v782h18v-381l302 -401h-22l-280 371v-371zM249 428l323 -428h-22l-311 413zM272 460
l345 -460h-22l-335 444zM294 489l368 -489h-22l-358 474zM117 782v-782h-18v782h18zM153 782v-782h-18v782h18zM189 782v-782h-18v782h18zM81 782v-782h-18v782h18z" />
    <glyph glyph-name="l" unicode="l" horiz-adv-x="536" 
d="M81 782v-782h-18v782h18zM189 782v-782h-18v782h18zM153 782v-782h-18v782h18zM117 782v-782h-18v782h18zM225 162h319v-18h-319v-18h319v-18h-319v-18h319v-18h-319v-18h319v-18h-319v-18h319v-18h-337v782h18v-620z" />
    <glyph glyph-name="m" unicode="m" horiz-adv-x="1134" 
d="M668 0l226 521l-5 32l-239 -553h-20l254 585l-6 34l-267 -619h-21l282 654l-5 30l-298 -684h-19l312 719l-6 32l-325 -751h-20l-214 504l-85 -504h-17l88 535l-12 32l-96 -567h-16l99 595l-13 32l-105 -627h-18l110 659l-13 31l-116 -690h-17l120 719l-14 32l-125 -751
h-18l131 782h19l322 -761l10 21l-313 740h19l303 -716l10 22l-292 694h21l281 -670l11 24l-275 646h20l264 -623l10 22l-255 601h19l245 -579l252 579h18l131 -782h-18l-82 488l-212 -488h-20zM906 782l130 -782h-17l-131 782h18zM942 782l131 -782h-18l-131 782h18z
M978 782l131 -782h-18l-130 782h17zM1015 782l131 -782h-18l-131 782h18z" />
    <glyph glyph-name="n" unicode="n" horiz-adv-x="702" 
d="M209 782l450 -782h-21l-450 782h21zM168 782l450 -782h-22l-449 782h21zM126 782l450 -782h-21l-449 782h20zM593 187l18 -31v626h18v-657l18 -31v688h18v-720l18 -30v750h18v-782h-22l-450 782h20l290 -502v502h18v-533l18 -30v563h18v-595zM99 720l-18 32v-752h-18v782
h19l453 -782h-22l-288 501v-501h-18v532l-18 31v-563h-18v594l-18 32v-626h-18v658l-18 31v-689h-18v720z" />
    <glyph glyph-name="o" unicode="o" 
d="M446 -8c-110.667 0 -204.834 38.833 -282.501 116.5s-116.5 171.834 -116.5 282.501s38.833 205 116.5 283s171.834 117 282.501 117s205 -39 283 -117s117 -172.333 117 -283s-39 -204.834 -117 -282.501s-172.333 -116.5 -283 -116.5zM64 391
c0 -104.667 37.333 -194.334 112 -269.001s164.667 -112 270 -112s195.333 37.333 270 112s112 164.334 112 269.001c0 105.333 -37.333 195.333 -112 270s-164.667 112 -270 112c-104.667 0 -194.5 -37.333 -269.5 -112s-112.5 -164.667 -112.5 -270zM446 27
c-100.667 0 -186.5 35.5 -257.5 106.5s-106.5 156.833 -106.5 257.5s35.5 186.5 106.5 257.5s156.833 106.5 257.5 106.5s186.5 -35.5 257.5 -106.5s106.5 -156.833 106.5 -257.5s-35.5 -186.5 -106.5 -257.5s-156.833 -106.5 -257.5 -106.5zM100 391
c0 -95.333 33.833 -176.833 101.5 -244.5s149.167 -101.5 244.5 -101.5s176.833 33.833 244.5 101.5s101.5 149.167 101.5 244.5s-33.833 176.833 -101.5 244.5s-149.167 101.5 -244.5 101.5s-176.833 -33.833 -244.5 -101.5s-101.5 -149.167 -101.5 -244.5zM446 63
c-90.667 0 -168 32 -232 96s-96 141.333 -96 232s32 168 96 232s141.333 96 232 96s168 -32 232 -96s96 -141.333 96 -232s-32 -168 -96 -232s-141.333 -96 -232 -96zM136 391c0 -85.333 30.333 -158.333 91 -219s133.667 -91 219 -91s158.333 30.333 219 91
s91 133.667 91 219s-30.333 158.333 -91 219s-133.667 91 -219 91s-158.333 -30.333 -219 -91s-91 -133.667 -91 -219zM446 99c-80.667 0 -149.5 28.5 -206.5 85.5s-85.5 125.833 -85.5 206.5s28.5 149.5 85.5 206.5s125.833 85.5 206.5 85.5s149.5 -28.5 206.5 -85.5
s85.5 -125.833 85.5 -206.5s-28.5 -149.5 -85.5 -206.5s-125.833 -85.5 -206.5 -85.5zM172 391c0 -75.333 26.833 -139.833 80.5 -193.5s118.167 -80.5 193.5 -80.5s139.833 26.833 193.5 80.5s80.5 118.167 80.5 193.5s-26.833 139.833 -80.5 193.5
s-118.167 80.5 -193.5 80.5s-139.833 -26.833 -193.5 -80.5s-80.5 -118.167 -80.5 -193.5zM446 135c-70.667 0 -131 25 -181 75s-75 110.333 -75 181c0 71.333 25 131.833 75 181.5s110.333 74.5 181 74.5c71.333 0 131.833 -24.833 181.5 -74.5s74.5 -110.167 74.5 -181.5
c0 -70.667 -24.833 -131 -74.5 -181s-110.167 -75 -181.5 -75zM208 391c0 -65.333 23.333 -121.333 70 -168s102.667 -70 168 -70s121.333 23.333 168 70s70 102.667 70 168s-23.333 121.333 -70 168s-102.667 70 -168 70s-121.333 -23.333 -168 -70s-70 -102.667 -70 -168z
" />
    <glyph glyph-name="p" unicode="p" horiz-adv-x="524" 
d="M117 782v-782h-18v782h18zM153 782v-782h-18v782h18zM189 782v-782h-18v782h18zM81 782v-782h-18v782h18zM225 764v-18h69c57.333 0 106.5 -20.5 147.5 -61.5s61.5 -90.167 61.5 -147.5s-20.5 -106.5 -61.5 -147.5s-90.167 -61.5 -147.5 -61.5h-69v-18h69
c63.333 0 117 22.167 161 66.5s66 97.833 66 160.5c0 63.333 -22 117 -66 161s-97.667 66 -161 66h-69zM225 728v-18h69c48 0 88.833 -17 122.5 -51s50.5 -74.667 50.5 -122s-17 -88 -51 -122s-74.667 -51 -122 -51h-69v-18h69c52.667 0 97.667 18.667 135 56
s56 82.333 56 135s-18.667 97.667 -56 135s-82.333 56 -135 56h-69zM225 692v-18h69c38 0 70.333 -13.5 97 -40.5s40 -59.167 40 -96.5s-13.5 -69.5 -40.5 -96.5s-59.167 -40.5 -96.5 -40.5h-69v-18h69c42.667 0 79.167 15.167 109.5 45.5s45.5 66.833 45.5 109.5
s-15.167 79.167 -45.5 109.5s-66.833 45.5 -109.5 45.5h-69zM225 656v-18h69c28 0 51.833 -9.83301 71.5 -29.5s29.5 -43.5 29.5 -71.5s-9.83301 -51.833 -29.5 -71.5s-43.5 -29.5 -71.5 -29.5h-69v-18h69c32.667 0 60.667 11.667 84 35s35 51.333 35 84
s-11.667 60.667 -35 84s-51.333 35 -84 35h-69zM225 621v-168.002h69c22.667 0 42.167 8.33301 58.5 25s24.5 36.334 24.5 59.001s-8.16699 42.334 -24.5 59.001s-35.833 25 -58.5 25h-69zM294 781.998c67.333 0 125 -24 173 -72s72 -105.667 72 -173s-24 -125 -72 -173
s-105.667 -72 -173 -72h-69v-292h-18v782h87z" />
    <glyph glyph-name="q" unicode="q" 
d="M648 48c-54 -37.333 -121.333 -56.001 -202 -56.001c-110.667 0 -204.834 38.833 -282.501 116.5s-116.5 171.834 -116.5 282.501s38.833 205 116.5 283s171.834 117 282.501 117s205 -39 283 -117s117 -172.333 117 -283c0 -83.333 -26 -162.333 -78 -237l52 -61
l-13 -12l-158 187c23.333 37.333 35 78.333 35 123c0 65.333 -23.333 121.333 -70 168s-102.667 70 -168 70s-121.333 -23.333 -168 -70s-70 -102.667 -70 -168s23.333 -121.333 70 -168s102.667 -70 168 -70c44.667 0 82 9.66699 112 29l152 -181l-13 -12zM554 158.999
c-39.333 -16 -75.333 -24 -108 -24c-70.667 0 -131 25 -181 75s-75 110.333 -75 181c0 71.333 25 131.833 75 181.5s110.333 74.5 181 74.5c71.333 0 131.833 -24.833 181.5 -74.5s74.5 -110.167 74.5 -181.5c0 -44 -10.333 -84.333 -31 -121l13 -14
c24 42.667 36 87.667 36 135c0 75.333 -26.833 139.833 -80.5 193.5s-118.167 80.5 -193.5 80.5s-139.833 -26.833 -193.5 -80.5s-80.5 -118.167 -80.5 -193.5s26.833 -139.833 80.5 -193.5s118.167 -80.5 193.5 -80.5c47.333 0 87.333 9.66699 120 29zM577 130.999
c-40.667 -21.333 -84.333 -32 -131 -32c-80.667 0 -149.5 28.5 -206.5 85.5s-85.5 125.833 -85.5 206.5s28.5 149.5 85.5 206.5s125.833 85.5 206.5 85.5s149.5 -28.5 206.5 -85.5s85.5 -125.833 85.5 -206.5c0 -53.333 -14 -103.333 -42 -150l12 -15
c32 46.667 48 101.667 48 165c0 85.333 -30.333 158.333 -91 219s-133.667 91 -219 91s-158.333 -30.333 -219 -91s-91 -133.667 -91 -219s30.333 -158.333 91 -219s133.667 -91 219 -91c54.667 0 102.667 12 144 36zM601.001 102.999
c-48.667 -26.667 -100.333 -40 -155 -40c-90.667 0 -168 32 -232 96s-96 141.333 -96 232s32 168 96 232s141.333 96 232 96s168 -32 232 -96s96 -141.333 96 -232c0 -68 -18 -127.667 -54 -179l13 -14c39.333 54 59 118.333 59 193c0 95.333 -33.833 176.833 -101.5 244.5
s-149.167 101.5 -244.5 101.5s-176.833 -33.833 -244.5 -101.5s-101.5 -149.167 -101.5 -244.5s33.833 -176.833 101.5 -244.5s149.167 -101.5 244.5 -101.5c60 0 116 14.667 168 44zM626.002 74.999c-59.333 -32 -119.332 -47.999 -179.999 -47.999
c-100.667 0 -186.5 35.5 -257.5 106.5s-106.5 156.833 -106.5 257.5s35.5 186.5 106.5 257.5s156.833 106.5 257.5 106.5s186.5 -35.5 257.5 -106.5s106.5 -156.833 106.5 -257.5c0 -78.667 -22 -147.667 -66 -207l12 -15c48 66.667 72 140.667 72 222
c0 105.333 -37.333 195.333 -112 270s-164.667 112 -270 112c-104.667 0 -194.5 -37.333 -269.5 -112s-112.5 -164.667 -112.5 -270c0 -104.667 37.333 -194.334 112 -269.001s164.667 -112 270 -112c71.333 0 134.666 16.667 189.999 50zM589.003 201l149 -178l-14 -11
l-150 179zM615.003 225l150 -178l-13 -12l-149 176c4 4 8 8.66699 12 14zM640.003 253l153 -183l-14 -12l-151 180c2.66699 4 6.66699 9 12 15z" />
    <glyph glyph-name="r" unicode="r" horiz-adv-x="541" 
d="M271 430l174 -430h-19l-173 427c4.66699 0.666992 10.667 1.66699 18 3zM307 441l177 -441h-20l-175 434c4.66699 2 10.667 4.33301 18 7zM338 456l185 -456h-20l-181 448c6.66699 1.33301 12 4 16 8zM431 323l130 -323h-19l-188 464c26.667 22 40 46.333 40 73
c0 22.667 -8.16699 42.334 -24.5 59.001s-35.833 25 -58.5 25h-86v-195h10l171 -426h-19l-162 401v-401h-18v782h104c67.333 0 125 -24 173 -72s72 -105.667 72 -173c0 -55.333 -17 -105 -51 -149c-23.333 -30.667 -48 -52.334 -74 -65.001zM424 339
c76 45.333 114 111.333 114 198c0 63.333 -22 117 -66 161s-97.667 66 -161 66h-86v-18h86c57.333 0 106.5 -20.5 147.5 -61.5s61.5 -90.167 61.5 -147.5c0 -78.667 -34 -138.667 -102 -180zM410 373c61.333 40.667 92 95.334 92 164.001c0 52.667 -18.833 97.667 -56.5 135
s-82.5 56 -134.5 56h-86v-18h86c48 0 88.833 -17 122.5 -51s50.5 -74.667 50.5 -122c0 -62.667 -26.667 -111.334 -80 -146.001zM396 407c46.667 32 70 75.333 70 130c0 42.667 -15.167 79.167 -45.5 109.5s-66.833 45.5 -109.5 45.5h-86v-18h86c38 0 70.333 -13.5 97 -40.5
s40 -59.167 40 -96.5c0 -46.667 -19.333 -84 -58 -112zM383 442c31.333 24 47 55.667 47 95c0 32.667 -11.667 60.667 -35 84s-51.333 35 -84 35h-86v-18h86c28 0 51.833 -9.83301 71.5 -29.5s29.5 -43.5 29.5 -71.5c0 -35.333 -12 -61 -36 -77zM117 782v-782h-18v782h18z
M153 782v-782h-18v782h18zM189 782v-782h-18v782h18zM81 782v-782h-18v782h18z" />
    <glyph glyph-name="s" unicode="s" horiz-adv-x="489" 
d="M481 636c-16.667 40.667 -43.167 73.6641 -79.5 98.9971s-76.833 38 -121.5 38c-58.667 0 -109.334 -21.167 -152.001 -63.5s-64 -93.166 -64 -152.499c0 -56 18.833 -104.167 56.5 -144.5s84.167 -63.166 139.5 -68.499c29.333 -2.66699 53.333 -13.834 72 -33.501
s28 -43.5 28 -71.5c0 -28.667 -10 -53.167 -30 -73.5s-44.333 -30.5 -73 -30.5c-42.667 0 -73.667 20 -93 60l15 9c14 -34 40 -51 78 -51c23.333 0 43.333 8.5 60 25.5s25 37.167 25 60.5c0 22.667 -8 42.334 -24 59.001s-35.333 26 -58 28
c-59.333 4.66699 -109.666 29.167 -150.999 73.5s-62 96.833 -62 157.5c0 64.667 22.667 119.834 68 165.501s100.333 68.5 165 68.5c48 0 91.5 -13.5 130.5 -40.5s67.5 -61.833 85.5 -104.5zM418 599.997c-9.33301 30 -26.668 54.332 -52.001 72.999s-54 28 -86 28
c-39.333 0 -73.166 -14.167 -101.499 -42.5s-42.5 -62.166 -42.5 -101.499c0 -37.333 12.667 -69.666 38 -96.999s56.333 -42.666 93 -45.999c48 -4 87.5 -22.5 118.5 -55.5s46.5 -72.833 46.5 -119.5c0 -48 -17.167 -89.333 -51.5 -124s-75.5 -52 -123.5 -52
c-32.667 0 -62.667 8.16699 -90 24.5s-48.333 38.166 -63 65.499l15 10c30 -54.667 76 -82 138 -82c43.333 0 80.333 15.5 111 46.5s46 68.167 46 111.5c0 41.333 -14.5 77.166 -43.5 107.499s-63.833 47.166 -104.5 50.499s-75.334 20.333 -104.001 51s-43 67 -43 109
c0 44.667 15.667 82.834 47 114.501s69.333 47.5 114 47.5c34.667 0 65.834 -10.333 93.501 -31s47.167 -47 58.5 -79zM350.998 560.996c-1.33301 18.667 -8.83105 34.667 -22.498 48s-29.834 20 -48.501 20c-19.333 0 -36 -7.16699 -50 -21.5s-21 -31.166 -21 -50.499
s6.5 -35.833 19.5 -49.5s28.833 -21.167 47.5 -22.5c62 -4.66699 115 -29.667 159 -75c46 -48 69 -105 69 -171c0 -68 -24.167 -126.167 -72.5 -174.5s-106.5 -72.5 -174.5 -72.5c-44 0 -84.833 10.833 -122.5 32.5s-67.834 50.834 -90.501 87.501l16 10
c44 -74.667 109.667 -112 197 -112c63.333 0 117.333 22.333 162 67s67 98.667 67 162c0 62 -20.667 114.333 -62 157s-91.333 66.667 -150 72c-24.667 2 -44.834 11.333 -60.501 28s-23.5 37 -23.5 61c0 25.333 8.83301 46.666 26.5 63.999s38.834 26 63.501 26
c22 0 41.5 -7.33301 58.5 -22s27.167 -32.334 30.5 -53.001zM385 580.996c-4.66699 24 -17 44 -37 60s-42.667 24 -68 24c-29.333 0 -54.666 -10.667 -75.999 -32s-32 -46.666 -32 -75.999c0 -28 9.5 -52.167 28.5 -72.5s42.833 -31.833 71.5 -34.5
c54 -4.66699 100.167 -26.834 138.5 -66.501s57.5 -87.834 57.5 -144.501c0 -58 -20.667 -107.833 -62 -149.5s-91 -62.5 -149 -62.5c-78 0 -139 35 -183 105l15 11c16.667 -29.333 40 -53 70 -71s62.667 -27 98 -27c53.333 0 98.833 19 136.5 57s56.5 83.667 56.5 137
c0 51.333 -17 95.166 -51 131.499s-77 56.833 -129 61.5c-32 3.33301 -59.167 17 -81.5 41s-33.5 52 -33.5 84c0 34.667 12.167 64.334 36.5 89.001s53.833 37 88.5 37c28.667 0 54.167 -8.66699 76.5 -26s37.166 -39.666 44.499 -66.999zM449 616.996
c-12 35.333 -33.668 64.1631 -65.001 86.4961s-66 33.5 -104 33.5c-49.333 0 -91.666 -17.667 -126.999 -53s-53 -77.666 -53 -126.999c0 -46.667 15.833 -87 47.5 -121s70.167 -53 115.5 -57c37.333 -3.33301 68.833 -18.166 94.5 -44.499s38.5 -58.166 38.5 -95.499
c0 -38.667 -13.5 -71.667 -40.5 -99s-59.833 -41 -98.5 -41c-57.333 0 -98.333 24.667 -123 74l15 11c22.667 -44.667 58.667 -67 108 -67c33.333 0 61.833 12 85.5 36s35.5 52.667 35.5 86c0 32 -11.167 59.833 -33.5 83.5s-49.833 36.834 -82.5 39.501
c-50 4 -92.167 24.667 -126.5 62s-51.5 81.666 -51.5 132.999c0 54.667 19 101.334 57 140.001s84.333 58 139 58c42 0 79.667 -11.833 113 -35.5s57 -54.5 71 -92.5z" />
    <glyph glyph-name="t" unicode="t" horiz-adv-x="531" 
d="M55 782h478v-18h-478v18zM55 746h478v-18h-478v18zM55 710h478v-18h-478v18zM55 674h478v-18h-478v18zM249 621h-17v-621h-18v621h-159v17h478v-17h-158v-621h-18v621h-18v-621h-18v621h-18v-621h-18v621h-18v-621h-18v621z" />
    <glyph glyph-name="u" unicode="u" horiz-adv-x="641" 
d="M641 280c0 -79.333 -28.167 -147.166 -84.5 -203.499s-124.5 -84.5 -204.5 -84.5s-148.167 28.167 -204.5 84.5s-84.5 124.166 -84.5 203.499v502h18v-502c0 -74.667 26.5 -138.334 79.5 -191.001s116.833 -79 191.5 -79s138.5 26.333 191.5 79
s79.5 116.334 79.5 191.001v502h18v-502zM605 280c0 -69.333 -24.667 -128.833 -74 -178.5s-109 -74.5 -179 -74.5s-129.667 24.833 -179 74.5s-74 109.167 -74 178.5v502h18v-502c0 -64.667 23 -120 69 -166s101.333 -69 166 -69c65.333 0 120.833 23 166.5 69
s68.5 101.333 68.5 166v502h18v-502zM569 280c0 -59.333 -21.333 -110.333 -64 -153s-93.667 -64 -153 -64s-110.333 21.333 -153 64s-64 93.667 -64 153v502h18v-502c0 -54.667 19.333 -101.5 58 -140.5s85.667 -58.5 141 -58.5c54.667 0 101.5 19.5 140.5 58.5
s58.5 85.833 58.5 140.5v502h18v-502zM533 280c0 -49.333 -17.833 -91.833 -53.5 -127.5s-78.167 -53.5 -127.5 -53.5s-91.833 17.833 -127.5 53.5s-53.5 78.167 -53.5 127.5v502h18v-502c0 -44.667 16 -83 48 -115s70.333 -48 115 -48c45.333 0 83.833 16 115.5 48
s47.5 70.333 47.5 115v502h18v-502zM497 280c0 -40 -14.167 -74.167 -42.5 -102.5s-62.5 -42.5 -102.5 -42.5s-74.167 14.167 -102.5 42.5s-42.5 62.5 -42.5 102.5v502h18v-502c0 -34.667 12.5 -64.5 37.5 -89.5s54.833 -37.5 89.5 -37.5c35.333 0 65.333 12.5 90 37.5
s37 54.833 37 89.5v502h18v-502z" />
    <glyph glyph-name="v" unicode="v" horiz-adv-x="768" 
d="M439 156l9 -25l236 651h19l-245 -677l9 -27l255 704h19l-264 -731l9 -26l275 757h19l-284 -782h-19l-282 782h19l196 -545l197 545h20l-207 -573l9 -25l216 598h19zM99 782l283 -782h-19l-283 782h19zM137 782l284 -782h-19l-285 782h20zM175 782l284 -782h-20l-283 782
h19zM61 782l283 -782h-19l-283 782h19z" />
    <glyph glyph-name="w" unicode="w" horiz-adv-x="1191" 
d="M174 782l223 -782h-18l-225 782h20zM549 782h19l-200 -545l8 -31l211 576h20l-222 -604l8 -29l233 633h19l-243 -663l8 -29l253 692h20l-264 -723l8 -29l275 752h19l174 -511l145 511h19l-153 -542l10 -31l161 573h19l-169 -602l10 -30l178 632h18l-186 -661l10 -30
l195 691h19l-204 -723l11 -29l212 752h18l-220 -782h-19l-258 754l-9 -26l247 -728h-19l-239 699l-9 -27l230 -672h-19l-221 647l-10 -26l212 -621h-20l-202 592l-9 -26l192 -566h-19l-184 539l-196 -539h-18l-226 782h19l148 -516zM136 782l226 -782h-20l-224 782h18z
M99 782l224 -782h-19l-224 782h19zM61 782l225 -782h-19l-224 782h18z" />
    <glyph glyph-name="x" unicode="x" horiz-adv-x="668" 
d="M396 499l11 -18l170 301h21l-180 -319l9 -19l191 338h20l-200 -356l10 -19l212 375h21l-222 -392l220 -390h-21l-443 782h22l129 -228l129 228h21l-140 -246l10 -19l150 265h21zM334 280l-9 18l-170 -298h-21l180 316l-11 18l-190 -334h-20l200 353l-10 18l-210 -371h-21
l221 390l-223 392h21l442 -782h-19l-129 226l-128 -226h-19l137 243l-10 19l-148 -262h-22zM112 782l443 -782h-21l-442 782h20zM153 782l443 -782h-21l-443 782h21zM195 782l442 -782h-20l-444 782h22z" />
    <glyph glyph-name="y" unicode="y" horiz-adv-x="690" 
d="M441 281l-241 501h19l159 -332l159 332h19l-169 -352l9 -18l179 370h19l-189 -389l9 -19l198 408h19l-208 -427l9 -18l218 445h19l-228 -464l9 -18l239 482h19l-249 -501v-281h-18v281zM423 0h-18v281l-243 501h19l242 -501v-281zM387 0h-18v281l-244 501h19l243 -501
v-281zM351 0h-18v281l-246 501h19l245 -501v-281zM315 0h-18v281l-249 501h19l248 -501v-281z" />
    <glyph glyph-name="z" unicode="z" horiz-adv-x="618" 
d="M59 782h549l-9 -18h-540v18zM59 746h532l-9 -18h-523v18zM59 710h514l-9 -18h-505v18zM59 674h497l-9 -18h-488v18zM510 621h-21l-302 -621h-20l302 621h-19l-303 -621h-19l302 621h-20l-303 -621h-20l302 621h-19l-302 -621h-20l302 621h-291v17h479l-233 -476h313v-18
h-321l-8 -18h329v-18h-338l-8 -18h346v-18h-356l-8 -18h364v-18h-373l-8 -18h381v-18h-411z" />
    <glyph glyph-name="braceleft" unicode="{" horiz-adv-x="525" 
d="M523 796l0.00195312 -51.999c-57.333 -6 -101 -24.333 -131 -55c-18.667 -19.333 -30 -39.333 -34 -60c-0.666992 -6 -1 -29.333 -1 -70v-59c0 -41.333 -2.33301 -71 -7 -89c-8.66699 -34 -27.167 -61.333 -55.5 -82s-83.833 -39 -166.5 -55
c85.333 -12.667 142.666 -31.334 171.999 -56.001c37.333 -31.333 56 -88 56 -170v-52c0 -5.33301 -0.333008 -12.666 -1 -21.999v-22c0 -46 20.333 -83 61 -111c29.333 -20 65.333 -32.333 108 -37v-49c-40 0 -79 4.66699 -117 14
c-52.667 12.667 -91.667 32.334 -117 59.001c-22.667 23.333 -37 49.666 -43 78.999c-2.66699 14.667 -4 43.667 -4 87v59c0 44 -1 71 -3 81c-7.33301 32 -26.333 57.667 -57 77c-21.333 13.333 -61.333 24.666 -120 33.999v59c71.333 12 118.666 29.667 141.999 53
c25.333 26 38 73.333 38 142v54c0 48.667 3.33301 83.667 10 105c12 40 37.667 71.333 77 94c44.667 26 109 40.667 193 44z" />
    <glyph glyph-name="bar" unicode="|" horiz-adv-x="144" 
d="M143 -77h-80v931h80v-931z" />
    <glyph glyph-name="braceright" unicode="}" horiz-adv-x="525" 
d="M63 796c34 -0.666992 70.665 -5.66797 109.998 -15.001c56.667 -14 96.667 -32.833 120 -56.5s38 -50.167 44 -79.5c3.33301 -16 5 -46.667 5 -92v-65c0 -69.333 19 -118 57 -146c22.667 -16.667 64.334 -30.334 125.001 -41.001v-59
c-64.667 -7.33301 -109.334 -21.666 -134.001 -42.999c-30 -26 -45 -70.333 -45 -133v-70c0 -54 -4.66699 -93 -14 -117c-13.333 -36.667 -42.333 -66.334 -87 -89.001c-37.333 -18.667 -97.666 -31 -180.999 -37v51c64.667 7.33301 109 26.333 133 57
c20.667 26.667 31 71.334 31 134.001v52c0 84 20.667 141.667 62 173c32.667 24.667 88.334 42.334 167.001 53.001c-87.333 15.333 -145.333 35.333 -174 60c-36.667 32 -55 89.667 -55 173v56c0 44 -2 72.667 -6 86c-9.33301 30 -33 54.667 -71 74
c-22 11.333 -51 19 -87 23v51z" />
    <glyph glyph-name="asciitilde" unicode="~" horiz-adv-x="467" 
d="M164 940c-37.333 0 -71.001 -5.66699 -101.001 -17v19c37.333 10.667 71 16 101 16c34.667 0 68.834 -5.83301 102.501 -17.5s67.167 -17.5 100.5 -17.5c38 0 72 5.66699 102 17v-19c-33.333 -10.667 -67.333 -16 -102 -16c-33.333 0 -67 5.83301 -101 17.5
s-68 17.5 -102 17.5zM163.999 904c-33.333 0 -67 -6.33301 -101 -19v19c34.667 12 68.334 18 101.001 18c34 0 68 -5.83301 102 -17.5s67.667 -17.5 101 -17.5c30.667 0 64.667 5 102 15v-18c-31.333 -10 -65.333 -15 -102 -15c-33.333 0 -66.833 5.83301 -100.5 17.5
s-67.834 17.5 -102.501 17.5zM366.999 851c43.333 0 77.3311 4.66699 101.998 14v-18c-25.333 -9.33301 -59.333 -14 -102 -14c-33.333 0 -67 5.83301 -101 17.5s-68 17.5 -102 17.5c-32 0 -65.667 -7.33301 -101 -22v20c34.667 13.333 68.334 20 101.001 20
c34.667 0 68.834 -5.83301 102.501 -17.5s67.167 -17.5 100.5 -17.5z" />
    <glyph glyph-name="exclamdown" unicode="&#xa1;" horiz-adv-x="225" 
d="M171 607v175h18v-175h-18zM135 607v175h18v-175h-18zM99 607v175h18v-175h-18zM63 607v175h18v-175h-18zM207 607v175h18v-175h-18zM171 0v558h18v-558h-18zM135 0v558h18v-558h-18zM99 0v558h18v-558h-18zM63 0v558h18v-558h-18zM207 0v558h18v-558h-18z" />
    <glyph glyph-name="cent" unicode="&#xa2;" horiz-adv-x="401" 
d="M315 701c22 0 50.334 -7.99707 85.001 -23.9971l-9 -16c-26 13.333 -51.333 20.666 -76 21.999v-18c18.667 0 42 -7 70 -21l-8 -16c-30 12.667 -50.667 19 -62 19v-18c16 -0.666992 34.333 -7 55 -19l-7 -16c-16 9.33301 -32 15 -48 17v-18
c17.333 -4 30.666 -9.33301 39.999 -16l-6 -17c-12 8 -23.333 12.667 -34 14v-182c12.667 2.66699 26 9 40 19l8 -17c-14.667 -10.667 -30.667 -17.334 -48 -20.001v-18c16 2.66699 34.333 9.66699 55 21l7 -15c-18.667 -13.333 -39.334 -21.333 -62.001 -24v-18
c27.333 3.33301 50.666 11.666 69.999 24.999l7 -17c-22.667 -14 -48.334 -22.667 -77.001 -26v-18c30 2 58 11 84 27l7 -16c-29.333 -17.333 -59.666 -27 -90.999 -29v-19c37.333 4 70 14.333 98 31l8 -17c-31.333 -17.333 -66.666 -28 -105.999 -32v-31h-18v579h18v-40
c35.333 0 68 -9.33301 98 -28l-7 -16c-31.333 17.333 -61.666 26 -90.999 26v-18zM225.001 541.003c-14 -17.333 -21 -36.668 -21 -58.001s7 -40.666 21 -57.999v116zM225.001 399.001c-26 22.667 -39 50.668 -39 84.001c0 35.333 13 63.666 39 84.999v22
c-38 -26 -57 -61.667 -57 -107c0 -46 19 -81.333 57 -106v22zM225.001 356.002c-50 29.333 -75.001 71.665 -75.001 126.998c0 56.667 25 99.334 75 128.001v20c-28 -13.333 -50.5 -33.166 -67.5 -59.499s-25.5 -55.833 -25.5 -88.5c0 -32 8.83301 -61.667 26.5 -89
s39.834 -47 66.501 -59v21zM225 316.001c-32 13.333 -58.499 35.3311 -79.499 65.998s-31.5 64.334 -31.5 101.001s10.167 70.334 30.5 101.001s47.166 53 80.499 67v20c-38 -14.667 -69 -39.167 -93 -73.5s-36 -72.5 -36 -114.5s12 -80 36 -114s55 -58.333 93 -73v20z
M225.001 276.999c-43.333 16 -78.499 42.666 -105.499 79.999s-40.5 79.333 -40.5 126s14 89.5 42 128.5s62.667 64.833 104 77.5v19c-46.667 -13.333 -85.834 -41.166 -117.501 -83.499s-47.5 -89.5 -47.5 -141.5s15.5 -98.5 46.5 -139.5s70.5 -69.167 118.5 -84.5v18z
M243.002 197.998l-18 -0.00195312v42c-53.333 15.333 -97 45.333 -131 90s-51 95.667 -51 153c0 56.667 17.167 107.834 51.5 153.501s77.833 75.834 130.5 90.501v50h18v-579zM279.002 776.996v-579h-18v579h18z" />
    <glyph glyph-name="sterling" unicode="&#xa3;" horiz-adv-x="581" 
d="M578 718c-40.667 36.667 -89.999 54.998 -147.999 54.998c-53.333 0 -100.833 -16.833 -142.5 -50.5s-68.5 -76.167 -80.5 -127.5l-43 -184h18l42 181c10.667 46.667 35.334 85.5 74.001 116.5s82.667 46.5 132 46.5c55.333 0 101 -17 137 -51l-11 -15
c-36 32 -78 48 -126 48c-44.667 0 -84.667 -14.167 -120 -42.5s-58 -63.833 -68 -106.5l-41 -177h18l40 173c8.66699 38.667 29.167 70.834 61.5 96.501s68.833 38.5 109.5 38.5c46.667 0 85 -15 115 -45l-9 -13c-32.667 26.667 -68 40 -106 40
c-37.333 0 -70.166 -11.5 -98.499 -34.5s-46.5 -52.167 -54.5 -87.5l-39 -168h18l38 166c6.66699 29.333 23.167 54.333 49.5 75s55.166 31 86.499 31c36.667 0 68.334 -12.333 95.001 -37l-11 -15c-22.667 22.667 -50.667 34 -84 34c-28.667 0 -54 -8.66699 -76 -26
s-36 -39.666 -42 -66.999l-37 -161h18l36 157c5.33301 22.667 17.666 41.5 36.999 56.5s40.666 22.5 63.999 22.5c30 0 54.333 -10.333 73 -31l-10 -15c-20.667 18.667 -41.667 28 -63 28c-20 0 -37.667 -6.33301 -53 -19s-25.333 -28.667 -30 -48l-35 -151h182v-18h-426v18
h77l44 189c12.667 55.333 41.667 101 87 137s96.666 54 153.999 54c36 0 71 -7.66699 105 -23c23.333 -11.333 41 -23 53 -35zM68.001 374.998h426v-18h-426v18zM254.001 161.998h316v-18h-486l41 177h-57v18h426v-18h-203zM106.001 161.998h19l36 159h-17zM143.001 161.998
h18l37 159h-18zM180.001 161.998h18l37 159h-18zM217.001 161.998h18l37 159h-18zM62.001 53.998h508v-18h-511zM71.001 89.998h499v-18h-503zM79.001 125.998h491v-18h-495zM55.001 17.998h515v-18h-520z" />
    <glyph glyph-name="dieresis" unicode="&#xa8;" horiz-adv-x="396" 
d="M117 967v-133h-18v133h18zM153 967v-133h-18v133h18zM189 967v-133h-18v133h18zM81 967v-133h-18v133h18zM322 967v-133h-18v133h18zM358 967v-133h-18v133h18zM394 967v-133h-18v133h18zM286 967v-133h-18v133h18z" />
    <glyph glyph-name="ordfeminine" unicode="&#xaa;" horiz-adv-x="1000" 
 />
    <glyph glyph-name="twosuperior" unicode="&#xb2;" horiz-adv-x="292" 
d="M49 415h237v-8h-245zM61 432h225v-8h-232zM73 450h213v-8h-219zM86 467h200v-8h-207zM210 637c6 8 9.00098 17.001 9.00098 27.001c0 12 -4.33301 22.5 -13 31.5s-19.334 13.5 -32.001 13.5c-12 0 -22.333 -4.5 -31 -13.5s-13 -19.5 -13 -31.5c0 -16 7 -28.333 21 -37
l-5 -6c-16 8.66699 -24 23 -24 43c0 14.667 5 27.334 15 38.001s22.333 16 37 16s27.334 -5.33301 38.001 -16s16 -23.334 16 -38.001c0 -11.333 -3.33301 -21.666 -10 -30.999l-109 -149h10l106 145c8 10.667 12 22.334 12 35.001c0 17.333 -6.16699 32 -18.5 44
s-27.166 18 -44.499 18c-16.667 0 -31 -6 -43 -18s-18 -26.667 -18 -44c0 -22 9.33301 -39 28 -51l-6 -7c-20.667 12.667 -31 32 -31 58c0 19.333 6.83301 36 20.5 50s30.167 21 49.5 21c20 0 36.833 -7 50.5 -21s20.5 -30.667 20.5 -50c0 -16 -4 -29.333 -12 -40l-103 -140
h12l98 135c9.33301 12.667 14 27.667 14 45c0 22 -7.83301 40.667 -23.5 56s-34.5 23 -56.5 23c-21.333 0 -39.833 -7.66699 -55.5 -23s-23.5 -34 -23.5 -56c0 -26.667 11.667 -48.667 35 -66l-5 -6c-25.333 18.667 -38 42.667 -38 72c0 24 8.66699 44.667 26 62
s37.666 26 60.999 26c24.667 0 45.5 -8.66699 62.5 -26s25.5 -38 25.5 -62c0 -18.667 -5.33301 -35.334 -16 -50.001l-94 -130h10l93 126c10.667 14.667 16 32.667 16 54c0 27.333 -9.33301 50.333 -28 69s-41.667 28 -69 28c-26 0 -48.5 -9.5 -67.5 -28.5
s-28.5 -41.833 -28.5 -68.5c0 -32.667 13.667 -59 41 -79l-4 -7c-30 22 -45 50.667 -45 86c0 29.333 10.167 54.333 30.5 75s44.833 31 73.5 31c29.333 0 54.166 -10.333 74.499 -31s30.5 -45.667 30.5 -75c0 -22 -6 -41.333 -18 -58l-88 -122h11l84 116
c14 19.333 21 40.666 21 63.999c0 31.333 -11.333 58.166 -34 80.499s-49.667 33.5 -81 33.5c-30.667 0 -57.167 -11.167 -79.5 -33.5s-33.5 -49.166 -33.5 -80.499c0 -40.667 16.333 -71.334 49 -92.001l-5 -8c-34.667 24 -52 57.333 -52 100c0 34 11.833 62.833 35.5 86.5
s52.167 35.5 85.5 35.5c34 0 62.833 -11.833 86.5 -35.5s35.5 -52.5 35.5 -86.5c0 -26 -6.66699 -48.333 -20 -67l-81 -113h91v-8h-194z" />
    <glyph glyph-name="threesuperior" unicode="&#xb3;" horiz-adv-x="288" 
d="M134 611v10.001h21c12.667 0 23.334 4.16699 32.001 12.5s13 18.5 13 30.5s-4.33301 22.5 -13 31.5s-19.334 13.5 -32.001 13.5c-22.667 0 -37 -11.333 -43 -34l-7 8c9.33301 23.333 26 35 50 35c14.667 0 27.167 -5.33301 37.5 -16s15.5 -23.334 15.5 -38.001
s-5.16699 -27.167 -15.5 -37.5s-22.833 -15.5 -37.5 -15.5h-21zM134 603.001h21c17.333 0 32 6 44 18s18 26.333 18 43c0 17.333 -6 32 -18 44s-26.667 18 -44 18c-25.333 0 -44.333 -12.333 -57 -37l-6 7c13.333 26 34.333 39 63 39c19.333 0 35.833 -7 49.5 -21
s20.5 -30.667 20.5 -50c0 -30.667 -15 -52.667 -45 -66c32.667 -11.333 49 -34.333 49 -69c0 -20.667 -7 -38.167 -21 -52.5s-31.667 -21.5 -53 -21.5c-34 0 -56.667 15 -68 45l7 6c10 -28.667 30.333 -43 61 -43c18 0 33.5 6.5 46.5 19.5s19.5 28.5 19.5 46.5
c0 17.333 -6.5 32.5 -19.5 45.5s-28.5 19.5 -46.5 19.5h-21v9zM108 520.001c1.33301 -10.667 6.66797 -19.832 16.001 -27.499s19.666 -11.5 30.999 -11.5c13.333 0 24.666 4.66699 33.999 14s14 20.666 14 33.999s-4.66699 24.666 -14 33.999s-20.666 14 -33.999 14h-21v9
h21c15.333 0 28.5 -5.66699 39.5 -17s16.5 -24.666 16.5 -39.999c0 -16 -5.5 -29.667 -16.5 -41s-24.167 -17 -39.5 -17c-28.667 0 -47 14 -55 42zM248.002 600.003c13.333 19.333 20.001 40.668 20.001 64.001c0 31.333 -11 58.166 -33 80.499s-48.667 33.5 -80 33.5
c-40.667 0 -72.667 -17.667 -96 -53l-6 7c22.667 36 56.667 54 102 54c34 0 62.833 -11.833 86.5 -35.5s35.5 -52.5 35.5 -86.5c0 -22 -6 -43.667 -18 -65c14.667 -18.667 22 -42 22 -70c0 -34.667 -12.333 -64.334 -37 -89.001s-54.334 -37 -89.001 -37
c-47.333 0 -83 20 -107 60l6 6c22 -38.667 55.667 -58 101 -58c32.667 0 60.5 11.5 83.5 34.5s34.5 50.833 34.5 83.5c0 22.667 -8.33301 46.334 -25 71.001zM226.003 599.005c17.333 18.667 26 40.333 26 65c0 26.667 -9.5 49.5 -28.5 68.5s-41.833 28.5 -68.5 28.5
c-35.333 0 -63 -15.667 -83 -47l-5 5c19.333 34 48.666 51 87.999 51c28.667 0 53.334 -10.5 74.001 -31.5s31 -45.833 31 -74.5c0 -24 -7.66699 -45.667 -23 -65c17.333 -19.333 26 -42.666 26 -69.999c0 -30 -10.5 -55.667 -31.5 -77s-46.5 -32 -76.5 -32
c-42 0 -73.667 18.333 -95 55l7 7c18.667 -35.333 48 -53 88 -53c27.333 0 50.833 9.83301 70.5 29.5s29.5 43.167 29.5 70.5s-9.66699 50.666 -29 69.999zM214.003 598.004c21.333 -14.667 31.999 -37.667 31.999 -69c0 -24.667 -8.83301 -46 -26.5 -64
s-39.167 -27 -64.5 -27c-35.333 0 -62.666 16.333 -81.999 49l7 7c14.667 -32 39.667 -48 75 -48c23.333 0 43 8.16699 59 24.5s24 35.833 24 58.5c0 32 -13 55 -39 69c24 15.333 36 37.333 36 66c0 22 -7.83301 40.667 -23.5 56s-34.5 23 -56.5 23
c-32 0 -55.333 -14 -70 -42l-7 6c18 30 43.667 45 77 45c24 0 44.667 -8.66699 62 -26s26 -38 26 -62c0 -24.667 -9.66699 -46.667 -29 -66z" />
    <glyph glyph-name="acute" unicode="&#xb4;" horiz-adv-x="326" 
d="M278 974l-138 -140h-26l139 140h25zM227 974l-139 -140h-26l140 140h25zM329 974l-139 -140h-25l138 140h26z" />
    <glyph glyph-name="cedilla" unicode="&#xb8;" horiz-adv-x="458" 
d="M307 -31l-124 -123l-13 12l124 124zM332 -56l-124 -124l-12 13l123 124zM281 -5l-123 -124l-13 13l123 123z" />
    <glyph glyph-name="onesuperior" unicode="&#xb9;" horiz-adv-x="249" 
d="M165 782v-375h-10v375h10zM182 782v-375h-9v375h9zM199 782v-375h-9v375h9zM216 782v-375h-9v375h9zM138 690l-61 -37l-4 8l65 40v10l-69 -43l-6 6l75 48v10l-79 -50l-4 7l83 53v10l-87 -55l-6 7l93 58v11l-97 -62l-4 8l101 63h9v-375h-9v283z" />
    <glyph glyph-name="ordmasculine" unicode="&#xba;" horiz-adv-x="323" 
d="M49 648c0 38 13.333 70.5 40 97.5s59.334 40.5 98.001 40.5c38 0 70.667 -13.5 98 -40.5s41 -59.5 41 -97.5v-107c0 -38 -13.667 -70.5 -41 -97.5s-60 -40.5 -98 -40.5c-38.667 0 -71.334 13.5 -98.001 40.5s-40 59.5 -40 97.5v107zM57 541
c0 -35.333 12.667 -65.833 38 -91.5s56 -38.5 92 -38.5s66.667 12.833 92 38.5s38 56.167 38 91.5v107c0 36 -12.667 66.667 -38 92s-56 38 -92 38s-66.667 -12.667 -92 -38s-38 -56 -38 -92v-107zM82 648c0 28.667 10.333 53.167 31 73.5s45.334 30.5 74.001 30.5
s53.167 -10.167 73.5 -30.5s30.5 -44.833 30.5 -73.5v-107c0 -28.667 -10.167 -53 -30.5 -73s-44.833 -30 -73.5 -30s-53.334 10 -74.001 30s-31 44.333 -31 73v107zM92 541c0 -26 9.16699 -48.333 27.5 -67s40.833 -28 67.5 -28c26 0 48.333 9.16699 67 27.5
s28 40.833 28 67.5v107c0 26.667 -9.33301 49.167 -28 67.5s-41 27.5 -67 27.5c-26.667 0 -49.167 -9.33301 -67.5 -28s-27.5 -41 -27.5 -67v-107zM117 648c0 19.333 6.83301 35.833 20.5 49.5s30.167 20.5 49.5 20.5s35.833 -6.83301 49.5 -20.5s20.5 -30.167 20.5 -49.5
v-107c0 -19.333 -6.83301 -35.833 -20.5 -49.5s-30.167 -20.5 -49.5 -20.5s-35.833 6.83301 -49.5 20.5s-20.5 30.167 -20.5 49.5v107zM126 541c0 -16.667 6 -30.834 18 -42.501s26.333 -17.5 43 -17.5s30.834 5.83301 42.501 17.5s17.5 25.834 17.5 42.501v107
c0 17.333 -5.83301 31.833 -17.5 43.5s-25.834 17.5 -42.501 17.5s-31 -5.83301 -43 -17.5s-18 -26.167 -18 -43.5v-107zM100 648c0 24 8.66699 44.5 26 61.5s37.666 25.5 60.999 25.5c24 0 44.5 -8.5 61.5 -25.5s25.5 -37.5 25.5 -61.5v-107
c0 -23.333 -8.5 -43.5 -25.5 -60.5s-37.5 -25.5 -61.5 -25.5c-23.333 0 -43.666 8.5 -60.999 25.5s-26 37.167 -26 60.5v107zM109 541c0 -21.333 7.66699 -39.666 23 -54.999s33.666 -23 54.999 -23s39.666 7.66699 54.999 23s23 33.666 23 54.999v107
c0 21.333 -7.66699 39.666 -23 54.999s-33.666 23 -54.999 23s-39.666 -7.66699 -54.999 -23s-23 -33.666 -23 -54.999v-107zM74 541c0 -30.667 11 -57 33 -79s48.667 -33 80 -33c30.667 0 57 11 79 33s33 48.333 33 79v107c0 31.333 -11 58 -33 80s-48.333 33 -79 33
s-57.167 -11 -79.5 -33s-33.5 -48.667 -33.5 -80v-107zM66 648c0 34 11.667 62.833 35 86.5s52 35.5 86 35.5c33.333 0 62 -12 86 -36s36 -52.667 36 -86v-107c0 -33.333 -12 -61.833 -36 -85.5s-52.667 -35.5 -86 -35.5c-34 0 -62.667 11.833 -86 35.5s-35 52.167 -35 85.5
v107z" />
    <glyph glyph-name="questiondown" unicode="&#xbf;" horiz-adv-x="383" 
d="M339 616v175h18v-175h-18zM303 616v175h18v-175h-18zM267 616v175h18v-175h-18zM231 616v175h18v-175h-18zM375 616v175h18v-175h-18zM393 33l-0.00195312 -18.002c-35.333 -10 -68.666 -15 -99.999 -15c-63.333 0 -117.5 22.167 -162.5 66.5s-67.5 97.833 -67.5 160.5
c0 45.333 12.333 87 37 125c22.667 34.667 52.334 61.334 89.001 80.001c28 14.667 42 39 42 73v66h18v-66c0 -42 -17.167 -71.5 -51.5 -88.5s-61.833 -41.833 -82.5 -74.5c-22.667 -35.333 -34 -73.666 -34 -114.999c0 -58 20.667 -107.333 62 -148s91.333 -61 150 -61
c30 0 63.333 5 100 15zM392.998 70.998l-0.000976562 -19.001c-35.333 -10.667 -68.666 -16 -99.999 -16c-54 0 -99.833 18.5 -137.5 55.5s-56.5 82.167 -56.5 135.5c0 46.667 15.333 88.334 46 125.001c22 25.333 41.667 41.333 59 48c10 4 21.667 13.667 35 29
c18.667 22.667 28 48 28 76v66h18v-66c0 -56 -24.333 -96.667 -73 -122c-63.333 -33.333 -95 -85.333 -95 -156c0 -48 17.167 -88.833 51.5 -122.5s75.833 -50.5 124.5 -50.5c30.667 0 64 5.66699 100 17zM392.997 107.997l0.00195312 -19.001
c-36 -11.333 -69.333 -17 -100 -17c-44 0 -81.333 15 -112 45s-46 66.667 -46 110c0 28 7.66699 55.333 23 82s35.666 46 60.999 58c18 8.66699 34.667 22 50 40c22.667 28 34 60.667 34 98v66h18v-66c0 -41.333 -13 -78 -39 -110c-18 -22 -35.833 -36.833 -53.5 -44.5
s-33.834 -21.5 -48.501 -41.5c-18 -25.333 -27 -52.666 -27 -81.999c0 -38 13.667 -70.333 41 -97s60.333 -40 99 -40c34.667 0 68 6 100 18zM392.999 143.996v-18c-29.333 -12 -62.666 -18 -99.999 -18c-34 0 -62.833 11.5 -86.5 34.5s-35.5 51.167 -35.5 84.5
c0 46.667 21.333 82 64 106c22.667 12.667 42.667 29.667 60 51c29.333 36 44 76.333 44 121v66h18v-66c0 -50 -15.667 -94.333 -47 -133c-20.667 -24.667 -43.334 -43 -68.001 -55c-35.333 -17.333 -53 -47.333 -53 -90c0 -28.667 10 -52.667 30 -72s44.667 -29 74 -29
c38.667 0 72 6 100 18zM392.999 178.996v-18c-23.333 -11.333 -56.666 -17 -99.999 -17c-24 0 -44.333 8 -61 24s-25 35.667 -25 59c0 18 5.33301 34.667 16 50c8.66699 12.667 17.667 21 27 25c24.667 10.667 49 30.334 73 59.001c34.667 42 52 90 52 144v66h18v-66
c0 -58.667 -18.667 -110.334 -56 -155.001c-24 -28.667 -50.667 -50 -80 -64c-22 -10 -33 -29.667 -33 -59c0 -19.333 6.66699 -35 20 -47s29.666 -18 48.999 -18c40.667 0 74 5.66699 100 17z" />
    <glyph glyph-name="Agrave" unicode="&#xc0;" horiz-adv-x="819" 
d="M302 211l-7 -18h286l-6 18h-273zM316 247l-7 -18h259l-7 18h-245zM540 301l-101 259l-102 -259h203zM331 283l-8 -18h231l-6 18h-217zM596 158l-6 17h-301l-8 -17h315zM275 140l-55 -140h-19l305 782h20l306 -782h-20l-296 758l-10 -24l286 -734h-19l-276 708l-10 -24
l268 -684h-20l-257 660l-10 -25l249 -635h-20l-238 611l-10 -27l228 -584h-19l-54 140h-329zM486 782l-305 -782h-20l306 782h19zM448 782l-305 -782h-20l306 782h19zM410 782l-305 -782h-20l305 782h20zM370 782l-304 -782h-21l306 782h19zM351 974l138 -140h-25l-138 140
h25zM402 974l139 -140h-25l-140 140h26zM300 974l139 -140h-26l-138 140h25z" />
    <glyph glyph-name="Aacute" unicode="&#xc1;" horiz-adv-x="819" 
d="M302 211l-7 -18h286l-6 18h-273zM316 247l-7 -18h259l-7 18h-245zM540 301l-101 259l-102 -259h203zM331 283l-8 -18h231l-6 18h-217zM596 158l-6 17h-301l-8 -17h315zM275 140l-55 -140h-19l305 782h20l306 -782h-20l-296 758l-10 -24l286 -734h-19l-276 708l-10 -24
l268 -684h-20l-257 660l-10 -25l249 -635h-20l-238 611l-10 -27l228 -584h-19l-54 140h-329zM486 782l-305 -782h-20l306 782h19zM448 782l-305 -782h-20l306 782h19zM410 782l-305 -782h-20l305 782h20zM370 782l-304 -782h-21l306 782h19zM552 974l-139 -140h-25l138 140
h26zM501 974l-139 -140h-26l140 140h25zM603 974l-139 -140h-25l138 140h26z" />
    <glyph glyph-name="Acircumflex" unicode="&#xc2;" horiz-adv-x="819" 
d="M302 211l-7 -18h286l-6 18h-273zM316 247l-7 -18h259l-7 18h-245zM540 301l-101 259l-102 -259h203zM331 283l-8 -18h231l-6 18h-217zM596 158l-6 17h-301l-8 -17h315zM275 140l-55 -140h-19l305 782h20l306 -782h-20l-296 758l-10 -24l286 -734h-19l-276 708l-10 -24
l268 -684h-20l-257 660l-10 -25l249 -635h-20l-238 611l-10 -27l228 -584h-19l-54 140h-329zM486 782l-305 -782h-20l306 782h19zM448 782l-305 -782h-20l306 782h19zM410 782l-305 -782h-20l305 782h20zM370 782l-304 -782h-21l306 782h19zM392 974l-139 -140h-26l140 140
h25zM443 974l-139 -140h-25l139 140h25zM456 936l-13 -13l88 -89h-26l-75 76l-75 -76h-25l138 140h26l139 -140h-25l-127 127l-13 -13l113 -114h-25z" />
    <glyph glyph-name="Atilde" unicode="&#xc3;" horiz-adv-x="819" 
d="M302 211l-7 -18h286l-6 18h-273zM316 247l-7 -18h259l-7 18h-245zM540 301l-101 259l-102 -259h203zM331 283l-8 -18h231l-6 18h-217zM596 158l-6 17h-301l-8 -17h315zM275 140l-55 -140h-19l305 782h20l306 -782h-20l-296 758l-10 -24l286 -734h-19l-276 708l-10 -24
l268 -684h-20l-257 660l-10 -25l249 -635h-20l-238 611l-10 -27l228 -584h-19l-54 140h-329zM486 782l-305 -782h-20l306 782h19zM448 782l-305 -782h-20l306 782h19zM410 782l-305 -782h-20l305 782h20zM370 782l-304 -782h-21l306 782h19zM337 940
c-38 0 -71.333 -5.66699 -100 -17v19c36 10.667 69.333 16 100 16c35.333 0 69.833 -5.83301 103.5 -17.5s66.834 -17.5 99.501 -17.5c37.333 0 71.666 5.66699 102.999 17v-19c-34.667 -10.667 -69 -16 -103 -16c-32.667 0 -66 5.83301 -100 17.5s-68.333 17.5 -103 17.5z
M337 904c-34 0 -67.3311 -6.33301 -99.998 -19v19c33.333 12 66.666 18 99.999 18c34.667 0 69 -5.83301 103 -17.5s67.333 -17.5 100 -17.5c30 0 64.333 5 103 15v-18c-32.667 -10 -67 -15 -103 -15c-32.667 0 -65.834 5.83301 -99.501 17.5s-68.167 17.5 -103.5 17.5z
M540.002 851c44 0 78.332 4.66699 102.999 14v-18c-25.333 -9.33301 -59.666 -14 -102.999 -14c-32.667 0 -66 5.83301 -100 17.5s-68.333 17.5 -103 17.5c-32.667 0 -66 -7.33301 -100 -22v20c33.333 13.333 66.666 20 99.999 20c35.333 0 69.833 -5.83301 103.5 -17.5
s66.834 -17.5 99.501 -17.5z" />
    <glyph glyph-name="Adieresis" unicode="&#xc4;" horiz-adv-x="819" 
d="M302 211l-7 -18h286l-6 18h-273zM316 247l-7 -18h259l-7 18h-245zM540 301l-101 259l-102 -259h203zM331 283l-8 -18h231l-6 18h-217zM596 158l-6 17h-301l-8 -17h315zM275 140l-55 -140h-19l305 782h20l306 -782h-20l-296 758l-10 -24l286 -734h-19l-276 708l-10 -24
l268 -684h-20l-257 660l-10 -25l249 -635h-20l-238 611l-10 -27l228 -584h-19l-54 140h-329zM486 782l-305 -782h-20l306 782h19zM448 782l-305 -782h-20l306 782h19zM410 782l-305 -782h-20l305 782h20zM370 782l-304 -782h-21l306 782h19zM318 967v-133h-18v133h18z
M354 967v-133h-18v133h18zM390 967v-133h-18v133h18zM282 967v-133h-18v133h18zM523 967v-133h-18v133h18zM559 967v-133h-18v133h18zM595 967v-133h-18v133h18zM487 967v-133h-18v133h18z" />
    <glyph glyph-name="Aring" unicode="&#xc5;" horiz-adv-x="819" 
d="M304 211l-7 -18h287l-7 18h-273zM318 247l-7 -18h259l-7 18h-245zM542 301l-101 259l-102 -259h203zM333 283l-7 -18h230l-6 18h-217zM598 158l-6 17h-301l-8 -17h315zM277 140l-55 -140h-19l305 782h21l305 -782h-20l-296 758l-10 -24l286 -734h-19l-276 708l-10 -24
l268 -684h-20l-257 660l-10 -25l249 -635h-20l-238 611l-10 -27l228 -584h-19l-54 140h-329zM488 782l-305 -782h-20l306 782h19zM450 782l-305 -782h-20l306 782h19zM412 782l-305 -782h-20l305 782h20zM372 782l-304 -782h-20l305 782h19zM443 1132
c41.333 0 76.666 -14.665 105.999 -43.998s44 -64.666 44 -105.999c0 -40.667 -14.667 -75.834 -44 -105.501s-64.666 -44.5 -105.999 -44.5s-76.666 14.667 -105.999 44s-44 64.666 -44 105.999s14.667 76.666 44 105.999s64.666 44 105.999 44zM311 982.002
c0 -36.667 12.833 -67.834 38.5 -93.501s56.834 -38.5 93.501 -38.5s67.834 12.833 93.501 38.5s38.5 56.834 38.5 93.501s-12.833 67.834 -38.5 93.501s-56.834 38.5 -93.501 38.5s-67.834 -12.833 -93.501 -38.5s-38.5 -56.834 -38.5 -93.501zM443 1096
c31.333 0 58.166 -11.167 80.499 -33.5s33.5 -49.166 33.5 -80.499s-11.167 -58.166 -33.5 -80.499s-49.166 -33.5 -80.499 -33.5c-32 0 -59 11.167 -81 33.5s-33 49.166 -33 80.499s11 58.166 33 80.499s49 33.5 81 33.5zM347 982.002
c0 -26.667 9.33301 -49.334 28 -68.001s41.334 -28 68.001 -28s49.334 9.33301 68.001 28s28 41.334 28 68.001s-9.33301 49.334 -28 68.001s-41.334 28 -68.001 28s-49.334 -9.33301 -68.001 -28s-28 -41.334 -28 -68.001zM443 1060c21.333 0 39.666 -7.66699 54.999 -23
s23 -33.666 23 -54.999s-7.66699 -39.666 -23 -54.999s-33.666 -23 -54.999 -23s-39.666 7.66699 -54.999 23s-23 33.666 -23 54.999s7.66699 39.666 23 54.999s33.666 23 54.999 23zM383 982.002c0 -16.667 5.83301 -30.834 17.5 -42.501s25.834 -17.5 42.501 -17.5
s30.834 5.83301 42.501 17.5s17.5 25.834 17.5 42.501s-5.83301 30.834 -17.5 42.501s-25.834 17.5 -42.501 17.5s-30.834 -5.83301 -42.501 -17.5s-17.5 -25.834 -17.5 -42.501z" />
    <glyph glyph-name="AE" unicode="&#xc6;" horiz-adv-x="1267" 
d="M310 211l-8 -18h287l-7 18h-272zM323 247l-7 -18h259l-6 18h-246zM548 301l-102 259l-101 -259h203zM338 283l-7 -18h230l-6 18h-217zM604 158l-7 17h-301l-7 -17h315zM837 782l2 -782h-20l-296 758l-9 -24l285 -734h-19l-276 708l-9 -24l267 -684h-20l-257 660l-9 -25
l248 -635h-20l-238 611l-9 -27l227 -584h-19l-54 140h-329l-55 -140h-19l306 782h20l285 -731v731h18zM494 782l-306 -782h-20l307 782h19zM456 782l-306 -782h-20l307 782h19zM418 782l-306 -782h-20l305 782h21zM377 782l-304 -782h-20l305 782h19zM945 782v-782h-18v782
h18zM909 782v-782h-18v782h18zM873 782v-782h-18v782h18zM981 347v-18h217v-18h-217v-149h292v-18h-292v-18h292v-18h-292v-18h292v-18h-292v-18h292v-18h-292v-18h292v-18h-310v782h310v-18h-292v-18h292v-18h-292v-18h292v-18h-292v-18h292v-18h-292v-18h292v-17h-292
v-148h217v-18h-217v-18h217v-18h-217v-18h217v-18h-217v-18h217v-18h-217z" />
    <glyph glyph-name="Ccedilla" unicode="&#xc7;" horiz-adv-x="493" 
d="M497 625c-20 2.66699 -36 4 -48 4c-65.333 0 -121.333 -23.333 -168 -70s-70 -102.667 -70 -168s23.333 -121.333 70 -168s102.667 -70 168 -70c16 0 32 2 48 6v-19c-13.333 -3.33301 -29.333 -5 -48 -5c-70.667 0 -131 25 -181 75s-75 110.333 -75 181s25 131 75 181
s110.333 75 181 75c18 0 34 -1.33301 48 -4v-18zM497 661c-14 2.66699 -30 4 -48 4c-75.333 0 -139.833 -26.833 -193.5 -80.5s-80.5 -118.167 -80.5 -193.5s26.833 -139.833 80.5 -193.5s118.167 -80.5 193.5 -80.5c18.667 0 34.667 1.66699 48 5v-18
c-13.333 -3.33301 -29.333 -5 -48 -5c-80 0 -148.5 28.5 -205.5 85.5s-85.5 125.833 -85.5 206.5s28.5 149.5 85.5 206.5s125.5 85.5 205.5 85.5c18 0 34 -1.33301 48 -4v-18zM497 697c-12.667 2.66699 -28.667 4 -48 4c-85.333 0 -158.166 -30.333 -218.499 -91
s-90.5 -133.667 -90.5 -219s30.167 -158.333 90.5 -219s133.166 -91 218.499 -91c18 0 34 1.33301 48 4v-18c-14 -2.66699 -30 -4 -48 -4c-90.667 0 -167.834 32 -231.501 96s-95.5 141.333 -95.5 232s31.833 168 95.5 232s140.834 96 231.501 96c16 0 32 -1 48 -3v-19z
M497 734c-16 2 -32 3 -48 3c-95.333 0 -176.666 -33.833 -243.999 -101.5s-101 -149.167 -101 -244.5s33.667 -176.833 101 -244.5s148.666 -101.5 243.999 -101.5c10.667 0 26.667 1.33301 48 4v-18c-21.333 -2.66699 -37.333 -4 -48 -4
c-100.667 0 -186.334 35.5 -257.001 106.5s-106 156.833 -106 257.5s35.333 186.5 106 257.5s156.334 106.5 257.001 106.5c16 0 32 -1 48 -3v-18zM421 -31l-124 -123l-13 12l124 124zM446 -56l-124 -124l-12 13l123 124zM395 -5l-123.001 -124l-13 13l116 115
c-93.333 17.333 -170.833 62.833 -232.5 136.5s-92.5 158.834 -92.5 255.501c0 110.667 38.833 205 116.5 283s171.834 117 282.501 117c16 0 32 -1 48 -3v-18c-16 2 -32 3 -48 3c-104.667 0 -194.334 -37.333 -269.001 -112s-112 -164.667 -112 -270
c0 -104.667 37.333 -194.334 112 -269.001s164.334 -112 269.001 -112c16 0 32 1 48 3v-18c-16 -2 -32 -3 -48 -3c-22 0 -40 1 -54 3z" />
    <glyph glyph-name="Egrave" unicode="&#xc8;" horiz-adv-x="513" 
d="M81 782v-782h-18v782h18zM189 782v-782h-18v782h18zM153 782v-782h-18v782h18zM117 782v-782h-18v782h18zM225 347v-18h217v-18h-217v-149h292v-18h-292v-18h292v-18h-292v-18h292v-18h-292v-18h292v-18h-292v-18h292v-18h-310v782h310v-18h-292v-18h292v-18h-292v-18
h292v-18h-292v-18h292v-18h-292v-18h292v-17h-292v-148h217v-18h-217v-18h217v-18h-217v-18h217v-18h-217v-18h217v-18h-217zM266 974l139 -140h-26l-138 140h25zM317 974l140 -140h-26l-139 140h25zM216 974l138 -140h-25l-139 140h26z" />
    <glyph glyph-name="Eacute" unicode="&#xc9;" horiz-adv-x="513" 
d="M81 782v-782h-18v782h18zM189 782v-782h-18v782h18zM153 782v-782h-18v782h18zM117 782v-782h-18v782h18zM225 347v-18h217v-18h-217v-149h292v-18h-292v-18h292v-18h-292v-18h292v-18h-292v-18h292v-18h-292v-18h292v-18h-310v782h310v-18h-292v-18h292v-18h-292v-18
h292v-18h-292v-18h292v-18h-292v-18h292v-17h-292v-148h217v-18h-217v-18h217v-18h-217v-18h217v-18h-217v-18h217v-18h-217zM372 974l-138 -140h-26l139 140h25zM321 974l-139 -140h-26l140 140h25zM423 974l-139 -140h-25l138 140h26z" />
    <glyph glyph-name="Ecircumflex" unicode="&#xca;" horiz-adv-x="513" 
d="M81 782v-782h-18v782h18zM189 782v-782h-18v782h18zM153 782v-782h-18v782h18zM117 782v-782h-18v782h18zM225 347v-18h217v-18h-217v-149h292v-18h-292v-18h292v-18h-292v-18h292v-18h-292v-18h292v-18h-292v-18h292v-18h-310v782h310v-18h-292v-18h292v-18h-292v-18
h292v-18h-292v-18h292v-18h-292v-18h292v-17h-292v-148h217v-18h-217v-18h217v-18h-217v-18h217v-18h-217v-18h217v-18h-217zM255 974l-140 -140h-25l139 140h26zM305 974l-138 -140h-25l138 140h25zM318 936l-13 -13l88 -89h-25l-75 76l-75 -76h-26l139 140h25l140 -140
h-26l-126 127l-13 -13l113 -114h-25z" />
    <glyph glyph-name="Edieresis" unicode="&#xcb;" horiz-adv-x="513" 
d="M81 782v-782h-18v782h18zM189 782v-782h-18v782h18zM153 782v-782h-18v782h18zM117 782v-782h-18v782h18zM225 347v-18h217v-18h-217v-149h292v-18h-292v-18h292v-18h-292v-18h292v-18h-292v-18h292v-18h-292v-18h292v-18h-310v782h310v-18h-292v-18h292v-18h-292v-18
h292v-18h-292v-18h292v-18h-292v-18h292v-17h-292v-148h217v-18h-217v-18h217v-18h-217v-18h217v-18h-217v-18h217v-18h-217zM196 967v-133h-18v133h18zM232 967v-133h-18v133h18zM267 967v-133h-18v133h18zM160 967v-133h-18v133h18zM401 967v-133h-18v133h18zM437 967
v-133h-18v133h18zM473 967v-133h-18v133h18zM365 967v-133h-18v133h18z" />
    <glyph glyph-name="Igrave" unicode="&#xcc;" horiz-adv-x="225" 
d="M117 782v-782h-18v782h18zM153 782v-782h-18v782h18zM189 782v-782h-18v782h18zM225 782v-782h-18v782h18zM81 782v-782h-18v782h18zM76 974l139 -140h-26l-138 140h25zM127 974l139 -140h-25l-140 140h26zM25 974l139 -140h-26l-138 140h25z" />
    <glyph glyph-name="Iacute" unicode="&#xcd;" horiz-adv-x="225" 
d="M117 782v-782h-18v782h18zM153 782v-782h-18v782h18zM189 782v-782h-18v782h18zM225 782v-782h-18v782h18zM81 782v-782h-18v782h18zM245 974l-138 -140h-26l139 140h25zM195 974l-140 -140h-25l139 140h26zM296 974l-138 -140h-26l139 140h25z" />
    <glyph glyph-name="Icircumflex" unicode="&#xce;" horiz-adv-x="225" 
d="M117 782v-782h-18v782h18zM153 782v-782h-18v782h18zM189 782v-782h-18v782h18zM225 782v-782h-18v782h18zM81 782v-782h-18v782h18zM107 974l-140 -140h-25l139 140h26zM158 974l-139 -140h-25l138 140h26zM170 936l-12 -13l87 -89h-25l-75 76l-75 -76h-26l139 140h25
l140 -140h-26l-126 127l-13 -13l113 -114h-25z" />
    <glyph glyph-name="Idieresis" unicode="&#xcf;" horiz-adv-x="225" 
d="M117 782v-782h-18v782h18zM153 782v-782h-18v782h18zM189 782v-782h-18v782h18zM225 782v-782h-18v782h18zM81 782v-782h-18v782h18zM26 967v-133h-18v133h18zM62 967v-133h-18v133h18zM98 967v-133h-18v133h18zM-10 967v-133h-17v133h17zM232 967v-133h-18v133h18z
M267 967v-133h-18v133h18zM303 967v-133h-18v133h18zM196 967v-133h-18v133h18z" />
    <glyph glyph-name="Eth" unicode="&#xd0;" horiz-adv-x="601" 
d="M225 36v-18c103.333 2 191.333 39 264 111s109 159.333 109 262s-36.333 190 -109 262s-160.667 109 -264 111v-18c99.333 -2 183.333 -37 252 -105s103 -151.333 103 -250s-34.333 -182 -103 -250s-152.667 -103 -252 -105zM225 72v-18c94 2 173.667 35.333 239 100
s98 143.667 98 237s-32.667 172.333 -98 237s-145 98 -239 100v-18c89.333 -2 164.833 -33.5 226.5 -94.5s92.5 -135.833 92.5 -224.5c0 -88 -31 -162.667 -93 -224s-137.333 -93 -226 -95zM225 108v-18c84 2 155.167 31.833 213.5 89.5s87.5 128.167 87.5 211.5
s-29.167 153.833 -87.5 211.5s-129.5 87.5 -213.5 89.5v-18c79.333 -2 146.333 -30 201 -84s82 -120.333 82 -199c0 -78 -27.5 -144.167 -82.5 -198.5s-121.833 -82.5 -200.5 -84.5zM225 144v-18c74 2 136.667 28.333 188 79s77 112.667 77 186s-25.667 135.333 -77 186
s-114 77 -188 79v-18c70 -2 128.833 -26.5 176.5 -73.5s71.5 -104.833 71.5 -173.5s-24 -126.5 -72 -173.5s-106.667 -71.5 -176 -73.5zM99 373h-18v-18h18v18zM135 373h-18v-18h18v18zM171 373h-18v-18h18v18zM207 373h-18v-18h18v18zM99 409h-18v-18h18v18zM135 409h-18
v-18h18v18zM171 409h-18v-18h18v18zM207 409h-18v-18h18v18zM99 445h-18v-18h18v18zM135 445h-18v-18h18v18zM171 445h-18v-18h18v18zM207 445h-18v-18h18v18zM225 319l149 -0.000976562v-18h-149v-139c64 2 118.333 24.833 163 68.5s67 97.167 67 160.5
s-22.333 116.833 -67 160.5s-99 66.834 -163 69.501v-158h149v-18h-149v-18h149v-18h-149v-18h149v-18h-149v-18h149v-18h-149v-18zM189 318.999h18v18h-18v-18zM153 318.999h18v18h-18v-18zM117 318.999h18v18h-18v-18zM81 318.999h18v18h-18v-18zM0 318.999h63v18h-63v18
h63v18h-63v18h63v18h-63v18h63v18h-63v18h63v319h18v-319h18v319h18v-319h18v319h18v-319h18v319h18v-319h18v319h18c109.333 0 201.833 -37.833 277.5 -113.5s113.5 -168.167 113.5 -277.5s-38.167 -201.833 -114.5 -277.5s-168.5 -113.5 -276.5 -113.5h-18v301h-18v-301
h-18v301h-18v-301h-18v301h-18v-301h-18v301h-18v-301h-18v301h-63v18zM225 17.999z" />
    <glyph glyph-name="Ntilde" unicode="&#xd1;" horiz-adv-x="702" 
d="M209 782l450 -782h-21l-450 782h21zM168 782l450 -782h-22l-449 782h21zM126 782l450 -782h-21l-449 782h20zM593 187l18 -31v626h18v-657l18 -31v688h18v-720l18 -30v750h18v-782h-22l-450 782h20l290 -502v502h18v-533l18 -30v563h18v-595zM99 720l-18 32v-752h-18v782
h19l453 -782h-22l-288 501v-501h-18v532l-18 31v-563h-18v594l-18 32v-626h-18v658l-18 31v-689h-18v720zM278 940c-38 0 -71.333 -5.66699 -100 -17v19c36 10.667 69.333 16 100 16c35.333 0 69.833 -5.83301 103.5 -17.5s66.834 -17.5 99.501 -17.5
c37.333 0 71.666 5.66699 102.999 17v-19c-34.667 -10.667 -69 -16 -103 -16c-32.667 0 -66 5.83301 -100 17.5s-68.333 17.5 -103 17.5zM278 904c-34 0 -67.3311 -6.33301 -99.998 -19v19c33.333 12 66.666 18 99.999 18c34.667 0 69 -5.83301 103 -17.5
s67.333 -17.5 100 -17.5c30 0 64.333 5 103 15v-18c-32.667 -10 -67 -15 -103 -15c-32.667 0 -65.834 5.83301 -99.501 17.5s-68.167 17.5 -103.5 17.5zM481.002 851c44 0 78.333 4.66699 103 14v-18c-26.667 -9.33301 -61 -14 -103 -14c-32.667 0 -66 5.83301 -100 17.5
s-68.333 17.5 -103 17.5c-32.667 0 -66 -7.33301 -100 -22v20c33.333 13.333 66.666 20 99.999 20c35.333 0 69.833 -5.83301 103.5 -17.5s66.834 -17.5 99.501 -17.5z" />
    <glyph glyph-name="Ograve" unicode="&#xd2;" 
d="M446 -8c-110.667 0 -204.834 38.833 -282.501 116.5s-116.5 171.834 -116.5 282.501s38.833 205 116.5 283s171.834 117 282.501 117s205 -39 283 -117s117 -172.333 117 -283s-39 -204.834 -117 -282.501s-172.333 -116.5 -283 -116.5zM64 391
c0 -104.667 37.333 -194.334 112 -269.001s164.667 -112 270 -112s195.333 37.333 270 112s112 164.334 112 269.001c0 105.333 -37.333 195.333 -112 270s-164.667 112 -270 112c-104.667 0 -194.5 -37.333 -269.5 -112s-112.5 -164.667 -112.5 -270zM446 27
c-100.667 0 -186.5 35.5 -257.5 106.5s-106.5 156.833 -106.5 257.5s35.5 186.5 106.5 257.5s156.833 106.5 257.5 106.5s186.5 -35.5 257.5 -106.5s106.5 -156.833 106.5 -257.5s-35.5 -186.5 -106.5 -257.5s-156.833 -106.5 -257.5 -106.5zM100 391
c0 -95.333 33.833 -176.833 101.5 -244.5s149.167 -101.5 244.5 -101.5s176.833 33.833 244.5 101.5s101.5 149.167 101.5 244.5s-33.833 176.833 -101.5 244.5s-149.167 101.5 -244.5 101.5s-176.833 -33.833 -244.5 -101.5s-101.5 -149.167 -101.5 -244.5zM446 63
c-90.667 0 -168 32 -232 96s-96 141.333 -96 232s32 168 96 232s141.333 96 232 96s168 -32 232 -96s96 -141.333 96 -232s-32 -168 -96 -232s-141.333 -96 -232 -96zM136 391c0 -85.333 30.333 -158.333 91 -219s133.667 -91 219 -91s158.333 30.333 219 91
s91 133.667 91 219s-30.333 158.333 -91 219s-133.667 91 -219 91s-158.333 -30.333 -219 -91s-91 -133.667 -91 -219zM446 99c-80.667 0 -149.5 28.5 -206.5 85.5s-85.5 125.833 -85.5 206.5s28.5 149.5 85.5 206.5s125.833 85.5 206.5 85.5s149.5 -28.5 206.5 -85.5
s85.5 -125.833 85.5 -206.5s-28.5 -149.5 -85.5 -206.5s-125.833 -85.5 -206.5 -85.5zM172 391c0 -75.333 26.833 -139.833 80.5 -193.5s118.167 -80.5 193.5 -80.5s139.833 26.833 193.5 80.5s80.5 118.167 80.5 193.5s-26.833 139.833 -80.5 193.5
s-118.167 80.5 -193.5 80.5s-139.833 -26.833 -193.5 -80.5s-80.5 -118.167 -80.5 -193.5zM446 135c-70.667 0 -131 25 -181 75s-75 110.333 -75 181c0 71.333 25 131.833 75 181.5s110.333 74.5 181 74.5c71.333 0 131.833 -24.833 181.5 -74.5s74.5 -110.167 74.5 -181.5
c0 -70.667 -24.833 -131 -74.5 -181s-110.167 -75 -181.5 -75zM208 391c0 -65.333 23.333 -121.333 70 -168s102.667 -70 168 -70s121.333 23.333 168 70s70 102.667 70 168s-23.333 121.333 -70 168s-102.667 70 -168 70s-121.333 -23.333 -168 -70s-70 -102.667 -70 -168z
M377 974l139 -140h-26l-138 140h25zM428 974l140 -140h-26l-139 140h25zM327 974l138 -140h-25l-139 140h26z" />
    <glyph glyph-name="Oacute" unicode="&#xd3;" 
d="M448 -8c-110.667 0 -204.834 38.833 -282.501 116.5s-116.5 171.834 -116.5 282.501s38.833 205 116.5 283s171.834 117 282.501 117s205 -39 283 -117s117 -172.333 117 -283s-39 -204.834 -117 -282.501s-172.333 -116.5 -283 -116.5zM67 391
c0 -104.667 37.333 -194.332 112 -268.999s164.334 -112 269.001 -112c105.333 0 195.333 37.167 270 111.5s112 164.166 112 269.499s-37.333 195.333 -112 270s-164.667 112 -270 112c-104.667 0 -194.334 -37.333 -269.001 -112s-112 -164.667 -112 -270zM448 27.002
c-100.667 0 -186.334 35.5 -257.001 106.5s-106 156.833 -106 257.5s35.333 186.5 106 257.5s156.334 106.5 257.001 106.5s186.5 -35.5 257.5 -106.5s106.5 -156.833 106.5 -257.5s-35.5 -186.5 -106.5 -257.5s-156.833 -106.5 -257.5 -106.5zM103 391.002
c0 -95.333 33.667 -176.833 101 -244.5s148.666 -101.5 243.999 -101.5c96 0 177.667 33.833 245 101.5s101 149.167 101 244.5s-33.667 176.833 -101 244.5s-149 101.5 -245 101.5c-95.333 0 -176.666 -33.833 -243.999 -101.5s-101 -149.167 -101 -244.5zM448 63.002
c-90.667 0 -167.834 32 -231.501 96s-95.5 141.333 -95.5 232s31.833 168 95.5 232s140.834 96 231.501 96s168 -32 232 -96s96 -141.333 96 -232s-32 -168 -96 -232s-141.333 -96 -232 -96zM138 391.002c0 -85.333 30.333 -158.333 91 -219s133.667 -91 219 -91
s158.333 30.333 219 91s91 133.667 91 219s-30.333 158.333 -91 219s-133.667 91 -219 91s-158.333 -30.333 -219 -91s-91 -133.667 -91 -219zM448 99.002c-80 0 -148.667 28.5 -206 85.5s-86 125.833 -86 206.5s28.667 149.5 86 206.5s126 85.5 206 85.5
c80.667 0 149.5 -28.5 206.5 -85.5s85.5 -125.833 85.5 -206.5s-28.5 -149.5 -85.5 -206.5s-125.833 -85.5 -206.5 -85.5zM174 391.002c0 -75.333 26.833 -139.833 80.5 -193.5s118.167 -80.5 193.5 -80.5s139.833 26.833 193.5 80.5s80.5 118.167 80.5 193.5
s-26.833 139.833 -80.5 193.5s-118.167 80.5 -193.5 80.5s-139.833 -26.833 -193.5 -80.5s-80.5 -118.167 -80.5 -193.5zM448 135.002c-70.667 0 -131 25 -181 75s-75 110.333 -75 181s25 131 75 181s110.333 75 181 75c71.333 0 131.833 -24.833 181.5 -74.5
s74.5 -110.167 74.5 -181.5c0 -70.667 -24.833 -131 -74.5 -181s-110.167 -75 -181.5 -75zM210 391.002c0 -65.333 23.333 -121.333 70 -168s102.667 -70 168 -70s121.333 23.333 168 70s70 102.667 70 168s-23.333 121.333 -70 168s-102.667 70 -168 70
s-121.333 -23.333 -168 -70s-70 -102.667 -70 -168zM578 974.002l-138 -140h-26l139 140h25zM527 974.002l-139 -140h-25l139 140h25zM629 974.002l-139 -140h-25l139 140h25z" />
    <glyph glyph-name="Ocircumflex" unicode="&#xd4;" 
d="M446 -8c-110.667 0 -204.834 38.833 -282.501 116.5s-116.5 171.834 -116.5 282.501s38.833 205 116.5 283s171.834 117 282.501 117s205 -39 283 -117s117 -172.333 117 -283s-39 -204.834 -117 -282.501s-172.333 -116.5 -283 -116.5zM64 391
c0 -104.667 37.333 -194.334 112 -269.001s164.667 -112 270 -112s195.333 37.333 270 112s112 164.334 112 269.001c0 105.333 -37.333 195.333 -112 270s-164.667 112 -270 112c-104.667 0 -194.5 -37.333 -269.5 -112s-112.5 -164.667 -112.5 -270zM446 27
c-100.667 0 -186.5 35.5 -257.5 106.5s-106.5 156.833 -106.5 257.5s35.5 186.5 106.5 257.5s156.833 106.5 257.5 106.5s186.5 -35.5 257.5 -106.5s106.5 -156.833 106.5 -257.5s-35.5 -186.5 -106.5 -257.5s-156.833 -106.5 -257.5 -106.5zM100 391
c0 -95.333 33.833 -176.833 101.5 -244.5s149.167 -101.5 244.5 -101.5s176.833 33.833 244.5 101.5s101.5 149.167 101.5 244.5s-33.833 176.833 -101.5 244.5s-149.167 101.5 -244.5 101.5s-176.833 -33.833 -244.5 -101.5s-101.5 -149.167 -101.5 -244.5zM446 63
c-90.667 0 -168 32 -232 96s-96 141.333 -96 232s32 168 96 232s141.333 96 232 96s168 -32 232 -96s96 -141.333 96 -232s-32 -168 -96 -232s-141.333 -96 -232 -96zM136 391c0 -85.333 30.333 -158.333 91 -219s133.667 -91 219 -91s158.333 30.333 219 91
s91 133.667 91 219s-30.333 158.333 -91 219s-133.667 91 -219 91s-158.333 -30.333 -219 -91s-91 -133.667 -91 -219zM446 99c-80.667 0 -149.5 28.5 -206.5 85.5s-85.5 125.833 -85.5 206.5s28.5 149.5 85.5 206.5s125.833 85.5 206.5 85.5s149.5 -28.5 206.5 -85.5
s85.5 -125.833 85.5 -206.5s-28.5 -149.5 -85.5 -206.5s-125.833 -85.5 -206.5 -85.5zM172 391c0 -75.333 26.833 -139.833 80.5 -193.5s118.167 -80.5 193.5 -80.5s139.833 26.833 193.5 80.5s80.5 118.167 80.5 193.5s-26.833 139.833 -80.5 193.5
s-118.167 80.5 -193.5 80.5s-139.833 -26.833 -193.5 -80.5s-80.5 -118.167 -80.5 -193.5zM446 135c-70.667 0 -131 25 -181 75s-75 110.333 -75 181c0 71.333 25 131.833 75 181.5s110.333 74.5 181 74.5c71.333 0 131.833 -24.833 181.5 -74.5s74.5 -110.167 74.5 -181.5
c0 -70.667 -24.833 -131 -74.5 -181s-110.167 -75 -181.5 -75zM208 391c0 -65.333 23.333 -121.333 70 -168s102.667 -70 168 -70s121.333 23.333 168 70s70 102.667 70 168s-23.333 121.333 -70 168s-102.667 70 -168 70s-121.333 -23.333 -168 -70s-70 -102.667 -70 -168z
M402 974l-140 -140h-25l139 140h26zM452 974l-138 -140h-25l138 140h25zM465 936l-13 -13l88 -89h-25l-75 76l-75 -76h-26l139 140h25l140 -140h-26l-127 127l-12 -13l113 -114h-25z" />
    <glyph glyph-name="Otilde" unicode="&#xd5;" 
d="M451 -8c-110.667 0 -204.834 38.833 -282.501 116.5s-116.5 171.834 -116.5 282.501s38.833 205 116.5 283s171.834 117 282.501 117s205 -39 283 -117s117 -172.333 117 -283s-39 -204.834 -117 -282.501s-172.333 -116.5 -283 -116.5zM70 391
c0 -104.667 37.333 -194.332 112 -268.999s164.334 -112 269.001 -112c105.333 0 195.333 37.167 270 111.5s112 164.166 112 269.499s-37.333 195.333 -112 270s-164.667 112 -270 112c-104.667 0 -194.334 -37.333 -269.001 -112s-112 -164.667 -112 -270zM451 27.002
c-100 0 -185.5 35.5 -256.5 106.5s-106.5 156.833 -106.5 257.5s35.5 186.5 106.5 257.5s156.5 106.5 256.5 106.5c100.667 0 186.5 -35.5 257.5 -106.5s106.5 -156.833 106.5 -257.5s-35.5 -186.5 -106.5 -257.5s-156.833 -106.5 -257.5 -106.5zM106 391.002
c0 -95.333 33.667 -176.833 101 -244.5s148.666 -101.5 243.999 -101.5c96 0 177.667 33.833 245 101.5s101 149.167 101 244.5s-33.667 176.833 -101 244.5s-149 101.5 -245 101.5c-95.333 0 -176.666 -33.833 -243.999 -101.5s-101 -149.167 -101 -244.5zM451 63.002
c-90 0 -167 32 -231 96s-96 141.333 -96 232s32 168 96 232s141 96 231 96c90.667 0 168 -32 232 -96s96 -141.333 96 -232s-32 -168 -96 -232s-141.333 -96 -232 -96zM142 391.002c0 -85.333 30.167 -158.333 90.5 -219s133.166 -91 218.499 -91
c86 0 159.167 30.333 219.5 91s90.5 133.667 90.5 219s-30.167 158.333 -90.5 219s-133.5 91 -219.5 91c-85.333 0 -158.166 -30.333 -218.499 -91s-90.5 -133.667 -90.5 -219zM451 99.002c-80 0 -148.5 28.5 -205.5 85.5s-85.5 125.833 -85.5 206.5s28.5 149.5 85.5 206.5
s125.5 85.5 205.5 85.5c80.667 0 149.5 -28.5 206.5 -85.5s85.5 -125.833 85.5 -206.5s-28.5 -149.5 -85.5 -206.5s-125.833 -85.5 -206.5 -85.5zM178 391.002c0 -75.333 26.667 -139.833 80 -193.5s117.666 -80.5 192.999 -80.5c76 0 140.667 26.833 194 80.5
s80 118.167 80 193.5s-26.667 139.833 -80 193.5s-118 80.5 -194 80.5c-75.333 0 -139.666 -26.833 -192.999 -80.5s-80 -118.167 -80 -193.5zM451 135.002c-70.667 0 -130.834 25 -180.501 75s-74.5 110.333 -74.5 181s24.833 131 74.5 181s109.834 75 180.501 75
c71.333 0 131.833 -24.833 181.5 -74.5s74.5 -110.167 74.5 -181.5c0 -70.667 -24.833 -131 -74.5 -181s-110.167 -75 -181.5 -75zM214 391.002c0 -65.333 23.167 -121.333 69.5 -168s102.166 -70 167.499 -70s121.333 23.333 168 70s70 102.667 70 168
s-23.333 121.333 -70 168s-102.667 70 -168 70s-121.166 -23.333 -167.499 -70s-69.5 -102.667 -69.5 -168zM347 940.002c-38.667 0 -72.334 -5.66699 -101.001 -17v19c37.333 10.667 71 16 101 16c34.667 0 68.834 -5.83301 102.501 -17.5s67.167 -17.5 100.5 -17.5
c38 0 72 5.66699 102 17v-19c-33.333 -10.667 -67.333 -16 -102 -16c-33.333 0 -67 5.83301 -101 17.5s-68 17.5 -102 17.5zM347 904.002c-33.333 0 -67 -6.33301 -101 -19v19c34.667 12 68.334 18 101.001 18c34 0 68 -5.83301 102 -17.5s67.667 -17.5 101 -17.5
c30.667 0 64.667 5 102 15v-18c-31.333 -10 -65.333 -15 -102 -15c-33.333 0 -66.833 5.83301 -100.5 17.5s-67.834 17.5 -102.501 17.5zM550 851.002c43.333 0 77.3311 4.66699 101.998 14v-18c-25.333 -9.33301 -59.333 -14 -102 -14c-33.333 0 -67 5.83301 -101 17.5
s-68 17.5 -102 17.5c-32 0 -65.667 -7.33301 -101 -22v20c34.667 13.333 68.334 20 101.001 20c34.667 0 68.834 -5.83301 102.501 -17.5s67.167 -17.5 100.5 -17.5z" />
    <glyph glyph-name="Odieresis" unicode="&#xd6;" 
d="M446 -8c-110.667 0 -204.834 38.833 -282.501 116.5s-116.5 171.834 -116.5 282.501s38.833 205 116.5 283s171.834 117 282.501 117s205 -39 283 -117s117 -172.333 117 -283s-39 -204.834 -117 -282.501s-172.333 -116.5 -283 -116.5zM64 391
c0 -104.667 37.333 -194.334 112 -269.001s164.667 -112 270 -112s195.333 37.333 270 112s112 164.334 112 269.001c0 105.333 -37.333 195.333 -112 270s-164.667 112 -270 112c-104.667 0 -194.5 -37.333 -269.5 -112s-112.5 -164.667 -112.5 -270zM446 27
c-100.667 0 -186.5 35.5 -257.5 106.5s-106.5 156.833 -106.5 257.5s35.5 186.5 106.5 257.5s156.833 106.5 257.5 106.5s186.5 -35.5 257.5 -106.5s106.5 -156.833 106.5 -257.5s-35.5 -186.5 -106.5 -257.5s-156.833 -106.5 -257.5 -106.5zM100 391
c0 -95.333 33.833 -176.833 101.5 -244.5s149.167 -101.5 244.5 -101.5s176.833 33.833 244.5 101.5s101.5 149.167 101.5 244.5s-33.833 176.833 -101.5 244.5s-149.167 101.5 -244.5 101.5s-176.833 -33.833 -244.5 -101.5s-101.5 -149.167 -101.5 -244.5zM446 63
c-90.667 0 -168 32 -232 96s-96 141.333 -96 232s32 168 96 232s141.333 96 232 96s168 -32 232 -96s96 -141.333 96 -232s-32 -168 -96 -232s-141.333 -96 -232 -96zM136 391c0 -85.333 30.333 -158.333 91 -219s133.667 -91 219 -91s158.333 30.333 219 91
s91 133.667 91 219s-30.333 158.333 -91 219s-133.667 91 -219 91s-158.333 -30.333 -219 -91s-91 -133.667 -91 -219zM446 99c-80.667 0 -149.5 28.5 -206.5 85.5s-85.5 125.833 -85.5 206.5s28.5 149.5 85.5 206.5s125.833 85.5 206.5 85.5s149.5 -28.5 206.5 -85.5
s85.5 -125.833 85.5 -206.5s-28.5 -149.5 -85.5 -206.5s-125.833 -85.5 -206.5 -85.5zM172 391c0 -75.333 26.833 -139.833 80.5 -193.5s118.167 -80.5 193.5 -80.5s139.833 26.833 193.5 80.5s80.5 118.167 80.5 193.5s-26.833 139.833 -80.5 193.5
s-118.167 80.5 -193.5 80.5s-139.833 -26.833 -193.5 -80.5s-80.5 -118.167 -80.5 -193.5zM446 135c-70.667 0 -131 25 -181 75s-75 110.333 -75 181c0 71.333 25 131.833 75 181.5s110.333 74.5 181 74.5c71.333 0 131.833 -24.833 181.5 -74.5s74.5 -110.167 74.5 -181.5
c0 -70.667 -24.833 -131 -74.5 -181s-110.167 -75 -181.5 -75zM208 391c0 -65.333 23.333 -121.333 70 -168s102.667 -70 168 -70s121.333 23.333 168 70s70 102.667 70 168s-23.333 121.333 -70 168s-102.667 70 -168 70s-121.333 -23.333 -168 -70s-70 -102.667 -70 -168z
M329 967v-133h-18v133h18zM365 967v-133h-18v133h18zM401 967v-133h-18v133h18zM293 967v-133h-18v133h18zM534 967v-133h-18v133h18zM570 967v-133h-18v133h18zM606 967v-133h-18v133h18zM498 967v-133h-18v133h18z" />
    <glyph glyph-name="multiply" unicode="&#xd7;" horiz-adv-x="719" 
d="M379 401l13 -12l13 12l-13 13zM354 376l13 -13l12 13l-12 13zM417 363l13 13l-13 13l-12 -13zM392 338l13 12l-13 13l-13 -13zM354 325l13 -13l12 13l-12 13zM328 350l13 -12l13 12l-13 13zM443 338l13 12l-13 13l-13 -13zM417 312l13 13l-13 13l-12 -13zM392 287l13 13
l-13 12l-13 -12zM354 274l13 -13l12 13l-12 13zM328 300l13 -13l13 13l-13 12zM303 325l13 -13l12 13l-12 13zM468 312l13 13l-13 13l-12 -13zM443 287l13 13l-13 12l-13 -12zM417 261l13 13l-13 13l-12 -13zM392 236l13 13l-13 12l-13 -12zM679 498l-172 -173l172 -173
l-13 -12l-172 172l-13 -12l173 -173l-13 -13l-173 173l-12 -13l172 -172l-13 -13l-172 172l-13 -12l173 -173l-13 -13l-173 173l-12 -13l172 -172l-12 -13l-173 172l-173 -172l-12 13l172 172l-12 13l-173 -173l-13 13l173 173l-13 12l-172 -172l-13 13l172 172l-12 13
l-173 -173l-13 13l173 173l-13 12l-172 -172l-13 12l172 173l-172 173l13 12l172 -172l13 12l-173 173l13 13l173 -173l12 13l-172 172l13 13l172 -172l13 12l-173 173l13 13l173 -173l12 13l-172 172l12 13l173 -172l173 172l12 -13l-172 -172l12 -13l173 173l13 -13
l-173 -173l13 -12l172 172l13 -13l-172 -172l12 -13l173 173l13 -13l-173 -173l13 -12l172 172z" />
    <glyph glyph-name="Oslash" unicode="&#xd8;" 
d="M700 651l13 13l-14 12l-12 -12c4.66699 -4 9 -8.33301 13 -13zM675 626l12 13c-4 4 -8.33301 8 -13 12l-13 -13zM649 600l13 13c-4 4 -8.33301 8 -13 12l-13 -12c4.66699 -4 9 -8.33301 13 -13zM624 575l12 13c-4 4 -8.33301 8 -13 12l-12 -13
c4.66699 -3.33301 9 -7.33301 13 -12zM275 226l336 336c-4.66699 4 -9 8 -13 12l-335 -335c4 -4 8 -8.33301 12 -13zM249 201l13 12c-4.66699 4 -8.66699 8.33301 -12 13l-13 -12c4 -4.66699 8 -9 12 -13zM224 175l13 13c-4.66699 4 -9 8.33301 -13 13l-12 -13
c4 -4.66699 8 -9 12 -13zM198 150l13 12l-12 14l-13 -13c4 -4.66699 8 -9 12 -13zM173 125l13 12c-4.66699 4 -9 8.33301 -13 13l-12 -12c4 -4.66699 8 -9 12 -13zM725 625l12 12l-12 14l-12 -12zM699 599l13 13l-12 14l-13 -13zM674 574l12 13
c-3.33301 4.66699 -7 9 -11 13l-13 -12zM648 549l13 12l-12 14l-12 -13c4 -4 7.66699 -8.33301 11 -13zM302 202l333 333l-12 14l-335 -335zM276 176l12 13c-4.66699 3.33301 -9 7 -13 11l-13 -12zM250 151l13 12l-14 12l-12 -13c4 -4 8.33301 -7.66699 13 -11zM225 125
l13 13l-14 12l-13 -13zM200 100l12 12l-14 12l-12 -12zM747 596l12 13l-10 14l-13 -12c4 -4.66699 7.66699 -9.66699 11 -15zM721 570l13 13c-3.33301 5.33301 -7 10.333 -11 15l-13 -13c4 -4.66699 7.66699 -9.66699 11 -15zM695 544l13 13
c-3.33301 5.33301 -7 10.333 -11 15l-13 -13c4 -4.66699 7.66699 -9.66699 11 -15zM669 518l12 13c-2.66699 5.33301 -5.66699 10.333 -9 15l-13 -12zM333 182l322 322c-2.66699 6 -5.66699 11.333 -9 16l-329 -329c4.66699 -3.33301 10 -6.33301 16 -9zM306 156l13 12
l-16 10l-12 -13c4.66699 -3.33301 9.66699 -6.33301 15 -9zM280 129l13 13c-5.33301 3.33301 -10.333 7 -15 11l-13 -13c4.66699 -4 9.66699 -7.66699 15 -11zM254 103l13 13c-5.33301 3.33301 -10.333 7 -15 11l-13 -13c4.66699 -4 9.66699 -7.66699 15 -11zM229 78l12 12
c-5.33301 3.33301 -10.333 7 -15 11l-12 -12c4.66699 -4 9.66699 -7.66699 15 -11zM663 487l-313 -313c30 -14 62 -21 96 -21c65.333 0 121.333 23.333 168 70s70 102.667 70 168c0 34 -7 66 -21 96zM691 514l-13.999 -12.999c16.667 -34.667 25 -71.334 25 -110.001
c0 -71.333 -24.833 -131.833 -74.5 -181.5s-110.167 -74.5 -181.5 -74.5c-38.667 0 -75.334 8.33301 -110.001 25l-13 -14c38.667 -19.333 79.667 -29 123 -29c75.333 0 139.833 26.833 193.5 80.5s80.5 118.167 80.5 193.5c0 43.333 -9.66699 84.333 -29 123z
M717.001 541.001l-12.999 -12.999c22.667 -42.667 34 -88.334 34 -137.001c0 -80.667 -28.5 -149.5 -85.5 -206.5s-125.833 -85.5 -206.5 -85.5c-48.667 0 -94.334 11.333 -137.001 34l-13 -13c46.667 -26 96.667 -39 150 -39c85.333 0 158.333 30.333 219 91
s91 133.667 91 219c0 53.333 -13 103.333 -39 150zM744.002 568.002l-14 -14c29.333 -50 44 -104.333 44 -163c0 -90.667 -32 -168 -96 -232s-141.333 -96 -232 -96c-58.667 0 -113 14.667 -163 44l-14 -14c54.667 -32 113.667 -48 177 -48
c95.333 0 176.833 33.833 244.5 101.5s101.5 149.167 101.5 244.5c0 63.333 -16 122.333 -48 177zM769.002 593.002l-12 -12c35.333 -58 53 -121.333 53 -190c0 -100.667 -35.5 -186.5 -106.5 -257.5s-156.833 -106.5 -257.5 -106.5c-68.667 0 -132 17.667 -190 53l-12 -12
c62 -38.667 129.333 -58 202 -58c105.333 0 195.333 37.333 270 112s112 164.334 112 269.001c0 73.333 -19.667 140.666 -59 201.999zM233.002 286.002l318 318c-32.667 16.667 -67.667 25 -105 25c-65.333 0 -121.333 -23.333 -168 -70s-70 -102.667 -70 -168
c0 -37.333 8.33301 -72.333 25 -105zM206.002 259.002l13 13c-19.333 37.333 -29 77 -29 119c0 71.333 24.833 131.833 74.5 181.5s110.167 74.5 181.5 74.5c42 0 81.667 -9.66699 119 -29l13 13c-41.333 22.667 -85.333 34 -132 34
c-75.333 0 -139.833 -26.833 -193.5 -80.5s-80.5 -118.167 -80.5 -193.5c0 -46.667 11.333 -90.667 34 -132zM180.002 233.002l13.001 13.001c-26 44.667 -39 93 -39 145c0 80.667 28.5 149.5 85.5 206.5s125.833 85.5 206.5 85.5c52 0 100.333 -13 145 -39l13 13
c-48.667 29.333 -101.334 44 -158.001 44c-85.333 0 -158.333 -30.333 -219 -91s-91 -133.667 -91 -219c0 -56.667 14.667 -109.334 44 -158.001zM153.003 206.003l13.001 13.001c-32 52.667 -48 110 -48 172c0 90.667 32 168 96 232s141.333 96 232 96
c62 0 119.333 -16 172 -48l13 13c-56.667 35.333 -118.334 53 -185.001 53c-95.333 0 -176.833 -33.833 -244.5 -101.5s-101.5 -149.167 -101.5 -244.5c0 -66.667 17.667 -128.334 53 -185.001zM128.004 181.004l12 12c-38.667 60 -58 126 -58 198
c0 100.667 35.5 186.5 106.5 257.5s156.833 106.5 257.5 106.5c72 0 138 -19.333 198 -58l12 12c-63.333 42.667 -133.333 64 -210 64c-105.333 0 -195.333 -37.333 -270 -112s-112 -164.667 -112 -270c0 -76.667 21.333 -146.667 64 -210zM151.004 178.004l-13 -12.001
c4 -4.66699 7.66699 -9.66699 11 -15l13 13c-4 4.66699 -7.66699 9.33398 -11 14.001zM177.004 204.003l-13.001 -13l10 -14l13 12c-3.33301 5.33301 -6.66602 10.333 -9.99902 15zM202.003 230.003l-13 -13c4 -4.66699 7.66699 -9.66699 11 -15l13 13zM228.003 256.003
l-13.001 -13c3.33301 -5.33301 7 -10.333 11 -15l12 13c-3.33301 4.66699 -6.66602 9.66699 -9.99902 15zM568.002 595.003l-326 -326c2.66699 -5.33301 6 -10.333 10 -15l331 331c-4.66699 4 -9.66699 7.33301 -15 10zM594.002 622.003l-13 -13.001
c5.33301 -3.33301 10.333 -6.66602 15 -9.99902l13 12c-4.66699 4 -9.66699 7.66699 -15 11zM620.002 648.002l-13 -13l15 -11l13 13c-5.33301 3.33301 -10.333 7 -15 11zM646.002 673.002l-13 -13.001c4.66699 -3.33301 9.66699 -6.66602 15 -9.99902l12 13z
M671.002 699.001l-12.001 -13c4.66699 -3.33301 9.33398 -7 14.001 -11l13 13c-4.66699 4 -9.66699 7.66699 -15 11zM742.001 770.001l-57.001 -57.998c4.66699 -3.33301 9.33398 -7 14.001 -11l56 56l13 -13l-55 -55c4 -4 8.33301 -8 13 -12l54 55l13 -13l-55 -55
c4 -4 8 -8.33301 12 -13l56 55l13 -13l-57 -56c3.33301 -5.33301 7 -10.333 11 -15l58 59l13 -13l-61 -61c42 -66 63 -138 63 -216c0 -110.667 -39 -204.834 -117 -282.501s-172.333 -116.5 -283 -116.5c-78 0 -149.667 21 -215 63l-69 -69l-12 13l65 66
c-4.66699 3.33301 -9.33398 7 -14.001 11l-64 -64l-13 13l63 62l-14 12l-61 -62l-13 13l62 62c-4.66699 4 -9 8.33301 -13 13l-62 -62l-13 13l64 63l-12 14l-64 -65l-13 13l67 67c-45.333 67.333 -68 141.666 -68 222.999c0 110.667 38.833 205 116.5 283
s171.834 117 282.501 117c82 0 156.667 -22.667 224 -68l60 60z" />
    <glyph glyph-name="Ugrave" unicode="&#xd9;" horiz-adv-x="641" 
d="M641 280c0 -79.333 -28.167 -147.166 -84.5 -203.499s-124.5 -84.5 -204.5 -84.5s-148.167 28.167 -204.5 84.5s-84.5 124.166 -84.5 203.499v502h18v-502c0 -74.667 26.5 -138.334 79.5 -191.001s116.833 -79 191.5 -79s138.5 26.333 191.5 79
s79.5 116.334 79.5 191.001v502h18v-502zM605 280c0 -69.333 -24.667 -128.833 -74 -178.5s-109 -74.5 -179 -74.5s-129.667 24.833 -179 74.5s-74 109.167 -74 178.5v502h18v-502c0 -64.667 23 -120 69 -166s101.333 -69 166 -69c65.333 0 120.833 23 166.5 69
s68.5 101.333 68.5 166v502h18v-502zM569 280c0 -59.333 -21.333 -110.333 -64 -153s-93.667 -64 -153 -64s-110.333 21.333 -153 64s-64 93.667 -64 153v502h18v-502c0 -54.667 19.333 -101.5 58 -140.5s85.667 -58.5 141 -58.5c54.667 0 101.5 19.5 140.5 58.5
s58.5 85.833 58.5 140.5v502h18v-502zM533 280c0 -49.333 -17.833 -91.833 -53.5 -127.5s-78.167 -53.5 -127.5 -53.5s-91.833 17.833 -127.5 53.5s-53.5 78.167 -53.5 127.5v502h18v-502c0 -44.667 16 -83 48 -115s70.333 -48 115 -48c45.333 0 83.833 16 115.5 48
s47.5 70.333 47.5 115v502h18v-502zM497 280c0 -40 -14.167 -74.167 -42.5 -102.5s-62.5 -42.5 -102.5 -42.5s-74.167 14.167 -102.5 42.5s-42.5 62.5 -42.5 102.5v502h18v-502c0 -34.667 12.5 -64.5 37.5 -89.5s54.833 -37.5 89.5 -37.5c35.333 0 65.333 12.5 90 37.5
s37 54.833 37 89.5v502h18v-502zM309 974l138 -140h-25l-139 140h26zM359 974l140 -140h-25l-140 140h25zM258 974l138 -140h-25l-138 140h25z" />
    <glyph glyph-name="Uacute" unicode="&#xda;" horiz-adv-x="641" 
d="M641 280c0 -79.333 -28.167 -147.166 -84.5 -203.499s-124.5 -84.5 -204.5 -84.5s-148.167 28.167 -204.5 84.5s-84.5 124.166 -84.5 203.499v502h18v-502c0 -74.667 26.5 -138.334 79.5 -191.001s116.833 -79 191.5 -79s138.5 26.333 191.5 79
s79.5 116.334 79.5 191.001v502h18v-502zM605 280c0 -69.333 -24.667 -128.833 -74 -178.5s-109 -74.5 -179 -74.5s-129.667 24.833 -179 74.5s-74 109.167 -74 178.5v502h18v-502c0 -64.667 23 -120 69 -166s101.333 -69 166 -69c65.333 0 120.833 23 166.5 69
s68.5 101.333 68.5 166v502h18v-502zM569 280c0 -59.333 -21.333 -110.333 -64 -153s-93.667 -64 -153 -64s-110.333 21.333 -153 64s-64 93.667 -64 153v502h18v-502c0 -54.667 19.333 -101.5 58 -140.5s85.667 -58.5 141 -58.5c54.667 0 101.5 19.5 140.5 58.5
s58.5 85.833 58.5 140.5v502h18v-502zM533 280c0 -49.333 -17.833 -91.833 -53.5 -127.5s-78.167 -53.5 -127.5 -53.5s-91.833 17.833 -127.5 53.5s-53.5 78.167 -53.5 127.5v502h18v-502c0 -44.667 16 -83 48 -115s70.333 -48 115 -48c45.333 0 83.833 16 115.5 48
s47.5 70.333 47.5 115v502h18v-502zM497 280c0 -40 -14.167 -74.167 -42.5 -102.5s-62.5 -42.5 -102.5 -42.5s-74.167 14.167 -102.5 42.5s-42.5 62.5 -42.5 102.5v502h18v-502c0 -34.667 12.5 -64.5 37.5 -89.5s54.833 -37.5 89.5 -37.5c35.333 0 65.333 12.5 90 37.5
s37 54.833 37 89.5v502h18v-502zM425 974l-139 -140h-25l139 140h25zM374 974l-139 -140h-26l140 140h25zM476 974l-139 -140h-25l138 140h26z" />
    <glyph glyph-name="Ucircumflex" unicode="&#xdb;" horiz-adv-x="641" 
d="M641 280c0 -79.333 -28.167 -147.166 -84.5 -203.499s-124.5 -84.5 -204.5 -84.5s-148.167 28.167 -204.5 84.5s-84.5 124.166 -84.5 203.499v502h18v-502c0 -74.667 26.5 -138.334 79.5 -191.001s116.833 -79 191.5 -79s138.5 26.333 191.5 79
s79.5 116.334 79.5 191.001v502h18v-502zM605 280c0 -69.333 -24.667 -128.833 -74 -178.5s-109 -74.5 -179 -74.5s-129.667 24.833 -179 74.5s-74 109.167 -74 178.5v502h18v-502c0 -64.667 23 -120 69 -166s101.333 -69 166 -69c65.333 0 120.833 23 166.5 69
s68.5 101.333 68.5 166v502h18v-502zM569 280c0 -59.333 -21.333 -110.333 -64 -153s-93.667 -64 -153 -64s-110.333 21.333 -153 64s-64 93.667 -64 153v502h18v-502c0 -54.667 19.333 -101.5 58 -140.5s85.667 -58.5 141 -58.5c54.667 0 101.5 19.5 140.5 58.5
s58.5 85.833 58.5 140.5v502h18v-502zM533 280c0 -49.333 -17.833 -91.833 -53.5 -127.5s-78.167 -53.5 -127.5 -53.5s-91.833 17.833 -127.5 53.5s-53.5 78.167 -53.5 127.5v502h18v-502c0 -44.667 16 -83 48 -115s70.333 -48 115 -48c45.333 0 83.833 16 115.5 48
s47.5 70.333 47.5 115v502h18v-502zM497 280c0 -40 -14.167 -74.167 -42.5 -102.5s-62.5 -42.5 -102.5 -42.5s-74.167 14.167 -102.5 42.5s-42.5 62.5 -42.5 102.5v502h18v-502c0 -34.667 12.5 -64.5 37.5 -89.5s54.833 -37.5 89.5 -37.5c35.333 0 65.333 12.5 90 37.5
s37 54.833 37 89.5v502h18v-502zM318 974l-139 -140h-26l140 140h25zM369 974l-139 -140h-25l139 140h25zM382 936l-13 -13l88 -89h-26l-75 76l-75 -76h-25l138 140h26l139 -140h-25l-127 127l-13 -13l113 -114h-25z" />
    <glyph glyph-name="Udieresis" unicode="&#xdc;" horiz-adv-x="641" 
d="M641 280c0 -79.333 -28.167 -147.166 -84.5 -203.499s-124.5 -84.5 -204.5 -84.5s-148.167 28.167 -204.5 84.5s-84.5 124.166 -84.5 203.499v502h18v-502c0 -74.667 26.5 -138.334 79.5 -191.001s116.833 -79 191.5 -79s138.5 26.333 191.5 79
s79.5 116.334 79.5 191.001v502h18v-502zM605 280c0 -69.333 -24.667 -128.833 -74 -178.5s-109 -74.5 -179 -74.5s-129.667 24.833 -179 74.5s-74 109.167 -74 178.5v502h18v-502c0 -64.667 23 -120 69 -166s101.333 -69 166 -69c65.333 0 120.833 23 166.5 69
s68.5 101.333 68.5 166v502h18v-502zM569 280c0 -59.333 -21.333 -110.333 -64 -153s-93.667 -64 -153 -64s-110.333 21.333 -153 64s-64 93.667 -64 153v502h18v-502c0 -54.667 19.333 -101.5 58 -140.5s85.667 -58.5 141 -58.5c54.667 0 101.5 19.5 140.5 58.5
s58.5 85.833 58.5 140.5v502h18v-502zM533 280c0 -49.333 -17.833 -91.833 -53.5 -127.5s-78.167 -53.5 -127.5 -53.5s-91.833 17.833 -127.5 53.5s-53.5 78.167 -53.5 127.5v502h18v-502c0 -44.667 16 -83 48 -115s70.333 -48 115 -48c45.333 0 83.833 16 115.5 48
s47.5 70.333 47.5 115v502h18v-502zM497 280c0 -40 -14.167 -74.167 -42.5 -102.5s-62.5 -42.5 -102.5 -42.5s-74.167 14.167 -102.5 42.5s-42.5 62.5 -42.5 102.5v502h18v-502c0 -34.667 12.5 -64.5 37.5 -89.5s54.833 -37.5 89.5 -37.5c35.333 0 65.333 12.5 90 37.5
s37 54.833 37 89.5v502h18v-502zM238 967v-133h-18v133h18zM274 967v-133h-18v133h18zM310 967v-133h-18v133h18zM202 967v-133h-18v133h18zM443 967v-133h-18v133h18zM479 967v-133h-18v133h18zM515 967v-133h-18v133h18zM407 967v-133h-18v133h18z" />
    <glyph glyph-name="Yacute" unicode="&#xdd;" horiz-adv-x="690" 
d="M438 281l-241 501h19l159 -332l159 332h19l-169 -352l9 -18l179 370h19l-189 -389l9 -19l198 408h19l-208 -427l9 -18l218 445h19l-228 -464l9 -18l239 482h19l-249 -501v-281h-18v281zM420 0h-18v281l-243 501h19l242 -501v-281zM384 0h-18v281l-244 501h19l243 -501
v-281zM348 0h-18v281l-246 501h19l245 -501v-281zM312 0h-18v281l-250 501h19l249 -501v-281zM430 974l-138 -140h-26l139 140h25zM379 974l-139 -140h-25l139 140h25zM481 974l-139 -140h-25l139 140h25z" />
    <glyph glyph-name="Thorn" unicode="&#xde;" horiz-adv-x="594" 
d="M117 620v-620h-18v620h18zM153 620v-620h-18v620h18zM189 620v-620h-18v620h18zM81 620v-620h-18v620h18zM225 602v-18h122c57.333 0 106.5 -20.5 147.5 -61.5s61.5 -90.167 61.5 -147.5s-20.5 -106.5 -61.5 -147.5s-90.167 -61.5 -147.5 -61.5h-122v-18h122
c63.333 0 117 22.167 161 66.5s66 97.833 66 160.5c0 63.333 -22 117 -66 161s-97.667 66 -161 66h-122zM225 566v-18h122c48 0 88.833 -17 122.5 -51s50.5 -74.667 50.5 -122s-17 -88 -51 -122s-74.667 -51 -122 -51h-122v-18h122c52.667 0 97.667 18.667 135 56
s56 82.333 56 135s-18.667 97.667 -56 135s-82.333 56 -135 56h-122zM225 530v-18h122c38 0 70.333 -13.5 97 -40.5s40 -59.167 40 -96.5s-13.5 -69.5 -40.5 -96.5s-59.167 -40.5 -96.5 -40.5h-122v-18h122c42.667 0 79.167 15.167 109.5 45.5s45.5 66.833 45.5 109.5
s-15.167 79.167 -45.5 109.5s-66.833 45.5 -109.5 45.5h-122zM225 494v-18h122c28 0 51.833 -9.83301 71.5 -29.5s29.5 -43.5 29.5 -71.5s-9.83301 -51.833 -29.5 -71.5s-43.5 -29.5 -71.5 -29.5h-122v-18h122c32.667 0 60.667 11.667 84 35s35 51.333 35 84
s-11.667 60.667 -35 84s-51.333 35 -84 35h-122zM225 459v-168.002h122c22.667 0 42.167 8.33301 58.5 25s24.5 36.334 24.5 59.001s-8.16699 42.334 -24.5 59.001s-35.833 25 -58.5 25h-122zM347 619.998c67.333 0 125 -24 173 -72s72 -105.667 72 -173s-24 -125 -72 -173
s-105.667 -72 -173 -72h-122v-130h-18v620h140z" />
    <glyph glyph-name="germandbls" unicode="&#xdf;" horiz-adv-x="978" 
d="M970 636c-16.667 40.667 -43.167 73.6641 -79.5 98.9971s-76.833 38 -121.5 38c-58.667 0 -109.334 -21.167 -152.001 -63.5s-64 -93.166 -64 -152.499c0 -56 18.833 -104.167 56.5 -144.5s84.167 -63.166 139.5 -68.499c29.333 -2.66699 53.333 -13.834 72 -33.501
s28 -43.5 28 -71.5c0 -28.667 -10 -53.167 -30 -73.5s-44.333 -30.5 -73 -30.5c-42.667 0 -73.667 20 -93 60l15 9c14 -34 40 -51 78 -51c23.333 0 43.333 8.5 60 25.5s25 37.167 25 60.5c0 22.667 -8 42.334 -24 59.001s-35.333 26 -58 28
c-59.333 4.66699 -109.666 29.167 -150.999 73.5s-62 96.833 -62 157.5c0 64.667 22.667 119.834 68 165.501s100.333 68.5 165 68.5c48 0 91.5 -13.5 130.5 -40.5s67.5 -61.833 85.5 -104.5zM907 599.997c-9.33301 30 -26.668 54.332 -52.001 72.999s-54 28 -86 28
c-39.333 0 -73.166 -14.167 -101.499 -42.5s-42.5 -62.166 -42.5 -101.499c0 -37.333 12.667 -69.666 38 -96.999s56.333 -42.666 93 -45.999c48 -4 87.5 -22.5 118.5 -55.5s46.5 -72.833 46.5 -119.5c0 -48 -17.167 -89.333 -51.5 -124s-75.5 -52 -123.5 -52
c-32.667 0 -62.667 8.16699 -90 24.5s-48.333 38.166 -63 65.499l15 10c30 -54.667 76 -82 138 -82c43.333 0 80.333 15.5 111 46.5s46 68.167 46 111.5c0 41.333 -14.5 77.166 -43.5 107.499s-63.833 47.166 -104.5 50.499s-75.334 20.333 -104.001 51s-43 67 -43 109
c0 44.667 15.667 82.834 47 114.501s69.333 47.5 114 47.5c34.667 0 65.834 -10.333 93.501 -31s47.167 -47 58.5 -79zM839.998 560.996c-1.33301 18.667 -8.83105 34.667 -22.498 48s-29.834 20 -48.501 20c-19.333 0 -36 -7.16699 -50 -21.5s-21 -31.166 -21 -50.499
s6.5 -35.833 19.5 -49.5s28.833 -21.167 47.5 -22.5c62 -4.66699 115 -29.667 159 -75c46 -48 69 -105 69 -171c0 -68 -24.167 -126.167 -72.5 -174.5s-106.5 -72.5 -174.5 -72.5c-44 0 -84.833 10.833 -122.5 32.5s-67.834 50.834 -90.501 87.501l16 10
c44 -74.667 109.667 -112 197 -112c63.333 0 117.333 22.333 162 67s67 98.667 67 162c0 62 -20.667 114.333 -62 157s-91.333 66.667 -150 72c-24.667 2 -44.834 11.333 -60.501 28s-23.5 37 -23.5 61c0 25.333 8.83301 46.666 26.5 63.999s38.834 26 63.501 26
c22 0 41.5 -7.33301 58.5 -22s27.167 -32.334 30.5 -53.001zM874 580.996c-4.66699 24 -17 44 -37 60s-42.667 24 -68 24c-29.333 0 -54.666 -10.667 -75.999 -32s-32 -46.666 -32 -75.999c0 -28 9.5 -52.167 28.5 -72.5s42.833 -31.833 71.5 -34.5
c54 -4.66699 100.167 -26.834 138.5 -66.501s57.5 -87.834 57.5 -144.501c0 -58 -20.667 -107.833 -62 -149.5s-91 -62.5 -149 -62.5c-78 0 -139 35 -183 105l15 11c16.667 -29.333 40 -53 70 -71s62.667 -27 98 -27c53.333 0 98.833 19 136.5 57s56.5 83.667 56.5 137
c0 51.333 -17 95.166 -51 131.499s-77 56.833 -129 61.5c-32 3.33301 -59.167 17 -81.5 41s-33.5 52 -33.5 84c0 34.667 12.167 64.334 36.5 89.001s53.833 37 88.5 37c28.667 0 54.167 -8.66699 76.5 -26s37.166 -39.666 44.499 -66.999zM938 616.996
c-12 35.333 -33.668 64.1631 -65.001 86.4961s-66 33.5 -104 33.5c-49.333 0 -91.666 -17.667 -126.999 -53s-53 -77.666 -53 -126.999c0 -46.667 15.833 -87 47.5 -121s70.167 -53 115.5 -57c37.333 -3.33301 68.833 -18.166 94.5 -44.499s38.5 -58.166 38.5 -95.499
c0 -38.667 -13.5 -71.667 -40.5 -99s-59.833 -41 -98.5 -41c-57.333 0 -98.333 24.667 -123 74l15 11c22.667 -44.667 58.667 -67 108 -67c33.333 0 61.833 12 85.5 36s35.5 52.667 35.5 86c0 32 -11.167 59.833 -33.5 83.5s-49.833 36.834 -82.5 39.501
c-50 4 -92.167 24.667 -126.5 62s-51.5 81.666 -51.5 132.999c0 54.667 19 101.334 57 140.001s84.333 58 139 58c42 0 79.667 -11.833 113 -35.5s57 -54.5 71 -92.5zM480.999 635.993c-16.667 40.667 -43.167 73.6641 -79.5 98.9971s-76.833 38 -121.5 38
c-58.667 0 -109.334 -21.167 -152.001 -63.5s-64 -93.166 -64 -152.499c0 -56 18.833 -104.167 56.5 -144.5s84.167 -63.166 139.5 -68.499c29.333 -2.66699 53.333 -13.834 72 -33.501s28 -43.5 28 -71.5c0 -28.667 -10 -53.167 -30 -73.5s-44.333 -30.5 -73 -30.5
c-42.667 0 -73.667 20 -93 60l15 9c14 -34 40 -51 78 -51c23.333 0 43.333 8.5 60 25.5s25 37.167 25 60.5c0 22.667 -8 42.334 -24 59.001s-35.333 26 -58 28c-59.333 4.66699 -109.666 29.167 -150.999 73.5s-62 96.833 -62 157.5c0 64.667 22.667 119.834 68 165.501
s100.333 68.5 165 68.5c48 0 91.5 -13.5 130.5 -40.5s67.5 -61.833 85.5 -104.5zM417.999 599.99c-9.33301 30 -26.668 54.332 -52.001 72.999s-54 28 -86 28c-39.333 0 -73.166 -14.167 -101.499 -42.5s-42.5 -62.166 -42.5 -101.499c0 -37.333 12.667 -69.666 38 -96.999
s56.333 -42.666 93 -45.999c48 -4 87.5 -22.5 118.5 -55.5s46.5 -72.833 46.5 -119.5c0 -48 -17.167 -89.333 -51.5 -124s-75.5 -52 -123.5 -52c-32.667 0 -62.667 8.16699 -90 24.5s-48.333 38.166 -63 65.499l15 10c30 -54.667 76 -82 138 -82
c43.333 0 80.333 15.5 111 46.5s46 68.167 46 111.5c0 41.333 -14.5 77.166 -43.5 107.499s-63.833 47.166 -104.5 50.499s-75.334 20.333 -104.001 51s-43 67 -43 109c0 44.667 15.667 82.834 47 114.501s69.333 47.5 114 47.5c34.667 0 65.834 -10.333 93.501 -31
s47.167 -47 58.5 -79zM350.997 560.989c-1.33301 18.667 -8.83105 34.667 -22.498 48s-29.834 20 -48.501 20c-19.333 0 -36 -7.16699 -50 -21.5s-21 -31.166 -21 -50.499s6.5 -35.833 19.5 -49.5s28.833 -21.167 47.5 -22.5c62 -4.66699 115 -29.667 159 -75
c46 -48 69 -105 69 -171c0 -68 -24.167 -126.167 -72.5 -174.5s-106.5 -72.5 -174.5 -72.5c-44 0 -84.833 10.833 -122.5 32.5s-67.834 50.834 -90.501 87.501l16 10c44 -74.667 109.667 -112 197 -112c63.333 0 117.333 22.333 162 67s67 98.667 67 162
c0 62 -20.667 114.333 -62 157s-91.333 66.667 -150 72c-24.667 2 -44.834 11.333 -60.501 28s-23.5 37 -23.5 61c0 25.333 8.83301 46.666 26.5 63.999s38.834 26 63.501 26c22 0 41.5 -7.33301 58.5 -22s27.167 -32.334 30.5 -53.001zM384.999 580.989
c-4.66699 24 -17 44 -37 60s-42.667 24 -68 24c-29.333 0 -54.666 -10.667 -75.999 -32s-32 -46.666 -32 -75.999c0 -28 9.5 -52.167 28.5 -72.5s42.833 -31.833 71.5 -34.5c54 -4.66699 100.167 -26.834 138.5 -66.501s57.5 -87.834 57.5 -144.501
c0 -58 -20.667 -107.833 -62 -149.5s-91 -62.5 -149 -62.5c-78 0 -139 35 -183 105l15 11c16.667 -29.333 40 -53 70 -71s62.667 -27 98 -27c53.333 0 98.833 19 136.5 57s56.5 83.667 56.5 137c0 51.333 -17 95.166 -51 131.499s-77 56.833 -129 61.5
c-32 3.33301 -59.167 17 -81.5 41s-33.5 52 -33.5 84c0 34.667 12.167 64.334 36.5 89.001s53.833 37 88.5 37c28.667 0 54.167 -8.66699 76.5 -26s37.166 -39.666 44.499 -66.999zM448.999 616.989c-12 35.333 -33.668 64.1631 -65.001 86.4961s-66 33.5 -104 33.5
c-49.333 0 -91.666 -17.667 -126.999 -53s-53 -77.666 -53 -126.999c0 -46.667 15.833 -87 47.5 -121s70.167 -53 115.5 -57c37.333 -3.33301 68.833 -18.166 94.5 -44.499s38.5 -58.166 38.5 -95.499c0 -38.667 -13.5 -71.667 -40.5 -99s-59.833 -41 -98.5 -41
c-57.333 0 -98.333 24.667 -123 74l15 11c22.667 -44.667 58.667 -67 108 -67c33.333 0 61.833 12 85.5 36s35.5 52.667 35.5 86c0 32 -11.167 59.833 -33.5 83.5s-49.833 36.834 -82.5 39.501c-50 4 -92.167 24.667 -126.5 62s-51.5 81.666 -51.5 132.999
c0 54.667 19 101.334 57 140.001s84.333 58 139 58c42 0 79.667 -11.833 113 -35.5s57 -54.5 71 -92.5z" />
    <glyph glyph-name="agrave" unicode="&#xe0;" horiz-adv-x="819" 
d="M302 211l-7 -18h286l-6 18h-273zM316 247l-7 -18h259l-7 18h-245zM540 301l-101 259l-102 -259h203zM331 283l-8 -18h231l-6 18h-217zM596 158l-6 17h-301l-8 -17h315zM275 140l-55 -140h-19l305 782h20l306 -782h-20l-296 758l-10 -24l286 -734h-19l-276 708l-10 -24
l268 -684h-20l-257 660l-10 -25l249 -635h-20l-238 611l-10 -27l228 -584h-19l-54 140h-329zM486 782l-305 -782h-20l306 782h19zM448 782l-305 -782h-20l306 782h19zM410 782l-305 -782h-20l305 782h20zM370 782l-304 -782h-21l306 782h19zM351 974l138 -140h-25l-138 140
h25zM402 974l139 -140h-25l-140 140h26zM300 974l139 -140h-26l-138 140h25z" />
    <glyph glyph-name="aacute" unicode="&#xe1;" horiz-adv-x="819" 
d="M302 211l-7 -18h286l-6 18h-273zM316 247l-7 -18h259l-7 18h-245zM540 301l-101 259l-102 -259h203zM331 283l-8 -18h231l-6 18h-217zM596 158l-6 17h-301l-8 -17h315zM275 140l-55 -140h-19l305 782h20l306 -782h-20l-296 758l-10 -24l286 -734h-19l-276 708l-10 -24
l268 -684h-20l-257 660l-10 -25l249 -635h-20l-238 611l-10 -27l228 -584h-19l-54 140h-329zM486 782l-305 -782h-20l306 782h19zM448 782l-305 -782h-20l306 782h19zM410 782l-305 -782h-20l305 782h20zM370 782l-304 -782h-21l306 782h19zM552 974l-139 -140h-25l138 140
h26zM501 974l-139 -140h-26l140 140h25zM603 974l-139 -140h-25l138 140h26z" />
    <glyph glyph-name="acircumflex" unicode="&#xe2;" horiz-adv-x="819" 
d="M302 211l-7 -18h286l-6 18h-273zM316 247l-7 -18h259l-7 18h-245zM540 301l-101 259l-102 -259h203zM331 283l-8 -18h231l-6 18h-217zM596 158l-6 17h-301l-8 -17h315zM275 140l-55 -140h-19l305 782h20l306 -782h-20l-296 758l-10 -24l286 -734h-19l-276 708l-10 -24
l268 -684h-20l-257 660l-10 -25l249 -635h-20l-238 611l-10 -27l228 -584h-19l-54 140h-329zM486 782l-305 -782h-20l306 782h19zM448 782l-305 -782h-20l306 782h19zM410 782l-305 -782h-20l305 782h20zM370 782l-304 -782h-21l306 782h19zM392 974l-139 -140h-26l140 140
h25zM443 974l-139 -140h-25l139 140h25zM456 936l-13 -13l88 -89h-26l-75 76l-75 -76h-25l138 140h26l139 -140h-25l-127 127l-13 -13l113 -114h-25z" />
    <glyph glyph-name="atilde" unicode="&#xe3;" horiz-adv-x="819" 
d="M302 211l-7 -18h286l-6 18h-273zM316 247l-7 -18h259l-7 18h-245zM540 301l-101 259l-102 -259h203zM331 283l-8 -18h231l-6 18h-217zM596 158l-6 17h-301l-8 -17h315zM275 140l-55 -140h-19l305 782h20l306 -782h-20l-296 758l-10 -24l286 -734h-19l-276 708l-10 -24
l268 -684h-20l-257 660l-10 -25l249 -635h-20l-238 611l-10 -27l228 -584h-19l-54 140h-329zM486 782l-305 -782h-20l306 782h19zM448 782l-305 -782h-20l306 782h19zM410 782l-305 -782h-20l305 782h20zM370 782l-304 -782h-21l306 782h19zM337 940
c-38 0 -71.333 -5.66699 -100 -17v19c36 10.667 69.333 16 100 16c35.333 0 69.833 -5.83301 103.5 -17.5s66.834 -17.5 99.501 -17.5c37.333 0 71.666 5.66699 102.999 17v-19c-34.667 -10.667 -69 -16 -103 -16c-32.667 0 -66 5.83301 -100 17.5s-68.333 17.5 -103 17.5z
M337 904c-34 0 -67.3311 -6.33301 -99.998 -19v19c33.333 12 66.666 18 99.999 18c34.667 0 69 -5.83301 103 -17.5s67.333 -17.5 100 -17.5c30 0 64.333 5 103 15v-18c-32.667 -10 -67 -15 -103 -15c-32.667 0 -65.834 5.83301 -99.501 17.5s-68.167 17.5 -103.5 17.5z
M540.002 851c44 0 78.332 4.66699 102.999 14v-18c-25.333 -9.33301 -59.666 -14 -102.999 -14c-32.667 0 -66 5.83301 -100 17.5s-68.333 17.5 -103 17.5c-32.667 0 -66 -7.33301 -100 -22v20c33.333 13.333 66.666 20 99.999 20c35.333 0 69.833 -5.83301 103.5 -17.5
s66.834 -17.5 99.501 -17.5z" />
    <glyph glyph-name="adieresis" unicode="&#xe4;" horiz-adv-x="819" 
d="M302 211l-7 -18h286l-6 18h-273zM316 247l-7 -18h259l-7 18h-245zM540 301l-101 259l-102 -259h203zM331 283l-8 -18h231l-6 18h-217zM596 158l-6 17h-301l-8 -17h315zM275 140l-55 -140h-19l305 782h20l306 -782h-20l-296 758l-10 -24l286 -734h-19l-276 708l-10 -24
l268 -684h-20l-257 660l-10 -25l249 -635h-20l-238 611l-10 -27l228 -584h-19l-54 140h-329zM486 782l-305 -782h-20l306 782h19zM448 782l-305 -782h-20l306 782h19zM410 782l-305 -782h-20l305 782h20zM370 782l-304 -782h-21l306 782h19zM318 967v-133h-18v133h18z
M354 967v-133h-18v133h18zM390 967v-133h-18v133h18zM282 967v-133h-18v133h18zM523 967v-133h-18v133h18zM559 967v-133h-18v133h18zM595 967v-133h-18v133h18zM487 967v-133h-18v133h18z" />
    <glyph glyph-name="aring" unicode="&#xe5;" horiz-adv-x="819" 
d="M304 211l-7 -18h287l-7 18h-273zM318 247l-7 -18h259l-7 18h-245zM542 301l-101 259l-102 -259h203zM333 283l-7 -18h230l-6 18h-217zM598 158l-6 17h-301l-8 -17h315zM277 140l-55 -140h-19l305 782h21l305 -782h-20l-296 758l-10 -24l286 -734h-19l-276 708l-10 -24
l268 -684h-20l-257 660l-10 -25l249 -635h-20l-238 611l-10 -27l228 -584h-19l-54 140h-329zM488 782l-305 -782h-20l306 782h19zM450 782l-305 -782h-20l306 782h19zM412 782l-305 -782h-20l305 782h20zM372 782l-304 -782h-20l305 782h19zM443 1132
c41.333 0 76.666 -14.665 105.999 -43.998s44 -64.666 44 -105.999c0 -40.667 -14.667 -75.834 -44 -105.501s-64.666 -44.5 -105.999 -44.5s-76.666 14.667 -105.999 44s-44 64.666 -44 105.999s14.667 76.666 44 105.999s64.666 44 105.999 44zM311 982.002
c0 -36.667 12.833 -67.834 38.5 -93.501s56.834 -38.5 93.501 -38.5s67.834 12.833 93.501 38.5s38.5 56.834 38.5 93.501s-12.833 67.834 -38.5 93.501s-56.834 38.5 -93.501 38.5s-67.834 -12.833 -93.501 -38.5s-38.5 -56.834 -38.5 -93.501zM443 1096
c31.333 0 58.166 -11.167 80.499 -33.5s33.5 -49.166 33.5 -80.499s-11.167 -58.166 -33.5 -80.499s-49.166 -33.5 -80.499 -33.5c-32 0 -59 11.167 -81 33.5s-33 49.166 -33 80.499s11 58.166 33 80.499s49 33.5 81 33.5zM347 982.002
c0 -26.667 9.33301 -49.334 28 -68.001s41.334 -28 68.001 -28s49.334 9.33301 68.001 28s28 41.334 28 68.001s-9.33301 49.334 -28 68.001s-41.334 28 -68.001 28s-49.334 -9.33301 -68.001 -28s-28 -41.334 -28 -68.001zM443 1060c21.333 0 39.666 -7.66699 54.999 -23
s23 -33.666 23 -54.999s-7.66699 -39.666 -23 -54.999s-33.666 -23 -54.999 -23s-39.666 7.66699 -54.999 23s-23 33.666 -23 54.999s7.66699 39.666 23 54.999s33.666 23 54.999 23zM383 982.002c0 -16.667 5.83301 -30.834 17.5 -42.501s25.834 -17.5 42.501 -17.5
s30.834 5.83301 42.501 17.5s17.5 25.834 17.5 42.501s-5.83301 30.834 -17.5 42.501s-25.834 17.5 -42.501 17.5s-30.834 -5.83301 -42.501 -17.5s-17.5 -25.834 -17.5 -42.501z" />
    <glyph glyph-name="ae" unicode="&#xe6;" horiz-adv-x="1267" 
d="M310 211l-8 -18h287l-7 18h-272zM323 247l-7 -18h259l-6 18h-246zM548 301l-102 259l-101 -259h203zM338 283l-7 -18h230l-6 18h-217zM604 158l-7 17h-301l-7 -17h315zM837 782l2 -782h-20l-296 758l-9 -24l285 -734h-19l-276 708l-9 -24l267 -684h-20l-257 660l-9 -25
l248 -635h-20l-238 611l-9 -27l227 -584h-19l-54 140h-329l-55 -140h-19l306 782h20l285 -731v731h18zM494 782l-306 -782h-20l307 782h19zM456 782l-306 -782h-20l307 782h19zM418 782l-306 -782h-20l305 782h21zM377 782l-304 -782h-20l305 782h19zM945 782v-782h-18v782
h18zM909 782v-782h-18v782h18zM873 782v-782h-18v782h18zM981 347v-18h217v-18h-217v-149h292v-18h-292v-18h292v-18h-292v-18h292v-18h-292v-18h292v-18h-292v-18h292v-18h-310v782h310v-18h-292v-18h292v-18h-292v-18h292v-18h-292v-18h292v-18h-292v-18h292v-17h-292
v-148h217v-18h-217v-18h217v-18h-217v-18h217v-18h-217v-18h217v-18h-217z" />
    <glyph glyph-name="ccedilla" unicode="&#xe7;" horiz-adv-x="493" 
d="M497 625c-20 2.66699 -36 4 -48 4c-65.333 0 -121.333 -23.333 -168 -70s-70 -102.667 -70 -168s23.333 -121.333 70 -168s102.667 -70 168 -70c16 0 32 2 48 6v-19c-13.333 -3.33301 -29.333 -5 -48 -5c-70.667 0 -131 25 -181 75s-75 110.333 -75 181s25 131 75 181
s110.333 75 181 75c18 0 34 -1.33301 48 -4v-18zM497 661c-14 2.66699 -30 4 -48 4c-75.333 0 -139.833 -26.833 -193.5 -80.5s-80.5 -118.167 -80.5 -193.5s26.833 -139.833 80.5 -193.5s118.167 -80.5 193.5 -80.5c18.667 0 34.667 1.66699 48 5v-18
c-13.333 -3.33301 -29.333 -5 -48 -5c-80 0 -148.5 28.5 -205.5 85.5s-85.5 125.833 -85.5 206.5s28.5 149.5 85.5 206.5s125.5 85.5 205.5 85.5c18 0 34 -1.33301 48 -4v-18zM497 697c-12.667 2.66699 -28.667 4 -48 4c-85.333 0 -158.166 -30.333 -218.499 -91
s-90.5 -133.667 -90.5 -219s30.167 -158.333 90.5 -219s133.166 -91 218.499 -91c18 0 34 1.33301 48 4v-18c-14 -2.66699 -30 -4 -48 -4c-90.667 0 -167.834 32 -231.501 96s-95.5 141.333 -95.5 232s31.833 168 95.5 232s140.834 96 231.501 96c16 0 32 -1 48 -3v-19z
M497 734c-16 2 -32 3 -48 3c-95.333 0 -176.666 -33.833 -243.999 -101.5s-101 -149.167 -101 -244.5s33.667 -176.833 101 -244.5s148.666 -101.5 243.999 -101.5c10.667 0 26.667 1.33301 48 4v-18c-21.333 -2.66699 -37.333 -4 -48 -4
c-100.667 0 -186.334 35.5 -257.001 106.5s-106 156.833 -106 257.5s35.333 186.5 106 257.5s156.334 106.5 257.001 106.5c16 0 32 -1 48 -3v-18zM421 -31l-124 -123l-13 12l124 124zM446 -56l-124 -124l-12 13l123 124zM395 -5l-123.001 -124l-13 13l116 115
c-93.333 17.333 -170.833 62.833 -232.5 136.5s-92.5 158.834 -92.5 255.501c0 110.667 38.833 205 116.5 283s171.834 117 282.501 117c16 0 32 -1 48 -3v-18c-16 2 -32 3 -48 3c-104.667 0 -194.334 -37.333 -269.001 -112s-112 -164.667 -112 -270
c0 -104.667 37.333 -194.334 112 -269.001s164.334 -112 269.001 -112c16 0 32 1 48 3v-18c-16 -2 -32 -3 -48 -3c-22 0 -40 1 -54 3z" />
    <glyph glyph-name="egrave" unicode="&#xe8;" horiz-adv-x="513" 
d="M81 782v-782h-18v782h18zM189 782v-782h-18v782h18zM153 782v-782h-18v782h18zM117 782v-782h-18v782h18zM225 347v-18h217v-18h-217v-149h292v-18h-292v-18h292v-18h-292v-18h292v-18h-292v-18h292v-18h-292v-18h292v-18h-310v782h310v-18h-292v-18h292v-18h-292v-18
h292v-18h-292v-18h292v-18h-292v-18h292v-17h-292v-148h217v-18h-217v-18h217v-18h-217v-18h217v-18h-217v-18h217v-18h-217zM266 974l139 -140h-26l-138 140h25zM317 974l140 -140h-26l-139 140h25zM216 974l138 -140h-25l-139 140h26z" />
    <glyph glyph-name="eacute" unicode="&#xe9;" horiz-adv-x="513" 
d="M81 782v-782h-18v782h18zM189 782v-782h-18v782h18zM153 782v-782h-18v782h18zM117 782v-782h-18v782h18zM225 347v-18h217v-18h-217v-149h292v-18h-292v-18h292v-18h-292v-18h292v-18h-292v-18h292v-18h-292v-18h292v-18h-310v782h310v-18h-292v-18h292v-18h-292v-18
h292v-18h-292v-18h292v-18h-292v-18h292v-17h-292v-148h217v-18h-217v-18h217v-18h-217v-18h217v-18h-217v-18h217v-18h-217zM372 974l-138 -140h-26l139 140h25zM321 974l-139 -140h-26l140 140h25zM423 974l-139 -140h-25l138 140h26z" />
    <glyph glyph-name="ecircumflex" unicode="&#xea;" horiz-adv-x="513" 
d="M81 782v-782h-18v782h18zM189 782v-782h-18v782h18zM153 782v-782h-18v782h18zM117 782v-782h-18v782h18zM225 347v-18h217v-18h-217v-149h292v-18h-292v-18h292v-18h-292v-18h292v-18h-292v-18h292v-18h-292v-18h292v-18h-310v782h310v-18h-292v-18h292v-18h-292v-18
h292v-18h-292v-18h292v-18h-292v-18h292v-17h-292v-148h217v-18h-217v-18h217v-18h-217v-18h217v-18h-217v-18h217v-18h-217zM255 974l-140 -140h-25l139 140h26zM305 974l-138 -140h-25l138 140h25zM318 936l-13 -13l88 -89h-25l-75 76l-75 -76h-26l139 140h25l140 -140
h-26l-126 127l-13 -13l113 -114h-25z" />
    <glyph glyph-name="edieresis" unicode="&#xeb;" horiz-adv-x="513" 
d="M81 782v-782h-18v782h18zM189 782v-782h-18v782h18zM153 782v-782h-18v782h18zM117 782v-782h-18v782h18zM225 347v-18h217v-18h-217v-149h292v-18h-292v-18h292v-18h-292v-18h292v-18h-292v-18h292v-18h-292v-18h292v-18h-310v782h310v-18h-292v-18h292v-18h-292v-18
h292v-18h-292v-18h292v-18h-292v-18h292v-17h-292v-148h217v-18h-217v-18h217v-18h-217v-18h217v-18h-217v-18h217v-18h-217zM196 967v-133h-18v133h18zM232 967v-133h-18v133h18zM267 967v-133h-18v133h18zM160 967v-133h-18v133h18zM401 967v-133h-18v133h18zM437 967
v-133h-18v133h18zM473 967v-133h-18v133h18zM365 967v-133h-18v133h18z" />
    <glyph glyph-name="igrave" unicode="&#xec;" horiz-adv-x="225" 
d="M117 782v-782h-18v782h18zM153 782v-782h-18v782h18zM189 782v-782h-18v782h18zM225 782v-782h-18v782h18zM81 782v-782h-18v782h18zM76 974l139 -140h-26l-138 140h25zM127 974l139 -140h-25l-140 140h26zM25 974l139 -140h-26l-138 140h25z" />
    <glyph glyph-name="iacute" unicode="&#xed;" horiz-adv-x="225" 
d="M117 782v-782h-18v782h18zM153 782v-782h-18v782h18zM189 782v-782h-18v782h18zM225 782v-782h-18v782h18zM81 782v-782h-18v782h18zM245 974l-138 -140h-26l139 140h25zM195 974l-140 -140h-25l139 140h26zM296 974l-138 -140h-26l139 140h25z" />
    <glyph glyph-name="icircumflex" unicode="&#xee;" horiz-adv-x="225" 
d="M117 782v-782h-18v782h18zM153 782v-782h-18v782h18zM189 782v-782h-18v782h18zM225 782v-782h-18v782h18zM81 782v-782h-18v782h18zM107 974l-140 -140h-25l139 140h26zM158 974l-139 -140h-25l138 140h26zM170 936l-12 -13l87 -89h-25l-75 76l-75 -76h-26l139 140h25
l140 -140h-26l-126 127l-13 -13l113 -114h-25z" />
    <glyph glyph-name="idieresis" unicode="&#xef;" horiz-adv-x="225" 
d="M117 782v-782h-18v782h18zM153 782v-782h-18v782h18zM189 782v-782h-18v782h18zM225 782v-782h-18v782h18zM81 782v-782h-18v782h18zM26 967v-133h-18v133h18zM62 967v-133h-18v133h18zM98 967v-133h-18v133h18zM-10 967v-133h-17v133h17zM232 967v-133h-18v133h18z
M267 967v-133h-18v133h18zM303 967v-133h-18v133h18zM196 967v-133h-18v133h18z" />
    <glyph glyph-name="eth" unicode="&#xf0;" horiz-adv-x="601" 
d="M225 36v-18c103.333 2 191.333 39 264 111s109 159.333 109 262s-36.333 190 -109 262s-160.667 109 -264 111v-18c99.333 -2 183.333 -37 252 -105s103 -151.333 103 -250s-34.333 -182 -103 -250s-152.667 -103 -252 -105zM225 72v-18c94 2 173.667 35.333 239 100
s98 143.667 98 237s-32.667 172.333 -98 237s-145 98 -239 100v-18c89.333 -2 164.833 -33.5 226.5 -94.5s92.5 -135.833 92.5 -224.5c0 -88 -31 -162.667 -93 -224s-137.333 -93 -226 -95zM225 108v-18c84 2 155.167 31.833 213.5 89.5s87.5 128.167 87.5 211.5
s-29.167 153.833 -87.5 211.5s-129.5 87.5 -213.5 89.5v-18c79.333 -2 146.333 -30 201 -84s82 -120.333 82 -199c0 -78 -27.5 -144.167 -82.5 -198.5s-121.833 -82.5 -200.5 -84.5zM225 144v-18c74 2 136.667 28.333 188 79s77 112.667 77 186s-25.667 135.333 -77 186
s-114 77 -188 79v-18c70 -2 128.833 -26.5 176.5 -73.5s71.5 -104.833 71.5 -173.5s-24 -126.5 -72 -173.5s-106.667 -71.5 -176 -73.5zM99 373h-18v-18h18v18zM135 373h-18v-18h18v18zM171 373h-18v-18h18v18zM207 373h-18v-18h18v18zM99 409h-18v-18h18v18zM135 409h-18
v-18h18v18zM171 409h-18v-18h18v18zM207 409h-18v-18h18v18zM99 445h-18v-18h18v18zM135 445h-18v-18h18v18zM171 445h-18v-18h18v18zM207 445h-18v-18h18v18zM225 319l149 -0.000976562v-18h-149v-139c64 2 118.333 24.833 163 68.5s67 97.167 67 160.5
s-22.333 116.833 -67 160.5s-99 66.834 -163 69.501v-158h149v-18h-149v-18h149v-18h-149v-18h149v-18h-149v-18h149v-18h-149v-18zM189 318.999h18v18h-18v-18zM153 318.999h18v18h-18v-18zM117 318.999h18v18h-18v-18zM81 318.999h18v18h-18v-18zM0 318.999h63v18h-63v18
h63v18h-63v18h63v18h-63v18h63v18h-63v18h63v319h18v-319h18v319h18v-319h18v319h18v-319h18v319h18v-319h18v319h18c109.333 0 201.833 -37.833 277.5 -113.5s113.5 -168.167 113.5 -277.5s-38.167 -201.833 -114.5 -277.5s-168.5 -113.5 -276.5 -113.5h-18v301h-18v-301
h-18v301h-18v-301h-18v301h-18v-301h-18v301h-18v-301h-18v301h-63v18zM225 17.999z" />
    <glyph glyph-name="ntilde" unicode="&#xf1;" horiz-adv-x="702" 
d="M209 782l450 -782h-21l-450 782h21zM168 782l450 -782h-22l-449 782h21zM126 782l450 -782h-21l-449 782h20zM593 187l18 -31v626h18v-657l18 -31v688h18v-720l18 -30v750h18v-782h-22l-450 782h20l290 -502v502h18v-533l18 -30v563h18v-595zM99 720l-18 32v-752h-18v782
h19l453 -782h-22l-288 501v-501h-18v532l-18 31v-563h-18v594l-18 32v-626h-18v658l-18 31v-689h-18v720zM278 940c-38 0 -71.333 -5.66699 -100 -17v19c36 10.667 69.333 16 100 16c35.333 0 69.833 -5.83301 103.5 -17.5s66.834 -17.5 99.501 -17.5
c37.333 0 71.666 5.66699 102.999 17v-19c-34.667 -10.667 -69 -16 -103 -16c-32.667 0 -66 5.83301 -100 17.5s-68.333 17.5 -103 17.5zM278 904c-34 0 -67.3311 -6.33301 -99.998 -19v19c33.333 12 66.666 18 99.999 18c34.667 0 69 -5.83301 103 -17.5
s67.333 -17.5 100 -17.5c30 0 64.333 5 103 15v-18c-32.667 -10 -67 -15 -103 -15c-32.667 0 -65.834 5.83301 -99.501 17.5s-68.167 17.5 -103.5 17.5zM481.002 851c44 0 78.333 4.66699 103 14v-18c-26.667 -9.33301 -61 -14 -103 -14c-32.667 0 -66 5.83301 -100 17.5
s-68.333 17.5 -103 17.5c-32.667 0 -66 -7.33301 -100 -22v20c33.333 13.333 66.666 20 99.999 20c35.333 0 69.833 -5.83301 103.5 -17.5s66.834 -17.5 99.501 -17.5z" />
    <glyph glyph-name="ograve" unicode="&#xf2;" 
d="M446 -8c-110.667 0 -204.834 38.833 -282.501 116.5s-116.5 171.834 -116.5 282.501s38.833 205 116.5 283s171.834 117 282.501 117s205 -39 283 -117s117 -172.333 117 -283s-39 -204.834 -117 -282.501s-172.333 -116.5 -283 -116.5zM64 391
c0 -104.667 37.333 -194.334 112 -269.001s164.667 -112 270 -112s195.333 37.333 270 112s112 164.334 112 269.001c0 105.333 -37.333 195.333 -112 270s-164.667 112 -270 112c-104.667 0 -194.5 -37.333 -269.5 -112s-112.5 -164.667 -112.5 -270zM446 27
c-100.667 0 -186.5 35.5 -257.5 106.5s-106.5 156.833 -106.5 257.5s35.5 186.5 106.5 257.5s156.833 106.5 257.5 106.5s186.5 -35.5 257.5 -106.5s106.5 -156.833 106.5 -257.5s-35.5 -186.5 -106.5 -257.5s-156.833 -106.5 -257.5 -106.5zM100 391
c0 -95.333 33.833 -176.833 101.5 -244.5s149.167 -101.5 244.5 -101.5s176.833 33.833 244.5 101.5s101.5 149.167 101.5 244.5s-33.833 176.833 -101.5 244.5s-149.167 101.5 -244.5 101.5s-176.833 -33.833 -244.5 -101.5s-101.5 -149.167 -101.5 -244.5zM446 63
c-90.667 0 -168 32 -232 96s-96 141.333 -96 232s32 168 96 232s141.333 96 232 96s168 -32 232 -96s96 -141.333 96 -232s-32 -168 -96 -232s-141.333 -96 -232 -96zM136 391c0 -85.333 30.333 -158.333 91 -219s133.667 -91 219 -91s158.333 30.333 219 91
s91 133.667 91 219s-30.333 158.333 -91 219s-133.667 91 -219 91s-158.333 -30.333 -219 -91s-91 -133.667 -91 -219zM446 99c-80.667 0 -149.5 28.5 -206.5 85.5s-85.5 125.833 -85.5 206.5s28.5 149.5 85.5 206.5s125.833 85.5 206.5 85.5s149.5 -28.5 206.5 -85.5
s85.5 -125.833 85.5 -206.5s-28.5 -149.5 -85.5 -206.5s-125.833 -85.5 -206.5 -85.5zM172 391c0 -75.333 26.833 -139.833 80.5 -193.5s118.167 -80.5 193.5 -80.5s139.833 26.833 193.5 80.5s80.5 118.167 80.5 193.5s-26.833 139.833 -80.5 193.5
s-118.167 80.5 -193.5 80.5s-139.833 -26.833 -193.5 -80.5s-80.5 -118.167 -80.5 -193.5zM446 135c-70.667 0 -131 25 -181 75s-75 110.333 -75 181c0 71.333 25 131.833 75 181.5s110.333 74.5 181 74.5c71.333 0 131.833 -24.833 181.5 -74.5s74.5 -110.167 74.5 -181.5
c0 -70.667 -24.833 -131 -74.5 -181s-110.167 -75 -181.5 -75zM208 391c0 -65.333 23.333 -121.333 70 -168s102.667 -70 168 -70s121.333 23.333 168 70s70 102.667 70 168s-23.333 121.333 -70 168s-102.667 70 -168 70s-121.333 -23.333 -168 -70s-70 -102.667 -70 -168z
M377 974l139 -140h-26l-138 140h25zM428 974l140 -140h-26l-139 140h25zM327 974l138 -140h-25l-139 140h26z" />
    <glyph glyph-name="oacute" unicode="&#xf3;" 
d="M448 -8c-110.667 0 -204.834 38.833 -282.501 116.5s-116.5 171.834 -116.5 282.501s38.833 205 116.5 283s171.834 117 282.501 117s205 -39 283 -117s117 -172.333 117 -283s-39 -204.834 -117 -282.501s-172.333 -116.5 -283 -116.5zM67 391
c0 -104.667 37.333 -194.332 112 -268.999s164.334 -112 269.001 -112c105.333 0 195.333 37.167 270 111.5s112 164.166 112 269.499s-37.333 195.333 -112 270s-164.667 112 -270 112c-104.667 0 -194.334 -37.333 -269.001 -112s-112 -164.667 -112 -270zM448 27.002
c-100.667 0 -186.334 35.5 -257.001 106.5s-106 156.833 -106 257.5s35.333 186.5 106 257.5s156.334 106.5 257.001 106.5s186.5 -35.5 257.5 -106.5s106.5 -156.833 106.5 -257.5s-35.5 -186.5 -106.5 -257.5s-156.833 -106.5 -257.5 -106.5zM103 391.002
c0 -95.333 33.667 -176.833 101 -244.5s148.666 -101.5 243.999 -101.5c96 0 177.667 33.833 245 101.5s101 149.167 101 244.5s-33.667 176.833 -101 244.5s-149 101.5 -245 101.5c-95.333 0 -176.666 -33.833 -243.999 -101.5s-101 -149.167 -101 -244.5zM448 63.002
c-90.667 0 -167.834 32 -231.501 96s-95.5 141.333 -95.5 232s31.833 168 95.5 232s140.834 96 231.501 96s168 -32 232 -96s96 -141.333 96 -232s-32 -168 -96 -232s-141.333 -96 -232 -96zM138 391.002c0 -85.333 30.333 -158.333 91 -219s133.667 -91 219 -91
s158.333 30.333 219 91s91 133.667 91 219s-30.333 158.333 -91 219s-133.667 91 -219 91s-158.333 -30.333 -219 -91s-91 -133.667 -91 -219zM448 99.002c-80 0 -148.667 28.5 -206 85.5s-86 125.833 -86 206.5s28.667 149.5 86 206.5s126 85.5 206 85.5
c80.667 0 149.5 -28.5 206.5 -85.5s85.5 -125.833 85.5 -206.5s-28.5 -149.5 -85.5 -206.5s-125.833 -85.5 -206.5 -85.5zM174 391.002c0 -75.333 26.833 -139.833 80.5 -193.5s118.167 -80.5 193.5 -80.5s139.833 26.833 193.5 80.5s80.5 118.167 80.5 193.5
s-26.833 139.833 -80.5 193.5s-118.167 80.5 -193.5 80.5s-139.833 -26.833 -193.5 -80.5s-80.5 -118.167 -80.5 -193.5zM448 135.002c-70.667 0 -131 25 -181 75s-75 110.333 -75 181s25 131 75 181s110.333 75 181 75c71.333 0 131.833 -24.833 181.5 -74.5
s74.5 -110.167 74.5 -181.5c0 -70.667 -24.833 -131 -74.5 -181s-110.167 -75 -181.5 -75zM210 391.002c0 -65.333 23.333 -121.333 70 -168s102.667 -70 168 -70s121.333 23.333 168 70s70 102.667 70 168s-23.333 121.333 -70 168s-102.667 70 -168 70
s-121.333 -23.333 -168 -70s-70 -102.667 -70 -168zM578 974.002l-138 -140h-26l139 140h25zM527 974.002l-139 -140h-25l139 140h25zM629 974.002l-139 -140h-25l139 140h25z" />
    <glyph glyph-name="ocircumflex" unicode="&#xf4;" 
d="M446 -8c-110.667 0 -204.834 38.833 -282.501 116.5s-116.5 171.834 -116.5 282.501s38.833 205 116.5 283s171.834 117 282.501 117s205 -39 283 -117s117 -172.333 117 -283s-39 -204.834 -117 -282.501s-172.333 -116.5 -283 -116.5zM64 391
c0 -104.667 37.333 -194.334 112 -269.001s164.667 -112 270 -112s195.333 37.333 270 112s112 164.334 112 269.001c0 105.333 -37.333 195.333 -112 270s-164.667 112 -270 112c-104.667 0 -194.5 -37.333 -269.5 -112s-112.5 -164.667 -112.5 -270zM446 27
c-100.667 0 -186.5 35.5 -257.5 106.5s-106.5 156.833 -106.5 257.5s35.5 186.5 106.5 257.5s156.833 106.5 257.5 106.5s186.5 -35.5 257.5 -106.5s106.5 -156.833 106.5 -257.5s-35.5 -186.5 -106.5 -257.5s-156.833 -106.5 -257.5 -106.5zM100 391
c0 -95.333 33.833 -176.833 101.5 -244.5s149.167 -101.5 244.5 -101.5s176.833 33.833 244.5 101.5s101.5 149.167 101.5 244.5s-33.833 176.833 -101.5 244.5s-149.167 101.5 -244.5 101.5s-176.833 -33.833 -244.5 -101.5s-101.5 -149.167 -101.5 -244.5zM446 63
c-90.667 0 -168 32 -232 96s-96 141.333 -96 232s32 168 96 232s141.333 96 232 96s168 -32 232 -96s96 -141.333 96 -232s-32 -168 -96 -232s-141.333 -96 -232 -96zM136 391c0 -85.333 30.333 -158.333 91 -219s133.667 -91 219 -91s158.333 30.333 219 91
s91 133.667 91 219s-30.333 158.333 -91 219s-133.667 91 -219 91s-158.333 -30.333 -219 -91s-91 -133.667 -91 -219zM446 99c-80.667 0 -149.5 28.5 -206.5 85.5s-85.5 125.833 -85.5 206.5s28.5 149.5 85.5 206.5s125.833 85.5 206.5 85.5s149.5 -28.5 206.5 -85.5
s85.5 -125.833 85.5 -206.5s-28.5 -149.5 -85.5 -206.5s-125.833 -85.5 -206.5 -85.5zM172 391c0 -75.333 26.833 -139.833 80.5 -193.5s118.167 -80.5 193.5 -80.5s139.833 26.833 193.5 80.5s80.5 118.167 80.5 193.5s-26.833 139.833 -80.5 193.5
s-118.167 80.5 -193.5 80.5s-139.833 -26.833 -193.5 -80.5s-80.5 -118.167 -80.5 -193.5zM446 135c-70.667 0 -131 25 -181 75s-75 110.333 -75 181c0 71.333 25 131.833 75 181.5s110.333 74.5 181 74.5c71.333 0 131.833 -24.833 181.5 -74.5s74.5 -110.167 74.5 -181.5
c0 -70.667 -24.833 -131 -74.5 -181s-110.167 -75 -181.5 -75zM208 391c0 -65.333 23.333 -121.333 70 -168s102.667 -70 168 -70s121.333 23.333 168 70s70 102.667 70 168s-23.333 121.333 -70 168s-102.667 70 -168 70s-121.333 -23.333 -168 -70s-70 -102.667 -70 -168z
M402 974l-140 -140h-25l139 140h26zM452 974l-138 -140h-25l138 140h25zM465 936l-13 -13l88 -89h-25l-75 76l-75 -76h-26l139 140h25l140 -140h-26l-127 127l-12 -13l113 -114h-25z" />
    <glyph glyph-name="otilde" unicode="&#xf5;" 
d="M451 -8c-110.667 0 -204.834 38.833 -282.501 116.5s-116.5 171.834 -116.5 282.501s38.833 205 116.5 283s171.834 117 282.501 117s205 -39 283 -117s117 -172.333 117 -283s-39 -204.834 -117 -282.501s-172.333 -116.5 -283 -116.5zM70 391
c0 -104.667 37.333 -194.332 112 -268.999s164.334 -112 269.001 -112c105.333 0 195.333 37.167 270 111.5s112 164.166 112 269.499s-37.333 195.333 -112 270s-164.667 112 -270 112c-104.667 0 -194.334 -37.333 -269.001 -112s-112 -164.667 -112 -270zM451 27.002
c-100 0 -185.5 35.5 -256.5 106.5s-106.5 156.833 -106.5 257.5s35.5 186.5 106.5 257.5s156.5 106.5 256.5 106.5c100.667 0 186.5 -35.5 257.5 -106.5s106.5 -156.833 106.5 -257.5s-35.5 -186.5 -106.5 -257.5s-156.833 -106.5 -257.5 -106.5zM106 391.002
c0 -95.333 33.667 -176.833 101 -244.5s148.666 -101.5 243.999 -101.5c96 0 177.667 33.833 245 101.5s101 149.167 101 244.5s-33.667 176.833 -101 244.5s-149 101.5 -245 101.5c-95.333 0 -176.666 -33.833 -243.999 -101.5s-101 -149.167 -101 -244.5zM451 63.002
c-90 0 -167 32 -231 96s-96 141.333 -96 232s32 168 96 232s141 96 231 96c90.667 0 168 -32 232 -96s96 -141.333 96 -232s-32 -168 -96 -232s-141.333 -96 -232 -96zM142 391.002c0 -85.333 30.167 -158.333 90.5 -219s133.166 -91 218.499 -91
c86 0 159.167 30.333 219.5 91s90.5 133.667 90.5 219s-30.167 158.333 -90.5 219s-133.5 91 -219.5 91c-85.333 0 -158.166 -30.333 -218.499 -91s-90.5 -133.667 -90.5 -219zM451 99.002c-80 0 -148.5 28.5 -205.5 85.5s-85.5 125.833 -85.5 206.5s28.5 149.5 85.5 206.5
s125.5 85.5 205.5 85.5c80.667 0 149.5 -28.5 206.5 -85.5s85.5 -125.833 85.5 -206.5s-28.5 -149.5 -85.5 -206.5s-125.833 -85.5 -206.5 -85.5zM178 391.002c0 -75.333 26.667 -139.833 80 -193.5s117.666 -80.5 192.999 -80.5c76 0 140.667 26.833 194 80.5
s80 118.167 80 193.5s-26.667 139.833 -80 193.5s-118 80.5 -194 80.5c-75.333 0 -139.666 -26.833 -192.999 -80.5s-80 -118.167 -80 -193.5zM451 135.002c-70.667 0 -130.834 25 -180.501 75s-74.5 110.333 -74.5 181s24.833 131 74.5 181s109.834 75 180.501 75
c71.333 0 131.833 -24.833 181.5 -74.5s74.5 -110.167 74.5 -181.5c0 -70.667 -24.833 -131 -74.5 -181s-110.167 -75 -181.5 -75zM214 391.002c0 -65.333 23.167 -121.333 69.5 -168s102.166 -70 167.499 -70s121.333 23.333 168 70s70 102.667 70 168
s-23.333 121.333 -70 168s-102.667 70 -168 70s-121.166 -23.333 -167.499 -70s-69.5 -102.667 -69.5 -168zM347 940.002c-38.667 0 -72.334 -5.66699 -101.001 -17v19c37.333 10.667 71 16 101 16c34.667 0 68.834 -5.83301 102.501 -17.5s67.167 -17.5 100.5 -17.5
c38 0 72 5.66699 102 17v-19c-33.333 -10.667 -67.333 -16 -102 -16c-33.333 0 -67 5.83301 -101 17.5s-68 17.5 -102 17.5zM347 904.002c-33.333 0 -67 -6.33301 -101 -19v19c34.667 12 68.334 18 101.001 18c34 0 68 -5.83301 102 -17.5s67.667 -17.5 101 -17.5
c30.667 0 64.667 5 102 15v-18c-31.333 -10 -65.333 -15 -102 -15c-33.333 0 -66.833 5.83301 -100.5 17.5s-67.834 17.5 -102.501 17.5zM550 851.002c43.333 0 77.3311 4.66699 101.998 14v-18c-25.333 -9.33301 -59.333 -14 -102 -14c-33.333 0 -67 5.83301 -101 17.5
s-68 17.5 -102 17.5c-32 0 -65.667 -7.33301 -101 -22v20c34.667 13.333 68.334 20 101.001 20c34.667 0 68.834 -5.83301 102.501 -17.5s67.167 -17.5 100.5 -17.5z" />
    <glyph glyph-name="odieresis" unicode="&#xf6;" 
d="M446 -8c-110.667 0 -204.834 38.833 -282.501 116.5s-116.5 171.834 -116.5 282.501s38.833 205 116.5 283s171.834 117 282.501 117s205 -39 283 -117s117 -172.333 117 -283s-39 -204.834 -117 -282.501s-172.333 -116.5 -283 -116.5zM64 391
c0 -104.667 37.333 -194.334 112 -269.001s164.667 -112 270 -112s195.333 37.333 270 112s112 164.334 112 269.001c0 105.333 -37.333 195.333 -112 270s-164.667 112 -270 112c-104.667 0 -194.5 -37.333 -269.5 -112s-112.5 -164.667 -112.5 -270zM446 27
c-100.667 0 -186.5 35.5 -257.5 106.5s-106.5 156.833 -106.5 257.5s35.5 186.5 106.5 257.5s156.833 106.5 257.5 106.5s186.5 -35.5 257.5 -106.5s106.5 -156.833 106.5 -257.5s-35.5 -186.5 -106.5 -257.5s-156.833 -106.5 -257.5 -106.5zM100 391
c0 -95.333 33.833 -176.833 101.5 -244.5s149.167 -101.5 244.5 -101.5s176.833 33.833 244.5 101.5s101.5 149.167 101.5 244.5s-33.833 176.833 -101.5 244.5s-149.167 101.5 -244.5 101.5s-176.833 -33.833 -244.5 -101.5s-101.5 -149.167 -101.5 -244.5zM446 63
c-90.667 0 -168 32 -232 96s-96 141.333 -96 232s32 168 96 232s141.333 96 232 96s168 -32 232 -96s96 -141.333 96 -232s-32 -168 -96 -232s-141.333 -96 -232 -96zM136 391c0 -85.333 30.333 -158.333 91 -219s133.667 -91 219 -91s158.333 30.333 219 91
s91 133.667 91 219s-30.333 158.333 -91 219s-133.667 91 -219 91s-158.333 -30.333 -219 -91s-91 -133.667 -91 -219zM446 99c-80.667 0 -149.5 28.5 -206.5 85.5s-85.5 125.833 -85.5 206.5s28.5 149.5 85.5 206.5s125.833 85.5 206.5 85.5s149.5 -28.5 206.5 -85.5
s85.5 -125.833 85.5 -206.5s-28.5 -149.5 -85.5 -206.5s-125.833 -85.5 -206.5 -85.5zM172 391c0 -75.333 26.833 -139.833 80.5 -193.5s118.167 -80.5 193.5 -80.5s139.833 26.833 193.5 80.5s80.5 118.167 80.5 193.5s-26.833 139.833 -80.5 193.5
s-118.167 80.5 -193.5 80.5s-139.833 -26.833 -193.5 -80.5s-80.5 -118.167 -80.5 -193.5zM446 135c-70.667 0 -131 25 -181 75s-75 110.333 -75 181c0 71.333 25 131.833 75 181.5s110.333 74.5 181 74.5c71.333 0 131.833 -24.833 181.5 -74.5s74.5 -110.167 74.5 -181.5
c0 -70.667 -24.833 -131 -74.5 -181s-110.167 -75 -181.5 -75zM208 391c0 -65.333 23.333 -121.333 70 -168s102.667 -70 168 -70s121.333 23.333 168 70s70 102.667 70 168s-23.333 121.333 -70 168s-102.667 70 -168 70s-121.333 -23.333 -168 -70s-70 -102.667 -70 -168z
M329 967v-133h-18v133h18zM365 967v-133h-18v133h18zM401 967v-133h-18v133h18zM293 967v-133h-18v133h18zM534 967v-133h-18v133h18zM570 967v-133h-18v133h18zM606 967v-133h-18v133h18zM498 967v-133h-18v133h18z" />
    <glyph glyph-name="divide" unicode="&#xf7;" horiz-adv-x="466" 
d="M63 301h398v-18h-398v18zM63 337h398v-18h-398v18zM63 373h398v-18h-398v18zM63 409h398v-18h-398v18zM63 265h398v-18h-398v18zM236 176v-175h-18v175h18zM272 176v-175h-18v175h18zM308 176v-175h-18v175h18zM344 176v-175h-18v175h18zM200 176v-175h-18v175h18z
M236 658v-175h-18v175h18zM272 658v-175h-18v175h18zM308 658v-175h-18v175h18zM344 658v-175h-18v175h18zM200 658v-175h-18v175h18z" />
    <glyph glyph-name="oslash" unicode="&#xf8;" 
d="M700 651l13 13l-14 12l-12 -12c4.66699 -4 9 -8.33301 13 -13zM675 626l12 13c-4 4 -8.33301 8 -13 12l-13 -13zM649 600l13 13c-4 4 -8.33301 8 -13 12l-13 -12c4.66699 -4 9 -8.33301 13 -13zM624 575l12 13c-4 4 -8.33301 8 -13 12l-12 -13
c4.66699 -3.33301 9 -7.33301 13 -12zM275 226l336 336c-4.66699 4 -9 8 -13 12l-335 -335c4 -4 8 -8.33301 12 -13zM249 201l13 12c-4.66699 4 -8.66699 8.33301 -12 13l-13 -12c4 -4.66699 8 -9 12 -13zM224 175l13 13c-4.66699 4 -9 8.33301 -13 13l-12 -13
c4 -4.66699 8 -9 12 -13zM198 150l13 12l-12 14l-13 -13c4 -4.66699 8 -9 12 -13zM173 125l13 12c-4.66699 4 -9 8.33301 -13 13l-12 -12c4 -4.66699 8 -9 12 -13zM725 625l12 12l-12 14l-12 -12zM699 599l13 13l-12 14l-13 -13zM674 574l12 13
c-3.33301 4.66699 -7 9 -11 13l-13 -12zM648 549l13 12l-12 14l-12 -13c4 -4 7.66699 -8.33301 11 -13zM302 202l333 333l-12 14l-335 -335zM276 176l12 13c-4.66699 3.33301 -9 7 -13 11l-13 -12zM250 151l13 12l-14 12l-12 -13c4 -4 8.33301 -7.66699 13 -11zM225 125
l13 13l-14 12l-13 -13zM200 100l12 12l-14 12l-12 -12zM747 596l12 13l-10 14l-13 -12c4 -4.66699 7.66699 -9.66699 11 -15zM721 570l13 13c-3.33301 5.33301 -7 10.333 -11 15l-13 -13c4 -4.66699 7.66699 -9.66699 11 -15zM695 544l13 13
c-3.33301 5.33301 -7 10.333 -11 15l-13 -13c4 -4.66699 7.66699 -9.66699 11 -15zM669 518l12 13c-2.66699 5.33301 -5.66699 10.333 -9 15l-13 -12zM333 182l322 322c-2.66699 6 -5.66699 11.333 -9 16l-329 -329c4.66699 -3.33301 10 -6.33301 16 -9zM306 156l13 12
l-16 10l-12 -13c4.66699 -3.33301 9.66699 -6.33301 15 -9zM280 129l13 13c-5.33301 3.33301 -10.333 7 -15 11l-13 -13c4.66699 -4 9.66699 -7.66699 15 -11zM254 103l13 13c-5.33301 3.33301 -10.333 7 -15 11l-13 -13c4.66699 -4 9.66699 -7.66699 15 -11zM229 78l12 12
c-5.33301 3.33301 -10.333 7 -15 11l-12 -12c4.66699 -4 9.66699 -7.66699 15 -11zM663 487l-313 -313c30 -14 62 -21 96 -21c65.333 0 121.333 23.333 168 70s70 102.667 70 168c0 34 -7 66 -21 96zM691 514l-13.999 -12.999c16.667 -34.667 25 -71.334 25 -110.001
c0 -71.333 -24.833 -131.833 -74.5 -181.5s-110.167 -74.5 -181.5 -74.5c-38.667 0 -75.334 8.33301 -110.001 25l-13 -14c38.667 -19.333 79.667 -29 123 -29c75.333 0 139.833 26.833 193.5 80.5s80.5 118.167 80.5 193.5c0 43.333 -9.66699 84.333 -29 123z
M717.001 541.001l-12.999 -12.999c22.667 -42.667 34 -88.334 34 -137.001c0 -80.667 -28.5 -149.5 -85.5 -206.5s-125.833 -85.5 -206.5 -85.5c-48.667 0 -94.334 11.333 -137.001 34l-13 -13c46.667 -26 96.667 -39 150 -39c85.333 0 158.333 30.333 219 91
s91 133.667 91 219c0 53.333 -13 103.333 -39 150zM744.002 568.002l-14 -14c29.333 -50 44 -104.333 44 -163c0 -90.667 -32 -168 -96 -232s-141.333 -96 -232 -96c-58.667 0 -113 14.667 -163 44l-14 -14c54.667 -32 113.667 -48 177 -48
c95.333 0 176.833 33.833 244.5 101.5s101.5 149.167 101.5 244.5c0 63.333 -16 122.333 -48 177zM769.002 593.002l-12 -12c35.333 -58 53 -121.333 53 -190c0 -100.667 -35.5 -186.5 -106.5 -257.5s-156.833 -106.5 -257.5 -106.5c-68.667 0 -132 17.667 -190 53l-12 -12
c62 -38.667 129.333 -58 202 -58c105.333 0 195.333 37.333 270 112s112 164.334 112 269.001c0 73.333 -19.667 140.666 -59 201.999zM233.002 286.002l318 318c-32.667 16.667 -67.667 25 -105 25c-65.333 0 -121.333 -23.333 -168 -70s-70 -102.667 -70 -168
c0 -37.333 8.33301 -72.333 25 -105zM206.002 259.002l13 13c-19.333 37.333 -29 77 -29 119c0 71.333 24.833 131.833 74.5 181.5s110.167 74.5 181.5 74.5c42 0 81.667 -9.66699 119 -29l13 13c-41.333 22.667 -85.333 34 -132 34
c-75.333 0 -139.833 -26.833 -193.5 -80.5s-80.5 -118.167 -80.5 -193.5c0 -46.667 11.333 -90.667 34 -132zM180.002 233.002l13.001 13.001c-26 44.667 -39 93 -39 145c0 80.667 28.5 149.5 85.5 206.5s125.833 85.5 206.5 85.5c52 0 100.333 -13 145 -39l13 13
c-48.667 29.333 -101.334 44 -158.001 44c-85.333 0 -158.333 -30.333 -219 -91s-91 -133.667 -91 -219c0 -56.667 14.667 -109.334 44 -158.001zM153.003 206.003l13.001 13.001c-32 52.667 -48 110 -48 172c0 90.667 32 168 96 232s141.333 96 232 96
c62 0 119.333 -16 172 -48l13 13c-56.667 35.333 -118.334 53 -185.001 53c-95.333 0 -176.833 -33.833 -244.5 -101.5s-101.5 -149.167 -101.5 -244.5c0 -66.667 17.667 -128.334 53 -185.001zM128.004 181.004l12 12c-38.667 60 -58 126 -58 198
c0 100.667 35.5 186.5 106.5 257.5s156.833 106.5 257.5 106.5c72 0 138 -19.333 198 -58l12 12c-63.333 42.667 -133.333 64 -210 64c-105.333 0 -195.333 -37.333 -270 -112s-112 -164.667 -112 -270c0 -76.667 21.333 -146.667 64 -210zM151.004 178.004l-13 -12.001
c4 -4.66699 7.66699 -9.66699 11 -15l13 13c-4 4.66699 -7.66699 9.33398 -11 14.001zM177.004 204.003l-13.001 -13l10 -14l13 12c-3.33301 5.33301 -6.66602 10.333 -9.99902 15zM202.003 230.003l-13 -13c4 -4.66699 7.66699 -9.66699 11 -15l13 13zM228.003 256.003
l-13.001 -13c3.33301 -5.33301 7 -10.333 11 -15l12 13c-3.33301 4.66699 -6.66602 9.66699 -9.99902 15zM568.002 595.003l-326 -326c2.66699 -5.33301 6 -10.333 10 -15l331 331c-4.66699 4 -9.66699 7.33301 -15 10zM594.002 622.003l-13 -13.001
c5.33301 -3.33301 10.333 -6.66602 15 -9.99902l13 12c-4.66699 4 -9.66699 7.66699 -15 11zM620.002 648.002l-13 -13l15 -11l13 13c-5.33301 3.33301 -10.333 7 -15 11zM646.002 673.002l-13 -13.001c4.66699 -3.33301 9.66699 -6.66602 15 -9.99902l12 13z
M671.002 699.001l-12.001 -13c4.66699 -3.33301 9.33398 -7 14.001 -11l13 13c-4.66699 4 -9.66699 7.66699 -15 11zM742.001 770.001l-57.001 -57.998c4.66699 -3.33301 9.33398 -7 14.001 -11l56 56l13 -13l-55 -55c4 -4 8.33301 -8 13 -12l54 55l13 -13l-55 -55
c4 -4 8 -8.33301 12 -13l56 55l13 -13l-57 -56c3.33301 -5.33301 7 -10.333 11 -15l58 59l13 -13l-61 -61c42 -66 63 -138 63 -216c0 -110.667 -39 -204.834 -117 -282.501s-172.333 -116.5 -283 -116.5c-78 0 -149.667 21 -215 63l-69 -69l-12 13l65 66
c-4.66699 3.33301 -9.33398 7 -14.001 11l-64 -64l-13 13l63 62l-14 12l-61 -62l-13 13l62 62c-4.66699 4 -9 8.33301 -13 13l-62 -62l-13 13l64 63l-12 14l-64 -65l-13 13l67 67c-45.333 67.333 -68 141.666 -68 222.999c0 110.667 38.833 205 116.5 283
s171.834 117 282.501 117c82 0 156.667 -22.667 224 -68l60 60z" />
    </font>
</defs>
</svg>
